%TF.GenerationSoftware,KiCad,Pcbnew,7.0.1*%
%TF.CreationDate,2023-04-18T17:25:39+02:00*%
%TF.ProjectId,BME680_shield_panel,424d4536-3830-45f7-9368-69656c645f70,rev?*%
%TF.SameCoordinates,Original*%
%TF.FileFunction,Legend,Top*%
%TF.FilePolarity,Positive*%
%FSLAX46Y46*%
G04 Gerber Fmt 4.6, Leading zero omitted, Abs format (unit mm)*
G04 Created by KiCad (PCBNEW 7.0.1) date 2023-04-18 17:25:39*
%MOMM*%
%LPD*%
G01*
G04 APERTURE LIST*
%ADD10C,0.150000*%
%ADD11C,0.200000*%
%ADD12C,0.100000*%
%ADD13C,0.325000*%
%ADD14C,0.120000*%
G04 APERTURE END LIST*
D10*
X68428571Y-40766190D02*
X68285714Y-40718571D01*
X68285714Y-40718571D02*
X68238095Y-40670952D01*
X68238095Y-40670952D02*
X68190476Y-40575714D01*
X68190476Y-40575714D02*
X68190476Y-40432857D01*
X68190476Y-40432857D02*
X68238095Y-40337619D01*
X68238095Y-40337619D02*
X68285714Y-40290000D01*
X68285714Y-40290000D02*
X68380952Y-40242380D01*
X68380952Y-40242380D02*
X68761904Y-40242380D01*
X68761904Y-40242380D02*
X68761904Y-41242380D01*
X68761904Y-41242380D02*
X68428571Y-41242380D01*
X68428571Y-41242380D02*
X68333333Y-41194761D01*
X68333333Y-41194761D02*
X68285714Y-41147142D01*
X68285714Y-41147142D02*
X68238095Y-41051904D01*
X68238095Y-41051904D02*
X68238095Y-40956666D01*
X68238095Y-40956666D02*
X68285714Y-40861428D01*
X68285714Y-40861428D02*
X68333333Y-40813809D01*
X68333333Y-40813809D02*
X68428571Y-40766190D01*
X68428571Y-40766190D02*
X68761904Y-40766190D01*
X67333333Y-40242380D02*
X67333333Y-40766190D01*
X67333333Y-40766190D02*
X67380952Y-40861428D01*
X67380952Y-40861428D02*
X67476190Y-40909047D01*
X67476190Y-40909047D02*
X67666666Y-40909047D01*
X67666666Y-40909047D02*
X67761904Y-40861428D01*
X67333333Y-40290000D02*
X67428571Y-40242380D01*
X67428571Y-40242380D02*
X67666666Y-40242380D01*
X67666666Y-40242380D02*
X67761904Y-40290000D01*
X67761904Y-40290000D02*
X67809523Y-40385238D01*
X67809523Y-40385238D02*
X67809523Y-40480476D01*
X67809523Y-40480476D02*
X67761904Y-40575714D01*
X67761904Y-40575714D02*
X67666666Y-40623333D01*
X67666666Y-40623333D02*
X67428571Y-40623333D01*
X67428571Y-40623333D02*
X67333333Y-40670952D01*
X66999999Y-40909047D02*
X66619047Y-40909047D01*
X66857142Y-41242380D02*
X66857142Y-40385238D01*
X66857142Y-40385238D02*
X66809523Y-40290000D01*
X66809523Y-40290000D02*
X66714285Y-40242380D01*
X66714285Y-40242380D02*
X66619047Y-40242380D01*
X66428570Y-40909047D02*
X66047618Y-40909047D01*
X66285713Y-41242380D02*
X66285713Y-40385238D01*
X66285713Y-40385238D02*
X66238094Y-40290000D01*
X66238094Y-40290000D02*
X66142856Y-40242380D01*
X66142856Y-40242380D02*
X66047618Y-40242380D01*
X65333332Y-40290000D02*
X65428570Y-40242380D01*
X65428570Y-40242380D02*
X65619046Y-40242380D01*
X65619046Y-40242380D02*
X65714284Y-40290000D01*
X65714284Y-40290000D02*
X65761903Y-40385238D01*
X65761903Y-40385238D02*
X65761903Y-40766190D01*
X65761903Y-40766190D02*
X65714284Y-40861428D01*
X65714284Y-40861428D02*
X65619046Y-40909047D01*
X65619046Y-40909047D02*
X65428570Y-40909047D01*
X65428570Y-40909047D02*
X65333332Y-40861428D01*
X65333332Y-40861428D02*
X65285713Y-40766190D01*
X65285713Y-40766190D02*
X65285713Y-40670952D01*
X65285713Y-40670952D02*
X65761903Y-40575714D01*
X64857141Y-40242380D02*
X64857141Y-40909047D01*
X64857141Y-40718571D02*
X64809522Y-40813809D01*
X64809522Y-40813809D02*
X64761903Y-40861428D01*
X64761903Y-40861428D02*
X64666665Y-40909047D01*
X64666665Y-40909047D02*
X64571427Y-40909047D01*
X64333331Y-40909047D02*
X64095236Y-40242380D01*
X63857141Y-40909047D02*
X64095236Y-40242380D01*
X64095236Y-40242380D02*
X64190474Y-40004285D01*
X64190474Y-40004285D02*
X64238093Y-39956666D01*
X64238093Y-39956666D02*
X64333331Y-39909047D01*
X68761904Y-38622380D02*
X68761904Y-39622380D01*
X68761904Y-39622380D02*
X68428571Y-38908095D01*
X68428571Y-38908095D02*
X68095238Y-39622380D01*
X68095238Y-39622380D02*
X68095238Y-38622380D01*
X67476190Y-38622380D02*
X67571428Y-38670000D01*
X67571428Y-38670000D02*
X67619047Y-38717619D01*
X67619047Y-38717619D02*
X67666666Y-38812857D01*
X67666666Y-38812857D02*
X67666666Y-39098571D01*
X67666666Y-39098571D02*
X67619047Y-39193809D01*
X67619047Y-39193809D02*
X67571428Y-39241428D01*
X67571428Y-39241428D02*
X67476190Y-39289047D01*
X67476190Y-39289047D02*
X67333333Y-39289047D01*
X67333333Y-39289047D02*
X67238095Y-39241428D01*
X67238095Y-39241428D02*
X67190476Y-39193809D01*
X67190476Y-39193809D02*
X67142857Y-39098571D01*
X67142857Y-39098571D02*
X67142857Y-38812857D01*
X67142857Y-38812857D02*
X67190476Y-38717619D01*
X67190476Y-38717619D02*
X67238095Y-38670000D01*
X67238095Y-38670000D02*
X67333333Y-38622380D01*
X67333333Y-38622380D02*
X67476190Y-38622380D01*
X66285714Y-38622380D02*
X66285714Y-39622380D01*
X66285714Y-38670000D02*
X66380952Y-38622380D01*
X66380952Y-38622380D02*
X66571428Y-38622380D01*
X66571428Y-38622380D02*
X66666666Y-38670000D01*
X66666666Y-38670000D02*
X66714285Y-38717619D01*
X66714285Y-38717619D02*
X66761904Y-38812857D01*
X66761904Y-38812857D02*
X66761904Y-39098571D01*
X66761904Y-39098571D02*
X66714285Y-39193809D01*
X66714285Y-39193809D02*
X66666666Y-39241428D01*
X66666666Y-39241428D02*
X66571428Y-39289047D01*
X66571428Y-39289047D02*
X66380952Y-39289047D01*
X66380952Y-39289047D02*
X66285714Y-39241428D01*
X65428571Y-38670000D02*
X65523809Y-38622380D01*
X65523809Y-38622380D02*
X65714285Y-38622380D01*
X65714285Y-38622380D02*
X65809523Y-38670000D01*
X65809523Y-38670000D02*
X65857142Y-38765238D01*
X65857142Y-38765238D02*
X65857142Y-39146190D01*
X65857142Y-39146190D02*
X65809523Y-39241428D01*
X65809523Y-39241428D02*
X65714285Y-39289047D01*
X65714285Y-39289047D02*
X65523809Y-39289047D01*
X65523809Y-39289047D02*
X65428571Y-39241428D01*
X65428571Y-39241428D02*
X65380952Y-39146190D01*
X65380952Y-39146190D02*
X65380952Y-39050952D01*
X65380952Y-39050952D02*
X65857142Y-38955714D01*
D11*
X80271428Y-34148000D02*
X80100000Y-34090857D01*
X80100000Y-34090857D02*
X79814285Y-34090857D01*
X79814285Y-34090857D02*
X79700000Y-34148000D01*
X79700000Y-34148000D02*
X79642857Y-34205142D01*
X79642857Y-34205142D02*
X79585714Y-34319428D01*
X79585714Y-34319428D02*
X79585714Y-34433714D01*
X79585714Y-34433714D02*
X79642857Y-34548000D01*
X79642857Y-34548000D02*
X79700000Y-34605142D01*
X79700000Y-34605142D02*
X79814285Y-34662285D01*
X79814285Y-34662285D02*
X80042857Y-34719428D01*
X80042857Y-34719428D02*
X80157142Y-34776571D01*
X80157142Y-34776571D02*
X80214285Y-34833714D01*
X80214285Y-34833714D02*
X80271428Y-34948000D01*
X80271428Y-34948000D02*
X80271428Y-35062285D01*
X80271428Y-35062285D02*
X80214285Y-35176571D01*
X80214285Y-35176571D02*
X80157142Y-35233714D01*
X80157142Y-35233714D02*
X80042857Y-35290857D01*
X80042857Y-35290857D02*
X79757142Y-35290857D01*
X79757142Y-35290857D02*
X79585714Y-35233714D01*
X78614285Y-34148000D02*
X78728571Y-34090857D01*
X78728571Y-34090857D02*
X78957143Y-34090857D01*
X78957143Y-34090857D02*
X79071428Y-34148000D01*
X79071428Y-34148000D02*
X79128571Y-34262285D01*
X79128571Y-34262285D02*
X79128571Y-34719428D01*
X79128571Y-34719428D02*
X79071428Y-34833714D01*
X79071428Y-34833714D02*
X78957143Y-34890857D01*
X78957143Y-34890857D02*
X78728571Y-34890857D01*
X78728571Y-34890857D02*
X78614285Y-34833714D01*
X78614285Y-34833714D02*
X78557143Y-34719428D01*
X78557143Y-34719428D02*
X78557143Y-34605142D01*
X78557143Y-34605142D02*
X79128571Y-34490857D01*
X78042857Y-34890857D02*
X78042857Y-34090857D01*
X78042857Y-34776571D02*
X77985714Y-34833714D01*
X77985714Y-34833714D02*
X77871429Y-34890857D01*
X77871429Y-34890857D02*
X77700000Y-34890857D01*
X77700000Y-34890857D02*
X77585714Y-34833714D01*
X77585714Y-34833714D02*
X77528572Y-34719428D01*
X77528572Y-34719428D02*
X77528572Y-34090857D01*
X77014286Y-34148000D02*
X76900000Y-34090857D01*
X76900000Y-34090857D02*
X76671429Y-34090857D01*
X76671429Y-34090857D02*
X76557143Y-34148000D01*
X76557143Y-34148000D02*
X76500000Y-34262285D01*
X76500000Y-34262285D02*
X76500000Y-34319428D01*
X76500000Y-34319428D02*
X76557143Y-34433714D01*
X76557143Y-34433714D02*
X76671429Y-34490857D01*
X76671429Y-34490857D02*
X76842858Y-34490857D01*
X76842858Y-34490857D02*
X76957143Y-34548000D01*
X76957143Y-34548000D02*
X77014286Y-34662285D01*
X77014286Y-34662285D02*
X77014286Y-34719428D01*
X77014286Y-34719428D02*
X76957143Y-34833714D01*
X76957143Y-34833714D02*
X76842858Y-34890857D01*
X76842858Y-34890857D02*
X76671429Y-34890857D01*
X76671429Y-34890857D02*
X76557143Y-34833714D01*
X75814286Y-34090857D02*
X75928571Y-34148000D01*
X75928571Y-34148000D02*
X75985714Y-34205142D01*
X75985714Y-34205142D02*
X76042857Y-34319428D01*
X76042857Y-34319428D02*
X76042857Y-34662285D01*
X76042857Y-34662285D02*
X75985714Y-34776571D01*
X75985714Y-34776571D02*
X75928571Y-34833714D01*
X75928571Y-34833714D02*
X75814286Y-34890857D01*
X75814286Y-34890857D02*
X75642857Y-34890857D01*
X75642857Y-34890857D02*
X75528571Y-34833714D01*
X75528571Y-34833714D02*
X75471429Y-34776571D01*
X75471429Y-34776571D02*
X75414286Y-34662285D01*
X75414286Y-34662285D02*
X75414286Y-34319428D01*
X75414286Y-34319428D02*
X75471429Y-34205142D01*
X75471429Y-34205142D02*
X75528571Y-34148000D01*
X75528571Y-34148000D02*
X75642857Y-34090857D01*
X75642857Y-34090857D02*
X75814286Y-34090857D01*
X74900000Y-34090857D02*
X74900000Y-34890857D01*
X74900000Y-34662285D02*
X74842857Y-34776571D01*
X74842857Y-34776571D02*
X74785715Y-34833714D01*
X74785715Y-34833714D02*
X74671429Y-34890857D01*
X74671429Y-34890857D02*
X74557143Y-34890857D01*
X73528572Y-34090857D02*
X74214286Y-34090857D01*
X73871429Y-34090857D02*
X73871429Y-35290857D01*
X73871429Y-35290857D02*
X73985715Y-35119428D01*
X73985715Y-35119428D02*
X74100000Y-35005142D01*
X74100000Y-35005142D02*
X74214286Y-34948000D01*
X80271428Y-32489714D02*
X79700000Y-32489714D01*
X80385714Y-32146857D02*
X79985714Y-33346857D01*
X79985714Y-33346857D02*
X79585714Y-32146857D01*
X78671429Y-32146857D02*
X78671429Y-33346857D01*
X78671429Y-32204000D02*
X78785714Y-32146857D01*
X78785714Y-32146857D02*
X79014286Y-32146857D01*
X79014286Y-32146857D02*
X79128571Y-32204000D01*
X79128571Y-32204000D02*
X79185714Y-32261142D01*
X79185714Y-32261142D02*
X79242857Y-32375428D01*
X79242857Y-32375428D02*
X79242857Y-32718285D01*
X79242857Y-32718285D02*
X79185714Y-32832571D01*
X79185714Y-32832571D02*
X79128571Y-32889714D01*
X79128571Y-32889714D02*
X79014286Y-32946857D01*
X79014286Y-32946857D02*
X78785714Y-32946857D01*
X78785714Y-32946857D02*
X78671429Y-32889714D01*
X77585715Y-32146857D02*
X77585715Y-33346857D01*
X77585715Y-32204000D02*
X77700000Y-32146857D01*
X77700000Y-32146857D02*
X77928572Y-32146857D01*
X77928572Y-32146857D02*
X78042857Y-32204000D01*
X78042857Y-32204000D02*
X78100000Y-32261142D01*
X78100000Y-32261142D02*
X78157143Y-32375428D01*
X78157143Y-32375428D02*
X78157143Y-32718285D01*
X78157143Y-32718285D02*
X78100000Y-32832571D01*
X78100000Y-32832571D02*
X78042857Y-32889714D01*
X78042857Y-32889714D02*
X77928572Y-32946857D01*
X77928572Y-32946857D02*
X77700000Y-32946857D01*
X77700000Y-32946857D02*
X77585715Y-32889714D01*
X77014286Y-32146857D02*
X77014286Y-32946857D01*
X77014286Y-32718285D02*
X76957143Y-32832571D01*
X76957143Y-32832571D02*
X76900001Y-32889714D01*
X76900001Y-32889714D02*
X76785715Y-32946857D01*
X76785715Y-32946857D02*
X76671429Y-32946857D01*
X75814286Y-32204000D02*
X75928572Y-32146857D01*
X75928572Y-32146857D02*
X76157144Y-32146857D01*
X76157144Y-32146857D02*
X76271429Y-32204000D01*
X76271429Y-32204000D02*
X76328572Y-32318285D01*
X76328572Y-32318285D02*
X76328572Y-32775428D01*
X76328572Y-32775428D02*
X76271429Y-32889714D01*
X76271429Y-32889714D02*
X76157144Y-32946857D01*
X76157144Y-32946857D02*
X75928572Y-32946857D01*
X75928572Y-32946857D02*
X75814286Y-32889714D01*
X75814286Y-32889714D02*
X75757144Y-32775428D01*
X75757144Y-32775428D02*
X75757144Y-32661142D01*
X75757144Y-32661142D02*
X76328572Y-32546857D01*
X75300001Y-32204000D02*
X75185715Y-32146857D01*
X75185715Y-32146857D02*
X74957144Y-32146857D01*
X74957144Y-32146857D02*
X74842858Y-32204000D01*
X74842858Y-32204000D02*
X74785715Y-32318285D01*
X74785715Y-32318285D02*
X74785715Y-32375428D01*
X74785715Y-32375428D02*
X74842858Y-32489714D01*
X74842858Y-32489714D02*
X74957144Y-32546857D01*
X74957144Y-32546857D02*
X75128573Y-32546857D01*
X75128573Y-32546857D02*
X75242858Y-32604000D01*
X75242858Y-32604000D02*
X75300001Y-32718285D01*
X75300001Y-32718285D02*
X75300001Y-32775428D01*
X75300001Y-32775428D02*
X75242858Y-32889714D01*
X75242858Y-32889714D02*
X75128573Y-32946857D01*
X75128573Y-32946857D02*
X74957144Y-32946857D01*
X74957144Y-32946857D02*
X74842858Y-32889714D01*
X74328572Y-32204000D02*
X74214286Y-32146857D01*
X74214286Y-32146857D02*
X73985715Y-32146857D01*
X73985715Y-32146857D02*
X73871429Y-32204000D01*
X73871429Y-32204000D02*
X73814286Y-32318285D01*
X73814286Y-32318285D02*
X73814286Y-32375428D01*
X73814286Y-32375428D02*
X73871429Y-32489714D01*
X73871429Y-32489714D02*
X73985715Y-32546857D01*
X73985715Y-32546857D02*
X74157144Y-32546857D01*
X74157144Y-32546857D02*
X74271429Y-32604000D01*
X74271429Y-32604000D02*
X74328572Y-32718285D01*
X74328572Y-32718285D02*
X74328572Y-32775428D01*
X74328572Y-32775428D02*
X74271429Y-32889714D01*
X74271429Y-32889714D02*
X74157144Y-32946857D01*
X74157144Y-32946857D02*
X73985715Y-32946857D01*
X73985715Y-32946857D02*
X73871429Y-32889714D01*
D10*
X60146190Y-47571428D02*
X60098571Y-47714285D01*
X60098571Y-47714285D02*
X60050952Y-47761904D01*
X60050952Y-47761904D02*
X59955714Y-47809523D01*
X59955714Y-47809523D02*
X59812857Y-47809523D01*
X59812857Y-47809523D02*
X59717619Y-47761904D01*
X59717619Y-47761904D02*
X59670000Y-47714285D01*
X59670000Y-47714285D02*
X59622380Y-47619047D01*
X59622380Y-47619047D02*
X59622380Y-47238095D01*
X59622380Y-47238095D02*
X60622380Y-47238095D01*
X60622380Y-47238095D02*
X60622380Y-47571428D01*
X60622380Y-47571428D02*
X60574761Y-47666666D01*
X60574761Y-47666666D02*
X60527142Y-47714285D01*
X60527142Y-47714285D02*
X60431904Y-47761904D01*
X60431904Y-47761904D02*
X60336666Y-47761904D01*
X60336666Y-47761904D02*
X60241428Y-47714285D01*
X60241428Y-47714285D02*
X60193809Y-47666666D01*
X60193809Y-47666666D02*
X60146190Y-47571428D01*
X60146190Y-47571428D02*
X60146190Y-47238095D01*
X59622380Y-48666666D02*
X60146190Y-48666666D01*
X60146190Y-48666666D02*
X60241428Y-48619047D01*
X60241428Y-48619047D02*
X60289047Y-48523809D01*
X60289047Y-48523809D02*
X60289047Y-48333333D01*
X60289047Y-48333333D02*
X60241428Y-48238095D01*
X59670000Y-48666666D02*
X59622380Y-48571428D01*
X59622380Y-48571428D02*
X59622380Y-48333333D01*
X59622380Y-48333333D02*
X59670000Y-48238095D01*
X59670000Y-48238095D02*
X59765238Y-48190476D01*
X59765238Y-48190476D02*
X59860476Y-48190476D01*
X59860476Y-48190476D02*
X59955714Y-48238095D01*
X59955714Y-48238095D02*
X60003333Y-48333333D01*
X60003333Y-48333333D02*
X60003333Y-48571428D01*
X60003333Y-48571428D02*
X60050952Y-48666666D01*
X60289047Y-49000000D02*
X60289047Y-49380952D01*
X60622380Y-49142857D02*
X59765238Y-49142857D01*
X59765238Y-49142857D02*
X59670000Y-49190476D01*
X59670000Y-49190476D02*
X59622380Y-49285714D01*
X59622380Y-49285714D02*
X59622380Y-49380952D01*
X60289047Y-49571429D02*
X60289047Y-49952381D01*
X60622380Y-49714286D02*
X59765238Y-49714286D01*
X59765238Y-49714286D02*
X59670000Y-49761905D01*
X59670000Y-49761905D02*
X59622380Y-49857143D01*
X59622380Y-49857143D02*
X59622380Y-49952381D01*
D11*
X60170000Y-34940476D02*
X60122380Y-35083333D01*
X60122380Y-35083333D02*
X60122380Y-35321428D01*
X60122380Y-35321428D02*
X60170000Y-35416666D01*
X60170000Y-35416666D02*
X60217619Y-35464285D01*
X60217619Y-35464285D02*
X60312857Y-35511904D01*
X60312857Y-35511904D02*
X60408095Y-35511904D01*
X60408095Y-35511904D02*
X60503333Y-35464285D01*
X60503333Y-35464285D02*
X60550952Y-35416666D01*
X60550952Y-35416666D02*
X60598571Y-35321428D01*
X60598571Y-35321428D02*
X60646190Y-35130952D01*
X60646190Y-35130952D02*
X60693809Y-35035714D01*
X60693809Y-35035714D02*
X60741428Y-34988095D01*
X60741428Y-34988095D02*
X60836666Y-34940476D01*
X60836666Y-34940476D02*
X60931904Y-34940476D01*
X60931904Y-34940476D02*
X61027142Y-34988095D01*
X61027142Y-34988095D02*
X61074761Y-35035714D01*
X61074761Y-35035714D02*
X61122380Y-35130952D01*
X61122380Y-35130952D02*
X61122380Y-35369047D01*
X61122380Y-35369047D02*
X61074761Y-35511904D01*
X60217619Y-36511904D02*
X60170000Y-36464285D01*
X60170000Y-36464285D02*
X60122380Y-36321428D01*
X60122380Y-36321428D02*
X60122380Y-36226190D01*
X60122380Y-36226190D02*
X60170000Y-36083333D01*
X60170000Y-36083333D02*
X60265238Y-35988095D01*
X60265238Y-35988095D02*
X60360476Y-35940476D01*
X60360476Y-35940476D02*
X60550952Y-35892857D01*
X60550952Y-35892857D02*
X60693809Y-35892857D01*
X60693809Y-35892857D02*
X60884285Y-35940476D01*
X60884285Y-35940476D02*
X60979523Y-35988095D01*
X60979523Y-35988095D02*
X61074761Y-36083333D01*
X61074761Y-36083333D02*
X61122380Y-36226190D01*
X61122380Y-36226190D02*
X61122380Y-36321428D01*
X61122380Y-36321428D02*
X61074761Y-36464285D01*
X61074761Y-36464285D02*
X61027142Y-36511904D01*
X60122380Y-37416666D02*
X60122380Y-36940476D01*
X60122380Y-36940476D02*
X61122380Y-36940476D01*
X56214285Y-50104000D02*
X55300000Y-50104000D01*
X56214285Y-47604000D02*
X55300000Y-47604000D01*
X55757142Y-47146857D02*
X55757142Y-48061142D01*
X82271428Y-44648000D02*
X82100000Y-44590857D01*
X82100000Y-44590857D02*
X81814285Y-44590857D01*
X81814285Y-44590857D02*
X81700000Y-44648000D01*
X81700000Y-44648000D02*
X81642857Y-44705142D01*
X81642857Y-44705142D02*
X81585714Y-44819428D01*
X81585714Y-44819428D02*
X81585714Y-44933714D01*
X81585714Y-44933714D02*
X81642857Y-45048000D01*
X81642857Y-45048000D02*
X81700000Y-45105142D01*
X81700000Y-45105142D02*
X81814285Y-45162285D01*
X81814285Y-45162285D02*
X82042857Y-45219428D01*
X82042857Y-45219428D02*
X82157142Y-45276571D01*
X82157142Y-45276571D02*
X82214285Y-45333714D01*
X82214285Y-45333714D02*
X82271428Y-45448000D01*
X82271428Y-45448000D02*
X82271428Y-45562285D01*
X82271428Y-45562285D02*
X82214285Y-45676571D01*
X82214285Y-45676571D02*
X82157142Y-45733714D01*
X82157142Y-45733714D02*
X82042857Y-45790857D01*
X82042857Y-45790857D02*
X81757142Y-45790857D01*
X81757142Y-45790857D02*
X81585714Y-45733714D01*
X80614285Y-44648000D02*
X80728571Y-44590857D01*
X80728571Y-44590857D02*
X80957143Y-44590857D01*
X80957143Y-44590857D02*
X81071428Y-44648000D01*
X81071428Y-44648000D02*
X81128571Y-44762285D01*
X81128571Y-44762285D02*
X81128571Y-45219428D01*
X81128571Y-45219428D02*
X81071428Y-45333714D01*
X81071428Y-45333714D02*
X80957143Y-45390857D01*
X80957143Y-45390857D02*
X80728571Y-45390857D01*
X80728571Y-45390857D02*
X80614285Y-45333714D01*
X80614285Y-45333714D02*
X80557143Y-45219428D01*
X80557143Y-45219428D02*
X80557143Y-45105142D01*
X80557143Y-45105142D02*
X81128571Y-44990857D01*
X80042857Y-45390857D02*
X80042857Y-44590857D01*
X80042857Y-45276571D02*
X79985714Y-45333714D01*
X79985714Y-45333714D02*
X79871429Y-45390857D01*
X79871429Y-45390857D02*
X79700000Y-45390857D01*
X79700000Y-45390857D02*
X79585714Y-45333714D01*
X79585714Y-45333714D02*
X79528572Y-45219428D01*
X79528572Y-45219428D02*
X79528572Y-44590857D01*
X79014286Y-44648000D02*
X78900000Y-44590857D01*
X78900000Y-44590857D02*
X78671429Y-44590857D01*
X78671429Y-44590857D02*
X78557143Y-44648000D01*
X78557143Y-44648000D02*
X78500000Y-44762285D01*
X78500000Y-44762285D02*
X78500000Y-44819428D01*
X78500000Y-44819428D02*
X78557143Y-44933714D01*
X78557143Y-44933714D02*
X78671429Y-44990857D01*
X78671429Y-44990857D02*
X78842858Y-44990857D01*
X78842858Y-44990857D02*
X78957143Y-45048000D01*
X78957143Y-45048000D02*
X79014286Y-45162285D01*
X79014286Y-45162285D02*
X79014286Y-45219428D01*
X79014286Y-45219428D02*
X78957143Y-45333714D01*
X78957143Y-45333714D02*
X78842858Y-45390857D01*
X78842858Y-45390857D02*
X78671429Y-45390857D01*
X78671429Y-45390857D02*
X78557143Y-45333714D01*
X77814286Y-44590857D02*
X77928571Y-44648000D01*
X77928571Y-44648000D02*
X77985714Y-44705142D01*
X77985714Y-44705142D02*
X78042857Y-44819428D01*
X78042857Y-44819428D02*
X78042857Y-45162285D01*
X78042857Y-45162285D02*
X77985714Y-45276571D01*
X77985714Y-45276571D02*
X77928571Y-45333714D01*
X77928571Y-45333714D02*
X77814286Y-45390857D01*
X77814286Y-45390857D02*
X77642857Y-45390857D01*
X77642857Y-45390857D02*
X77528571Y-45333714D01*
X77528571Y-45333714D02*
X77471429Y-45276571D01*
X77471429Y-45276571D02*
X77414286Y-45162285D01*
X77414286Y-45162285D02*
X77414286Y-44819428D01*
X77414286Y-44819428D02*
X77471429Y-44705142D01*
X77471429Y-44705142D02*
X77528571Y-44648000D01*
X77528571Y-44648000D02*
X77642857Y-44590857D01*
X77642857Y-44590857D02*
X77814286Y-44590857D01*
X76900000Y-44590857D02*
X76900000Y-45390857D01*
X76900000Y-45162285D02*
X76842857Y-45276571D01*
X76842857Y-45276571D02*
X76785715Y-45333714D01*
X76785715Y-45333714D02*
X76671429Y-45390857D01*
X76671429Y-45390857D02*
X76557143Y-45390857D01*
X75928572Y-45790857D02*
X75814286Y-45790857D01*
X75814286Y-45790857D02*
X75700000Y-45733714D01*
X75700000Y-45733714D02*
X75642858Y-45676571D01*
X75642858Y-45676571D02*
X75585715Y-45562285D01*
X75585715Y-45562285D02*
X75528572Y-45333714D01*
X75528572Y-45333714D02*
X75528572Y-45048000D01*
X75528572Y-45048000D02*
X75585715Y-44819428D01*
X75585715Y-44819428D02*
X75642858Y-44705142D01*
X75642858Y-44705142D02*
X75700000Y-44648000D01*
X75700000Y-44648000D02*
X75814286Y-44590857D01*
X75814286Y-44590857D02*
X75928572Y-44590857D01*
X75928572Y-44590857D02*
X76042858Y-44648000D01*
X76042858Y-44648000D02*
X76100000Y-44705142D01*
X76100000Y-44705142D02*
X76157143Y-44819428D01*
X76157143Y-44819428D02*
X76214286Y-45048000D01*
X76214286Y-45048000D02*
X76214286Y-45333714D01*
X76214286Y-45333714D02*
X76157143Y-45562285D01*
X76157143Y-45562285D02*
X76100000Y-45676571D01*
X76100000Y-45676571D02*
X76042858Y-45733714D01*
X76042858Y-45733714D02*
X75928572Y-45790857D01*
X82271428Y-42989714D02*
X81700000Y-42989714D01*
X82385714Y-42646857D02*
X81985714Y-43846857D01*
X81985714Y-43846857D02*
X81585714Y-42646857D01*
X80671429Y-42646857D02*
X80671429Y-43846857D01*
X80671429Y-42704000D02*
X80785714Y-42646857D01*
X80785714Y-42646857D02*
X81014286Y-42646857D01*
X81014286Y-42646857D02*
X81128571Y-42704000D01*
X81128571Y-42704000D02*
X81185714Y-42761142D01*
X81185714Y-42761142D02*
X81242857Y-42875428D01*
X81242857Y-42875428D02*
X81242857Y-43218285D01*
X81242857Y-43218285D02*
X81185714Y-43332571D01*
X81185714Y-43332571D02*
X81128571Y-43389714D01*
X81128571Y-43389714D02*
X81014286Y-43446857D01*
X81014286Y-43446857D02*
X80785714Y-43446857D01*
X80785714Y-43446857D02*
X80671429Y-43389714D01*
X79585715Y-42646857D02*
X79585715Y-43846857D01*
X79585715Y-42704000D02*
X79700000Y-42646857D01*
X79700000Y-42646857D02*
X79928572Y-42646857D01*
X79928572Y-42646857D02*
X80042857Y-42704000D01*
X80042857Y-42704000D02*
X80100000Y-42761142D01*
X80100000Y-42761142D02*
X80157143Y-42875428D01*
X80157143Y-42875428D02*
X80157143Y-43218285D01*
X80157143Y-43218285D02*
X80100000Y-43332571D01*
X80100000Y-43332571D02*
X80042857Y-43389714D01*
X80042857Y-43389714D02*
X79928572Y-43446857D01*
X79928572Y-43446857D02*
X79700000Y-43446857D01*
X79700000Y-43446857D02*
X79585715Y-43389714D01*
X79014286Y-42646857D02*
X79014286Y-43446857D01*
X79014286Y-43218285D02*
X78957143Y-43332571D01*
X78957143Y-43332571D02*
X78900001Y-43389714D01*
X78900001Y-43389714D02*
X78785715Y-43446857D01*
X78785715Y-43446857D02*
X78671429Y-43446857D01*
X77814286Y-42704000D02*
X77928572Y-42646857D01*
X77928572Y-42646857D02*
X78157144Y-42646857D01*
X78157144Y-42646857D02*
X78271429Y-42704000D01*
X78271429Y-42704000D02*
X78328572Y-42818285D01*
X78328572Y-42818285D02*
X78328572Y-43275428D01*
X78328572Y-43275428D02*
X78271429Y-43389714D01*
X78271429Y-43389714D02*
X78157144Y-43446857D01*
X78157144Y-43446857D02*
X77928572Y-43446857D01*
X77928572Y-43446857D02*
X77814286Y-43389714D01*
X77814286Y-43389714D02*
X77757144Y-43275428D01*
X77757144Y-43275428D02*
X77757144Y-43161142D01*
X77757144Y-43161142D02*
X78328572Y-43046857D01*
X77300001Y-42704000D02*
X77185715Y-42646857D01*
X77185715Y-42646857D02*
X76957144Y-42646857D01*
X76957144Y-42646857D02*
X76842858Y-42704000D01*
X76842858Y-42704000D02*
X76785715Y-42818285D01*
X76785715Y-42818285D02*
X76785715Y-42875428D01*
X76785715Y-42875428D02*
X76842858Y-42989714D01*
X76842858Y-42989714D02*
X76957144Y-43046857D01*
X76957144Y-43046857D02*
X77128573Y-43046857D01*
X77128573Y-43046857D02*
X77242858Y-43104000D01*
X77242858Y-43104000D02*
X77300001Y-43218285D01*
X77300001Y-43218285D02*
X77300001Y-43275428D01*
X77300001Y-43275428D02*
X77242858Y-43389714D01*
X77242858Y-43389714D02*
X77128573Y-43446857D01*
X77128573Y-43446857D02*
X76957144Y-43446857D01*
X76957144Y-43446857D02*
X76842858Y-43389714D01*
X76328572Y-42704000D02*
X76214286Y-42646857D01*
X76214286Y-42646857D02*
X75985715Y-42646857D01*
X75985715Y-42646857D02*
X75871429Y-42704000D01*
X75871429Y-42704000D02*
X75814286Y-42818285D01*
X75814286Y-42818285D02*
X75814286Y-42875428D01*
X75814286Y-42875428D02*
X75871429Y-42989714D01*
X75871429Y-42989714D02*
X75985715Y-43046857D01*
X75985715Y-43046857D02*
X76157144Y-43046857D01*
X76157144Y-43046857D02*
X76271429Y-43104000D01*
X76271429Y-43104000D02*
X76328572Y-43218285D01*
X76328572Y-43218285D02*
X76328572Y-43275428D01*
X76328572Y-43275428D02*
X76271429Y-43389714D01*
X76271429Y-43389714D02*
X76157144Y-43446857D01*
X76157144Y-43446857D02*
X75985715Y-43446857D01*
X75985715Y-43446857D02*
X75871429Y-43389714D01*
X62670000Y-34940476D02*
X62622380Y-35083333D01*
X62622380Y-35083333D02*
X62622380Y-35321428D01*
X62622380Y-35321428D02*
X62670000Y-35416666D01*
X62670000Y-35416666D02*
X62717619Y-35464285D01*
X62717619Y-35464285D02*
X62812857Y-35511904D01*
X62812857Y-35511904D02*
X62908095Y-35511904D01*
X62908095Y-35511904D02*
X63003333Y-35464285D01*
X63003333Y-35464285D02*
X63050952Y-35416666D01*
X63050952Y-35416666D02*
X63098571Y-35321428D01*
X63098571Y-35321428D02*
X63146190Y-35130952D01*
X63146190Y-35130952D02*
X63193809Y-35035714D01*
X63193809Y-35035714D02*
X63241428Y-34988095D01*
X63241428Y-34988095D02*
X63336666Y-34940476D01*
X63336666Y-34940476D02*
X63431904Y-34940476D01*
X63431904Y-34940476D02*
X63527142Y-34988095D01*
X63527142Y-34988095D02*
X63574761Y-35035714D01*
X63574761Y-35035714D02*
X63622380Y-35130952D01*
X63622380Y-35130952D02*
X63622380Y-35369047D01*
X63622380Y-35369047D02*
X63574761Y-35511904D01*
X62622380Y-35940476D02*
X63622380Y-35940476D01*
X63622380Y-35940476D02*
X63622380Y-36178571D01*
X63622380Y-36178571D02*
X63574761Y-36321428D01*
X63574761Y-36321428D02*
X63479523Y-36416666D01*
X63479523Y-36416666D02*
X63384285Y-36464285D01*
X63384285Y-36464285D02*
X63193809Y-36511904D01*
X63193809Y-36511904D02*
X63050952Y-36511904D01*
X63050952Y-36511904D02*
X62860476Y-36464285D01*
X62860476Y-36464285D02*
X62765238Y-36416666D01*
X62765238Y-36416666D02*
X62670000Y-36321428D01*
X62670000Y-36321428D02*
X62622380Y-36178571D01*
X62622380Y-36178571D02*
X62622380Y-35940476D01*
X62908095Y-36892857D02*
X62908095Y-37369047D01*
X62622380Y-36797619D02*
X63622380Y-37130952D01*
X63622380Y-37130952D02*
X62622380Y-37464285D01*
D10*
X69500000Y-50500000D02*
G75*
G03*
X69500000Y-50500000I-500000J0D01*
G01*
X59000000Y-51500000D02*
X54500000Y-51500000D01*
X54500000Y-46000000D01*
X59000000Y-46000000D01*
X59000000Y-51500000D01*
X74500000Y-42000000D02*
X74500000Y-51000000D01*
D12*
X88750000Y-43000000D02*
G75*
G03*
X88750000Y-43000000I-250000J0D01*
G01*
D10*
X76000000Y-36500000D02*
X70000000Y-36500000D01*
D13*
X86412500Y-40500000D02*
G75*
G03*
X86412500Y-40500000I-162500J0D01*
G01*
D10*
X83000000Y-46000000D02*
X83000000Y-42000000D01*
X69500000Y-44000000D02*
X63500000Y-44000000D01*
X63500000Y-38000000D01*
X69500000Y-38000000D01*
X69500000Y-44000000D01*
X81000000Y-31500000D02*
X74500000Y-31500000D01*
X70000000Y-36500000D02*
X70000000Y-32000000D01*
X81000000Y-36500000D02*
X81000000Y-31500000D01*
X83000000Y-42000000D02*
X74500000Y-42000000D01*
X74500000Y-51000000D02*
X82500000Y-51000000D01*
X80000000Y-36500000D02*
X81000000Y-36500000D01*
X68428571Y-67766190D02*
X68285714Y-67718571D01*
X68285714Y-67718571D02*
X68238095Y-67670952D01*
X68238095Y-67670952D02*
X68190476Y-67575714D01*
X68190476Y-67575714D02*
X68190476Y-67432857D01*
X68190476Y-67432857D02*
X68238095Y-67337619D01*
X68238095Y-67337619D02*
X68285714Y-67290000D01*
X68285714Y-67290000D02*
X68380952Y-67242380D01*
X68380952Y-67242380D02*
X68761904Y-67242380D01*
X68761904Y-67242380D02*
X68761904Y-68242380D01*
X68761904Y-68242380D02*
X68428571Y-68242380D01*
X68428571Y-68242380D02*
X68333333Y-68194761D01*
X68333333Y-68194761D02*
X68285714Y-68147142D01*
X68285714Y-68147142D02*
X68238095Y-68051904D01*
X68238095Y-68051904D02*
X68238095Y-67956666D01*
X68238095Y-67956666D02*
X68285714Y-67861428D01*
X68285714Y-67861428D02*
X68333333Y-67813809D01*
X68333333Y-67813809D02*
X68428571Y-67766190D01*
X68428571Y-67766190D02*
X68761904Y-67766190D01*
X67333333Y-67242380D02*
X67333333Y-67766190D01*
X67333333Y-67766190D02*
X67380952Y-67861428D01*
X67380952Y-67861428D02*
X67476190Y-67909047D01*
X67476190Y-67909047D02*
X67666666Y-67909047D01*
X67666666Y-67909047D02*
X67761904Y-67861428D01*
X67333333Y-67290000D02*
X67428571Y-67242380D01*
X67428571Y-67242380D02*
X67666666Y-67242380D01*
X67666666Y-67242380D02*
X67761904Y-67290000D01*
X67761904Y-67290000D02*
X67809523Y-67385238D01*
X67809523Y-67385238D02*
X67809523Y-67480476D01*
X67809523Y-67480476D02*
X67761904Y-67575714D01*
X67761904Y-67575714D02*
X67666666Y-67623333D01*
X67666666Y-67623333D02*
X67428571Y-67623333D01*
X67428571Y-67623333D02*
X67333333Y-67670952D01*
X66999999Y-67909047D02*
X66619047Y-67909047D01*
X66857142Y-68242380D02*
X66857142Y-67385238D01*
X66857142Y-67385238D02*
X66809523Y-67290000D01*
X66809523Y-67290000D02*
X66714285Y-67242380D01*
X66714285Y-67242380D02*
X66619047Y-67242380D01*
X66428570Y-67909047D02*
X66047618Y-67909047D01*
X66285713Y-68242380D02*
X66285713Y-67385238D01*
X66285713Y-67385238D02*
X66238094Y-67290000D01*
X66238094Y-67290000D02*
X66142856Y-67242380D01*
X66142856Y-67242380D02*
X66047618Y-67242380D01*
X65333332Y-67290000D02*
X65428570Y-67242380D01*
X65428570Y-67242380D02*
X65619046Y-67242380D01*
X65619046Y-67242380D02*
X65714284Y-67290000D01*
X65714284Y-67290000D02*
X65761903Y-67385238D01*
X65761903Y-67385238D02*
X65761903Y-67766190D01*
X65761903Y-67766190D02*
X65714284Y-67861428D01*
X65714284Y-67861428D02*
X65619046Y-67909047D01*
X65619046Y-67909047D02*
X65428570Y-67909047D01*
X65428570Y-67909047D02*
X65333332Y-67861428D01*
X65333332Y-67861428D02*
X65285713Y-67766190D01*
X65285713Y-67766190D02*
X65285713Y-67670952D01*
X65285713Y-67670952D02*
X65761903Y-67575714D01*
X64857141Y-67242380D02*
X64857141Y-67909047D01*
X64857141Y-67718571D02*
X64809522Y-67813809D01*
X64809522Y-67813809D02*
X64761903Y-67861428D01*
X64761903Y-67861428D02*
X64666665Y-67909047D01*
X64666665Y-67909047D02*
X64571427Y-67909047D01*
X64333331Y-67909047D02*
X64095236Y-67242380D01*
X63857141Y-67909047D02*
X64095236Y-67242380D01*
X64095236Y-67242380D02*
X64190474Y-67004285D01*
X64190474Y-67004285D02*
X64238093Y-66956666D01*
X64238093Y-66956666D02*
X64333331Y-66909047D01*
X68761904Y-65622380D02*
X68761904Y-66622380D01*
X68761904Y-66622380D02*
X68428571Y-65908095D01*
X68428571Y-65908095D02*
X68095238Y-66622380D01*
X68095238Y-66622380D02*
X68095238Y-65622380D01*
X67476190Y-65622380D02*
X67571428Y-65670000D01*
X67571428Y-65670000D02*
X67619047Y-65717619D01*
X67619047Y-65717619D02*
X67666666Y-65812857D01*
X67666666Y-65812857D02*
X67666666Y-66098571D01*
X67666666Y-66098571D02*
X67619047Y-66193809D01*
X67619047Y-66193809D02*
X67571428Y-66241428D01*
X67571428Y-66241428D02*
X67476190Y-66289047D01*
X67476190Y-66289047D02*
X67333333Y-66289047D01*
X67333333Y-66289047D02*
X67238095Y-66241428D01*
X67238095Y-66241428D02*
X67190476Y-66193809D01*
X67190476Y-66193809D02*
X67142857Y-66098571D01*
X67142857Y-66098571D02*
X67142857Y-65812857D01*
X67142857Y-65812857D02*
X67190476Y-65717619D01*
X67190476Y-65717619D02*
X67238095Y-65670000D01*
X67238095Y-65670000D02*
X67333333Y-65622380D01*
X67333333Y-65622380D02*
X67476190Y-65622380D01*
X66285714Y-65622380D02*
X66285714Y-66622380D01*
X66285714Y-65670000D02*
X66380952Y-65622380D01*
X66380952Y-65622380D02*
X66571428Y-65622380D01*
X66571428Y-65622380D02*
X66666666Y-65670000D01*
X66666666Y-65670000D02*
X66714285Y-65717619D01*
X66714285Y-65717619D02*
X66761904Y-65812857D01*
X66761904Y-65812857D02*
X66761904Y-66098571D01*
X66761904Y-66098571D02*
X66714285Y-66193809D01*
X66714285Y-66193809D02*
X66666666Y-66241428D01*
X66666666Y-66241428D02*
X66571428Y-66289047D01*
X66571428Y-66289047D02*
X66380952Y-66289047D01*
X66380952Y-66289047D02*
X66285714Y-66241428D01*
X65428571Y-65670000D02*
X65523809Y-65622380D01*
X65523809Y-65622380D02*
X65714285Y-65622380D01*
X65714285Y-65622380D02*
X65809523Y-65670000D01*
X65809523Y-65670000D02*
X65857142Y-65765238D01*
X65857142Y-65765238D02*
X65857142Y-66146190D01*
X65857142Y-66146190D02*
X65809523Y-66241428D01*
X65809523Y-66241428D02*
X65714285Y-66289047D01*
X65714285Y-66289047D02*
X65523809Y-66289047D01*
X65523809Y-66289047D02*
X65428571Y-66241428D01*
X65428571Y-66241428D02*
X65380952Y-66146190D01*
X65380952Y-66146190D02*
X65380952Y-66050952D01*
X65380952Y-66050952D02*
X65857142Y-65955714D01*
D11*
X80271428Y-61148000D02*
X80100000Y-61090857D01*
X80100000Y-61090857D02*
X79814285Y-61090857D01*
X79814285Y-61090857D02*
X79700000Y-61148000D01*
X79700000Y-61148000D02*
X79642857Y-61205142D01*
X79642857Y-61205142D02*
X79585714Y-61319428D01*
X79585714Y-61319428D02*
X79585714Y-61433714D01*
X79585714Y-61433714D02*
X79642857Y-61548000D01*
X79642857Y-61548000D02*
X79700000Y-61605142D01*
X79700000Y-61605142D02*
X79814285Y-61662285D01*
X79814285Y-61662285D02*
X80042857Y-61719428D01*
X80042857Y-61719428D02*
X80157142Y-61776571D01*
X80157142Y-61776571D02*
X80214285Y-61833714D01*
X80214285Y-61833714D02*
X80271428Y-61948000D01*
X80271428Y-61948000D02*
X80271428Y-62062285D01*
X80271428Y-62062285D02*
X80214285Y-62176571D01*
X80214285Y-62176571D02*
X80157142Y-62233714D01*
X80157142Y-62233714D02*
X80042857Y-62290857D01*
X80042857Y-62290857D02*
X79757142Y-62290857D01*
X79757142Y-62290857D02*
X79585714Y-62233714D01*
X78614285Y-61148000D02*
X78728571Y-61090857D01*
X78728571Y-61090857D02*
X78957143Y-61090857D01*
X78957143Y-61090857D02*
X79071428Y-61148000D01*
X79071428Y-61148000D02*
X79128571Y-61262285D01*
X79128571Y-61262285D02*
X79128571Y-61719428D01*
X79128571Y-61719428D02*
X79071428Y-61833714D01*
X79071428Y-61833714D02*
X78957143Y-61890857D01*
X78957143Y-61890857D02*
X78728571Y-61890857D01*
X78728571Y-61890857D02*
X78614285Y-61833714D01*
X78614285Y-61833714D02*
X78557143Y-61719428D01*
X78557143Y-61719428D02*
X78557143Y-61605142D01*
X78557143Y-61605142D02*
X79128571Y-61490857D01*
X78042857Y-61890857D02*
X78042857Y-61090857D01*
X78042857Y-61776571D02*
X77985714Y-61833714D01*
X77985714Y-61833714D02*
X77871429Y-61890857D01*
X77871429Y-61890857D02*
X77700000Y-61890857D01*
X77700000Y-61890857D02*
X77585714Y-61833714D01*
X77585714Y-61833714D02*
X77528572Y-61719428D01*
X77528572Y-61719428D02*
X77528572Y-61090857D01*
X77014286Y-61148000D02*
X76900000Y-61090857D01*
X76900000Y-61090857D02*
X76671429Y-61090857D01*
X76671429Y-61090857D02*
X76557143Y-61148000D01*
X76557143Y-61148000D02*
X76500000Y-61262285D01*
X76500000Y-61262285D02*
X76500000Y-61319428D01*
X76500000Y-61319428D02*
X76557143Y-61433714D01*
X76557143Y-61433714D02*
X76671429Y-61490857D01*
X76671429Y-61490857D02*
X76842858Y-61490857D01*
X76842858Y-61490857D02*
X76957143Y-61548000D01*
X76957143Y-61548000D02*
X77014286Y-61662285D01*
X77014286Y-61662285D02*
X77014286Y-61719428D01*
X77014286Y-61719428D02*
X76957143Y-61833714D01*
X76957143Y-61833714D02*
X76842858Y-61890857D01*
X76842858Y-61890857D02*
X76671429Y-61890857D01*
X76671429Y-61890857D02*
X76557143Y-61833714D01*
X75814286Y-61090857D02*
X75928571Y-61148000D01*
X75928571Y-61148000D02*
X75985714Y-61205142D01*
X75985714Y-61205142D02*
X76042857Y-61319428D01*
X76042857Y-61319428D02*
X76042857Y-61662285D01*
X76042857Y-61662285D02*
X75985714Y-61776571D01*
X75985714Y-61776571D02*
X75928571Y-61833714D01*
X75928571Y-61833714D02*
X75814286Y-61890857D01*
X75814286Y-61890857D02*
X75642857Y-61890857D01*
X75642857Y-61890857D02*
X75528571Y-61833714D01*
X75528571Y-61833714D02*
X75471429Y-61776571D01*
X75471429Y-61776571D02*
X75414286Y-61662285D01*
X75414286Y-61662285D02*
X75414286Y-61319428D01*
X75414286Y-61319428D02*
X75471429Y-61205142D01*
X75471429Y-61205142D02*
X75528571Y-61148000D01*
X75528571Y-61148000D02*
X75642857Y-61090857D01*
X75642857Y-61090857D02*
X75814286Y-61090857D01*
X74900000Y-61090857D02*
X74900000Y-61890857D01*
X74900000Y-61662285D02*
X74842857Y-61776571D01*
X74842857Y-61776571D02*
X74785715Y-61833714D01*
X74785715Y-61833714D02*
X74671429Y-61890857D01*
X74671429Y-61890857D02*
X74557143Y-61890857D01*
X73528572Y-61090857D02*
X74214286Y-61090857D01*
X73871429Y-61090857D02*
X73871429Y-62290857D01*
X73871429Y-62290857D02*
X73985715Y-62119428D01*
X73985715Y-62119428D02*
X74100000Y-62005142D01*
X74100000Y-62005142D02*
X74214286Y-61948000D01*
X80271428Y-59489714D02*
X79700000Y-59489714D01*
X80385714Y-59146857D02*
X79985714Y-60346857D01*
X79985714Y-60346857D02*
X79585714Y-59146857D01*
X78671429Y-59146857D02*
X78671429Y-60346857D01*
X78671429Y-59204000D02*
X78785714Y-59146857D01*
X78785714Y-59146857D02*
X79014286Y-59146857D01*
X79014286Y-59146857D02*
X79128571Y-59204000D01*
X79128571Y-59204000D02*
X79185714Y-59261142D01*
X79185714Y-59261142D02*
X79242857Y-59375428D01*
X79242857Y-59375428D02*
X79242857Y-59718285D01*
X79242857Y-59718285D02*
X79185714Y-59832571D01*
X79185714Y-59832571D02*
X79128571Y-59889714D01*
X79128571Y-59889714D02*
X79014286Y-59946857D01*
X79014286Y-59946857D02*
X78785714Y-59946857D01*
X78785714Y-59946857D02*
X78671429Y-59889714D01*
X77585715Y-59146857D02*
X77585715Y-60346857D01*
X77585715Y-59204000D02*
X77700000Y-59146857D01*
X77700000Y-59146857D02*
X77928572Y-59146857D01*
X77928572Y-59146857D02*
X78042857Y-59204000D01*
X78042857Y-59204000D02*
X78100000Y-59261142D01*
X78100000Y-59261142D02*
X78157143Y-59375428D01*
X78157143Y-59375428D02*
X78157143Y-59718285D01*
X78157143Y-59718285D02*
X78100000Y-59832571D01*
X78100000Y-59832571D02*
X78042857Y-59889714D01*
X78042857Y-59889714D02*
X77928572Y-59946857D01*
X77928572Y-59946857D02*
X77700000Y-59946857D01*
X77700000Y-59946857D02*
X77585715Y-59889714D01*
X77014286Y-59146857D02*
X77014286Y-59946857D01*
X77014286Y-59718285D02*
X76957143Y-59832571D01*
X76957143Y-59832571D02*
X76900001Y-59889714D01*
X76900001Y-59889714D02*
X76785715Y-59946857D01*
X76785715Y-59946857D02*
X76671429Y-59946857D01*
X75814286Y-59204000D02*
X75928572Y-59146857D01*
X75928572Y-59146857D02*
X76157144Y-59146857D01*
X76157144Y-59146857D02*
X76271429Y-59204000D01*
X76271429Y-59204000D02*
X76328572Y-59318285D01*
X76328572Y-59318285D02*
X76328572Y-59775428D01*
X76328572Y-59775428D02*
X76271429Y-59889714D01*
X76271429Y-59889714D02*
X76157144Y-59946857D01*
X76157144Y-59946857D02*
X75928572Y-59946857D01*
X75928572Y-59946857D02*
X75814286Y-59889714D01*
X75814286Y-59889714D02*
X75757144Y-59775428D01*
X75757144Y-59775428D02*
X75757144Y-59661142D01*
X75757144Y-59661142D02*
X76328572Y-59546857D01*
X75300001Y-59204000D02*
X75185715Y-59146857D01*
X75185715Y-59146857D02*
X74957144Y-59146857D01*
X74957144Y-59146857D02*
X74842858Y-59204000D01*
X74842858Y-59204000D02*
X74785715Y-59318285D01*
X74785715Y-59318285D02*
X74785715Y-59375428D01*
X74785715Y-59375428D02*
X74842858Y-59489714D01*
X74842858Y-59489714D02*
X74957144Y-59546857D01*
X74957144Y-59546857D02*
X75128573Y-59546857D01*
X75128573Y-59546857D02*
X75242858Y-59604000D01*
X75242858Y-59604000D02*
X75300001Y-59718285D01*
X75300001Y-59718285D02*
X75300001Y-59775428D01*
X75300001Y-59775428D02*
X75242858Y-59889714D01*
X75242858Y-59889714D02*
X75128573Y-59946857D01*
X75128573Y-59946857D02*
X74957144Y-59946857D01*
X74957144Y-59946857D02*
X74842858Y-59889714D01*
X74328572Y-59204000D02*
X74214286Y-59146857D01*
X74214286Y-59146857D02*
X73985715Y-59146857D01*
X73985715Y-59146857D02*
X73871429Y-59204000D01*
X73871429Y-59204000D02*
X73814286Y-59318285D01*
X73814286Y-59318285D02*
X73814286Y-59375428D01*
X73814286Y-59375428D02*
X73871429Y-59489714D01*
X73871429Y-59489714D02*
X73985715Y-59546857D01*
X73985715Y-59546857D02*
X74157144Y-59546857D01*
X74157144Y-59546857D02*
X74271429Y-59604000D01*
X74271429Y-59604000D02*
X74328572Y-59718285D01*
X74328572Y-59718285D02*
X74328572Y-59775428D01*
X74328572Y-59775428D02*
X74271429Y-59889714D01*
X74271429Y-59889714D02*
X74157144Y-59946857D01*
X74157144Y-59946857D02*
X73985715Y-59946857D01*
X73985715Y-59946857D02*
X73871429Y-59889714D01*
D10*
X60146190Y-74571428D02*
X60098571Y-74714285D01*
X60098571Y-74714285D02*
X60050952Y-74761904D01*
X60050952Y-74761904D02*
X59955714Y-74809523D01*
X59955714Y-74809523D02*
X59812857Y-74809523D01*
X59812857Y-74809523D02*
X59717619Y-74761904D01*
X59717619Y-74761904D02*
X59670000Y-74714285D01*
X59670000Y-74714285D02*
X59622380Y-74619047D01*
X59622380Y-74619047D02*
X59622380Y-74238095D01*
X59622380Y-74238095D02*
X60622380Y-74238095D01*
X60622380Y-74238095D02*
X60622380Y-74571428D01*
X60622380Y-74571428D02*
X60574761Y-74666666D01*
X60574761Y-74666666D02*
X60527142Y-74714285D01*
X60527142Y-74714285D02*
X60431904Y-74761904D01*
X60431904Y-74761904D02*
X60336666Y-74761904D01*
X60336666Y-74761904D02*
X60241428Y-74714285D01*
X60241428Y-74714285D02*
X60193809Y-74666666D01*
X60193809Y-74666666D02*
X60146190Y-74571428D01*
X60146190Y-74571428D02*
X60146190Y-74238095D01*
X59622380Y-75666666D02*
X60146190Y-75666666D01*
X60146190Y-75666666D02*
X60241428Y-75619047D01*
X60241428Y-75619047D02*
X60289047Y-75523809D01*
X60289047Y-75523809D02*
X60289047Y-75333333D01*
X60289047Y-75333333D02*
X60241428Y-75238095D01*
X59670000Y-75666666D02*
X59622380Y-75571428D01*
X59622380Y-75571428D02*
X59622380Y-75333333D01*
X59622380Y-75333333D02*
X59670000Y-75238095D01*
X59670000Y-75238095D02*
X59765238Y-75190476D01*
X59765238Y-75190476D02*
X59860476Y-75190476D01*
X59860476Y-75190476D02*
X59955714Y-75238095D01*
X59955714Y-75238095D02*
X60003333Y-75333333D01*
X60003333Y-75333333D02*
X60003333Y-75571428D01*
X60003333Y-75571428D02*
X60050952Y-75666666D01*
X60289047Y-76000000D02*
X60289047Y-76380952D01*
X60622380Y-76142857D02*
X59765238Y-76142857D01*
X59765238Y-76142857D02*
X59670000Y-76190476D01*
X59670000Y-76190476D02*
X59622380Y-76285714D01*
X59622380Y-76285714D02*
X59622380Y-76380952D01*
X60289047Y-76571429D02*
X60289047Y-76952381D01*
X60622380Y-76714286D02*
X59765238Y-76714286D01*
X59765238Y-76714286D02*
X59670000Y-76761905D01*
X59670000Y-76761905D02*
X59622380Y-76857143D01*
X59622380Y-76857143D02*
X59622380Y-76952381D01*
D11*
X60170000Y-61940476D02*
X60122380Y-62083333D01*
X60122380Y-62083333D02*
X60122380Y-62321428D01*
X60122380Y-62321428D02*
X60170000Y-62416666D01*
X60170000Y-62416666D02*
X60217619Y-62464285D01*
X60217619Y-62464285D02*
X60312857Y-62511904D01*
X60312857Y-62511904D02*
X60408095Y-62511904D01*
X60408095Y-62511904D02*
X60503333Y-62464285D01*
X60503333Y-62464285D02*
X60550952Y-62416666D01*
X60550952Y-62416666D02*
X60598571Y-62321428D01*
X60598571Y-62321428D02*
X60646190Y-62130952D01*
X60646190Y-62130952D02*
X60693809Y-62035714D01*
X60693809Y-62035714D02*
X60741428Y-61988095D01*
X60741428Y-61988095D02*
X60836666Y-61940476D01*
X60836666Y-61940476D02*
X60931904Y-61940476D01*
X60931904Y-61940476D02*
X61027142Y-61988095D01*
X61027142Y-61988095D02*
X61074761Y-62035714D01*
X61074761Y-62035714D02*
X61122380Y-62130952D01*
X61122380Y-62130952D02*
X61122380Y-62369047D01*
X61122380Y-62369047D02*
X61074761Y-62511904D01*
X60217619Y-63511904D02*
X60170000Y-63464285D01*
X60170000Y-63464285D02*
X60122380Y-63321428D01*
X60122380Y-63321428D02*
X60122380Y-63226190D01*
X60122380Y-63226190D02*
X60170000Y-63083333D01*
X60170000Y-63083333D02*
X60265238Y-62988095D01*
X60265238Y-62988095D02*
X60360476Y-62940476D01*
X60360476Y-62940476D02*
X60550952Y-62892857D01*
X60550952Y-62892857D02*
X60693809Y-62892857D01*
X60693809Y-62892857D02*
X60884285Y-62940476D01*
X60884285Y-62940476D02*
X60979523Y-62988095D01*
X60979523Y-62988095D02*
X61074761Y-63083333D01*
X61074761Y-63083333D02*
X61122380Y-63226190D01*
X61122380Y-63226190D02*
X61122380Y-63321428D01*
X61122380Y-63321428D02*
X61074761Y-63464285D01*
X61074761Y-63464285D02*
X61027142Y-63511904D01*
X60122380Y-64416666D02*
X60122380Y-63940476D01*
X60122380Y-63940476D02*
X61122380Y-63940476D01*
X56214285Y-77104000D02*
X55300000Y-77104000D01*
X56214285Y-74604000D02*
X55300000Y-74604000D01*
X55757142Y-74146857D02*
X55757142Y-75061142D01*
X82271428Y-71648000D02*
X82100000Y-71590857D01*
X82100000Y-71590857D02*
X81814285Y-71590857D01*
X81814285Y-71590857D02*
X81700000Y-71648000D01*
X81700000Y-71648000D02*
X81642857Y-71705142D01*
X81642857Y-71705142D02*
X81585714Y-71819428D01*
X81585714Y-71819428D02*
X81585714Y-71933714D01*
X81585714Y-71933714D02*
X81642857Y-72048000D01*
X81642857Y-72048000D02*
X81700000Y-72105142D01*
X81700000Y-72105142D02*
X81814285Y-72162285D01*
X81814285Y-72162285D02*
X82042857Y-72219428D01*
X82042857Y-72219428D02*
X82157142Y-72276571D01*
X82157142Y-72276571D02*
X82214285Y-72333714D01*
X82214285Y-72333714D02*
X82271428Y-72448000D01*
X82271428Y-72448000D02*
X82271428Y-72562285D01*
X82271428Y-72562285D02*
X82214285Y-72676571D01*
X82214285Y-72676571D02*
X82157142Y-72733714D01*
X82157142Y-72733714D02*
X82042857Y-72790857D01*
X82042857Y-72790857D02*
X81757142Y-72790857D01*
X81757142Y-72790857D02*
X81585714Y-72733714D01*
X80614285Y-71648000D02*
X80728571Y-71590857D01*
X80728571Y-71590857D02*
X80957143Y-71590857D01*
X80957143Y-71590857D02*
X81071428Y-71648000D01*
X81071428Y-71648000D02*
X81128571Y-71762285D01*
X81128571Y-71762285D02*
X81128571Y-72219428D01*
X81128571Y-72219428D02*
X81071428Y-72333714D01*
X81071428Y-72333714D02*
X80957143Y-72390857D01*
X80957143Y-72390857D02*
X80728571Y-72390857D01*
X80728571Y-72390857D02*
X80614285Y-72333714D01*
X80614285Y-72333714D02*
X80557143Y-72219428D01*
X80557143Y-72219428D02*
X80557143Y-72105142D01*
X80557143Y-72105142D02*
X81128571Y-71990857D01*
X80042857Y-72390857D02*
X80042857Y-71590857D01*
X80042857Y-72276571D02*
X79985714Y-72333714D01*
X79985714Y-72333714D02*
X79871429Y-72390857D01*
X79871429Y-72390857D02*
X79700000Y-72390857D01*
X79700000Y-72390857D02*
X79585714Y-72333714D01*
X79585714Y-72333714D02*
X79528572Y-72219428D01*
X79528572Y-72219428D02*
X79528572Y-71590857D01*
X79014286Y-71648000D02*
X78900000Y-71590857D01*
X78900000Y-71590857D02*
X78671429Y-71590857D01*
X78671429Y-71590857D02*
X78557143Y-71648000D01*
X78557143Y-71648000D02*
X78500000Y-71762285D01*
X78500000Y-71762285D02*
X78500000Y-71819428D01*
X78500000Y-71819428D02*
X78557143Y-71933714D01*
X78557143Y-71933714D02*
X78671429Y-71990857D01*
X78671429Y-71990857D02*
X78842858Y-71990857D01*
X78842858Y-71990857D02*
X78957143Y-72048000D01*
X78957143Y-72048000D02*
X79014286Y-72162285D01*
X79014286Y-72162285D02*
X79014286Y-72219428D01*
X79014286Y-72219428D02*
X78957143Y-72333714D01*
X78957143Y-72333714D02*
X78842858Y-72390857D01*
X78842858Y-72390857D02*
X78671429Y-72390857D01*
X78671429Y-72390857D02*
X78557143Y-72333714D01*
X77814286Y-71590857D02*
X77928571Y-71648000D01*
X77928571Y-71648000D02*
X77985714Y-71705142D01*
X77985714Y-71705142D02*
X78042857Y-71819428D01*
X78042857Y-71819428D02*
X78042857Y-72162285D01*
X78042857Y-72162285D02*
X77985714Y-72276571D01*
X77985714Y-72276571D02*
X77928571Y-72333714D01*
X77928571Y-72333714D02*
X77814286Y-72390857D01*
X77814286Y-72390857D02*
X77642857Y-72390857D01*
X77642857Y-72390857D02*
X77528571Y-72333714D01*
X77528571Y-72333714D02*
X77471429Y-72276571D01*
X77471429Y-72276571D02*
X77414286Y-72162285D01*
X77414286Y-72162285D02*
X77414286Y-71819428D01*
X77414286Y-71819428D02*
X77471429Y-71705142D01*
X77471429Y-71705142D02*
X77528571Y-71648000D01*
X77528571Y-71648000D02*
X77642857Y-71590857D01*
X77642857Y-71590857D02*
X77814286Y-71590857D01*
X76900000Y-71590857D02*
X76900000Y-72390857D01*
X76900000Y-72162285D02*
X76842857Y-72276571D01*
X76842857Y-72276571D02*
X76785715Y-72333714D01*
X76785715Y-72333714D02*
X76671429Y-72390857D01*
X76671429Y-72390857D02*
X76557143Y-72390857D01*
X75928572Y-72790857D02*
X75814286Y-72790857D01*
X75814286Y-72790857D02*
X75700000Y-72733714D01*
X75700000Y-72733714D02*
X75642858Y-72676571D01*
X75642858Y-72676571D02*
X75585715Y-72562285D01*
X75585715Y-72562285D02*
X75528572Y-72333714D01*
X75528572Y-72333714D02*
X75528572Y-72048000D01*
X75528572Y-72048000D02*
X75585715Y-71819428D01*
X75585715Y-71819428D02*
X75642858Y-71705142D01*
X75642858Y-71705142D02*
X75700000Y-71648000D01*
X75700000Y-71648000D02*
X75814286Y-71590857D01*
X75814286Y-71590857D02*
X75928572Y-71590857D01*
X75928572Y-71590857D02*
X76042858Y-71648000D01*
X76042858Y-71648000D02*
X76100000Y-71705142D01*
X76100000Y-71705142D02*
X76157143Y-71819428D01*
X76157143Y-71819428D02*
X76214286Y-72048000D01*
X76214286Y-72048000D02*
X76214286Y-72333714D01*
X76214286Y-72333714D02*
X76157143Y-72562285D01*
X76157143Y-72562285D02*
X76100000Y-72676571D01*
X76100000Y-72676571D02*
X76042858Y-72733714D01*
X76042858Y-72733714D02*
X75928572Y-72790857D01*
X82271428Y-69989714D02*
X81700000Y-69989714D01*
X82385714Y-69646857D02*
X81985714Y-70846857D01*
X81985714Y-70846857D02*
X81585714Y-69646857D01*
X80671429Y-69646857D02*
X80671429Y-70846857D01*
X80671429Y-69704000D02*
X80785714Y-69646857D01*
X80785714Y-69646857D02*
X81014286Y-69646857D01*
X81014286Y-69646857D02*
X81128571Y-69704000D01*
X81128571Y-69704000D02*
X81185714Y-69761142D01*
X81185714Y-69761142D02*
X81242857Y-69875428D01*
X81242857Y-69875428D02*
X81242857Y-70218285D01*
X81242857Y-70218285D02*
X81185714Y-70332571D01*
X81185714Y-70332571D02*
X81128571Y-70389714D01*
X81128571Y-70389714D02*
X81014286Y-70446857D01*
X81014286Y-70446857D02*
X80785714Y-70446857D01*
X80785714Y-70446857D02*
X80671429Y-70389714D01*
X79585715Y-69646857D02*
X79585715Y-70846857D01*
X79585715Y-69704000D02*
X79700000Y-69646857D01*
X79700000Y-69646857D02*
X79928572Y-69646857D01*
X79928572Y-69646857D02*
X80042857Y-69704000D01*
X80042857Y-69704000D02*
X80100000Y-69761142D01*
X80100000Y-69761142D02*
X80157143Y-69875428D01*
X80157143Y-69875428D02*
X80157143Y-70218285D01*
X80157143Y-70218285D02*
X80100000Y-70332571D01*
X80100000Y-70332571D02*
X80042857Y-70389714D01*
X80042857Y-70389714D02*
X79928572Y-70446857D01*
X79928572Y-70446857D02*
X79700000Y-70446857D01*
X79700000Y-70446857D02*
X79585715Y-70389714D01*
X79014286Y-69646857D02*
X79014286Y-70446857D01*
X79014286Y-70218285D02*
X78957143Y-70332571D01*
X78957143Y-70332571D02*
X78900001Y-70389714D01*
X78900001Y-70389714D02*
X78785715Y-70446857D01*
X78785715Y-70446857D02*
X78671429Y-70446857D01*
X77814286Y-69704000D02*
X77928572Y-69646857D01*
X77928572Y-69646857D02*
X78157144Y-69646857D01*
X78157144Y-69646857D02*
X78271429Y-69704000D01*
X78271429Y-69704000D02*
X78328572Y-69818285D01*
X78328572Y-69818285D02*
X78328572Y-70275428D01*
X78328572Y-70275428D02*
X78271429Y-70389714D01*
X78271429Y-70389714D02*
X78157144Y-70446857D01*
X78157144Y-70446857D02*
X77928572Y-70446857D01*
X77928572Y-70446857D02*
X77814286Y-70389714D01*
X77814286Y-70389714D02*
X77757144Y-70275428D01*
X77757144Y-70275428D02*
X77757144Y-70161142D01*
X77757144Y-70161142D02*
X78328572Y-70046857D01*
X77300001Y-69704000D02*
X77185715Y-69646857D01*
X77185715Y-69646857D02*
X76957144Y-69646857D01*
X76957144Y-69646857D02*
X76842858Y-69704000D01*
X76842858Y-69704000D02*
X76785715Y-69818285D01*
X76785715Y-69818285D02*
X76785715Y-69875428D01*
X76785715Y-69875428D02*
X76842858Y-69989714D01*
X76842858Y-69989714D02*
X76957144Y-70046857D01*
X76957144Y-70046857D02*
X77128573Y-70046857D01*
X77128573Y-70046857D02*
X77242858Y-70104000D01*
X77242858Y-70104000D02*
X77300001Y-70218285D01*
X77300001Y-70218285D02*
X77300001Y-70275428D01*
X77300001Y-70275428D02*
X77242858Y-70389714D01*
X77242858Y-70389714D02*
X77128573Y-70446857D01*
X77128573Y-70446857D02*
X76957144Y-70446857D01*
X76957144Y-70446857D02*
X76842858Y-70389714D01*
X76328572Y-69704000D02*
X76214286Y-69646857D01*
X76214286Y-69646857D02*
X75985715Y-69646857D01*
X75985715Y-69646857D02*
X75871429Y-69704000D01*
X75871429Y-69704000D02*
X75814286Y-69818285D01*
X75814286Y-69818285D02*
X75814286Y-69875428D01*
X75814286Y-69875428D02*
X75871429Y-69989714D01*
X75871429Y-69989714D02*
X75985715Y-70046857D01*
X75985715Y-70046857D02*
X76157144Y-70046857D01*
X76157144Y-70046857D02*
X76271429Y-70104000D01*
X76271429Y-70104000D02*
X76328572Y-70218285D01*
X76328572Y-70218285D02*
X76328572Y-70275428D01*
X76328572Y-70275428D02*
X76271429Y-70389714D01*
X76271429Y-70389714D02*
X76157144Y-70446857D01*
X76157144Y-70446857D02*
X75985715Y-70446857D01*
X75985715Y-70446857D02*
X75871429Y-70389714D01*
X62670000Y-61940476D02*
X62622380Y-62083333D01*
X62622380Y-62083333D02*
X62622380Y-62321428D01*
X62622380Y-62321428D02*
X62670000Y-62416666D01*
X62670000Y-62416666D02*
X62717619Y-62464285D01*
X62717619Y-62464285D02*
X62812857Y-62511904D01*
X62812857Y-62511904D02*
X62908095Y-62511904D01*
X62908095Y-62511904D02*
X63003333Y-62464285D01*
X63003333Y-62464285D02*
X63050952Y-62416666D01*
X63050952Y-62416666D02*
X63098571Y-62321428D01*
X63098571Y-62321428D02*
X63146190Y-62130952D01*
X63146190Y-62130952D02*
X63193809Y-62035714D01*
X63193809Y-62035714D02*
X63241428Y-61988095D01*
X63241428Y-61988095D02*
X63336666Y-61940476D01*
X63336666Y-61940476D02*
X63431904Y-61940476D01*
X63431904Y-61940476D02*
X63527142Y-61988095D01*
X63527142Y-61988095D02*
X63574761Y-62035714D01*
X63574761Y-62035714D02*
X63622380Y-62130952D01*
X63622380Y-62130952D02*
X63622380Y-62369047D01*
X63622380Y-62369047D02*
X63574761Y-62511904D01*
X62622380Y-62940476D02*
X63622380Y-62940476D01*
X63622380Y-62940476D02*
X63622380Y-63178571D01*
X63622380Y-63178571D02*
X63574761Y-63321428D01*
X63574761Y-63321428D02*
X63479523Y-63416666D01*
X63479523Y-63416666D02*
X63384285Y-63464285D01*
X63384285Y-63464285D02*
X63193809Y-63511904D01*
X63193809Y-63511904D02*
X63050952Y-63511904D01*
X63050952Y-63511904D02*
X62860476Y-63464285D01*
X62860476Y-63464285D02*
X62765238Y-63416666D01*
X62765238Y-63416666D02*
X62670000Y-63321428D01*
X62670000Y-63321428D02*
X62622380Y-63178571D01*
X62622380Y-63178571D02*
X62622380Y-62940476D01*
X62908095Y-63892857D02*
X62908095Y-64369047D01*
X62622380Y-63797619D02*
X63622380Y-64130952D01*
X63622380Y-64130952D02*
X62622380Y-64464285D01*
D10*
X69500000Y-77500000D02*
G75*
G03*
X69500000Y-77500000I-500000J0D01*
G01*
X59000000Y-78500000D02*
X54500000Y-78500000D01*
X54500000Y-73000000D01*
X59000000Y-73000000D01*
X59000000Y-78500000D01*
X74500000Y-69000000D02*
X74500000Y-78000000D01*
D12*
X88750000Y-70000000D02*
G75*
G03*
X88750000Y-70000000I-250000J0D01*
G01*
D10*
X76000000Y-63500000D02*
X70000000Y-63500000D01*
D13*
X86412500Y-67500000D02*
G75*
G03*
X86412500Y-67500000I-162500J0D01*
G01*
D10*
X83000000Y-73000000D02*
X83000000Y-69000000D01*
X69500000Y-71000000D02*
X63500000Y-71000000D01*
X63500000Y-65000000D01*
X69500000Y-65000000D01*
X69500000Y-71000000D01*
X81000000Y-58500000D02*
X74500000Y-58500000D01*
X70000000Y-63500000D02*
X70000000Y-59000000D01*
X81000000Y-63500000D02*
X81000000Y-58500000D01*
X83000000Y-69000000D02*
X74500000Y-69000000D01*
X74500000Y-78000000D02*
X82500000Y-78000000D01*
X80000000Y-63500000D02*
X81000000Y-63500000D01*
X68428571Y-94766190D02*
X68285714Y-94718571D01*
X68285714Y-94718571D02*
X68238095Y-94670952D01*
X68238095Y-94670952D02*
X68190476Y-94575714D01*
X68190476Y-94575714D02*
X68190476Y-94432857D01*
X68190476Y-94432857D02*
X68238095Y-94337619D01*
X68238095Y-94337619D02*
X68285714Y-94290000D01*
X68285714Y-94290000D02*
X68380952Y-94242380D01*
X68380952Y-94242380D02*
X68761904Y-94242380D01*
X68761904Y-94242380D02*
X68761904Y-95242380D01*
X68761904Y-95242380D02*
X68428571Y-95242380D01*
X68428571Y-95242380D02*
X68333333Y-95194761D01*
X68333333Y-95194761D02*
X68285714Y-95147142D01*
X68285714Y-95147142D02*
X68238095Y-95051904D01*
X68238095Y-95051904D02*
X68238095Y-94956666D01*
X68238095Y-94956666D02*
X68285714Y-94861428D01*
X68285714Y-94861428D02*
X68333333Y-94813809D01*
X68333333Y-94813809D02*
X68428571Y-94766190D01*
X68428571Y-94766190D02*
X68761904Y-94766190D01*
X67333333Y-94242380D02*
X67333333Y-94766190D01*
X67333333Y-94766190D02*
X67380952Y-94861428D01*
X67380952Y-94861428D02*
X67476190Y-94909047D01*
X67476190Y-94909047D02*
X67666666Y-94909047D01*
X67666666Y-94909047D02*
X67761904Y-94861428D01*
X67333333Y-94290000D02*
X67428571Y-94242380D01*
X67428571Y-94242380D02*
X67666666Y-94242380D01*
X67666666Y-94242380D02*
X67761904Y-94290000D01*
X67761904Y-94290000D02*
X67809523Y-94385238D01*
X67809523Y-94385238D02*
X67809523Y-94480476D01*
X67809523Y-94480476D02*
X67761904Y-94575714D01*
X67761904Y-94575714D02*
X67666666Y-94623333D01*
X67666666Y-94623333D02*
X67428571Y-94623333D01*
X67428571Y-94623333D02*
X67333333Y-94670952D01*
X66999999Y-94909047D02*
X66619047Y-94909047D01*
X66857142Y-95242380D02*
X66857142Y-94385238D01*
X66857142Y-94385238D02*
X66809523Y-94290000D01*
X66809523Y-94290000D02*
X66714285Y-94242380D01*
X66714285Y-94242380D02*
X66619047Y-94242380D01*
X66428570Y-94909047D02*
X66047618Y-94909047D01*
X66285713Y-95242380D02*
X66285713Y-94385238D01*
X66285713Y-94385238D02*
X66238094Y-94290000D01*
X66238094Y-94290000D02*
X66142856Y-94242380D01*
X66142856Y-94242380D02*
X66047618Y-94242380D01*
X65333332Y-94290000D02*
X65428570Y-94242380D01*
X65428570Y-94242380D02*
X65619046Y-94242380D01*
X65619046Y-94242380D02*
X65714284Y-94290000D01*
X65714284Y-94290000D02*
X65761903Y-94385238D01*
X65761903Y-94385238D02*
X65761903Y-94766190D01*
X65761903Y-94766190D02*
X65714284Y-94861428D01*
X65714284Y-94861428D02*
X65619046Y-94909047D01*
X65619046Y-94909047D02*
X65428570Y-94909047D01*
X65428570Y-94909047D02*
X65333332Y-94861428D01*
X65333332Y-94861428D02*
X65285713Y-94766190D01*
X65285713Y-94766190D02*
X65285713Y-94670952D01*
X65285713Y-94670952D02*
X65761903Y-94575714D01*
X64857141Y-94242380D02*
X64857141Y-94909047D01*
X64857141Y-94718571D02*
X64809522Y-94813809D01*
X64809522Y-94813809D02*
X64761903Y-94861428D01*
X64761903Y-94861428D02*
X64666665Y-94909047D01*
X64666665Y-94909047D02*
X64571427Y-94909047D01*
X64333331Y-94909047D02*
X64095236Y-94242380D01*
X63857141Y-94909047D02*
X64095236Y-94242380D01*
X64095236Y-94242380D02*
X64190474Y-94004285D01*
X64190474Y-94004285D02*
X64238093Y-93956666D01*
X64238093Y-93956666D02*
X64333331Y-93909047D01*
X68761904Y-92622380D02*
X68761904Y-93622380D01*
X68761904Y-93622380D02*
X68428571Y-92908095D01*
X68428571Y-92908095D02*
X68095238Y-93622380D01*
X68095238Y-93622380D02*
X68095238Y-92622380D01*
X67476190Y-92622380D02*
X67571428Y-92670000D01*
X67571428Y-92670000D02*
X67619047Y-92717619D01*
X67619047Y-92717619D02*
X67666666Y-92812857D01*
X67666666Y-92812857D02*
X67666666Y-93098571D01*
X67666666Y-93098571D02*
X67619047Y-93193809D01*
X67619047Y-93193809D02*
X67571428Y-93241428D01*
X67571428Y-93241428D02*
X67476190Y-93289047D01*
X67476190Y-93289047D02*
X67333333Y-93289047D01*
X67333333Y-93289047D02*
X67238095Y-93241428D01*
X67238095Y-93241428D02*
X67190476Y-93193809D01*
X67190476Y-93193809D02*
X67142857Y-93098571D01*
X67142857Y-93098571D02*
X67142857Y-92812857D01*
X67142857Y-92812857D02*
X67190476Y-92717619D01*
X67190476Y-92717619D02*
X67238095Y-92670000D01*
X67238095Y-92670000D02*
X67333333Y-92622380D01*
X67333333Y-92622380D02*
X67476190Y-92622380D01*
X66285714Y-92622380D02*
X66285714Y-93622380D01*
X66285714Y-92670000D02*
X66380952Y-92622380D01*
X66380952Y-92622380D02*
X66571428Y-92622380D01*
X66571428Y-92622380D02*
X66666666Y-92670000D01*
X66666666Y-92670000D02*
X66714285Y-92717619D01*
X66714285Y-92717619D02*
X66761904Y-92812857D01*
X66761904Y-92812857D02*
X66761904Y-93098571D01*
X66761904Y-93098571D02*
X66714285Y-93193809D01*
X66714285Y-93193809D02*
X66666666Y-93241428D01*
X66666666Y-93241428D02*
X66571428Y-93289047D01*
X66571428Y-93289047D02*
X66380952Y-93289047D01*
X66380952Y-93289047D02*
X66285714Y-93241428D01*
X65428571Y-92670000D02*
X65523809Y-92622380D01*
X65523809Y-92622380D02*
X65714285Y-92622380D01*
X65714285Y-92622380D02*
X65809523Y-92670000D01*
X65809523Y-92670000D02*
X65857142Y-92765238D01*
X65857142Y-92765238D02*
X65857142Y-93146190D01*
X65857142Y-93146190D02*
X65809523Y-93241428D01*
X65809523Y-93241428D02*
X65714285Y-93289047D01*
X65714285Y-93289047D02*
X65523809Y-93289047D01*
X65523809Y-93289047D02*
X65428571Y-93241428D01*
X65428571Y-93241428D02*
X65380952Y-93146190D01*
X65380952Y-93146190D02*
X65380952Y-93050952D01*
X65380952Y-93050952D02*
X65857142Y-92955714D01*
D11*
X80271428Y-88148000D02*
X80100000Y-88090857D01*
X80100000Y-88090857D02*
X79814285Y-88090857D01*
X79814285Y-88090857D02*
X79700000Y-88148000D01*
X79700000Y-88148000D02*
X79642857Y-88205142D01*
X79642857Y-88205142D02*
X79585714Y-88319428D01*
X79585714Y-88319428D02*
X79585714Y-88433714D01*
X79585714Y-88433714D02*
X79642857Y-88548000D01*
X79642857Y-88548000D02*
X79700000Y-88605142D01*
X79700000Y-88605142D02*
X79814285Y-88662285D01*
X79814285Y-88662285D02*
X80042857Y-88719428D01*
X80042857Y-88719428D02*
X80157142Y-88776571D01*
X80157142Y-88776571D02*
X80214285Y-88833714D01*
X80214285Y-88833714D02*
X80271428Y-88948000D01*
X80271428Y-88948000D02*
X80271428Y-89062285D01*
X80271428Y-89062285D02*
X80214285Y-89176571D01*
X80214285Y-89176571D02*
X80157142Y-89233714D01*
X80157142Y-89233714D02*
X80042857Y-89290857D01*
X80042857Y-89290857D02*
X79757142Y-89290857D01*
X79757142Y-89290857D02*
X79585714Y-89233714D01*
X78614285Y-88148000D02*
X78728571Y-88090857D01*
X78728571Y-88090857D02*
X78957143Y-88090857D01*
X78957143Y-88090857D02*
X79071428Y-88148000D01*
X79071428Y-88148000D02*
X79128571Y-88262285D01*
X79128571Y-88262285D02*
X79128571Y-88719428D01*
X79128571Y-88719428D02*
X79071428Y-88833714D01*
X79071428Y-88833714D02*
X78957143Y-88890857D01*
X78957143Y-88890857D02*
X78728571Y-88890857D01*
X78728571Y-88890857D02*
X78614285Y-88833714D01*
X78614285Y-88833714D02*
X78557143Y-88719428D01*
X78557143Y-88719428D02*
X78557143Y-88605142D01*
X78557143Y-88605142D02*
X79128571Y-88490857D01*
X78042857Y-88890857D02*
X78042857Y-88090857D01*
X78042857Y-88776571D02*
X77985714Y-88833714D01*
X77985714Y-88833714D02*
X77871429Y-88890857D01*
X77871429Y-88890857D02*
X77700000Y-88890857D01*
X77700000Y-88890857D02*
X77585714Y-88833714D01*
X77585714Y-88833714D02*
X77528572Y-88719428D01*
X77528572Y-88719428D02*
X77528572Y-88090857D01*
X77014286Y-88148000D02*
X76900000Y-88090857D01*
X76900000Y-88090857D02*
X76671429Y-88090857D01*
X76671429Y-88090857D02*
X76557143Y-88148000D01*
X76557143Y-88148000D02*
X76500000Y-88262285D01*
X76500000Y-88262285D02*
X76500000Y-88319428D01*
X76500000Y-88319428D02*
X76557143Y-88433714D01*
X76557143Y-88433714D02*
X76671429Y-88490857D01*
X76671429Y-88490857D02*
X76842858Y-88490857D01*
X76842858Y-88490857D02*
X76957143Y-88548000D01*
X76957143Y-88548000D02*
X77014286Y-88662285D01*
X77014286Y-88662285D02*
X77014286Y-88719428D01*
X77014286Y-88719428D02*
X76957143Y-88833714D01*
X76957143Y-88833714D02*
X76842858Y-88890857D01*
X76842858Y-88890857D02*
X76671429Y-88890857D01*
X76671429Y-88890857D02*
X76557143Y-88833714D01*
X75814286Y-88090857D02*
X75928571Y-88148000D01*
X75928571Y-88148000D02*
X75985714Y-88205142D01*
X75985714Y-88205142D02*
X76042857Y-88319428D01*
X76042857Y-88319428D02*
X76042857Y-88662285D01*
X76042857Y-88662285D02*
X75985714Y-88776571D01*
X75985714Y-88776571D02*
X75928571Y-88833714D01*
X75928571Y-88833714D02*
X75814286Y-88890857D01*
X75814286Y-88890857D02*
X75642857Y-88890857D01*
X75642857Y-88890857D02*
X75528571Y-88833714D01*
X75528571Y-88833714D02*
X75471429Y-88776571D01*
X75471429Y-88776571D02*
X75414286Y-88662285D01*
X75414286Y-88662285D02*
X75414286Y-88319428D01*
X75414286Y-88319428D02*
X75471429Y-88205142D01*
X75471429Y-88205142D02*
X75528571Y-88148000D01*
X75528571Y-88148000D02*
X75642857Y-88090857D01*
X75642857Y-88090857D02*
X75814286Y-88090857D01*
X74900000Y-88090857D02*
X74900000Y-88890857D01*
X74900000Y-88662285D02*
X74842857Y-88776571D01*
X74842857Y-88776571D02*
X74785715Y-88833714D01*
X74785715Y-88833714D02*
X74671429Y-88890857D01*
X74671429Y-88890857D02*
X74557143Y-88890857D01*
X73528572Y-88090857D02*
X74214286Y-88090857D01*
X73871429Y-88090857D02*
X73871429Y-89290857D01*
X73871429Y-89290857D02*
X73985715Y-89119428D01*
X73985715Y-89119428D02*
X74100000Y-89005142D01*
X74100000Y-89005142D02*
X74214286Y-88948000D01*
X80271428Y-86489714D02*
X79700000Y-86489714D01*
X80385714Y-86146857D02*
X79985714Y-87346857D01*
X79985714Y-87346857D02*
X79585714Y-86146857D01*
X78671429Y-86146857D02*
X78671429Y-87346857D01*
X78671429Y-86204000D02*
X78785714Y-86146857D01*
X78785714Y-86146857D02*
X79014286Y-86146857D01*
X79014286Y-86146857D02*
X79128571Y-86204000D01*
X79128571Y-86204000D02*
X79185714Y-86261142D01*
X79185714Y-86261142D02*
X79242857Y-86375428D01*
X79242857Y-86375428D02*
X79242857Y-86718285D01*
X79242857Y-86718285D02*
X79185714Y-86832571D01*
X79185714Y-86832571D02*
X79128571Y-86889714D01*
X79128571Y-86889714D02*
X79014286Y-86946857D01*
X79014286Y-86946857D02*
X78785714Y-86946857D01*
X78785714Y-86946857D02*
X78671429Y-86889714D01*
X77585715Y-86146857D02*
X77585715Y-87346857D01*
X77585715Y-86204000D02*
X77700000Y-86146857D01*
X77700000Y-86146857D02*
X77928572Y-86146857D01*
X77928572Y-86146857D02*
X78042857Y-86204000D01*
X78042857Y-86204000D02*
X78100000Y-86261142D01*
X78100000Y-86261142D02*
X78157143Y-86375428D01*
X78157143Y-86375428D02*
X78157143Y-86718285D01*
X78157143Y-86718285D02*
X78100000Y-86832571D01*
X78100000Y-86832571D02*
X78042857Y-86889714D01*
X78042857Y-86889714D02*
X77928572Y-86946857D01*
X77928572Y-86946857D02*
X77700000Y-86946857D01*
X77700000Y-86946857D02*
X77585715Y-86889714D01*
X77014286Y-86146857D02*
X77014286Y-86946857D01*
X77014286Y-86718285D02*
X76957143Y-86832571D01*
X76957143Y-86832571D02*
X76900001Y-86889714D01*
X76900001Y-86889714D02*
X76785715Y-86946857D01*
X76785715Y-86946857D02*
X76671429Y-86946857D01*
X75814286Y-86204000D02*
X75928572Y-86146857D01*
X75928572Y-86146857D02*
X76157144Y-86146857D01*
X76157144Y-86146857D02*
X76271429Y-86204000D01*
X76271429Y-86204000D02*
X76328572Y-86318285D01*
X76328572Y-86318285D02*
X76328572Y-86775428D01*
X76328572Y-86775428D02*
X76271429Y-86889714D01*
X76271429Y-86889714D02*
X76157144Y-86946857D01*
X76157144Y-86946857D02*
X75928572Y-86946857D01*
X75928572Y-86946857D02*
X75814286Y-86889714D01*
X75814286Y-86889714D02*
X75757144Y-86775428D01*
X75757144Y-86775428D02*
X75757144Y-86661142D01*
X75757144Y-86661142D02*
X76328572Y-86546857D01*
X75300001Y-86204000D02*
X75185715Y-86146857D01*
X75185715Y-86146857D02*
X74957144Y-86146857D01*
X74957144Y-86146857D02*
X74842858Y-86204000D01*
X74842858Y-86204000D02*
X74785715Y-86318285D01*
X74785715Y-86318285D02*
X74785715Y-86375428D01*
X74785715Y-86375428D02*
X74842858Y-86489714D01*
X74842858Y-86489714D02*
X74957144Y-86546857D01*
X74957144Y-86546857D02*
X75128573Y-86546857D01*
X75128573Y-86546857D02*
X75242858Y-86604000D01*
X75242858Y-86604000D02*
X75300001Y-86718285D01*
X75300001Y-86718285D02*
X75300001Y-86775428D01*
X75300001Y-86775428D02*
X75242858Y-86889714D01*
X75242858Y-86889714D02*
X75128573Y-86946857D01*
X75128573Y-86946857D02*
X74957144Y-86946857D01*
X74957144Y-86946857D02*
X74842858Y-86889714D01*
X74328572Y-86204000D02*
X74214286Y-86146857D01*
X74214286Y-86146857D02*
X73985715Y-86146857D01*
X73985715Y-86146857D02*
X73871429Y-86204000D01*
X73871429Y-86204000D02*
X73814286Y-86318285D01*
X73814286Y-86318285D02*
X73814286Y-86375428D01*
X73814286Y-86375428D02*
X73871429Y-86489714D01*
X73871429Y-86489714D02*
X73985715Y-86546857D01*
X73985715Y-86546857D02*
X74157144Y-86546857D01*
X74157144Y-86546857D02*
X74271429Y-86604000D01*
X74271429Y-86604000D02*
X74328572Y-86718285D01*
X74328572Y-86718285D02*
X74328572Y-86775428D01*
X74328572Y-86775428D02*
X74271429Y-86889714D01*
X74271429Y-86889714D02*
X74157144Y-86946857D01*
X74157144Y-86946857D02*
X73985715Y-86946857D01*
X73985715Y-86946857D02*
X73871429Y-86889714D01*
D10*
X60146190Y-101571428D02*
X60098571Y-101714285D01*
X60098571Y-101714285D02*
X60050952Y-101761904D01*
X60050952Y-101761904D02*
X59955714Y-101809523D01*
X59955714Y-101809523D02*
X59812857Y-101809523D01*
X59812857Y-101809523D02*
X59717619Y-101761904D01*
X59717619Y-101761904D02*
X59670000Y-101714285D01*
X59670000Y-101714285D02*
X59622380Y-101619047D01*
X59622380Y-101619047D02*
X59622380Y-101238095D01*
X59622380Y-101238095D02*
X60622380Y-101238095D01*
X60622380Y-101238095D02*
X60622380Y-101571428D01*
X60622380Y-101571428D02*
X60574761Y-101666666D01*
X60574761Y-101666666D02*
X60527142Y-101714285D01*
X60527142Y-101714285D02*
X60431904Y-101761904D01*
X60431904Y-101761904D02*
X60336666Y-101761904D01*
X60336666Y-101761904D02*
X60241428Y-101714285D01*
X60241428Y-101714285D02*
X60193809Y-101666666D01*
X60193809Y-101666666D02*
X60146190Y-101571428D01*
X60146190Y-101571428D02*
X60146190Y-101238095D01*
X59622380Y-102666666D02*
X60146190Y-102666666D01*
X60146190Y-102666666D02*
X60241428Y-102619047D01*
X60241428Y-102619047D02*
X60289047Y-102523809D01*
X60289047Y-102523809D02*
X60289047Y-102333333D01*
X60289047Y-102333333D02*
X60241428Y-102238095D01*
X59670000Y-102666666D02*
X59622380Y-102571428D01*
X59622380Y-102571428D02*
X59622380Y-102333333D01*
X59622380Y-102333333D02*
X59670000Y-102238095D01*
X59670000Y-102238095D02*
X59765238Y-102190476D01*
X59765238Y-102190476D02*
X59860476Y-102190476D01*
X59860476Y-102190476D02*
X59955714Y-102238095D01*
X59955714Y-102238095D02*
X60003333Y-102333333D01*
X60003333Y-102333333D02*
X60003333Y-102571428D01*
X60003333Y-102571428D02*
X60050952Y-102666666D01*
X60289047Y-103000000D02*
X60289047Y-103380952D01*
X60622380Y-103142857D02*
X59765238Y-103142857D01*
X59765238Y-103142857D02*
X59670000Y-103190476D01*
X59670000Y-103190476D02*
X59622380Y-103285714D01*
X59622380Y-103285714D02*
X59622380Y-103380952D01*
X60289047Y-103571429D02*
X60289047Y-103952381D01*
X60622380Y-103714286D02*
X59765238Y-103714286D01*
X59765238Y-103714286D02*
X59670000Y-103761905D01*
X59670000Y-103761905D02*
X59622380Y-103857143D01*
X59622380Y-103857143D02*
X59622380Y-103952381D01*
D11*
X60170000Y-88940476D02*
X60122380Y-89083333D01*
X60122380Y-89083333D02*
X60122380Y-89321428D01*
X60122380Y-89321428D02*
X60170000Y-89416666D01*
X60170000Y-89416666D02*
X60217619Y-89464285D01*
X60217619Y-89464285D02*
X60312857Y-89511904D01*
X60312857Y-89511904D02*
X60408095Y-89511904D01*
X60408095Y-89511904D02*
X60503333Y-89464285D01*
X60503333Y-89464285D02*
X60550952Y-89416666D01*
X60550952Y-89416666D02*
X60598571Y-89321428D01*
X60598571Y-89321428D02*
X60646190Y-89130952D01*
X60646190Y-89130952D02*
X60693809Y-89035714D01*
X60693809Y-89035714D02*
X60741428Y-88988095D01*
X60741428Y-88988095D02*
X60836666Y-88940476D01*
X60836666Y-88940476D02*
X60931904Y-88940476D01*
X60931904Y-88940476D02*
X61027142Y-88988095D01*
X61027142Y-88988095D02*
X61074761Y-89035714D01*
X61074761Y-89035714D02*
X61122380Y-89130952D01*
X61122380Y-89130952D02*
X61122380Y-89369047D01*
X61122380Y-89369047D02*
X61074761Y-89511904D01*
X60217619Y-90511904D02*
X60170000Y-90464285D01*
X60170000Y-90464285D02*
X60122380Y-90321428D01*
X60122380Y-90321428D02*
X60122380Y-90226190D01*
X60122380Y-90226190D02*
X60170000Y-90083333D01*
X60170000Y-90083333D02*
X60265238Y-89988095D01*
X60265238Y-89988095D02*
X60360476Y-89940476D01*
X60360476Y-89940476D02*
X60550952Y-89892857D01*
X60550952Y-89892857D02*
X60693809Y-89892857D01*
X60693809Y-89892857D02*
X60884285Y-89940476D01*
X60884285Y-89940476D02*
X60979523Y-89988095D01*
X60979523Y-89988095D02*
X61074761Y-90083333D01*
X61074761Y-90083333D02*
X61122380Y-90226190D01*
X61122380Y-90226190D02*
X61122380Y-90321428D01*
X61122380Y-90321428D02*
X61074761Y-90464285D01*
X61074761Y-90464285D02*
X61027142Y-90511904D01*
X60122380Y-91416666D02*
X60122380Y-90940476D01*
X60122380Y-90940476D02*
X61122380Y-90940476D01*
X56214285Y-104104000D02*
X55300000Y-104104000D01*
X56214285Y-101604000D02*
X55300000Y-101604000D01*
X55757142Y-101146857D02*
X55757142Y-102061142D01*
X82271428Y-98648000D02*
X82100000Y-98590857D01*
X82100000Y-98590857D02*
X81814285Y-98590857D01*
X81814285Y-98590857D02*
X81700000Y-98648000D01*
X81700000Y-98648000D02*
X81642857Y-98705142D01*
X81642857Y-98705142D02*
X81585714Y-98819428D01*
X81585714Y-98819428D02*
X81585714Y-98933714D01*
X81585714Y-98933714D02*
X81642857Y-99048000D01*
X81642857Y-99048000D02*
X81700000Y-99105142D01*
X81700000Y-99105142D02*
X81814285Y-99162285D01*
X81814285Y-99162285D02*
X82042857Y-99219428D01*
X82042857Y-99219428D02*
X82157142Y-99276571D01*
X82157142Y-99276571D02*
X82214285Y-99333714D01*
X82214285Y-99333714D02*
X82271428Y-99448000D01*
X82271428Y-99448000D02*
X82271428Y-99562285D01*
X82271428Y-99562285D02*
X82214285Y-99676571D01*
X82214285Y-99676571D02*
X82157142Y-99733714D01*
X82157142Y-99733714D02*
X82042857Y-99790857D01*
X82042857Y-99790857D02*
X81757142Y-99790857D01*
X81757142Y-99790857D02*
X81585714Y-99733714D01*
X80614285Y-98648000D02*
X80728571Y-98590857D01*
X80728571Y-98590857D02*
X80957143Y-98590857D01*
X80957143Y-98590857D02*
X81071428Y-98648000D01*
X81071428Y-98648000D02*
X81128571Y-98762285D01*
X81128571Y-98762285D02*
X81128571Y-99219428D01*
X81128571Y-99219428D02*
X81071428Y-99333714D01*
X81071428Y-99333714D02*
X80957143Y-99390857D01*
X80957143Y-99390857D02*
X80728571Y-99390857D01*
X80728571Y-99390857D02*
X80614285Y-99333714D01*
X80614285Y-99333714D02*
X80557143Y-99219428D01*
X80557143Y-99219428D02*
X80557143Y-99105142D01*
X80557143Y-99105142D02*
X81128571Y-98990857D01*
X80042857Y-99390857D02*
X80042857Y-98590857D01*
X80042857Y-99276571D02*
X79985714Y-99333714D01*
X79985714Y-99333714D02*
X79871429Y-99390857D01*
X79871429Y-99390857D02*
X79700000Y-99390857D01*
X79700000Y-99390857D02*
X79585714Y-99333714D01*
X79585714Y-99333714D02*
X79528572Y-99219428D01*
X79528572Y-99219428D02*
X79528572Y-98590857D01*
X79014286Y-98648000D02*
X78900000Y-98590857D01*
X78900000Y-98590857D02*
X78671429Y-98590857D01*
X78671429Y-98590857D02*
X78557143Y-98648000D01*
X78557143Y-98648000D02*
X78500000Y-98762285D01*
X78500000Y-98762285D02*
X78500000Y-98819428D01*
X78500000Y-98819428D02*
X78557143Y-98933714D01*
X78557143Y-98933714D02*
X78671429Y-98990857D01*
X78671429Y-98990857D02*
X78842858Y-98990857D01*
X78842858Y-98990857D02*
X78957143Y-99048000D01*
X78957143Y-99048000D02*
X79014286Y-99162285D01*
X79014286Y-99162285D02*
X79014286Y-99219428D01*
X79014286Y-99219428D02*
X78957143Y-99333714D01*
X78957143Y-99333714D02*
X78842858Y-99390857D01*
X78842858Y-99390857D02*
X78671429Y-99390857D01*
X78671429Y-99390857D02*
X78557143Y-99333714D01*
X77814286Y-98590857D02*
X77928571Y-98648000D01*
X77928571Y-98648000D02*
X77985714Y-98705142D01*
X77985714Y-98705142D02*
X78042857Y-98819428D01*
X78042857Y-98819428D02*
X78042857Y-99162285D01*
X78042857Y-99162285D02*
X77985714Y-99276571D01*
X77985714Y-99276571D02*
X77928571Y-99333714D01*
X77928571Y-99333714D02*
X77814286Y-99390857D01*
X77814286Y-99390857D02*
X77642857Y-99390857D01*
X77642857Y-99390857D02*
X77528571Y-99333714D01*
X77528571Y-99333714D02*
X77471429Y-99276571D01*
X77471429Y-99276571D02*
X77414286Y-99162285D01*
X77414286Y-99162285D02*
X77414286Y-98819428D01*
X77414286Y-98819428D02*
X77471429Y-98705142D01*
X77471429Y-98705142D02*
X77528571Y-98648000D01*
X77528571Y-98648000D02*
X77642857Y-98590857D01*
X77642857Y-98590857D02*
X77814286Y-98590857D01*
X76900000Y-98590857D02*
X76900000Y-99390857D01*
X76900000Y-99162285D02*
X76842857Y-99276571D01*
X76842857Y-99276571D02*
X76785715Y-99333714D01*
X76785715Y-99333714D02*
X76671429Y-99390857D01*
X76671429Y-99390857D02*
X76557143Y-99390857D01*
X75928572Y-99790857D02*
X75814286Y-99790857D01*
X75814286Y-99790857D02*
X75700000Y-99733714D01*
X75700000Y-99733714D02*
X75642858Y-99676571D01*
X75642858Y-99676571D02*
X75585715Y-99562285D01*
X75585715Y-99562285D02*
X75528572Y-99333714D01*
X75528572Y-99333714D02*
X75528572Y-99048000D01*
X75528572Y-99048000D02*
X75585715Y-98819428D01*
X75585715Y-98819428D02*
X75642858Y-98705142D01*
X75642858Y-98705142D02*
X75700000Y-98648000D01*
X75700000Y-98648000D02*
X75814286Y-98590857D01*
X75814286Y-98590857D02*
X75928572Y-98590857D01*
X75928572Y-98590857D02*
X76042858Y-98648000D01*
X76042858Y-98648000D02*
X76100000Y-98705142D01*
X76100000Y-98705142D02*
X76157143Y-98819428D01*
X76157143Y-98819428D02*
X76214286Y-99048000D01*
X76214286Y-99048000D02*
X76214286Y-99333714D01*
X76214286Y-99333714D02*
X76157143Y-99562285D01*
X76157143Y-99562285D02*
X76100000Y-99676571D01*
X76100000Y-99676571D02*
X76042858Y-99733714D01*
X76042858Y-99733714D02*
X75928572Y-99790857D01*
X82271428Y-96989714D02*
X81700000Y-96989714D01*
X82385714Y-96646857D02*
X81985714Y-97846857D01*
X81985714Y-97846857D02*
X81585714Y-96646857D01*
X80671429Y-96646857D02*
X80671429Y-97846857D01*
X80671429Y-96704000D02*
X80785714Y-96646857D01*
X80785714Y-96646857D02*
X81014286Y-96646857D01*
X81014286Y-96646857D02*
X81128571Y-96704000D01*
X81128571Y-96704000D02*
X81185714Y-96761142D01*
X81185714Y-96761142D02*
X81242857Y-96875428D01*
X81242857Y-96875428D02*
X81242857Y-97218285D01*
X81242857Y-97218285D02*
X81185714Y-97332571D01*
X81185714Y-97332571D02*
X81128571Y-97389714D01*
X81128571Y-97389714D02*
X81014286Y-97446857D01*
X81014286Y-97446857D02*
X80785714Y-97446857D01*
X80785714Y-97446857D02*
X80671429Y-97389714D01*
X79585715Y-96646857D02*
X79585715Y-97846857D01*
X79585715Y-96704000D02*
X79700000Y-96646857D01*
X79700000Y-96646857D02*
X79928572Y-96646857D01*
X79928572Y-96646857D02*
X80042857Y-96704000D01*
X80042857Y-96704000D02*
X80100000Y-96761142D01*
X80100000Y-96761142D02*
X80157143Y-96875428D01*
X80157143Y-96875428D02*
X80157143Y-97218285D01*
X80157143Y-97218285D02*
X80100000Y-97332571D01*
X80100000Y-97332571D02*
X80042857Y-97389714D01*
X80042857Y-97389714D02*
X79928572Y-97446857D01*
X79928572Y-97446857D02*
X79700000Y-97446857D01*
X79700000Y-97446857D02*
X79585715Y-97389714D01*
X79014286Y-96646857D02*
X79014286Y-97446857D01*
X79014286Y-97218285D02*
X78957143Y-97332571D01*
X78957143Y-97332571D02*
X78900001Y-97389714D01*
X78900001Y-97389714D02*
X78785715Y-97446857D01*
X78785715Y-97446857D02*
X78671429Y-97446857D01*
X77814286Y-96704000D02*
X77928572Y-96646857D01*
X77928572Y-96646857D02*
X78157144Y-96646857D01*
X78157144Y-96646857D02*
X78271429Y-96704000D01*
X78271429Y-96704000D02*
X78328572Y-96818285D01*
X78328572Y-96818285D02*
X78328572Y-97275428D01*
X78328572Y-97275428D02*
X78271429Y-97389714D01*
X78271429Y-97389714D02*
X78157144Y-97446857D01*
X78157144Y-97446857D02*
X77928572Y-97446857D01*
X77928572Y-97446857D02*
X77814286Y-97389714D01*
X77814286Y-97389714D02*
X77757144Y-97275428D01*
X77757144Y-97275428D02*
X77757144Y-97161142D01*
X77757144Y-97161142D02*
X78328572Y-97046857D01*
X77300001Y-96704000D02*
X77185715Y-96646857D01*
X77185715Y-96646857D02*
X76957144Y-96646857D01*
X76957144Y-96646857D02*
X76842858Y-96704000D01*
X76842858Y-96704000D02*
X76785715Y-96818285D01*
X76785715Y-96818285D02*
X76785715Y-96875428D01*
X76785715Y-96875428D02*
X76842858Y-96989714D01*
X76842858Y-96989714D02*
X76957144Y-97046857D01*
X76957144Y-97046857D02*
X77128573Y-97046857D01*
X77128573Y-97046857D02*
X77242858Y-97104000D01*
X77242858Y-97104000D02*
X77300001Y-97218285D01*
X77300001Y-97218285D02*
X77300001Y-97275428D01*
X77300001Y-97275428D02*
X77242858Y-97389714D01*
X77242858Y-97389714D02*
X77128573Y-97446857D01*
X77128573Y-97446857D02*
X76957144Y-97446857D01*
X76957144Y-97446857D02*
X76842858Y-97389714D01*
X76328572Y-96704000D02*
X76214286Y-96646857D01*
X76214286Y-96646857D02*
X75985715Y-96646857D01*
X75985715Y-96646857D02*
X75871429Y-96704000D01*
X75871429Y-96704000D02*
X75814286Y-96818285D01*
X75814286Y-96818285D02*
X75814286Y-96875428D01*
X75814286Y-96875428D02*
X75871429Y-96989714D01*
X75871429Y-96989714D02*
X75985715Y-97046857D01*
X75985715Y-97046857D02*
X76157144Y-97046857D01*
X76157144Y-97046857D02*
X76271429Y-97104000D01*
X76271429Y-97104000D02*
X76328572Y-97218285D01*
X76328572Y-97218285D02*
X76328572Y-97275428D01*
X76328572Y-97275428D02*
X76271429Y-97389714D01*
X76271429Y-97389714D02*
X76157144Y-97446857D01*
X76157144Y-97446857D02*
X75985715Y-97446857D01*
X75985715Y-97446857D02*
X75871429Y-97389714D01*
X62670000Y-88940476D02*
X62622380Y-89083333D01*
X62622380Y-89083333D02*
X62622380Y-89321428D01*
X62622380Y-89321428D02*
X62670000Y-89416666D01*
X62670000Y-89416666D02*
X62717619Y-89464285D01*
X62717619Y-89464285D02*
X62812857Y-89511904D01*
X62812857Y-89511904D02*
X62908095Y-89511904D01*
X62908095Y-89511904D02*
X63003333Y-89464285D01*
X63003333Y-89464285D02*
X63050952Y-89416666D01*
X63050952Y-89416666D02*
X63098571Y-89321428D01*
X63098571Y-89321428D02*
X63146190Y-89130952D01*
X63146190Y-89130952D02*
X63193809Y-89035714D01*
X63193809Y-89035714D02*
X63241428Y-88988095D01*
X63241428Y-88988095D02*
X63336666Y-88940476D01*
X63336666Y-88940476D02*
X63431904Y-88940476D01*
X63431904Y-88940476D02*
X63527142Y-88988095D01*
X63527142Y-88988095D02*
X63574761Y-89035714D01*
X63574761Y-89035714D02*
X63622380Y-89130952D01*
X63622380Y-89130952D02*
X63622380Y-89369047D01*
X63622380Y-89369047D02*
X63574761Y-89511904D01*
X62622380Y-89940476D02*
X63622380Y-89940476D01*
X63622380Y-89940476D02*
X63622380Y-90178571D01*
X63622380Y-90178571D02*
X63574761Y-90321428D01*
X63574761Y-90321428D02*
X63479523Y-90416666D01*
X63479523Y-90416666D02*
X63384285Y-90464285D01*
X63384285Y-90464285D02*
X63193809Y-90511904D01*
X63193809Y-90511904D02*
X63050952Y-90511904D01*
X63050952Y-90511904D02*
X62860476Y-90464285D01*
X62860476Y-90464285D02*
X62765238Y-90416666D01*
X62765238Y-90416666D02*
X62670000Y-90321428D01*
X62670000Y-90321428D02*
X62622380Y-90178571D01*
X62622380Y-90178571D02*
X62622380Y-89940476D01*
X62908095Y-90892857D02*
X62908095Y-91369047D01*
X62622380Y-90797619D02*
X63622380Y-91130952D01*
X63622380Y-91130952D02*
X62622380Y-91464285D01*
D10*
X69500000Y-104500000D02*
G75*
G03*
X69500000Y-104500000I-500000J0D01*
G01*
X59000000Y-105500000D02*
X54500000Y-105500000D01*
X54500000Y-100000000D01*
X59000000Y-100000000D01*
X59000000Y-105500000D01*
X74500000Y-96000000D02*
X74500000Y-105000000D01*
D12*
X88750000Y-97000000D02*
G75*
G03*
X88750000Y-97000000I-250000J0D01*
G01*
D10*
X76000000Y-90500000D02*
X70000000Y-90500000D01*
D13*
X86412500Y-94500000D02*
G75*
G03*
X86412500Y-94500000I-162500J0D01*
G01*
D10*
X83000000Y-100000000D02*
X83000000Y-96000000D01*
X69500000Y-98000000D02*
X63500000Y-98000000D01*
X63500000Y-92000000D01*
X69500000Y-92000000D01*
X69500000Y-98000000D01*
X81000000Y-85500000D02*
X74500000Y-85500000D01*
X70000000Y-90500000D02*
X70000000Y-86000000D01*
X81000000Y-90500000D02*
X81000000Y-85500000D01*
X83000000Y-96000000D02*
X74500000Y-96000000D01*
X74500000Y-105000000D02*
X82500000Y-105000000D01*
X80000000Y-90500000D02*
X81000000Y-90500000D01*
X112571428Y-97233809D02*
X112714285Y-97281428D01*
X112714285Y-97281428D02*
X112761904Y-97329047D01*
X112761904Y-97329047D02*
X112809523Y-97424285D01*
X112809523Y-97424285D02*
X112809523Y-97567142D01*
X112809523Y-97567142D02*
X112761904Y-97662380D01*
X112761904Y-97662380D02*
X112714285Y-97710000D01*
X112714285Y-97710000D02*
X112619047Y-97757619D01*
X112619047Y-97757619D02*
X112238095Y-97757619D01*
X112238095Y-97757619D02*
X112238095Y-96757619D01*
X112238095Y-96757619D02*
X112571428Y-96757619D01*
X112571428Y-96757619D02*
X112666666Y-96805238D01*
X112666666Y-96805238D02*
X112714285Y-96852857D01*
X112714285Y-96852857D02*
X112761904Y-96948095D01*
X112761904Y-96948095D02*
X112761904Y-97043333D01*
X112761904Y-97043333D02*
X112714285Y-97138571D01*
X112714285Y-97138571D02*
X112666666Y-97186190D01*
X112666666Y-97186190D02*
X112571428Y-97233809D01*
X112571428Y-97233809D02*
X112238095Y-97233809D01*
X113666666Y-97757619D02*
X113666666Y-97233809D01*
X113666666Y-97233809D02*
X113619047Y-97138571D01*
X113619047Y-97138571D02*
X113523809Y-97090952D01*
X113523809Y-97090952D02*
X113333333Y-97090952D01*
X113333333Y-97090952D02*
X113238095Y-97138571D01*
X113666666Y-97710000D02*
X113571428Y-97757619D01*
X113571428Y-97757619D02*
X113333333Y-97757619D01*
X113333333Y-97757619D02*
X113238095Y-97710000D01*
X113238095Y-97710000D02*
X113190476Y-97614761D01*
X113190476Y-97614761D02*
X113190476Y-97519523D01*
X113190476Y-97519523D02*
X113238095Y-97424285D01*
X113238095Y-97424285D02*
X113333333Y-97376666D01*
X113333333Y-97376666D02*
X113571428Y-97376666D01*
X113571428Y-97376666D02*
X113666666Y-97329047D01*
X114000000Y-97090952D02*
X114380952Y-97090952D01*
X114142857Y-96757619D02*
X114142857Y-97614761D01*
X114142857Y-97614761D02*
X114190476Y-97710000D01*
X114190476Y-97710000D02*
X114285714Y-97757619D01*
X114285714Y-97757619D02*
X114380952Y-97757619D01*
X114571429Y-97090952D02*
X114952381Y-97090952D01*
X114714286Y-96757619D02*
X114714286Y-97614761D01*
X114714286Y-97614761D02*
X114761905Y-97710000D01*
X114761905Y-97710000D02*
X114857143Y-97757619D01*
X114857143Y-97757619D02*
X114952381Y-97757619D01*
X115666667Y-97710000D02*
X115571429Y-97757619D01*
X115571429Y-97757619D02*
X115380953Y-97757619D01*
X115380953Y-97757619D02*
X115285715Y-97710000D01*
X115285715Y-97710000D02*
X115238096Y-97614761D01*
X115238096Y-97614761D02*
X115238096Y-97233809D01*
X115238096Y-97233809D02*
X115285715Y-97138571D01*
X115285715Y-97138571D02*
X115380953Y-97090952D01*
X115380953Y-97090952D02*
X115571429Y-97090952D01*
X115571429Y-97090952D02*
X115666667Y-97138571D01*
X115666667Y-97138571D02*
X115714286Y-97233809D01*
X115714286Y-97233809D02*
X115714286Y-97329047D01*
X115714286Y-97329047D02*
X115238096Y-97424285D01*
X116142858Y-97757619D02*
X116142858Y-97090952D01*
X116142858Y-97281428D02*
X116190477Y-97186190D01*
X116190477Y-97186190D02*
X116238096Y-97138571D01*
X116238096Y-97138571D02*
X116333334Y-97090952D01*
X116333334Y-97090952D02*
X116428572Y-97090952D01*
X116666668Y-97090952D02*
X116904763Y-97757619D01*
X117142858Y-97090952D02*
X116904763Y-97757619D01*
X116904763Y-97757619D02*
X116809525Y-97995714D01*
X116809525Y-97995714D02*
X116761906Y-98043333D01*
X116761906Y-98043333D02*
X116666668Y-98090952D01*
X112238095Y-99377619D02*
X112238095Y-98377619D01*
X112238095Y-98377619D02*
X112571428Y-99091904D01*
X112571428Y-99091904D02*
X112904761Y-98377619D01*
X112904761Y-98377619D02*
X112904761Y-99377619D01*
X113523809Y-99377619D02*
X113428571Y-99330000D01*
X113428571Y-99330000D02*
X113380952Y-99282380D01*
X113380952Y-99282380D02*
X113333333Y-99187142D01*
X113333333Y-99187142D02*
X113333333Y-98901428D01*
X113333333Y-98901428D02*
X113380952Y-98806190D01*
X113380952Y-98806190D02*
X113428571Y-98758571D01*
X113428571Y-98758571D02*
X113523809Y-98710952D01*
X113523809Y-98710952D02*
X113666666Y-98710952D01*
X113666666Y-98710952D02*
X113761904Y-98758571D01*
X113761904Y-98758571D02*
X113809523Y-98806190D01*
X113809523Y-98806190D02*
X113857142Y-98901428D01*
X113857142Y-98901428D02*
X113857142Y-99187142D01*
X113857142Y-99187142D02*
X113809523Y-99282380D01*
X113809523Y-99282380D02*
X113761904Y-99330000D01*
X113761904Y-99330000D02*
X113666666Y-99377619D01*
X113666666Y-99377619D02*
X113523809Y-99377619D01*
X114714285Y-99377619D02*
X114714285Y-98377619D01*
X114714285Y-99330000D02*
X114619047Y-99377619D01*
X114619047Y-99377619D02*
X114428571Y-99377619D01*
X114428571Y-99377619D02*
X114333333Y-99330000D01*
X114333333Y-99330000D02*
X114285714Y-99282380D01*
X114285714Y-99282380D02*
X114238095Y-99187142D01*
X114238095Y-99187142D02*
X114238095Y-98901428D01*
X114238095Y-98901428D02*
X114285714Y-98806190D01*
X114285714Y-98806190D02*
X114333333Y-98758571D01*
X114333333Y-98758571D02*
X114428571Y-98710952D01*
X114428571Y-98710952D02*
X114619047Y-98710952D01*
X114619047Y-98710952D02*
X114714285Y-98758571D01*
X115571428Y-99330000D02*
X115476190Y-99377619D01*
X115476190Y-99377619D02*
X115285714Y-99377619D01*
X115285714Y-99377619D02*
X115190476Y-99330000D01*
X115190476Y-99330000D02*
X115142857Y-99234761D01*
X115142857Y-99234761D02*
X115142857Y-98853809D01*
X115142857Y-98853809D02*
X115190476Y-98758571D01*
X115190476Y-98758571D02*
X115285714Y-98710952D01*
X115285714Y-98710952D02*
X115476190Y-98710952D01*
X115476190Y-98710952D02*
X115571428Y-98758571D01*
X115571428Y-98758571D02*
X115619047Y-98853809D01*
X115619047Y-98853809D02*
X115619047Y-98949047D01*
X115619047Y-98949047D02*
X115142857Y-99044285D01*
D11*
X100728571Y-103852000D02*
X100900000Y-103909142D01*
X100900000Y-103909142D02*
X101185714Y-103909142D01*
X101185714Y-103909142D02*
X101300000Y-103852000D01*
X101300000Y-103852000D02*
X101357142Y-103794857D01*
X101357142Y-103794857D02*
X101414285Y-103680571D01*
X101414285Y-103680571D02*
X101414285Y-103566285D01*
X101414285Y-103566285D02*
X101357142Y-103452000D01*
X101357142Y-103452000D02*
X101300000Y-103394857D01*
X101300000Y-103394857D02*
X101185714Y-103337714D01*
X101185714Y-103337714D02*
X100957142Y-103280571D01*
X100957142Y-103280571D02*
X100842857Y-103223428D01*
X100842857Y-103223428D02*
X100785714Y-103166285D01*
X100785714Y-103166285D02*
X100728571Y-103052000D01*
X100728571Y-103052000D02*
X100728571Y-102937714D01*
X100728571Y-102937714D02*
X100785714Y-102823428D01*
X100785714Y-102823428D02*
X100842857Y-102766285D01*
X100842857Y-102766285D02*
X100957142Y-102709142D01*
X100957142Y-102709142D02*
X101242857Y-102709142D01*
X101242857Y-102709142D02*
X101414285Y-102766285D01*
X102385714Y-103852000D02*
X102271428Y-103909142D01*
X102271428Y-103909142D02*
X102042857Y-103909142D01*
X102042857Y-103909142D02*
X101928571Y-103852000D01*
X101928571Y-103852000D02*
X101871428Y-103737714D01*
X101871428Y-103737714D02*
X101871428Y-103280571D01*
X101871428Y-103280571D02*
X101928571Y-103166285D01*
X101928571Y-103166285D02*
X102042857Y-103109142D01*
X102042857Y-103109142D02*
X102271428Y-103109142D01*
X102271428Y-103109142D02*
X102385714Y-103166285D01*
X102385714Y-103166285D02*
X102442857Y-103280571D01*
X102442857Y-103280571D02*
X102442857Y-103394857D01*
X102442857Y-103394857D02*
X101871428Y-103509142D01*
X102957142Y-103109142D02*
X102957142Y-103909142D01*
X102957142Y-103223428D02*
X103014285Y-103166285D01*
X103014285Y-103166285D02*
X103128570Y-103109142D01*
X103128570Y-103109142D02*
X103299999Y-103109142D01*
X103299999Y-103109142D02*
X103414285Y-103166285D01*
X103414285Y-103166285D02*
X103471428Y-103280571D01*
X103471428Y-103280571D02*
X103471428Y-103909142D01*
X103985713Y-103852000D02*
X104099999Y-103909142D01*
X104099999Y-103909142D02*
X104328570Y-103909142D01*
X104328570Y-103909142D02*
X104442856Y-103852000D01*
X104442856Y-103852000D02*
X104499999Y-103737714D01*
X104499999Y-103737714D02*
X104499999Y-103680571D01*
X104499999Y-103680571D02*
X104442856Y-103566285D01*
X104442856Y-103566285D02*
X104328570Y-103509142D01*
X104328570Y-103509142D02*
X104157142Y-103509142D01*
X104157142Y-103509142D02*
X104042856Y-103452000D01*
X104042856Y-103452000D02*
X103985713Y-103337714D01*
X103985713Y-103337714D02*
X103985713Y-103280571D01*
X103985713Y-103280571D02*
X104042856Y-103166285D01*
X104042856Y-103166285D02*
X104157142Y-103109142D01*
X104157142Y-103109142D02*
X104328570Y-103109142D01*
X104328570Y-103109142D02*
X104442856Y-103166285D01*
X105185713Y-103909142D02*
X105071428Y-103852000D01*
X105071428Y-103852000D02*
X105014285Y-103794857D01*
X105014285Y-103794857D02*
X104957142Y-103680571D01*
X104957142Y-103680571D02*
X104957142Y-103337714D01*
X104957142Y-103337714D02*
X105014285Y-103223428D01*
X105014285Y-103223428D02*
X105071428Y-103166285D01*
X105071428Y-103166285D02*
X105185713Y-103109142D01*
X105185713Y-103109142D02*
X105357142Y-103109142D01*
X105357142Y-103109142D02*
X105471428Y-103166285D01*
X105471428Y-103166285D02*
X105528571Y-103223428D01*
X105528571Y-103223428D02*
X105585713Y-103337714D01*
X105585713Y-103337714D02*
X105585713Y-103680571D01*
X105585713Y-103680571D02*
X105528571Y-103794857D01*
X105528571Y-103794857D02*
X105471428Y-103852000D01*
X105471428Y-103852000D02*
X105357142Y-103909142D01*
X105357142Y-103909142D02*
X105185713Y-103909142D01*
X106099999Y-103909142D02*
X106099999Y-103109142D01*
X106099999Y-103337714D02*
X106157142Y-103223428D01*
X106157142Y-103223428D02*
X106214285Y-103166285D01*
X106214285Y-103166285D02*
X106328570Y-103109142D01*
X106328570Y-103109142D02*
X106442856Y-103109142D01*
X107471427Y-103909142D02*
X106785713Y-103909142D01*
X107128570Y-103909142D02*
X107128570Y-102709142D01*
X107128570Y-102709142D02*
X107014284Y-102880571D01*
X107014284Y-102880571D02*
X106899999Y-102994857D01*
X106899999Y-102994857D02*
X106785713Y-103052000D01*
X100728571Y-105510285D02*
X101300000Y-105510285D01*
X100614285Y-105853142D02*
X101014285Y-104653142D01*
X101014285Y-104653142D02*
X101414285Y-105853142D01*
X102328571Y-105853142D02*
X102328571Y-104653142D01*
X102328571Y-105796000D02*
X102214285Y-105853142D01*
X102214285Y-105853142D02*
X101985713Y-105853142D01*
X101985713Y-105853142D02*
X101871428Y-105796000D01*
X101871428Y-105796000D02*
X101814285Y-105738857D01*
X101814285Y-105738857D02*
X101757142Y-105624571D01*
X101757142Y-105624571D02*
X101757142Y-105281714D01*
X101757142Y-105281714D02*
X101814285Y-105167428D01*
X101814285Y-105167428D02*
X101871428Y-105110285D01*
X101871428Y-105110285D02*
X101985713Y-105053142D01*
X101985713Y-105053142D02*
X102214285Y-105053142D01*
X102214285Y-105053142D02*
X102328571Y-105110285D01*
X103414285Y-105853142D02*
X103414285Y-104653142D01*
X103414285Y-105796000D02*
X103299999Y-105853142D01*
X103299999Y-105853142D02*
X103071427Y-105853142D01*
X103071427Y-105853142D02*
X102957142Y-105796000D01*
X102957142Y-105796000D02*
X102899999Y-105738857D01*
X102899999Y-105738857D02*
X102842856Y-105624571D01*
X102842856Y-105624571D02*
X102842856Y-105281714D01*
X102842856Y-105281714D02*
X102899999Y-105167428D01*
X102899999Y-105167428D02*
X102957142Y-105110285D01*
X102957142Y-105110285D02*
X103071427Y-105053142D01*
X103071427Y-105053142D02*
X103299999Y-105053142D01*
X103299999Y-105053142D02*
X103414285Y-105110285D01*
X103985713Y-105853142D02*
X103985713Y-105053142D01*
X103985713Y-105281714D02*
X104042856Y-105167428D01*
X104042856Y-105167428D02*
X104099999Y-105110285D01*
X104099999Y-105110285D02*
X104214284Y-105053142D01*
X104214284Y-105053142D02*
X104328570Y-105053142D01*
X105185713Y-105796000D02*
X105071427Y-105853142D01*
X105071427Y-105853142D02*
X104842856Y-105853142D01*
X104842856Y-105853142D02*
X104728570Y-105796000D01*
X104728570Y-105796000D02*
X104671427Y-105681714D01*
X104671427Y-105681714D02*
X104671427Y-105224571D01*
X104671427Y-105224571D02*
X104728570Y-105110285D01*
X104728570Y-105110285D02*
X104842856Y-105053142D01*
X104842856Y-105053142D02*
X105071427Y-105053142D01*
X105071427Y-105053142D02*
X105185713Y-105110285D01*
X105185713Y-105110285D02*
X105242856Y-105224571D01*
X105242856Y-105224571D02*
X105242856Y-105338857D01*
X105242856Y-105338857D02*
X104671427Y-105453142D01*
X105699998Y-105796000D02*
X105814284Y-105853142D01*
X105814284Y-105853142D02*
X106042855Y-105853142D01*
X106042855Y-105853142D02*
X106157141Y-105796000D01*
X106157141Y-105796000D02*
X106214284Y-105681714D01*
X106214284Y-105681714D02*
X106214284Y-105624571D01*
X106214284Y-105624571D02*
X106157141Y-105510285D01*
X106157141Y-105510285D02*
X106042855Y-105453142D01*
X106042855Y-105453142D02*
X105871427Y-105453142D01*
X105871427Y-105453142D02*
X105757141Y-105396000D01*
X105757141Y-105396000D02*
X105699998Y-105281714D01*
X105699998Y-105281714D02*
X105699998Y-105224571D01*
X105699998Y-105224571D02*
X105757141Y-105110285D01*
X105757141Y-105110285D02*
X105871427Y-105053142D01*
X105871427Y-105053142D02*
X106042855Y-105053142D01*
X106042855Y-105053142D02*
X106157141Y-105110285D01*
X106671427Y-105796000D02*
X106785713Y-105853142D01*
X106785713Y-105853142D02*
X107014284Y-105853142D01*
X107014284Y-105853142D02*
X107128570Y-105796000D01*
X107128570Y-105796000D02*
X107185713Y-105681714D01*
X107185713Y-105681714D02*
X107185713Y-105624571D01*
X107185713Y-105624571D02*
X107128570Y-105510285D01*
X107128570Y-105510285D02*
X107014284Y-105453142D01*
X107014284Y-105453142D02*
X106842856Y-105453142D01*
X106842856Y-105453142D02*
X106728570Y-105396000D01*
X106728570Y-105396000D02*
X106671427Y-105281714D01*
X106671427Y-105281714D02*
X106671427Y-105224571D01*
X106671427Y-105224571D02*
X106728570Y-105110285D01*
X106728570Y-105110285D02*
X106842856Y-105053142D01*
X106842856Y-105053142D02*
X107014284Y-105053142D01*
X107014284Y-105053142D02*
X107128570Y-105110285D01*
D10*
X120853809Y-90428571D02*
X120901428Y-90285714D01*
X120901428Y-90285714D02*
X120949047Y-90238095D01*
X120949047Y-90238095D02*
X121044285Y-90190476D01*
X121044285Y-90190476D02*
X121187142Y-90190476D01*
X121187142Y-90190476D02*
X121282380Y-90238095D01*
X121282380Y-90238095D02*
X121330000Y-90285714D01*
X121330000Y-90285714D02*
X121377619Y-90380952D01*
X121377619Y-90380952D02*
X121377619Y-90761904D01*
X121377619Y-90761904D02*
X120377619Y-90761904D01*
X120377619Y-90761904D02*
X120377619Y-90428571D01*
X120377619Y-90428571D02*
X120425238Y-90333333D01*
X120425238Y-90333333D02*
X120472857Y-90285714D01*
X120472857Y-90285714D02*
X120568095Y-90238095D01*
X120568095Y-90238095D02*
X120663333Y-90238095D01*
X120663333Y-90238095D02*
X120758571Y-90285714D01*
X120758571Y-90285714D02*
X120806190Y-90333333D01*
X120806190Y-90333333D02*
X120853809Y-90428571D01*
X120853809Y-90428571D02*
X120853809Y-90761904D01*
X121377619Y-89333333D02*
X120853809Y-89333333D01*
X120853809Y-89333333D02*
X120758571Y-89380952D01*
X120758571Y-89380952D02*
X120710952Y-89476190D01*
X120710952Y-89476190D02*
X120710952Y-89666666D01*
X120710952Y-89666666D02*
X120758571Y-89761904D01*
X121330000Y-89333333D02*
X121377619Y-89428571D01*
X121377619Y-89428571D02*
X121377619Y-89666666D01*
X121377619Y-89666666D02*
X121330000Y-89761904D01*
X121330000Y-89761904D02*
X121234761Y-89809523D01*
X121234761Y-89809523D02*
X121139523Y-89809523D01*
X121139523Y-89809523D02*
X121044285Y-89761904D01*
X121044285Y-89761904D02*
X120996666Y-89666666D01*
X120996666Y-89666666D02*
X120996666Y-89428571D01*
X120996666Y-89428571D02*
X120949047Y-89333333D01*
X120710952Y-88999999D02*
X120710952Y-88619047D01*
X120377619Y-88857142D02*
X121234761Y-88857142D01*
X121234761Y-88857142D02*
X121330000Y-88809523D01*
X121330000Y-88809523D02*
X121377619Y-88714285D01*
X121377619Y-88714285D02*
X121377619Y-88619047D01*
X120710952Y-88428570D02*
X120710952Y-88047618D01*
X120377619Y-88285713D02*
X121234761Y-88285713D01*
X121234761Y-88285713D02*
X121330000Y-88238094D01*
X121330000Y-88238094D02*
X121377619Y-88142856D01*
X121377619Y-88142856D02*
X121377619Y-88047618D01*
D11*
X120830000Y-103059523D02*
X120877619Y-102916666D01*
X120877619Y-102916666D02*
X120877619Y-102678571D01*
X120877619Y-102678571D02*
X120830000Y-102583333D01*
X120830000Y-102583333D02*
X120782380Y-102535714D01*
X120782380Y-102535714D02*
X120687142Y-102488095D01*
X120687142Y-102488095D02*
X120591904Y-102488095D01*
X120591904Y-102488095D02*
X120496666Y-102535714D01*
X120496666Y-102535714D02*
X120449047Y-102583333D01*
X120449047Y-102583333D02*
X120401428Y-102678571D01*
X120401428Y-102678571D02*
X120353809Y-102869047D01*
X120353809Y-102869047D02*
X120306190Y-102964285D01*
X120306190Y-102964285D02*
X120258571Y-103011904D01*
X120258571Y-103011904D02*
X120163333Y-103059523D01*
X120163333Y-103059523D02*
X120068095Y-103059523D01*
X120068095Y-103059523D02*
X119972857Y-103011904D01*
X119972857Y-103011904D02*
X119925238Y-102964285D01*
X119925238Y-102964285D02*
X119877619Y-102869047D01*
X119877619Y-102869047D02*
X119877619Y-102630952D01*
X119877619Y-102630952D02*
X119925238Y-102488095D01*
X120782380Y-101488095D02*
X120830000Y-101535714D01*
X120830000Y-101535714D02*
X120877619Y-101678571D01*
X120877619Y-101678571D02*
X120877619Y-101773809D01*
X120877619Y-101773809D02*
X120830000Y-101916666D01*
X120830000Y-101916666D02*
X120734761Y-102011904D01*
X120734761Y-102011904D02*
X120639523Y-102059523D01*
X120639523Y-102059523D02*
X120449047Y-102107142D01*
X120449047Y-102107142D02*
X120306190Y-102107142D01*
X120306190Y-102107142D02*
X120115714Y-102059523D01*
X120115714Y-102059523D02*
X120020476Y-102011904D01*
X120020476Y-102011904D02*
X119925238Y-101916666D01*
X119925238Y-101916666D02*
X119877619Y-101773809D01*
X119877619Y-101773809D02*
X119877619Y-101678571D01*
X119877619Y-101678571D02*
X119925238Y-101535714D01*
X119925238Y-101535714D02*
X119972857Y-101488095D01*
X120877619Y-100583333D02*
X120877619Y-101059523D01*
X120877619Y-101059523D02*
X119877619Y-101059523D01*
X124785714Y-87896000D02*
X125700000Y-87896000D01*
X124785714Y-90396000D02*
X125700000Y-90396000D01*
X125242857Y-90853142D02*
X125242857Y-89938857D01*
X98728571Y-93352000D02*
X98900000Y-93409142D01*
X98900000Y-93409142D02*
X99185714Y-93409142D01*
X99185714Y-93409142D02*
X99300000Y-93352000D01*
X99300000Y-93352000D02*
X99357142Y-93294857D01*
X99357142Y-93294857D02*
X99414285Y-93180571D01*
X99414285Y-93180571D02*
X99414285Y-93066285D01*
X99414285Y-93066285D02*
X99357142Y-92952000D01*
X99357142Y-92952000D02*
X99300000Y-92894857D01*
X99300000Y-92894857D02*
X99185714Y-92837714D01*
X99185714Y-92837714D02*
X98957142Y-92780571D01*
X98957142Y-92780571D02*
X98842857Y-92723428D01*
X98842857Y-92723428D02*
X98785714Y-92666285D01*
X98785714Y-92666285D02*
X98728571Y-92552000D01*
X98728571Y-92552000D02*
X98728571Y-92437714D01*
X98728571Y-92437714D02*
X98785714Y-92323428D01*
X98785714Y-92323428D02*
X98842857Y-92266285D01*
X98842857Y-92266285D02*
X98957142Y-92209142D01*
X98957142Y-92209142D02*
X99242857Y-92209142D01*
X99242857Y-92209142D02*
X99414285Y-92266285D01*
X100385714Y-93352000D02*
X100271428Y-93409142D01*
X100271428Y-93409142D02*
X100042857Y-93409142D01*
X100042857Y-93409142D02*
X99928571Y-93352000D01*
X99928571Y-93352000D02*
X99871428Y-93237714D01*
X99871428Y-93237714D02*
X99871428Y-92780571D01*
X99871428Y-92780571D02*
X99928571Y-92666285D01*
X99928571Y-92666285D02*
X100042857Y-92609142D01*
X100042857Y-92609142D02*
X100271428Y-92609142D01*
X100271428Y-92609142D02*
X100385714Y-92666285D01*
X100385714Y-92666285D02*
X100442857Y-92780571D01*
X100442857Y-92780571D02*
X100442857Y-92894857D01*
X100442857Y-92894857D02*
X99871428Y-93009142D01*
X100957142Y-92609142D02*
X100957142Y-93409142D01*
X100957142Y-92723428D02*
X101014285Y-92666285D01*
X101014285Y-92666285D02*
X101128570Y-92609142D01*
X101128570Y-92609142D02*
X101299999Y-92609142D01*
X101299999Y-92609142D02*
X101414285Y-92666285D01*
X101414285Y-92666285D02*
X101471428Y-92780571D01*
X101471428Y-92780571D02*
X101471428Y-93409142D01*
X101985713Y-93352000D02*
X102099999Y-93409142D01*
X102099999Y-93409142D02*
X102328570Y-93409142D01*
X102328570Y-93409142D02*
X102442856Y-93352000D01*
X102442856Y-93352000D02*
X102499999Y-93237714D01*
X102499999Y-93237714D02*
X102499999Y-93180571D01*
X102499999Y-93180571D02*
X102442856Y-93066285D01*
X102442856Y-93066285D02*
X102328570Y-93009142D01*
X102328570Y-93009142D02*
X102157142Y-93009142D01*
X102157142Y-93009142D02*
X102042856Y-92952000D01*
X102042856Y-92952000D02*
X101985713Y-92837714D01*
X101985713Y-92837714D02*
X101985713Y-92780571D01*
X101985713Y-92780571D02*
X102042856Y-92666285D01*
X102042856Y-92666285D02*
X102157142Y-92609142D01*
X102157142Y-92609142D02*
X102328570Y-92609142D01*
X102328570Y-92609142D02*
X102442856Y-92666285D01*
X103185713Y-93409142D02*
X103071428Y-93352000D01*
X103071428Y-93352000D02*
X103014285Y-93294857D01*
X103014285Y-93294857D02*
X102957142Y-93180571D01*
X102957142Y-93180571D02*
X102957142Y-92837714D01*
X102957142Y-92837714D02*
X103014285Y-92723428D01*
X103014285Y-92723428D02*
X103071428Y-92666285D01*
X103071428Y-92666285D02*
X103185713Y-92609142D01*
X103185713Y-92609142D02*
X103357142Y-92609142D01*
X103357142Y-92609142D02*
X103471428Y-92666285D01*
X103471428Y-92666285D02*
X103528571Y-92723428D01*
X103528571Y-92723428D02*
X103585713Y-92837714D01*
X103585713Y-92837714D02*
X103585713Y-93180571D01*
X103585713Y-93180571D02*
X103528571Y-93294857D01*
X103528571Y-93294857D02*
X103471428Y-93352000D01*
X103471428Y-93352000D02*
X103357142Y-93409142D01*
X103357142Y-93409142D02*
X103185713Y-93409142D01*
X104099999Y-93409142D02*
X104099999Y-92609142D01*
X104099999Y-92837714D02*
X104157142Y-92723428D01*
X104157142Y-92723428D02*
X104214285Y-92666285D01*
X104214285Y-92666285D02*
X104328570Y-92609142D01*
X104328570Y-92609142D02*
X104442856Y-92609142D01*
X105071427Y-92209142D02*
X105185713Y-92209142D01*
X105185713Y-92209142D02*
X105299999Y-92266285D01*
X105299999Y-92266285D02*
X105357142Y-92323428D01*
X105357142Y-92323428D02*
X105414284Y-92437714D01*
X105414284Y-92437714D02*
X105471427Y-92666285D01*
X105471427Y-92666285D02*
X105471427Y-92952000D01*
X105471427Y-92952000D02*
X105414284Y-93180571D01*
X105414284Y-93180571D02*
X105357142Y-93294857D01*
X105357142Y-93294857D02*
X105299999Y-93352000D01*
X105299999Y-93352000D02*
X105185713Y-93409142D01*
X105185713Y-93409142D02*
X105071427Y-93409142D01*
X105071427Y-93409142D02*
X104957142Y-93352000D01*
X104957142Y-93352000D02*
X104899999Y-93294857D01*
X104899999Y-93294857D02*
X104842856Y-93180571D01*
X104842856Y-93180571D02*
X104785713Y-92952000D01*
X104785713Y-92952000D02*
X104785713Y-92666285D01*
X104785713Y-92666285D02*
X104842856Y-92437714D01*
X104842856Y-92437714D02*
X104899999Y-92323428D01*
X104899999Y-92323428D02*
X104957142Y-92266285D01*
X104957142Y-92266285D02*
X105071427Y-92209142D01*
X98728571Y-95010285D02*
X99300000Y-95010285D01*
X98614285Y-95353142D02*
X99014285Y-94153142D01*
X99014285Y-94153142D02*
X99414285Y-95353142D01*
X100328571Y-95353142D02*
X100328571Y-94153142D01*
X100328571Y-95296000D02*
X100214285Y-95353142D01*
X100214285Y-95353142D02*
X99985713Y-95353142D01*
X99985713Y-95353142D02*
X99871428Y-95296000D01*
X99871428Y-95296000D02*
X99814285Y-95238857D01*
X99814285Y-95238857D02*
X99757142Y-95124571D01*
X99757142Y-95124571D02*
X99757142Y-94781714D01*
X99757142Y-94781714D02*
X99814285Y-94667428D01*
X99814285Y-94667428D02*
X99871428Y-94610285D01*
X99871428Y-94610285D02*
X99985713Y-94553142D01*
X99985713Y-94553142D02*
X100214285Y-94553142D01*
X100214285Y-94553142D02*
X100328571Y-94610285D01*
X101414285Y-95353142D02*
X101414285Y-94153142D01*
X101414285Y-95296000D02*
X101299999Y-95353142D01*
X101299999Y-95353142D02*
X101071427Y-95353142D01*
X101071427Y-95353142D02*
X100957142Y-95296000D01*
X100957142Y-95296000D02*
X100899999Y-95238857D01*
X100899999Y-95238857D02*
X100842856Y-95124571D01*
X100842856Y-95124571D02*
X100842856Y-94781714D01*
X100842856Y-94781714D02*
X100899999Y-94667428D01*
X100899999Y-94667428D02*
X100957142Y-94610285D01*
X100957142Y-94610285D02*
X101071427Y-94553142D01*
X101071427Y-94553142D02*
X101299999Y-94553142D01*
X101299999Y-94553142D02*
X101414285Y-94610285D01*
X101985713Y-95353142D02*
X101985713Y-94553142D01*
X101985713Y-94781714D02*
X102042856Y-94667428D01*
X102042856Y-94667428D02*
X102099999Y-94610285D01*
X102099999Y-94610285D02*
X102214284Y-94553142D01*
X102214284Y-94553142D02*
X102328570Y-94553142D01*
X103185713Y-95296000D02*
X103071427Y-95353142D01*
X103071427Y-95353142D02*
X102842856Y-95353142D01*
X102842856Y-95353142D02*
X102728570Y-95296000D01*
X102728570Y-95296000D02*
X102671427Y-95181714D01*
X102671427Y-95181714D02*
X102671427Y-94724571D01*
X102671427Y-94724571D02*
X102728570Y-94610285D01*
X102728570Y-94610285D02*
X102842856Y-94553142D01*
X102842856Y-94553142D02*
X103071427Y-94553142D01*
X103071427Y-94553142D02*
X103185713Y-94610285D01*
X103185713Y-94610285D02*
X103242856Y-94724571D01*
X103242856Y-94724571D02*
X103242856Y-94838857D01*
X103242856Y-94838857D02*
X102671427Y-94953142D01*
X103699998Y-95296000D02*
X103814284Y-95353142D01*
X103814284Y-95353142D02*
X104042855Y-95353142D01*
X104042855Y-95353142D02*
X104157141Y-95296000D01*
X104157141Y-95296000D02*
X104214284Y-95181714D01*
X104214284Y-95181714D02*
X104214284Y-95124571D01*
X104214284Y-95124571D02*
X104157141Y-95010285D01*
X104157141Y-95010285D02*
X104042855Y-94953142D01*
X104042855Y-94953142D02*
X103871427Y-94953142D01*
X103871427Y-94953142D02*
X103757141Y-94896000D01*
X103757141Y-94896000D02*
X103699998Y-94781714D01*
X103699998Y-94781714D02*
X103699998Y-94724571D01*
X103699998Y-94724571D02*
X103757141Y-94610285D01*
X103757141Y-94610285D02*
X103871427Y-94553142D01*
X103871427Y-94553142D02*
X104042855Y-94553142D01*
X104042855Y-94553142D02*
X104157141Y-94610285D01*
X104671427Y-95296000D02*
X104785713Y-95353142D01*
X104785713Y-95353142D02*
X105014284Y-95353142D01*
X105014284Y-95353142D02*
X105128570Y-95296000D01*
X105128570Y-95296000D02*
X105185713Y-95181714D01*
X105185713Y-95181714D02*
X105185713Y-95124571D01*
X105185713Y-95124571D02*
X105128570Y-95010285D01*
X105128570Y-95010285D02*
X105014284Y-94953142D01*
X105014284Y-94953142D02*
X104842856Y-94953142D01*
X104842856Y-94953142D02*
X104728570Y-94896000D01*
X104728570Y-94896000D02*
X104671427Y-94781714D01*
X104671427Y-94781714D02*
X104671427Y-94724571D01*
X104671427Y-94724571D02*
X104728570Y-94610285D01*
X104728570Y-94610285D02*
X104842856Y-94553142D01*
X104842856Y-94553142D02*
X105014284Y-94553142D01*
X105014284Y-94553142D02*
X105128570Y-94610285D01*
X118330000Y-103059523D02*
X118377619Y-102916666D01*
X118377619Y-102916666D02*
X118377619Y-102678571D01*
X118377619Y-102678571D02*
X118330000Y-102583333D01*
X118330000Y-102583333D02*
X118282380Y-102535714D01*
X118282380Y-102535714D02*
X118187142Y-102488095D01*
X118187142Y-102488095D02*
X118091904Y-102488095D01*
X118091904Y-102488095D02*
X117996666Y-102535714D01*
X117996666Y-102535714D02*
X117949047Y-102583333D01*
X117949047Y-102583333D02*
X117901428Y-102678571D01*
X117901428Y-102678571D02*
X117853809Y-102869047D01*
X117853809Y-102869047D02*
X117806190Y-102964285D01*
X117806190Y-102964285D02*
X117758571Y-103011904D01*
X117758571Y-103011904D02*
X117663333Y-103059523D01*
X117663333Y-103059523D02*
X117568095Y-103059523D01*
X117568095Y-103059523D02*
X117472857Y-103011904D01*
X117472857Y-103011904D02*
X117425238Y-102964285D01*
X117425238Y-102964285D02*
X117377619Y-102869047D01*
X117377619Y-102869047D02*
X117377619Y-102630952D01*
X117377619Y-102630952D02*
X117425238Y-102488095D01*
X118377619Y-102059523D02*
X117377619Y-102059523D01*
X117377619Y-102059523D02*
X117377619Y-101821428D01*
X117377619Y-101821428D02*
X117425238Y-101678571D01*
X117425238Y-101678571D02*
X117520476Y-101583333D01*
X117520476Y-101583333D02*
X117615714Y-101535714D01*
X117615714Y-101535714D02*
X117806190Y-101488095D01*
X117806190Y-101488095D02*
X117949047Y-101488095D01*
X117949047Y-101488095D02*
X118139523Y-101535714D01*
X118139523Y-101535714D02*
X118234761Y-101583333D01*
X118234761Y-101583333D02*
X118330000Y-101678571D01*
X118330000Y-101678571D02*
X118377619Y-101821428D01*
X118377619Y-101821428D02*
X118377619Y-102059523D01*
X118091904Y-101107142D02*
X118091904Y-100630952D01*
X118377619Y-101202380D02*
X117377619Y-100869047D01*
X117377619Y-100869047D02*
X118377619Y-100535714D01*
D10*
X112500000Y-87500000D02*
G75*
G03*
X112500000Y-87500000I-500000J0D01*
G01*
X122000000Y-86500000D02*
X126500000Y-86500000D01*
X126500000Y-92000000D01*
X122000000Y-92000000D01*
X122000000Y-86500000D01*
X106500000Y-96000000D02*
X106500000Y-87000000D01*
D12*
X92750000Y-95000000D02*
G75*
G03*
X92750000Y-95000000I-250000J0D01*
G01*
D10*
X105000000Y-101500000D02*
X111000000Y-101500000D01*
D13*
X94912500Y-97500000D02*
G75*
G03*
X94912500Y-97500000I-162500J0D01*
G01*
D10*
X98000000Y-92000000D02*
X98000000Y-96000000D01*
X111500000Y-94000000D02*
X117500000Y-94000000D01*
X117500000Y-100000000D01*
X111500000Y-100000000D01*
X111500000Y-94000000D01*
X100000000Y-106500000D02*
X106500000Y-106500000D01*
X111000000Y-101500000D02*
X111000000Y-106000000D01*
X100000000Y-101500000D02*
X100000000Y-106500000D01*
X98000000Y-96000000D02*
X106500000Y-96000000D01*
X106500000Y-87000000D02*
X98500000Y-87000000D01*
X101000000Y-101500000D02*
X100000000Y-101500000D01*
X112571428Y-43233809D02*
X112714285Y-43281428D01*
X112714285Y-43281428D02*
X112761904Y-43329047D01*
X112761904Y-43329047D02*
X112809523Y-43424285D01*
X112809523Y-43424285D02*
X112809523Y-43567142D01*
X112809523Y-43567142D02*
X112761904Y-43662380D01*
X112761904Y-43662380D02*
X112714285Y-43710000D01*
X112714285Y-43710000D02*
X112619047Y-43757619D01*
X112619047Y-43757619D02*
X112238095Y-43757619D01*
X112238095Y-43757619D02*
X112238095Y-42757619D01*
X112238095Y-42757619D02*
X112571428Y-42757619D01*
X112571428Y-42757619D02*
X112666666Y-42805238D01*
X112666666Y-42805238D02*
X112714285Y-42852857D01*
X112714285Y-42852857D02*
X112761904Y-42948095D01*
X112761904Y-42948095D02*
X112761904Y-43043333D01*
X112761904Y-43043333D02*
X112714285Y-43138571D01*
X112714285Y-43138571D02*
X112666666Y-43186190D01*
X112666666Y-43186190D02*
X112571428Y-43233809D01*
X112571428Y-43233809D02*
X112238095Y-43233809D01*
X113666666Y-43757619D02*
X113666666Y-43233809D01*
X113666666Y-43233809D02*
X113619047Y-43138571D01*
X113619047Y-43138571D02*
X113523809Y-43090952D01*
X113523809Y-43090952D02*
X113333333Y-43090952D01*
X113333333Y-43090952D02*
X113238095Y-43138571D01*
X113666666Y-43710000D02*
X113571428Y-43757619D01*
X113571428Y-43757619D02*
X113333333Y-43757619D01*
X113333333Y-43757619D02*
X113238095Y-43710000D01*
X113238095Y-43710000D02*
X113190476Y-43614761D01*
X113190476Y-43614761D02*
X113190476Y-43519523D01*
X113190476Y-43519523D02*
X113238095Y-43424285D01*
X113238095Y-43424285D02*
X113333333Y-43376666D01*
X113333333Y-43376666D02*
X113571428Y-43376666D01*
X113571428Y-43376666D02*
X113666666Y-43329047D01*
X114000000Y-43090952D02*
X114380952Y-43090952D01*
X114142857Y-42757619D02*
X114142857Y-43614761D01*
X114142857Y-43614761D02*
X114190476Y-43710000D01*
X114190476Y-43710000D02*
X114285714Y-43757619D01*
X114285714Y-43757619D02*
X114380952Y-43757619D01*
X114571429Y-43090952D02*
X114952381Y-43090952D01*
X114714286Y-42757619D02*
X114714286Y-43614761D01*
X114714286Y-43614761D02*
X114761905Y-43710000D01*
X114761905Y-43710000D02*
X114857143Y-43757619D01*
X114857143Y-43757619D02*
X114952381Y-43757619D01*
X115666667Y-43710000D02*
X115571429Y-43757619D01*
X115571429Y-43757619D02*
X115380953Y-43757619D01*
X115380953Y-43757619D02*
X115285715Y-43710000D01*
X115285715Y-43710000D02*
X115238096Y-43614761D01*
X115238096Y-43614761D02*
X115238096Y-43233809D01*
X115238096Y-43233809D02*
X115285715Y-43138571D01*
X115285715Y-43138571D02*
X115380953Y-43090952D01*
X115380953Y-43090952D02*
X115571429Y-43090952D01*
X115571429Y-43090952D02*
X115666667Y-43138571D01*
X115666667Y-43138571D02*
X115714286Y-43233809D01*
X115714286Y-43233809D02*
X115714286Y-43329047D01*
X115714286Y-43329047D02*
X115238096Y-43424285D01*
X116142858Y-43757619D02*
X116142858Y-43090952D01*
X116142858Y-43281428D02*
X116190477Y-43186190D01*
X116190477Y-43186190D02*
X116238096Y-43138571D01*
X116238096Y-43138571D02*
X116333334Y-43090952D01*
X116333334Y-43090952D02*
X116428572Y-43090952D01*
X116666668Y-43090952D02*
X116904763Y-43757619D01*
X117142858Y-43090952D02*
X116904763Y-43757619D01*
X116904763Y-43757619D02*
X116809525Y-43995714D01*
X116809525Y-43995714D02*
X116761906Y-44043333D01*
X116761906Y-44043333D02*
X116666668Y-44090952D01*
X112238095Y-45377619D02*
X112238095Y-44377619D01*
X112238095Y-44377619D02*
X112571428Y-45091904D01*
X112571428Y-45091904D02*
X112904761Y-44377619D01*
X112904761Y-44377619D02*
X112904761Y-45377619D01*
X113523809Y-45377619D02*
X113428571Y-45330000D01*
X113428571Y-45330000D02*
X113380952Y-45282380D01*
X113380952Y-45282380D02*
X113333333Y-45187142D01*
X113333333Y-45187142D02*
X113333333Y-44901428D01*
X113333333Y-44901428D02*
X113380952Y-44806190D01*
X113380952Y-44806190D02*
X113428571Y-44758571D01*
X113428571Y-44758571D02*
X113523809Y-44710952D01*
X113523809Y-44710952D02*
X113666666Y-44710952D01*
X113666666Y-44710952D02*
X113761904Y-44758571D01*
X113761904Y-44758571D02*
X113809523Y-44806190D01*
X113809523Y-44806190D02*
X113857142Y-44901428D01*
X113857142Y-44901428D02*
X113857142Y-45187142D01*
X113857142Y-45187142D02*
X113809523Y-45282380D01*
X113809523Y-45282380D02*
X113761904Y-45330000D01*
X113761904Y-45330000D02*
X113666666Y-45377619D01*
X113666666Y-45377619D02*
X113523809Y-45377619D01*
X114714285Y-45377619D02*
X114714285Y-44377619D01*
X114714285Y-45330000D02*
X114619047Y-45377619D01*
X114619047Y-45377619D02*
X114428571Y-45377619D01*
X114428571Y-45377619D02*
X114333333Y-45330000D01*
X114333333Y-45330000D02*
X114285714Y-45282380D01*
X114285714Y-45282380D02*
X114238095Y-45187142D01*
X114238095Y-45187142D02*
X114238095Y-44901428D01*
X114238095Y-44901428D02*
X114285714Y-44806190D01*
X114285714Y-44806190D02*
X114333333Y-44758571D01*
X114333333Y-44758571D02*
X114428571Y-44710952D01*
X114428571Y-44710952D02*
X114619047Y-44710952D01*
X114619047Y-44710952D02*
X114714285Y-44758571D01*
X115571428Y-45330000D02*
X115476190Y-45377619D01*
X115476190Y-45377619D02*
X115285714Y-45377619D01*
X115285714Y-45377619D02*
X115190476Y-45330000D01*
X115190476Y-45330000D02*
X115142857Y-45234761D01*
X115142857Y-45234761D02*
X115142857Y-44853809D01*
X115142857Y-44853809D02*
X115190476Y-44758571D01*
X115190476Y-44758571D02*
X115285714Y-44710952D01*
X115285714Y-44710952D02*
X115476190Y-44710952D01*
X115476190Y-44710952D02*
X115571428Y-44758571D01*
X115571428Y-44758571D02*
X115619047Y-44853809D01*
X115619047Y-44853809D02*
X115619047Y-44949047D01*
X115619047Y-44949047D02*
X115142857Y-45044285D01*
D11*
X100728571Y-49852000D02*
X100900000Y-49909142D01*
X100900000Y-49909142D02*
X101185714Y-49909142D01*
X101185714Y-49909142D02*
X101300000Y-49852000D01*
X101300000Y-49852000D02*
X101357142Y-49794857D01*
X101357142Y-49794857D02*
X101414285Y-49680571D01*
X101414285Y-49680571D02*
X101414285Y-49566285D01*
X101414285Y-49566285D02*
X101357142Y-49452000D01*
X101357142Y-49452000D02*
X101300000Y-49394857D01*
X101300000Y-49394857D02*
X101185714Y-49337714D01*
X101185714Y-49337714D02*
X100957142Y-49280571D01*
X100957142Y-49280571D02*
X100842857Y-49223428D01*
X100842857Y-49223428D02*
X100785714Y-49166285D01*
X100785714Y-49166285D02*
X100728571Y-49052000D01*
X100728571Y-49052000D02*
X100728571Y-48937714D01*
X100728571Y-48937714D02*
X100785714Y-48823428D01*
X100785714Y-48823428D02*
X100842857Y-48766285D01*
X100842857Y-48766285D02*
X100957142Y-48709142D01*
X100957142Y-48709142D02*
X101242857Y-48709142D01*
X101242857Y-48709142D02*
X101414285Y-48766285D01*
X102385714Y-49852000D02*
X102271428Y-49909142D01*
X102271428Y-49909142D02*
X102042857Y-49909142D01*
X102042857Y-49909142D02*
X101928571Y-49852000D01*
X101928571Y-49852000D02*
X101871428Y-49737714D01*
X101871428Y-49737714D02*
X101871428Y-49280571D01*
X101871428Y-49280571D02*
X101928571Y-49166285D01*
X101928571Y-49166285D02*
X102042857Y-49109142D01*
X102042857Y-49109142D02*
X102271428Y-49109142D01*
X102271428Y-49109142D02*
X102385714Y-49166285D01*
X102385714Y-49166285D02*
X102442857Y-49280571D01*
X102442857Y-49280571D02*
X102442857Y-49394857D01*
X102442857Y-49394857D02*
X101871428Y-49509142D01*
X102957142Y-49109142D02*
X102957142Y-49909142D01*
X102957142Y-49223428D02*
X103014285Y-49166285D01*
X103014285Y-49166285D02*
X103128570Y-49109142D01*
X103128570Y-49109142D02*
X103299999Y-49109142D01*
X103299999Y-49109142D02*
X103414285Y-49166285D01*
X103414285Y-49166285D02*
X103471428Y-49280571D01*
X103471428Y-49280571D02*
X103471428Y-49909142D01*
X103985713Y-49852000D02*
X104099999Y-49909142D01*
X104099999Y-49909142D02*
X104328570Y-49909142D01*
X104328570Y-49909142D02*
X104442856Y-49852000D01*
X104442856Y-49852000D02*
X104499999Y-49737714D01*
X104499999Y-49737714D02*
X104499999Y-49680571D01*
X104499999Y-49680571D02*
X104442856Y-49566285D01*
X104442856Y-49566285D02*
X104328570Y-49509142D01*
X104328570Y-49509142D02*
X104157142Y-49509142D01*
X104157142Y-49509142D02*
X104042856Y-49452000D01*
X104042856Y-49452000D02*
X103985713Y-49337714D01*
X103985713Y-49337714D02*
X103985713Y-49280571D01*
X103985713Y-49280571D02*
X104042856Y-49166285D01*
X104042856Y-49166285D02*
X104157142Y-49109142D01*
X104157142Y-49109142D02*
X104328570Y-49109142D01*
X104328570Y-49109142D02*
X104442856Y-49166285D01*
X105185713Y-49909142D02*
X105071428Y-49852000D01*
X105071428Y-49852000D02*
X105014285Y-49794857D01*
X105014285Y-49794857D02*
X104957142Y-49680571D01*
X104957142Y-49680571D02*
X104957142Y-49337714D01*
X104957142Y-49337714D02*
X105014285Y-49223428D01*
X105014285Y-49223428D02*
X105071428Y-49166285D01*
X105071428Y-49166285D02*
X105185713Y-49109142D01*
X105185713Y-49109142D02*
X105357142Y-49109142D01*
X105357142Y-49109142D02*
X105471428Y-49166285D01*
X105471428Y-49166285D02*
X105528571Y-49223428D01*
X105528571Y-49223428D02*
X105585713Y-49337714D01*
X105585713Y-49337714D02*
X105585713Y-49680571D01*
X105585713Y-49680571D02*
X105528571Y-49794857D01*
X105528571Y-49794857D02*
X105471428Y-49852000D01*
X105471428Y-49852000D02*
X105357142Y-49909142D01*
X105357142Y-49909142D02*
X105185713Y-49909142D01*
X106099999Y-49909142D02*
X106099999Y-49109142D01*
X106099999Y-49337714D02*
X106157142Y-49223428D01*
X106157142Y-49223428D02*
X106214285Y-49166285D01*
X106214285Y-49166285D02*
X106328570Y-49109142D01*
X106328570Y-49109142D02*
X106442856Y-49109142D01*
X107471427Y-49909142D02*
X106785713Y-49909142D01*
X107128570Y-49909142D02*
X107128570Y-48709142D01*
X107128570Y-48709142D02*
X107014284Y-48880571D01*
X107014284Y-48880571D02*
X106899999Y-48994857D01*
X106899999Y-48994857D02*
X106785713Y-49052000D01*
X100728571Y-51510285D02*
X101300000Y-51510285D01*
X100614285Y-51853142D02*
X101014285Y-50653142D01*
X101014285Y-50653142D02*
X101414285Y-51853142D01*
X102328571Y-51853142D02*
X102328571Y-50653142D01*
X102328571Y-51796000D02*
X102214285Y-51853142D01*
X102214285Y-51853142D02*
X101985713Y-51853142D01*
X101985713Y-51853142D02*
X101871428Y-51796000D01*
X101871428Y-51796000D02*
X101814285Y-51738857D01*
X101814285Y-51738857D02*
X101757142Y-51624571D01*
X101757142Y-51624571D02*
X101757142Y-51281714D01*
X101757142Y-51281714D02*
X101814285Y-51167428D01*
X101814285Y-51167428D02*
X101871428Y-51110285D01*
X101871428Y-51110285D02*
X101985713Y-51053142D01*
X101985713Y-51053142D02*
X102214285Y-51053142D01*
X102214285Y-51053142D02*
X102328571Y-51110285D01*
X103414285Y-51853142D02*
X103414285Y-50653142D01*
X103414285Y-51796000D02*
X103299999Y-51853142D01*
X103299999Y-51853142D02*
X103071427Y-51853142D01*
X103071427Y-51853142D02*
X102957142Y-51796000D01*
X102957142Y-51796000D02*
X102899999Y-51738857D01*
X102899999Y-51738857D02*
X102842856Y-51624571D01*
X102842856Y-51624571D02*
X102842856Y-51281714D01*
X102842856Y-51281714D02*
X102899999Y-51167428D01*
X102899999Y-51167428D02*
X102957142Y-51110285D01*
X102957142Y-51110285D02*
X103071427Y-51053142D01*
X103071427Y-51053142D02*
X103299999Y-51053142D01*
X103299999Y-51053142D02*
X103414285Y-51110285D01*
X103985713Y-51853142D02*
X103985713Y-51053142D01*
X103985713Y-51281714D02*
X104042856Y-51167428D01*
X104042856Y-51167428D02*
X104099999Y-51110285D01*
X104099999Y-51110285D02*
X104214284Y-51053142D01*
X104214284Y-51053142D02*
X104328570Y-51053142D01*
X105185713Y-51796000D02*
X105071427Y-51853142D01*
X105071427Y-51853142D02*
X104842856Y-51853142D01*
X104842856Y-51853142D02*
X104728570Y-51796000D01*
X104728570Y-51796000D02*
X104671427Y-51681714D01*
X104671427Y-51681714D02*
X104671427Y-51224571D01*
X104671427Y-51224571D02*
X104728570Y-51110285D01*
X104728570Y-51110285D02*
X104842856Y-51053142D01*
X104842856Y-51053142D02*
X105071427Y-51053142D01*
X105071427Y-51053142D02*
X105185713Y-51110285D01*
X105185713Y-51110285D02*
X105242856Y-51224571D01*
X105242856Y-51224571D02*
X105242856Y-51338857D01*
X105242856Y-51338857D02*
X104671427Y-51453142D01*
X105699998Y-51796000D02*
X105814284Y-51853142D01*
X105814284Y-51853142D02*
X106042855Y-51853142D01*
X106042855Y-51853142D02*
X106157141Y-51796000D01*
X106157141Y-51796000D02*
X106214284Y-51681714D01*
X106214284Y-51681714D02*
X106214284Y-51624571D01*
X106214284Y-51624571D02*
X106157141Y-51510285D01*
X106157141Y-51510285D02*
X106042855Y-51453142D01*
X106042855Y-51453142D02*
X105871427Y-51453142D01*
X105871427Y-51453142D02*
X105757141Y-51396000D01*
X105757141Y-51396000D02*
X105699998Y-51281714D01*
X105699998Y-51281714D02*
X105699998Y-51224571D01*
X105699998Y-51224571D02*
X105757141Y-51110285D01*
X105757141Y-51110285D02*
X105871427Y-51053142D01*
X105871427Y-51053142D02*
X106042855Y-51053142D01*
X106042855Y-51053142D02*
X106157141Y-51110285D01*
X106671427Y-51796000D02*
X106785713Y-51853142D01*
X106785713Y-51853142D02*
X107014284Y-51853142D01*
X107014284Y-51853142D02*
X107128570Y-51796000D01*
X107128570Y-51796000D02*
X107185713Y-51681714D01*
X107185713Y-51681714D02*
X107185713Y-51624571D01*
X107185713Y-51624571D02*
X107128570Y-51510285D01*
X107128570Y-51510285D02*
X107014284Y-51453142D01*
X107014284Y-51453142D02*
X106842856Y-51453142D01*
X106842856Y-51453142D02*
X106728570Y-51396000D01*
X106728570Y-51396000D02*
X106671427Y-51281714D01*
X106671427Y-51281714D02*
X106671427Y-51224571D01*
X106671427Y-51224571D02*
X106728570Y-51110285D01*
X106728570Y-51110285D02*
X106842856Y-51053142D01*
X106842856Y-51053142D02*
X107014284Y-51053142D01*
X107014284Y-51053142D02*
X107128570Y-51110285D01*
D10*
X120853809Y-36428571D02*
X120901428Y-36285714D01*
X120901428Y-36285714D02*
X120949047Y-36238095D01*
X120949047Y-36238095D02*
X121044285Y-36190476D01*
X121044285Y-36190476D02*
X121187142Y-36190476D01*
X121187142Y-36190476D02*
X121282380Y-36238095D01*
X121282380Y-36238095D02*
X121330000Y-36285714D01*
X121330000Y-36285714D02*
X121377619Y-36380952D01*
X121377619Y-36380952D02*
X121377619Y-36761904D01*
X121377619Y-36761904D02*
X120377619Y-36761904D01*
X120377619Y-36761904D02*
X120377619Y-36428571D01*
X120377619Y-36428571D02*
X120425238Y-36333333D01*
X120425238Y-36333333D02*
X120472857Y-36285714D01*
X120472857Y-36285714D02*
X120568095Y-36238095D01*
X120568095Y-36238095D02*
X120663333Y-36238095D01*
X120663333Y-36238095D02*
X120758571Y-36285714D01*
X120758571Y-36285714D02*
X120806190Y-36333333D01*
X120806190Y-36333333D02*
X120853809Y-36428571D01*
X120853809Y-36428571D02*
X120853809Y-36761904D01*
X121377619Y-35333333D02*
X120853809Y-35333333D01*
X120853809Y-35333333D02*
X120758571Y-35380952D01*
X120758571Y-35380952D02*
X120710952Y-35476190D01*
X120710952Y-35476190D02*
X120710952Y-35666666D01*
X120710952Y-35666666D02*
X120758571Y-35761904D01*
X121330000Y-35333333D02*
X121377619Y-35428571D01*
X121377619Y-35428571D02*
X121377619Y-35666666D01*
X121377619Y-35666666D02*
X121330000Y-35761904D01*
X121330000Y-35761904D02*
X121234761Y-35809523D01*
X121234761Y-35809523D02*
X121139523Y-35809523D01*
X121139523Y-35809523D02*
X121044285Y-35761904D01*
X121044285Y-35761904D02*
X120996666Y-35666666D01*
X120996666Y-35666666D02*
X120996666Y-35428571D01*
X120996666Y-35428571D02*
X120949047Y-35333333D01*
X120710952Y-34999999D02*
X120710952Y-34619047D01*
X120377619Y-34857142D02*
X121234761Y-34857142D01*
X121234761Y-34857142D02*
X121330000Y-34809523D01*
X121330000Y-34809523D02*
X121377619Y-34714285D01*
X121377619Y-34714285D02*
X121377619Y-34619047D01*
X120710952Y-34428570D02*
X120710952Y-34047618D01*
X120377619Y-34285713D02*
X121234761Y-34285713D01*
X121234761Y-34285713D02*
X121330000Y-34238094D01*
X121330000Y-34238094D02*
X121377619Y-34142856D01*
X121377619Y-34142856D02*
X121377619Y-34047618D01*
D11*
X120830000Y-49059523D02*
X120877619Y-48916666D01*
X120877619Y-48916666D02*
X120877619Y-48678571D01*
X120877619Y-48678571D02*
X120830000Y-48583333D01*
X120830000Y-48583333D02*
X120782380Y-48535714D01*
X120782380Y-48535714D02*
X120687142Y-48488095D01*
X120687142Y-48488095D02*
X120591904Y-48488095D01*
X120591904Y-48488095D02*
X120496666Y-48535714D01*
X120496666Y-48535714D02*
X120449047Y-48583333D01*
X120449047Y-48583333D02*
X120401428Y-48678571D01*
X120401428Y-48678571D02*
X120353809Y-48869047D01*
X120353809Y-48869047D02*
X120306190Y-48964285D01*
X120306190Y-48964285D02*
X120258571Y-49011904D01*
X120258571Y-49011904D02*
X120163333Y-49059523D01*
X120163333Y-49059523D02*
X120068095Y-49059523D01*
X120068095Y-49059523D02*
X119972857Y-49011904D01*
X119972857Y-49011904D02*
X119925238Y-48964285D01*
X119925238Y-48964285D02*
X119877619Y-48869047D01*
X119877619Y-48869047D02*
X119877619Y-48630952D01*
X119877619Y-48630952D02*
X119925238Y-48488095D01*
X120782380Y-47488095D02*
X120830000Y-47535714D01*
X120830000Y-47535714D02*
X120877619Y-47678571D01*
X120877619Y-47678571D02*
X120877619Y-47773809D01*
X120877619Y-47773809D02*
X120830000Y-47916666D01*
X120830000Y-47916666D02*
X120734761Y-48011904D01*
X120734761Y-48011904D02*
X120639523Y-48059523D01*
X120639523Y-48059523D02*
X120449047Y-48107142D01*
X120449047Y-48107142D02*
X120306190Y-48107142D01*
X120306190Y-48107142D02*
X120115714Y-48059523D01*
X120115714Y-48059523D02*
X120020476Y-48011904D01*
X120020476Y-48011904D02*
X119925238Y-47916666D01*
X119925238Y-47916666D02*
X119877619Y-47773809D01*
X119877619Y-47773809D02*
X119877619Y-47678571D01*
X119877619Y-47678571D02*
X119925238Y-47535714D01*
X119925238Y-47535714D02*
X119972857Y-47488095D01*
X120877619Y-46583333D02*
X120877619Y-47059523D01*
X120877619Y-47059523D02*
X119877619Y-47059523D01*
X124785714Y-33896000D02*
X125700000Y-33896000D01*
X124785714Y-36396000D02*
X125700000Y-36396000D01*
X125242857Y-36853142D02*
X125242857Y-35938857D01*
X98728571Y-39352000D02*
X98900000Y-39409142D01*
X98900000Y-39409142D02*
X99185714Y-39409142D01*
X99185714Y-39409142D02*
X99300000Y-39352000D01*
X99300000Y-39352000D02*
X99357142Y-39294857D01*
X99357142Y-39294857D02*
X99414285Y-39180571D01*
X99414285Y-39180571D02*
X99414285Y-39066285D01*
X99414285Y-39066285D02*
X99357142Y-38952000D01*
X99357142Y-38952000D02*
X99300000Y-38894857D01*
X99300000Y-38894857D02*
X99185714Y-38837714D01*
X99185714Y-38837714D02*
X98957142Y-38780571D01*
X98957142Y-38780571D02*
X98842857Y-38723428D01*
X98842857Y-38723428D02*
X98785714Y-38666285D01*
X98785714Y-38666285D02*
X98728571Y-38552000D01*
X98728571Y-38552000D02*
X98728571Y-38437714D01*
X98728571Y-38437714D02*
X98785714Y-38323428D01*
X98785714Y-38323428D02*
X98842857Y-38266285D01*
X98842857Y-38266285D02*
X98957142Y-38209142D01*
X98957142Y-38209142D02*
X99242857Y-38209142D01*
X99242857Y-38209142D02*
X99414285Y-38266285D01*
X100385714Y-39352000D02*
X100271428Y-39409142D01*
X100271428Y-39409142D02*
X100042857Y-39409142D01*
X100042857Y-39409142D02*
X99928571Y-39352000D01*
X99928571Y-39352000D02*
X99871428Y-39237714D01*
X99871428Y-39237714D02*
X99871428Y-38780571D01*
X99871428Y-38780571D02*
X99928571Y-38666285D01*
X99928571Y-38666285D02*
X100042857Y-38609142D01*
X100042857Y-38609142D02*
X100271428Y-38609142D01*
X100271428Y-38609142D02*
X100385714Y-38666285D01*
X100385714Y-38666285D02*
X100442857Y-38780571D01*
X100442857Y-38780571D02*
X100442857Y-38894857D01*
X100442857Y-38894857D02*
X99871428Y-39009142D01*
X100957142Y-38609142D02*
X100957142Y-39409142D01*
X100957142Y-38723428D02*
X101014285Y-38666285D01*
X101014285Y-38666285D02*
X101128570Y-38609142D01*
X101128570Y-38609142D02*
X101299999Y-38609142D01*
X101299999Y-38609142D02*
X101414285Y-38666285D01*
X101414285Y-38666285D02*
X101471428Y-38780571D01*
X101471428Y-38780571D02*
X101471428Y-39409142D01*
X101985713Y-39352000D02*
X102099999Y-39409142D01*
X102099999Y-39409142D02*
X102328570Y-39409142D01*
X102328570Y-39409142D02*
X102442856Y-39352000D01*
X102442856Y-39352000D02*
X102499999Y-39237714D01*
X102499999Y-39237714D02*
X102499999Y-39180571D01*
X102499999Y-39180571D02*
X102442856Y-39066285D01*
X102442856Y-39066285D02*
X102328570Y-39009142D01*
X102328570Y-39009142D02*
X102157142Y-39009142D01*
X102157142Y-39009142D02*
X102042856Y-38952000D01*
X102042856Y-38952000D02*
X101985713Y-38837714D01*
X101985713Y-38837714D02*
X101985713Y-38780571D01*
X101985713Y-38780571D02*
X102042856Y-38666285D01*
X102042856Y-38666285D02*
X102157142Y-38609142D01*
X102157142Y-38609142D02*
X102328570Y-38609142D01*
X102328570Y-38609142D02*
X102442856Y-38666285D01*
X103185713Y-39409142D02*
X103071428Y-39352000D01*
X103071428Y-39352000D02*
X103014285Y-39294857D01*
X103014285Y-39294857D02*
X102957142Y-39180571D01*
X102957142Y-39180571D02*
X102957142Y-38837714D01*
X102957142Y-38837714D02*
X103014285Y-38723428D01*
X103014285Y-38723428D02*
X103071428Y-38666285D01*
X103071428Y-38666285D02*
X103185713Y-38609142D01*
X103185713Y-38609142D02*
X103357142Y-38609142D01*
X103357142Y-38609142D02*
X103471428Y-38666285D01*
X103471428Y-38666285D02*
X103528571Y-38723428D01*
X103528571Y-38723428D02*
X103585713Y-38837714D01*
X103585713Y-38837714D02*
X103585713Y-39180571D01*
X103585713Y-39180571D02*
X103528571Y-39294857D01*
X103528571Y-39294857D02*
X103471428Y-39352000D01*
X103471428Y-39352000D02*
X103357142Y-39409142D01*
X103357142Y-39409142D02*
X103185713Y-39409142D01*
X104099999Y-39409142D02*
X104099999Y-38609142D01*
X104099999Y-38837714D02*
X104157142Y-38723428D01*
X104157142Y-38723428D02*
X104214285Y-38666285D01*
X104214285Y-38666285D02*
X104328570Y-38609142D01*
X104328570Y-38609142D02*
X104442856Y-38609142D01*
X105071427Y-38209142D02*
X105185713Y-38209142D01*
X105185713Y-38209142D02*
X105299999Y-38266285D01*
X105299999Y-38266285D02*
X105357142Y-38323428D01*
X105357142Y-38323428D02*
X105414284Y-38437714D01*
X105414284Y-38437714D02*
X105471427Y-38666285D01*
X105471427Y-38666285D02*
X105471427Y-38952000D01*
X105471427Y-38952000D02*
X105414284Y-39180571D01*
X105414284Y-39180571D02*
X105357142Y-39294857D01*
X105357142Y-39294857D02*
X105299999Y-39352000D01*
X105299999Y-39352000D02*
X105185713Y-39409142D01*
X105185713Y-39409142D02*
X105071427Y-39409142D01*
X105071427Y-39409142D02*
X104957142Y-39352000D01*
X104957142Y-39352000D02*
X104899999Y-39294857D01*
X104899999Y-39294857D02*
X104842856Y-39180571D01*
X104842856Y-39180571D02*
X104785713Y-38952000D01*
X104785713Y-38952000D02*
X104785713Y-38666285D01*
X104785713Y-38666285D02*
X104842856Y-38437714D01*
X104842856Y-38437714D02*
X104899999Y-38323428D01*
X104899999Y-38323428D02*
X104957142Y-38266285D01*
X104957142Y-38266285D02*
X105071427Y-38209142D01*
X98728571Y-41010285D02*
X99300000Y-41010285D01*
X98614285Y-41353142D02*
X99014285Y-40153142D01*
X99014285Y-40153142D02*
X99414285Y-41353142D01*
X100328571Y-41353142D02*
X100328571Y-40153142D01*
X100328571Y-41296000D02*
X100214285Y-41353142D01*
X100214285Y-41353142D02*
X99985713Y-41353142D01*
X99985713Y-41353142D02*
X99871428Y-41296000D01*
X99871428Y-41296000D02*
X99814285Y-41238857D01*
X99814285Y-41238857D02*
X99757142Y-41124571D01*
X99757142Y-41124571D02*
X99757142Y-40781714D01*
X99757142Y-40781714D02*
X99814285Y-40667428D01*
X99814285Y-40667428D02*
X99871428Y-40610285D01*
X99871428Y-40610285D02*
X99985713Y-40553142D01*
X99985713Y-40553142D02*
X100214285Y-40553142D01*
X100214285Y-40553142D02*
X100328571Y-40610285D01*
X101414285Y-41353142D02*
X101414285Y-40153142D01*
X101414285Y-41296000D02*
X101299999Y-41353142D01*
X101299999Y-41353142D02*
X101071427Y-41353142D01*
X101071427Y-41353142D02*
X100957142Y-41296000D01*
X100957142Y-41296000D02*
X100899999Y-41238857D01*
X100899999Y-41238857D02*
X100842856Y-41124571D01*
X100842856Y-41124571D02*
X100842856Y-40781714D01*
X100842856Y-40781714D02*
X100899999Y-40667428D01*
X100899999Y-40667428D02*
X100957142Y-40610285D01*
X100957142Y-40610285D02*
X101071427Y-40553142D01*
X101071427Y-40553142D02*
X101299999Y-40553142D01*
X101299999Y-40553142D02*
X101414285Y-40610285D01*
X101985713Y-41353142D02*
X101985713Y-40553142D01*
X101985713Y-40781714D02*
X102042856Y-40667428D01*
X102042856Y-40667428D02*
X102099999Y-40610285D01*
X102099999Y-40610285D02*
X102214284Y-40553142D01*
X102214284Y-40553142D02*
X102328570Y-40553142D01*
X103185713Y-41296000D02*
X103071427Y-41353142D01*
X103071427Y-41353142D02*
X102842856Y-41353142D01*
X102842856Y-41353142D02*
X102728570Y-41296000D01*
X102728570Y-41296000D02*
X102671427Y-41181714D01*
X102671427Y-41181714D02*
X102671427Y-40724571D01*
X102671427Y-40724571D02*
X102728570Y-40610285D01*
X102728570Y-40610285D02*
X102842856Y-40553142D01*
X102842856Y-40553142D02*
X103071427Y-40553142D01*
X103071427Y-40553142D02*
X103185713Y-40610285D01*
X103185713Y-40610285D02*
X103242856Y-40724571D01*
X103242856Y-40724571D02*
X103242856Y-40838857D01*
X103242856Y-40838857D02*
X102671427Y-40953142D01*
X103699998Y-41296000D02*
X103814284Y-41353142D01*
X103814284Y-41353142D02*
X104042855Y-41353142D01*
X104042855Y-41353142D02*
X104157141Y-41296000D01*
X104157141Y-41296000D02*
X104214284Y-41181714D01*
X104214284Y-41181714D02*
X104214284Y-41124571D01*
X104214284Y-41124571D02*
X104157141Y-41010285D01*
X104157141Y-41010285D02*
X104042855Y-40953142D01*
X104042855Y-40953142D02*
X103871427Y-40953142D01*
X103871427Y-40953142D02*
X103757141Y-40896000D01*
X103757141Y-40896000D02*
X103699998Y-40781714D01*
X103699998Y-40781714D02*
X103699998Y-40724571D01*
X103699998Y-40724571D02*
X103757141Y-40610285D01*
X103757141Y-40610285D02*
X103871427Y-40553142D01*
X103871427Y-40553142D02*
X104042855Y-40553142D01*
X104042855Y-40553142D02*
X104157141Y-40610285D01*
X104671427Y-41296000D02*
X104785713Y-41353142D01*
X104785713Y-41353142D02*
X105014284Y-41353142D01*
X105014284Y-41353142D02*
X105128570Y-41296000D01*
X105128570Y-41296000D02*
X105185713Y-41181714D01*
X105185713Y-41181714D02*
X105185713Y-41124571D01*
X105185713Y-41124571D02*
X105128570Y-41010285D01*
X105128570Y-41010285D02*
X105014284Y-40953142D01*
X105014284Y-40953142D02*
X104842856Y-40953142D01*
X104842856Y-40953142D02*
X104728570Y-40896000D01*
X104728570Y-40896000D02*
X104671427Y-40781714D01*
X104671427Y-40781714D02*
X104671427Y-40724571D01*
X104671427Y-40724571D02*
X104728570Y-40610285D01*
X104728570Y-40610285D02*
X104842856Y-40553142D01*
X104842856Y-40553142D02*
X105014284Y-40553142D01*
X105014284Y-40553142D02*
X105128570Y-40610285D01*
X118330000Y-49059523D02*
X118377619Y-48916666D01*
X118377619Y-48916666D02*
X118377619Y-48678571D01*
X118377619Y-48678571D02*
X118330000Y-48583333D01*
X118330000Y-48583333D02*
X118282380Y-48535714D01*
X118282380Y-48535714D02*
X118187142Y-48488095D01*
X118187142Y-48488095D02*
X118091904Y-48488095D01*
X118091904Y-48488095D02*
X117996666Y-48535714D01*
X117996666Y-48535714D02*
X117949047Y-48583333D01*
X117949047Y-48583333D02*
X117901428Y-48678571D01*
X117901428Y-48678571D02*
X117853809Y-48869047D01*
X117853809Y-48869047D02*
X117806190Y-48964285D01*
X117806190Y-48964285D02*
X117758571Y-49011904D01*
X117758571Y-49011904D02*
X117663333Y-49059523D01*
X117663333Y-49059523D02*
X117568095Y-49059523D01*
X117568095Y-49059523D02*
X117472857Y-49011904D01*
X117472857Y-49011904D02*
X117425238Y-48964285D01*
X117425238Y-48964285D02*
X117377619Y-48869047D01*
X117377619Y-48869047D02*
X117377619Y-48630952D01*
X117377619Y-48630952D02*
X117425238Y-48488095D01*
X118377619Y-48059523D02*
X117377619Y-48059523D01*
X117377619Y-48059523D02*
X117377619Y-47821428D01*
X117377619Y-47821428D02*
X117425238Y-47678571D01*
X117425238Y-47678571D02*
X117520476Y-47583333D01*
X117520476Y-47583333D02*
X117615714Y-47535714D01*
X117615714Y-47535714D02*
X117806190Y-47488095D01*
X117806190Y-47488095D02*
X117949047Y-47488095D01*
X117949047Y-47488095D02*
X118139523Y-47535714D01*
X118139523Y-47535714D02*
X118234761Y-47583333D01*
X118234761Y-47583333D02*
X118330000Y-47678571D01*
X118330000Y-47678571D02*
X118377619Y-47821428D01*
X118377619Y-47821428D02*
X118377619Y-48059523D01*
X118091904Y-47107142D02*
X118091904Y-46630952D01*
X118377619Y-47202380D02*
X117377619Y-46869047D01*
X117377619Y-46869047D02*
X118377619Y-46535714D01*
D10*
X112500000Y-33500000D02*
G75*
G03*
X112500000Y-33500000I-500000J0D01*
G01*
X122000000Y-32500000D02*
X126500000Y-32500000D01*
X126500000Y-38000000D01*
X122000000Y-38000000D01*
X122000000Y-32500000D01*
X106500000Y-42000000D02*
X106500000Y-33000000D01*
D12*
X92750000Y-41000000D02*
G75*
G03*
X92750000Y-41000000I-250000J0D01*
G01*
D10*
X105000000Y-47500000D02*
X111000000Y-47500000D01*
D13*
X94912500Y-43500000D02*
G75*
G03*
X94912500Y-43500000I-162500J0D01*
G01*
D10*
X98000000Y-38000000D02*
X98000000Y-42000000D01*
X111500000Y-40000000D02*
X117500000Y-40000000D01*
X117500000Y-46000000D01*
X111500000Y-46000000D01*
X111500000Y-40000000D01*
X100000000Y-52500000D02*
X106500000Y-52500000D01*
X111000000Y-47500000D02*
X111000000Y-52000000D01*
X100000000Y-47500000D02*
X100000000Y-52500000D01*
X98000000Y-42000000D02*
X106500000Y-42000000D01*
X106500000Y-33000000D02*
X98500000Y-33000000D01*
X101000000Y-47500000D02*
X100000000Y-47500000D01*
X111000000Y-74500000D02*
X111000000Y-79000000D01*
X100000000Y-74500000D02*
X100000000Y-79500000D01*
X101000000Y-74500000D02*
X100000000Y-74500000D01*
X106500000Y-60000000D02*
X98500000Y-60000000D01*
X98000000Y-69000000D02*
X106500000Y-69000000D01*
X122000000Y-59500000D02*
X126500000Y-59500000D01*
X126500000Y-65000000D01*
X122000000Y-65000000D01*
X122000000Y-59500000D01*
X112500000Y-60500000D02*
G75*
G03*
X112500000Y-60500000I-500000J0D01*
G01*
X98000000Y-65000000D02*
X98000000Y-69000000D01*
X111500000Y-67000000D02*
X117500000Y-67000000D01*
X117500000Y-73000000D01*
X111500000Y-73000000D01*
X111500000Y-67000000D01*
X100000000Y-79500000D02*
X106500000Y-79500000D01*
X106500000Y-69000000D02*
X106500000Y-60000000D01*
D13*
X94912500Y-70500000D02*
G75*
G03*
X94912500Y-70500000I-162500J0D01*
G01*
D10*
X105000000Y-74500000D02*
X111000000Y-74500000D01*
D12*
X92750000Y-68000000D02*
G75*
G03*
X92750000Y-68000000I-250000J0D01*
G01*
D10*
X120853809Y-63428571D02*
X120901428Y-63285714D01*
X120901428Y-63285714D02*
X120949047Y-63238095D01*
X120949047Y-63238095D02*
X121044285Y-63190476D01*
X121044285Y-63190476D02*
X121187142Y-63190476D01*
X121187142Y-63190476D02*
X121282380Y-63238095D01*
X121282380Y-63238095D02*
X121330000Y-63285714D01*
X121330000Y-63285714D02*
X121377619Y-63380952D01*
X121377619Y-63380952D02*
X121377619Y-63761904D01*
X121377619Y-63761904D02*
X120377619Y-63761904D01*
X120377619Y-63761904D02*
X120377619Y-63428571D01*
X120377619Y-63428571D02*
X120425238Y-63333333D01*
X120425238Y-63333333D02*
X120472857Y-63285714D01*
X120472857Y-63285714D02*
X120568095Y-63238095D01*
X120568095Y-63238095D02*
X120663333Y-63238095D01*
X120663333Y-63238095D02*
X120758571Y-63285714D01*
X120758571Y-63285714D02*
X120806190Y-63333333D01*
X120806190Y-63333333D02*
X120853809Y-63428571D01*
X120853809Y-63428571D02*
X120853809Y-63761904D01*
X121377619Y-62333333D02*
X120853809Y-62333333D01*
X120853809Y-62333333D02*
X120758571Y-62380952D01*
X120758571Y-62380952D02*
X120710952Y-62476190D01*
X120710952Y-62476190D02*
X120710952Y-62666666D01*
X120710952Y-62666666D02*
X120758571Y-62761904D01*
X121330000Y-62333333D02*
X121377619Y-62428571D01*
X121377619Y-62428571D02*
X121377619Y-62666666D01*
X121377619Y-62666666D02*
X121330000Y-62761904D01*
X121330000Y-62761904D02*
X121234761Y-62809523D01*
X121234761Y-62809523D02*
X121139523Y-62809523D01*
X121139523Y-62809523D02*
X121044285Y-62761904D01*
X121044285Y-62761904D02*
X120996666Y-62666666D01*
X120996666Y-62666666D02*
X120996666Y-62428571D01*
X120996666Y-62428571D02*
X120949047Y-62333333D01*
X120710952Y-61999999D02*
X120710952Y-61619047D01*
X120377619Y-61857142D02*
X121234761Y-61857142D01*
X121234761Y-61857142D02*
X121330000Y-61809523D01*
X121330000Y-61809523D02*
X121377619Y-61714285D01*
X121377619Y-61714285D02*
X121377619Y-61619047D01*
X120710952Y-61428570D02*
X120710952Y-61047618D01*
X120377619Y-61285713D02*
X121234761Y-61285713D01*
X121234761Y-61285713D02*
X121330000Y-61238094D01*
X121330000Y-61238094D02*
X121377619Y-61142856D01*
X121377619Y-61142856D02*
X121377619Y-61047618D01*
D11*
X120830000Y-76059523D02*
X120877619Y-75916666D01*
X120877619Y-75916666D02*
X120877619Y-75678571D01*
X120877619Y-75678571D02*
X120830000Y-75583333D01*
X120830000Y-75583333D02*
X120782380Y-75535714D01*
X120782380Y-75535714D02*
X120687142Y-75488095D01*
X120687142Y-75488095D02*
X120591904Y-75488095D01*
X120591904Y-75488095D02*
X120496666Y-75535714D01*
X120496666Y-75535714D02*
X120449047Y-75583333D01*
X120449047Y-75583333D02*
X120401428Y-75678571D01*
X120401428Y-75678571D02*
X120353809Y-75869047D01*
X120353809Y-75869047D02*
X120306190Y-75964285D01*
X120306190Y-75964285D02*
X120258571Y-76011904D01*
X120258571Y-76011904D02*
X120163333Y-76059523D01*
X120163333Y-76059523D02*
X120068095Y-76059523D01*
X120068095Y-76059523D02*
X119972857Y-76011904D01*
X119972857Y-76011904D02*
X119925238Y-75964285D01*
X119925238Y-75964285D02*
X119877619Y-75869047D01*
X119877619Y-75869047D02*
X119877619Y-75630952D01*
X119877619Y-75630952D02*
X119925238Y-75488095D01*
X120782380Y-74488095D02*
X120830000Y-74535714D01*
X120830000Y-74535714D02*
X120877619Y-74678571D01*
X120877619Y-74678571D02*
X120877619Y-74773809D01*
X120877619Y-74773809D02*
X120830000Y-74916666D01*
X120830000Y-74916666D02*
X120734761Y-75011904D01*
X120734761Y-75011904D02*
X120639523Y-75059523D01*
X120639523Y-75059523D02*
X120449047Y-75107142D01*
X120449047Y-75107142D02*
X120306190Y-75107142D01*
X120306190Y-75107142D02*
X120115714Y-75059523D01*
X120115714Y-75059523D02*
X120020476Y-75011904D01*
X120020476Y-75011904D02*
X119925238Y-74916666D01*
X119925238Y-74916666D02*
X119877619Y-74773809D01*
X119877619Y-74773809D02*
X119877619Y-74678571D01*
X119877619Y-74678571D02*
X119925238Y-74535714D01*
X119925238Y-74535714D02*
X119972857Y-74488095D01*
X120877619Y-73583333D02*
X120877619Y-74059523D01*
X120877619Y-74059523D02*
X119877619Y-74059523D01*
X118330000Y-76059523D02*
X118377619Y-75916666D01*
X118377619Y-75916666D02*
X118377619Y-75678571D01*
X118377619Y-75678571D02*
X118330000Y-75583333D01*
X118330000Y-75583333D02*
X118282380Y-75535714D01*
X118282380Y-75535714D02*
X118187142Y-75488095D01*
X118187142Y-75488095D02*
X118091904Y-75488095D01*
X118091904Y-75488095D02*
X117996666Y-75535714D01*
X117996666Y-75535714D02*
X117949047Y-75583333D01*
X117949047Y-75583333D02*
X117901428Y-75678571D01*
X117901428Y-75678571D02*
X117853809Y-75869047D01*
X117853809Y-75869047D02*
X117806190Y-75964285D01*
X117806190Y-75964285D02*
X117758571Y-76011904D01*
X117758571Y-76011904D02*
X117663333Y-76059523D01*
X117663333Y-76059523D02*
X117568095Y-76059523D01*
X117568095Y-76059523D02*
X117472857Y-76011904D01*
X117472857Y-76011904D02*
X117425238Y-75964285D01*
X117425238Y-75964285D02*
X117377619Y-75869047D01*
X117377619Y-75869047D02*
X117377619Y-75630952D01*
X117377619Y-75630952D02*
X117425238Y-75488095D01*
X118377619Y-75059523D02*
X117377619Y-75059523D01*
X117377619Y-75059523D02*
X117377619Y-74821428D01*
X117377619Y-74821428D02*
X117425238Y-74678571D01*
X117425238Y-74678571D02*
X117520476Y-74583333D01*
X117520476Y-74583333D02*
X117615714Y-74535714D01*
X117615714Y-74535714D02*
X117806190Y-74488095D01*
X117806190Y-74488095D02*
X117949047Y-74488095D01*
X117949047Y-74488095D02*
X118139523Y-74535714D01*
X118139523Y-74535714D02*
X118234761Y-74583333D01*
X118234761Y-74583333D02*
X118330000Y-74678571D01*
X118330000Y-74678571D02*
X118377619Y-74821428D01*
X118377619Y-74821428D02*
X118377619Y-75059523D01*
X118091904Y-74107142D02*
X118091904Y-73630952D01*
X118377619Y-74202380D02*
X117377619Y-73869047D01*
X117377619Y-73869047D02*
X118377619Y-73535714D01*
X124785714Y-63396000D02*
X125700000Y-63396000D01*
X125242857Y-63853142D02*
X125242857Y-62938857D01*
X100728571Y-76852000D02*
X100900000Y-76909142D01*
X100900000Y-76909142D02*
X101185714Y-76909142D01*
X101185714Y-76909142D02*
X101300000Y-76852000D01*
X101300000Y-76852000D02*
X101357142Y-76794857D01*
X101357142Y-76794857D02*
X101414285Y-76680571D01*
X101414285Y-76680571D02*
X101414285Y-76566285D01*
X101414285Y-76566285D02*
X101357142Y-76452000D01*
X101357142Y-76452000D02*
X101300000Y-76394857D01*
X101300000Y-76394857D02*
X101185714Y-76337714D01*
X101185714Y-76337714D02*
X100957142Y-76280571D01*
X100957142Y-76280571D02*
X100842857Y-76223428D01*
X100842857Y-76223428D02*
X100785714Y-76166285D01*
X100785714Y-76166285D02*
X100728571Y-76052000D01*
X100728571Y-76052000D02*
X100728571Y-75937714D01*
X100728571Y-75937714D02*
X100785714Y-75823428D01*
X100785714Y-75823428D02*
X100842857Y-75766285D01*
X100842857Y-75766285D02*
X100957142Y-75709142D01*
X100957142Y-75709142D02*
X101242857Y-75709142D01*
X101242857Y-75709142D02*
X101414285Y-75766285D01*
X102385714Y-76852000D02*
X102271428Y-76909142D01*
X102271428Y-76909142D02*
X102042857Y-76909142D01*
X102042857Y-76909142D02*
X101928571Y-76852000D01*
X101928571Y-76852000D02*
X101871428Y-76737714D01*
X101871428Y-76737714D02*
X101871428Y-76280571D01*
X101871428Y-76280571D02*
X101928571Y-76166285D01*
X101928571Y-76166285D02*
X102042857Y-76109142D01*
X102042857Y-76109142D02*
X102271428Y-76109142D01*
X102271428Y-76109142D02*
X102385714Y-76166285D01*
X102385714Y-76166285D02*
X102442857Y-76280571D01*
X102442857Y-76280571D02*
X102442857Y-76394857D01*
X102442857Y-76394857D02*
X101871428Y-76509142D01*
X102957142Y-76109142D02*
X102957142Y-76909142D01*
X102957142Y-76223428D02*
X103014285Y-76166285D01*
X103014285Y-76166285D02*
X103128570Y-76109142D01*
X103128570Y-76109142D02*
X103299999Y-76109142D01*
X103299999Y-76109142D02*
X103414285Y-76166285D01*
X103414285Y-76166285D02*
X103471428Y-76280571D01*
X103471428Y-76280571D02*
X103471428Y-76909142D01*
X103985713Y-76852000D02*
X104099999Y-76909142D01*
X104099999Y-76909142D02*
X104328570Y-76909142D01*
X104328570Y-76909142D02*
X104442856Y-76852000D01*
X104442856Y-76852000D02*
X104499999Y-76737714D01*
X104499999Y-76737714D02*
X104499999Y-76680571D01*
X104499999Y-76680571D02*
X104442856Y-76566285D01*
X104442856Y-76566285D02*
X104328570Y-76509142D01*
X104328570Y-76509142D02*
X104157142Y-76509142D01*
X104157142Y-76509142D02*
X104042856Y-76452000D01*
X104042856Y-76452000D02*
X103985713Y-76337714D01*
X103985713Y-76337714D02*
X103985713Y-76280571D01*
X103985713Y-76280571D02*
X104042856Y-76166285D01*
X104042856Y-76166285D02*
X104157142Y-76109142D01*
X104157142Y-76109142D02*
X104328570Y-76109142D01*
X104328570Y-76109142D02*
X104442856Y-76166285D01*
X105185713Y-76909142D02*
X105071428Y-76852000D01*
X105071428Y-76852000D02*
X105014285Y-76794857D01*
X105014285Y-76794857D02*
X104957142Y-76680571D01*
X104957142Y-76680571D02*
X104957142Y-76337714D01*
X104957142Y-76337714D02*
X105014285Y-76223428D01*
X105014285Y-76223428D02*
X105071428Y-76166285D01*
X105071428Y-76166285D02*
X105185713Y-76109142D01*
X105185713Y-76109142D02*
X105357142Y-76109142D01*
X105357142Y-76109142D02*
X105471428Y-76166285D01*
X105471428Y-76166285D02*
X105528571Y-76223428D01*
X105528571Y-76223428D02*
X105585713Y-76337714D01*
X105585713Y-76337714D02*
X105585713Y-76680571D01*
X105585713Y-76680571D02*
X105528571Y-76794857D01*
X105528571Y-76794857D02*
X105471428Y-76852000D01*
X105471428Y-76852000D02*
X105357142Y-76909142D01*
X105357142Y-76909142D02*
X105185713Y-76909142D01*
X106099999Y-76909142D02*
X106099999Y-76109142D01*
X106099999Y-76337714D02*
X106157142Y-76223428D01*
X106157142Y-76223428D02*
X106214285Y-76166285D01*
X106214285Y-76166285D02*
X106328570Y-76109142D01*
X106328570Y-76109142D02*
X106442856Y-76109142D01*
X107471427Y-76909142D02*
X106785713Y-76909142D01*
X107128570Y-76909142D02*
X107128570Y-75709142D01*
X107128570Y-75709142D02*
X107014284Y-75880571D01*
X107014284Y-75880571D02*
X106899999Y-75994857D01*
X106899999Y-75994857D02*
X106785713Y-76052000D01*
X100728571Y-78510285D02*
X101300000Y-78510285D01*
X100614285Y-78853142D02*
X101014285Y-77653142D01*
X101014285Y-77653142D02*
X101414285Y-78853142D01*
X102328571Y-78853142D02*
X102328571Y-77653142D01*
X102328571Y-78796000D02*
X102214285Y-78853142D01*
X102214285Y-78853142D02*
X101985713Y-78853142D01*
X101985713Y-78853142D02*
X101871428Y-78796000D01*
X101871428Y-78796000D02*
X101814285Y-78738857D01*
X101814285Y-78738857D02*
X101757142Y-78624571D01*
X101757142Y-78624571D02*
X101757142Y-78281714D01*
X101757142Y-78281714D02*
X101814285Y-78167428D01*
X101814285Y-78167428D02*
X101871428Y-78110285D01*
X101871428Y-78110285D02*
X101985713Y-78053142D01*
X101985713Y-78053142D02*
X102214285Y-78053142D01*
X102214285Y-78053142D02*
X102328571Y-78110285D01*
X103414285Y-78853142D02*
X103414285Y-77653142D01*
X103414285Y-78796000D02*
X103299999Y-78853142D01*
X103299999Y-78853142D02*
X103071427Y-78853142D01*
X103071427Y-78853142D02*
X102957142Y-78796000D01*
X102957142Y-78796000D02*
X102899999Y-78738857D01*
X102899999Y-78738857D02*
X102842856Y-78624571D01*
X102842856Y-78624571D02*
X102842856Y-78281714D01*
X102842856Y-78281714D02*
X102899999Y-78167428D01*
X102899999Y-78167428D02*
X102957142Y-78110285D01*
X102957142Y-78110285D02*
X103071427Y-78053142D01*
X103071427Y-78053142D02*
X103299999Y-78053142D01*
X103299999Y-78053142D02*
X103414285Y-78110285D01*
X103985713Y-78853142D02*
X103985713Y-78053142D01*
X103985713Y-78281714D02*
X104042856Y-78167428D01*
X104042856Y-78167428D02*
X104099999Y-78110285D01*
X104099999Y-78110285D02*
X104214284Y-78053142D01*
X104214284Y-78053142D02*
X104328570Y-78053142D01*
X105185713Y-78796000D02*
X105071427Y-78853142D01*
X105071427Y-78853142D02*
X104842856Y-78853142D01*
X104842856Y-78853142D02*
X104728570Y-78796000D01*
X104728570Y-78796000D02*
X104671427Y-78681714D01*
X104671427Y-78681714D02*
X104671427Y-78224571D01*
X104671427Y-78224571D02*
X104728570Y-78110285D01*
X104728570Y-78110285D02*
X104842856Y-78053142D01*
X104842856Y-78053142D02*
X105071427Y-78053142D01*
X105071427Y-78053142D02*
X105185713Y-78110285D01*
X105185713Y-78110285D02*
X105242856Y-78224571D01*
X105242856Y-78224571D02*
X105242856Y-78338857D01*
X105242856Y-78338857D02*
X104671427Y-78453142D01*
X105699998Y-78796000D02*
X105814284Y-78853142D01*
X105814284Y-78853142D02*
X106042855Y-78853142D01*
X106042855Y-78853142D02*
X106157141Y-78796000D01*
X106157141Y-78796000D02*
X106214284Y-78681714D01*
X106214284Y-78681714D02*
X106214284Y-78624571D01*
X106214284Y-78624571D02*
X106157141Y-78510285D01*
X106157141Y-78510285D02*
X106042855Y-78453142D01*
X106042855Y-78453142D02*
X105871427Y-78453142D01*
X105871427Y-78453142D02*
X105757141Y-78396000D01*
X105757141Y-78396000D02*
X105699998Y-78281714D01*
X105699998Y-78281714D02*
X105699998Y-78224571D01*
X105699998Y-78224571D02*
X105757141Y-78110285D01*
X105757141Y-78110285D02*
X105871427Y-78053142D01*
X105871427Y-78053142D02*
X106042855Y-78053142D01*
X106042855Y-78053142D02*
X106157141Y-78110285D01*
X106671427Y-78796000D02*
X106785713Y-78853142D01*
X106785713Y-78853142D02*
X107014284Y-78853142D01*
X107014284Y-78853142D02*
X107128570Y-78796000D01*
X107128570Y-78796000D02*
X107185713Y-78681714D01*
X107185713Y-78681714D02*
X107185713Y-78624571D01*
X107185713Y-78624571D02*
X107128570Y-78510285D01*
X107128570Y-78510285D02*
X107014284Y-78453142D01*
X107014284Y-78453142D02*
X106842856Y-78453142D01*
X106842856Y-78453142D02*
X106728570Y-78396000D01*
X106728570Y-78396000D02*
X106671427Y-78281714D01*
X106671427Y-78281714D02*
X106671427Y-78224571D01*
X106671427Y-78224571D02*
X106728570Y-78110285D01*
X106728570Y-78110285D02*
X106842856Y-78053142D01*
X106842856Y-78053142D02*
X107014284Y-78053142D01*
X107014284Y-78053142D02*
X107128570Y-78110285D01*
X124785714Y-60896000D02*
X125700000Y-60896000D01*
D10*
X112571428Y-70233809D02*
X112714285Y-70281428D01*
X112714285Y-70281428D02*
X112761904Y-70329047D01*
X112761904Y-70329047D02*
X112809523Y-70424285D01*
X112809523Y-70424285D02*
X112809523Y-70567142D01*
X112809523Y-70567142D02*
X112761904Y-70662380D01*
X112761904Y-70662380D02*
X112714285Y-70710000D01*
X112714285Y-70710000D02*
X112619047Y-70757619D01*
X112619047Y-70757619D02*
X112238095Y-70757619D01*
X112238095Y-70757619D02*
X112238095Y-69757619D01*
X112238095Y-69757619D02*
X112571428Y-69757619D01*
X112571428Y-69757619D02*
X112666666Y-69805238D01*
X112666666Y-69805238D02*
X112714285Y-69852857D01*
X112714285Y-69852857D02*
X112761904Y-69948095D01*
X112761904Y-69948095D02*
X112761904Y-70043333D01*
X112761904Y-70043333D02*
X112714285Y-70138571D01*
X112714285Y-70138571D02*
X112666666Y-70186190D01*
X112666666Y-70186190D02*
X112571428Y-70233809D01*
X112571428Y-70233809D02*
X112238095Y-70233809D01*
X113666666Y-70757619D02*
X113666666Y-70233809D01*
X113666666Y-70233809D02*
X113619047Y-70138571D01*
X113619047Y-70138571D02*
X113523809Y-70090952D01*
X113523809Y-70090952D02*
X113333333Y-70090952D01*
X113333333Y-70090952D02*
X113238095Y-70138571D01*
X113666666Y-70710000D02*
X113571428Y-70757619D01*
X113571428Y-70757619D02*
X113333333Y-70757619D01*
X113333333Y-70757619D02*
X113238095Y-70710000D01*
X113238095Y-70710000D02*
X113190476Y-70614761D01*
X113190476Y-70614761D02*
X113190476Y-70519523D01*
X113190476Y-70519523D02*
X113238095Y-70424285D01*
X113238095Y-70424285D02*
X113333333Y-70376666D01*
X113333333Y-70376666D02*
X113571428Y-70376666D01*
X113571428Y-70376666D02*
X113666666Y-70329047D01*
X114000000Y-70090952D02*
X114380952Y-70090952D01*
X114142857Y-69757619D02*
X114142857Y-70614761D01*
X114142857Y-70614761D02*
X114190476Y-70710000D01*
X114190476Y-70710000D02*
X114285714Y-70757619D01*
X114285714Y-70757619D02*
X114380952Y-70757619D01*
X114571429Y-70090952D02*
X114952381Y-70090952D01*
X114714286Y-69757619D02*
X114714286Y-70614761D01*
X114714286Y-70614761D02*
X114761905Y-70710000D01*
X114761905Y-70710000D02*
X114857143Y-70757619D01*
X114857143Y-70757619D02*
X114952381Y-70757619D01*
X115666667Y-70710000D02*
X115571429Y-70757619D01*
X115571429Y-70757619D02*
X115380953Y-70757619D01*
X115380953Y-70757619D02*
X115285715Y-70710000D01*
X115285715Y-70710000D02*
X115238096Y-70614761D01*
X115238096Y-70614761D02*
X115238096Y-70233809D01*
X115238096Y-70233809D02*
X115285715Y-70138571D01*
X115285715Y-70138571D02*
X115380953Y-70090952D01*
X115380953Y-70090952D02*
X115571429Y-70090952D01*
X115571429Y-70090952D02*
X115666667Y-70138571D01*
X115666667Y-70138571D02*
X115714286Y-70233809D01*
X115714286Y-70233809D02*
X115714286Y-70329047D01*
X115714286Y-70329047D02*
X115238096Y-70424285D01*
X116142858Y-70757619D02*
X116142858Y-70090952D01*
X116142858Y-70281428D02*
X116190477Y-70186190D01*
X116190477Y-70186190D02*
X116238096Y-70138571D01*
X116238096Y-70138571D02*
X116333334Y-70090952D01*
X116333334Y-70090952D02*
X116428572Y-70090952D01*
X116666668Y-70090952D02*
X116904763Y-70757619D01*
X117142858Y-70090952D02*
X116904763Y-70757619D01*
X116904763Y-70757619D02*
X116809525Y-70995714D01*
X116809525Y-70995714D02*
X116761906Y-71043333D01*
X116761906Y-71043333D02*
X116666668Y-71090952D01*
X112238095Y-72377619D02*
X112238095Y-71377619D01*
X112238095Y-71377619D02*
X112571428Y-72091904D01*
X112571428Y-72091904D02*
X112904761Y-71377619D01*
X112904761Y-71377619D02*
X112904761Y-72377619D01*
X113523809Y-72377619D02*
X113428571Y-72330000D01*
X113428571Y-72330000D02*
X113380952Y-72282380D01*
X113380952Y-72282380D02*
X113333333Y-72187142D01*
X113333333Y-72187142D02*
X113333333Y-71901428D01*
X113333333Y-71901428D02*
X113380952Y-71806190D01*
X113380952Y-71806190D02*
X113428571Y-71758571D01*
X113428571Y-71758571D02*
X113523809Y-71710952D01*
X113523809Y-71710952D02*
X113666666Y-71710952D01*
X113666666Y-71710952D02*
X113761904Y-71758571D01*
X113761904Y-71758571D02*
X113809523Y-71806190D01*
X113809523Y-71806190D02*
X113857142Y-71901428D01*
X113857142Y-71901428D02*
X113857142Y-72187142D01*
X113857142Y-72187142D02*
X113809523Y-72282380D01*
X113809523Y-72282380D02*
X113761904Y-72330000D01*
X113761904Y-72330000D02*
X113666666Y-72377619D01*
X113666666Y-72377619D02*
X113523809Y-72377619D01*
X114714285Y-72377619D02*
X114714285Y-71377619D01*
X114714285Y-72330000D02*
X114619047Y-72377619D01*
X114619047Y-72377619D02*
X114428571Y-72377619D01*
X114428571Y-72377619D02*
X114333333Y-72330000D01*
X114333333Y-72330000D02*
X114285714Y-72282380D01*
X114285714Y-72282380D02*
X114238095Y-72187142D01*
X114238095Y-72187142D02*
X114238095Y-71901428D01*
X114238095Y-71901428D02*
X114285714Y-71806190D01*
X114285714Y-71806190D02*
X114333333Y-71758571D01*
X114333333Y-71758571D02*
X114428571Y-71710952D01*
X114428571Y-71710952D02*
X114619047Y-71710952D01*
X114619047Y-71710952D02*
X114714285Y-71758571D01*
X115571428Y-72330000D02*
X115476190Y-72377619D01*
X115476190Y-72377619D02*
X115285714Y-72377619D01*
X115285714Y-72377619D02*
X115190476Y-72330000D01*
X115190476Y-72330000D02*
X115142857Y-72234761D01*
X115142857Y-72234761D02*
X115142857Y-71853809D01*
X115142857Y-71853809D02*
X115190476Y-71758571D01*
X115190476Y-71758571D02*
X115285714Y-71710952D01*
X115285714Y-71710952D02*
X115476190Y-71710952D01*
X115476190Y-71710952D02*
X115571428Y-71758571D01*
X115571428Y-71758571D02*
X115619047Y-71853809D01*
X115619047Y-71853809D02*
X115619047Y-71949047D01*
X115619047Y-71949047D02*
X115142857Y-72044285D01*
D11*
X98728571Y-66352000D02*
X98900000Y-66409142D01*
X98900000Y-66409142D02*
X99185714Y-66409142D01*
X99185714Y-66409142D02*
X99300000Y-66352000D01*
X99300000Y-66352000D02*
X99357142Y-66294857D01*
X99357142Y-66294857D02*
X99414285Y-66180571D01*
X99414285Y-66180571D02*
X99414285Y-66066285D01*
X99414285Y-66066285D02*
X99357142Y-65952000D01*
X99357142Y-65952000D02*
X99300000Y-65894857D01*
X99300000Y-65894857D02*
X99185714Y-65837714D01*
X99185714Y-65837714D02*
X98957142Y-65780571D01*
X98957142Y-65780571D02*
X98842857Y-65723428D01*
X98842857Y-65723428D02*
X98785714Y-65666285D01*
X98785714Y-65666285D02*
X98728571Y-65552000D01*
X98728571Y-65552000D02*
X98728571Y-65437714D01*
X98728571Y-65437714D02*
X98785714Y-65323428D01*
X98785714Y-65323428D02*
X98842857Y-65266285D01*
X98842857Y-65266285D02*
X98957142Y-65209142D01*
X98957142Y-65209142D02*
X99242857Y-65209142D01*
X99242857Y-65209142D02*
X99414285Y-65266285D01*
X100385714Y-66352000D02*
X100271428Y-66409142D01*
X100271428Y-66409142D02*
X100042857Y-66409142D01*
X100042857Y-66409142D02*
X99928571Y-66352000D01*
X99928571Y-66352000D02*
X99871428Y-66237714D01*
X99871428Y-66237714D02*
X99871428Y-65780571D01*
X99871428Y-65780571D02*
X99928571Y-65666285D01*
X99928571Y-65666285D02*
X100042857Y-65609142D01*
X100042857Y-65609142D02*
X100271428Y-65609142D01*
X100271428Y-65609142D02*
X100385714Y-65666285D01*
X100385714Y-65666285D02*
X100442857Y-65780571D01*
X100442857Y-65780571D02*
X100442857Y-65894857D01*
X100442857Y-65894857D02*
X99871428Y-66009142D01*
X100957142Y-65609142D02*
X100957142Y-66409142D01*
X100957142Y-65723428D02*
X101014285Y-65666285D01*
X101014285Y-65666285D02*
X101128570Y-65609142D01*
X101128570Y-65609142D02*
X101299999Y-65609142D01*
X101299999Y-65609142D02*
X101414285Y-65666285D01*
X101414285Y-65666285D02*
X101471428Y-65780571D01*
X101471428Y-65780571D02*
X101471428Y-66409142D01*
X101985713Y-66352000D02*
X102099999Y-66409142D01*
X102099999Y-66409142D02*
X102328570Y-66409142D01*
X102328570Y-66409142D02*
X102442856Y-66352000D01*
X102442856Y-66352000D02*
X102499999Y-66237714D01*
X102499999Y-66237714D02*
X102499999Y-66180571D01*
X102499999Y-66180571D02*
X102442856Y-66066285D01*
X102442856Y-66066285D02*
X102328570Y-66009142D01*
X102328570Y-66009142D02*
X102157142Y-66009142D01*
X102157142Y-66009142D02*
X102042856Y-65952000D01*
X102042856Y-65952000D02*
X101985713Y-65837714D01*
X101985713Y-65837714D02*
X101985713Y-65780571D01*
X101985713Y-65780571D02*
X102042856Y-65666285D01*
X102042856Y-65666285D02*
X102157142Y-65609142D01*
X102157142Y-65609142D02*
X102328570Y-65609142D01*
X102328570Y-65609142D02*
X102442856Y-65666285D01*
X103185713Y-66409142D02*
X103071428Y-66352000D01*
X103071428Y-66352000D02*
X103014285Y-66294857D01*
X103014285Y-66294857D02*
X102957142Y-66180571D01*
X102957142Y-66180571D02*
X102957142Y-65837714D01*
X102957142Y-65837714D02*
X103014285Y-65723428D01*
X103014285Y-65723428D02*
X103071428Y-65666285D01*
X103071428Y-65666285D02*
X103185713Y-65609142D01*
X103185713Y-65609142D02*
X103357142Y-65609142D01*
X103357142Y-65609142D02*
X103471428Y-65666285D01*
X103471428Y-65666285D02*
X103528571Y-65723428D01*
X103528571Y-65723428D02*
X103585713Y-65837714D01*
X103585713Y-65837714D02*
X103585713Y-66180571D01*
X103585713Y-66180571D02*
X103528571Y-66294857D01*
X103528571Y-66294857D02*
X103471428Y-66352000D01*
X103471428Y-66352000D02*
X103357142Y-66409142D01*
X103357142Y-66409142D02*
X103185713Y-66409142D01*
X104099999Y-66409142D02*
X104099999Y-65609142D01*
X104099999Y-65837714D02*
X104157142Y-65723428D01*
X104157142Y-65723428D02*
X104214285Y-65666285D01*
X104214285Y-65666285D02*
X104328570Y-65609142D01*
X104328570Y-65609142D02*
X104442856Y-65609142D01*
X105071427Y-65209142D02*
X105185713Y-65209142D01*
X105185713Y-65209142D02*
X105299999Y-65266285D01*
X105299999Y-65266285D02*
X105357142Y-65323428D01*
X105357142Y-65323428D02*
X105414284Y-65437714D01*
X105414284Y-65437714D02*
X105471427Y-65666285D01*
X105471427Y-65666285D02*
X105471427Y-65952000D01*
X105471427Y-65952000D02*
X105414284Y-66180571D01*
X105414284Y-66180571D02*
X105357142Y-66294857D01*
X105357142Y-66294857D02*
X105299999Y-66352000D01*
X105299999Y-66352000D02*
X105185713Y-66409142D01*
X105185713Y-66409142D02*
X105071427Y-66409142D01*
X105071427Y-66409142D02*
X104957142Y-66352000D01*
X104957142Y-66352000D02*
X104899999Y-66294857D01*
X104899999Y-66294857D02*
X104842856Y-66180571D01*
X104842856Y-66180571D02*
X104785713Y-65952000D01*
X104785713Y-65952000D02*
X104785713Y-65666285D01*
X104785713Y-65666285D02*
X104842856Y-65437714D01*
X104842856Y-65437714D02*
X104899999Y-65323428D01*
X104899999Y-65323428D02*
X104957142Y-65266285D01*
X104957142Y-65266285D02*
X105071427Y-65209142D01*
X98728571Y-68010285D02*
X99300000Y-68010285D01*
X98614285Y-68353142D02*
X99014285Y-67153142D01*
X99014285Y-67153142D02*
X99414285Y-68353142D01*
X100328571Y-68353142D02*
X100328571Y-67153142D01*
X100328571Y-68296000D02*
X100214285Y-68353142D01*
X100214285Y-68353142D02*
X99985713Y-68353142D01*
X99985713Y-68353142D02*
X99871428Y-68296000D01*
X99871428Y-68296000D02*
X99814285Y-68238857D01*
X99814285Y-68238857D02*
X99757142Y-68124571D01*
X99757142Y-68124571D02*
X99757142Y-67781714D01*
X99757142Y-67781714D02*
X99814285Y-67667428D01*
X99814285Y-67667428D02*
X99871428Y-67610285D01*
X99871428Y-67610285D02*
X99985713Y-67553142D01*
X99985713Y-67553142D02*
X100214285Y-67553142D01*
X100214285Y-67553142D02*
X100328571Y-67610285D01*
X101414285Y-68353142D02*
X101414285Y-67153142D01*
X101414285Y-68296000D02*
X101299999Y-68353142D01*
X101299999Y-68353142D02*
X101071427Y-68353142D01*
X101071427Y-68353142D02*
X100957142Y-68296000D01*
X100957142Y-68296000D02*
X100899999Y-68238857D01*
X100899999Y-68238857D02*
X100842856Y-68124571D01*
X100842856Y-68124571D02*
X100842856Y-67781714D01*
X100842856Y-67781714D02*
X100899999Y-67667428D01*
X100899999Y-67667428D02*
X100957142Y-67610285D01*
X100957142Y-67610285D02*
X101071427Y-67553142D01*
X101071427Y-67553142D02*
X101299999Y-67553142D01*
X101299999Y-67553142D02*
X101414285Y-67610285D01*
X101985713Y-68353142D02*
X101985713Y-67553142D01*
X101985713Y-67781714D02*
X102042856Y-67667428D01*
X102042856Y-67667428D02*
X102099999Y-67610285D01*
X102099999Y-67610285D02*
X102214284Y-67553142D01*
X102214284Y-67553142D02*
X102328570Y-67553142D01*
X103185713Y-68296000D02*
X103071427Y-68353142D01*
X103071427Y-68353142D02*
X102842856Y-68353142D01*
X102842856Y-68353142D02*
X102728570Y-68296000D01*
X102728570Y-68296000D02*
X102671427Y-68181714D01*
X102671427Y-68181714D02*
X102671427Y-67724571D01*
X102671427Y-67724571D02*
X102728570Y-67610285D01*
X102728570Y-67610285D02*
X102842856Y-67553142D01*
X102842856Y-67553142D02*
X103071427Y-67553142D01*
X103071427Y-67553142D02*
X103185713Y-67610285D01*
X103185713Y-67610285D02*
X103242856Y-67724571D01*
X103242856Y-67724571D02*
X103242856Y-67838857D01*
X103242856Y-67838857D02*
X102671427Y-67953142D01*
X103699998Y-68296000D02*
X103814284Y-68353142D01*
X103814284Y-68353142D02*
X104042855Y-68353142D01*
X104042855Y-68353142D02*
X104157141Y-68296000D01*
X104157141Y-68296000D02*
X104214284Y-68181714D01*
X104214284Y-68181714D02*
X104214284Y-68124571D01*
X104214284Y-68124571D02*
X104157141Y-68010285D01*
X104157141Y-68010285D02*
X104042855Y-67953142D01*
X104042855Y-67953142D02*
X103871427Y-67953142D01*
X103871427Y-67953142D02*
X103757141Y-67896000D01*
X103757141Y-67896000D02*
X103699998Y-67781714D01*
X103699998Y-67781714D02*
X103699998Y-67724571D01*
X103699998Y-67724571D02*
X103757141Y-67610285D01*
X103757141Y-67610285D02*
X103871427Y-67553142D01*
X103871427Y-67553142D02*
X104042855Y-67553142D01*
X104042855Y-67553142D02*
X104157141Y-67610285D01*
X104671427Y-68296000D02*
X104785713Y-68353142D01*
X104785713Y-68353142D02*
X105014284Y-68353142D01*
X105014284Y-68353142D02*
X105128570Y-68296000D01*
X105128570Y-68296000D02*
X105185713Y-68181714D01*
X105185713Y-68181714D02*
X105185713Y-68124571D01*
X105185713Y-68124571D02*
X105128570Y-68010285D01*
X105128570Y-68010285D02*
X105014284Y-67953142D01*
X105014284Y-67953142D02*
X104842856Y-67953142D01*
X104842856Y-67953142D02*
X104728570Y-67896000D01*
X104728570Y-67896000D02*
X104671427Y-67781714D01*
X104671427Y-67781714D02*
X104671427Y-67724571D01*
X104671427Y-67724571D02*
X104728570Y-67610285D01*
X104728570Y-67610285D02*
X104842856Y-67553142D01*
X104842856Y-67553142D02*
X105014284Y-67553142D01*
X105014284Y-67553142D02*
X105128570Y-67610285D01*
D14*
%TO.C,R103*%
X78227064Y-37235000D02*
X77772936Y-37235000D01*
X78227064Y-35765000D02*
X77772936Y-35765000D01*
%TO.C,J101*%
X54320000Y-37750000D02*
X54320000Y-32170000D01*
X69680000Y-37750000D02*
X69680000Y-32170000D01*
X54320000Y-32170000D02*
X69680000Y-32170000D01*
%TO.C,R107*%
X70765000Y-50227064D02*
X70765000Y-49772936D01*
X72235000Y-50227064D02*
X72235000Y-49772936D01*
%TO.C,C101*%
X83415000Y-42261252D02*
X83415000Y-41738748D01*
X84885000Y-42261252D02*
X84885000Y-41738748D01*
%TO.C,R105*%
X57227064Y-44235000D02*
X56772936Y-44235000D01*
X57227064Y-42765000D02*
X56772936Y-42765000D01*
%TO.C,R101*%
X78227064Y-49235000D02*
X77772936Y-49235000D01*
X78227064Y-47765000D02*
X77772936Y-47765000D01*
%TO.C,R106*%
X72235000Y-45772936D02*
X72235000Y-46227064D01*
X70765000Y-45772936D02*
X70765000Y-46227064D01*
%TO.C,R102*%
X78227064Y-40235000D02*
X77772936Y-40235000D01*
X78227064Y-38765000D02*
X77772936Y-38765000D01*
%TO.C,C103*%
X72738748Y-38765000D02*
X73261252Y-38765000D01*
X72738748Y-40235000D02*
X73261252Y-40235000D01*
%TO.C,U104*%
X65000000Y-50060000D02*
X68450000Y-50060000D01*
X65000000Y-50060000D02*
X63050000Y-50060000D01*
X65000000Y-44940000D02*
X66950000Y-44940000D01*
X65000000Y-44940000D02*
X63050000Y-44940000D01*
%TO.C,C102*%
X77738748Y-51265000D02*
X78261252Y-51265000D01*
X77738748Y-52735000D02*
X78261252Y-52735000D01*
%TO.C,JP102*%
X82537500Y-46450000D02*
X82537500Y-50550000D01*
X80537500Y-46450000D02*
X82537500Y-46450000D01*
X80037500Y-46900000D02*
X80037500Y-47500000D01*
X80337500Y-47200000D02*
X80037500Y-46900000D01*
X80337500Y-47200000D02*
X80037500Y-47500000D01*
X82537500Y-50550000D02*
X80537500Y-50550000D01*
X80537500Y-50550000D02*
X80537500Y-46450000D01*
%TO.C,JP101*%
X70500000Y-36050000D02*
X70500000Y-31950000D01*
X72500000Y-36050000D02*
X70500000Y-36050000D01*
X73000000Y-35600000D02*
X73000000Y-35000000D01*
X72700000Y-35300000D02*
X73000000Y-35600000D01*
X72700000Y-35300000D02*
X73000000Y-35000000D01*
X70500000Y-31950000D02*
X72500000Y-31950000D01*
X72500000Y-31950000D02*
X72500000Y-36050000D01*
%TO.C,R104*%
X61727064Y-44235000D02*
X61272936Y-44235000D01*
X61727064Y-42765000D02*
X61272936Y-42765000D01*
%TO.C,U103*%
X62040000Y-41530000D02*
X59860000Y-41530000D01*
X59860000Y-41860000D02*
X59860000Y-41530000D01*
X59860000Y-41860000D02*
X57140000Y-41860000D01*
X59860000Y-37140000D02*
X59860000Y-37470000D01*
X57140000Y-41860000D02*
X57140000Y-41530000D01*
X57140000Y-37470000D02*
X57140000Y-37140000D01*
X57140000Y-37140000D02*
X59860000Y-37140000D01*
%TO.C,R108*%
X66727064Y-51735000D02*
X66272936Y-51735000D01*
X66727064Y-50265000D02*
X66272936Y-50265000D01*
%TO.C,U101*%
X86040000Y-42000000D02*
X86040000Y-43500000D01*
X89260000Y-40500000D02*
X89260000Y-43500000D01*
%TO.C,R103*%
X78227064Y-62765000D02*
X77772936Y-62765000D01*
X78227064Y-64235000D02*
X77772936Y-64235000D01*
%TO.C,J101*%
X54320000Y-59170000D02*
X69680000Y-59170000D01*
X69680000Y-64750000D02*
X69680000Y-59170000D01*
X54320000Y-64750000D02*
X54320000Y-59170000D01*
%TO.C,R107*%
X72235000Y-77227064D02*
X72235000Y-76772936D01*
X70765000Y-77227064D02*
X70765000Y-76772936D01*
%TO.C,C101*%
X84885000Y-69261252D02*
X84885000Y-68738748D01*
X83415000Y-69261252D02*
X83415000Y-68738748D01*
%TO.C,R105*%
X57227064Y-69765000D02*
X56772936Y-69765000D01*
X57227064Y-71235000D02*
X56772936Y-71235000D01*
%TO.C,R101*%
X78227064Y-74765000D02*
X77772936Y-74765000D01*
X78227064Y-76235000D02*
X77772936Y-76235000D01*
%TO.C,R106*%
X70765000Y-72772936D02*
X70765000Y-73227064D01*
X72235000Y-72772936D02*
X72235000Y-73227064D01*
%TO.C,R102*%
X78227064Y-65765000D02*
X77772936Y-65765000D01*
X78227064Y-67235000D02*
X77772936Y-67235000D01*
%TO.C,C103*%
X72738748Y-67235000D02*
X73261252Y-67235000D01*
X72738748Y-65765000D02*
X73261252Y-65765000D01*
%TO.C,U104*%
X65000000Y-71940000D02*
X63050000Y-71940000D01*
X65000000Y-71940000D02*
X66950000Y-71940000D01*
X65000000Y-77060000D02*
X63050000Y-77060000D01*
X65000000Y-77060000D02*
X68450000Y-77060000D01*
%TO.C,C102*%
X77738748Y-79735000D02*
X78261252Y-79735000D01*
X77738748Y-78265000D02*
X78261252Y-78265000D01*
%TO.C,JP102*%
X80537500Y-77550000D02*
X80537500Y-73450000D01*
X82537500Y-77550000D02*
X80537500Y-77550000D01*
X80337500Y-74200000D02*
X80037500Y-74500000D01*
X80337500Y-74200000D02*
X80037500Y-73900000D01*
X80037500Y-73900000D02*
X80037500Y-74500000D01*
X80537500Y-73450000D02*
X82537500Y-73450000D01*
X82537500Y-73450000D02*
X82537500Y-77550000D01*
%TO.C,JP101*%
X72500000Y-58950000D02*
X72500000Y-63050000D01*
X70500000Y-58950000D02*
X72500000Y-58950000D01*
X72700000Y-62300000D02*
X73000000Y-62000000D01*
X72700000Y-62300000D02*
X73000000Y-62600000D01*
X73000000Y-62600000D02*
X73000000Y-62000000D01*
X72500000Y-63050000D02*
X70500000Y-63050000D01*
X70500000Y-63050000D02*
X70500000Y-58950000D01*
%TO.C,R104*%
X61727064Y-69765000D02*
X61272936Y-69765000D01*
X61727064Y-71235000D02*
X61272936Y-71235000D01*
%TO.C,U103*%
X57140000Y-64140000D02*
X59860000Y-64140000D01*
X57140000Y-64470000D02*
X57140000Y-64140000D01*
X57140000Y-68860000D02*
X57140000Y-68530000D01*
X59860000Y-64140000D02*
X59860000Y-64470000D01*
X59860000Y-68860000D02*
X57140000Y-68860000D01*
X59860000Y-68860000D02*
X59860000Y-68530000D01*
X62040000Y-68530000D02*
X59860000Y-68530000D01*
%TO.C,R108*%
X66727064Y-77265000D02*
X66272936Y-77265000D01*
X66727064Y-78735000D02*
X66272936Y-78735000D01*
%TO.C,U101*%
X89260000Y-67500000D02*
X89260000Y-70500000D01*
X86040000Y-69000000D02*
X86040000Y-70500000D01*
%TO.C,R103*%
X78227064Y-91235000D02*
X77772936Y-91235000D01*
X78227064Y-89765000D02*
X77772936Y-89765000D01*
%TO.C,J101*%
X54320000Y-91750000D02*
X54320000Y-86170000D01*
X69680000Y-91750000D02*
X69680000Y-86170000D01*
X54320000Y-86170000D02*
X69680000Y-86170000D01*
%TO.C,R107*%
X70765000Y-104227064D02*
X70765000Y-103772936D01*
X72235000Y-104227064D02*
X72235000Y-103772936D01*
%TO.C,C101*%
X83415000Y-96261252D02*
X83415000Y-95738748D01*
X84885000Y-96261252D02*
X84885000Y-95738748D01*
%TO.C,R105*%
X57227064Y-98235000D02*
X56772936Y-98235000D01*
X57227064Y-96765000D02*
X56772936Y-96765000D01*
%TO.C,R101*%
X78227064Y-103235000D02*
X77772936Y-103235000D01*
X78227064Y-101765000D02*
X77772936Y-101765000D01*
%TO.C,R106*%
X72235000Y-99772936D02*
X72235000Y-100227064D01*
X70765000Y-99772936D02*
X70765000Y-100227064D01*
%TO.C,R102*%
X78227064Y-94235000D02*
X77772936Y-94235000D01*
X78227064Y-92765000D02*
X77772936Y-92765000D01*
%TO.C,C103*%
X72738748Y-92765000D02*
X73261252Y-92765000D01*
X72738748Y-94235000D02*
X73261252Y-94235000D01*
%TO.C,U104*%
X65000000Y-104060000D02*
X68450000Y-104060000D01*
X65000000Y-104060000D02*
X63050000Y-104060000D01*
X65000000Y-98940000D02*
X66950000Y-98940000D01*
X65000000Y-98940000D02*
X63050000Y-98940000D01*
%TO.C,C102*%
X77738748Y-105265000D02*
X78261252Y-105265000D01*
X77738748Y-106735000D02*
X78261252Y-106735000D01*
%TO.C,JP102*%
X82537500Y-100450000D02*
X82537500Y-104550000D01*
X80537500Y-100450000D02*
X82537500Y-100450000D01*
X80037500Y-100900000D02*
X80037500Y-101500000D01*
X80337500Y-101200000D02*
X80037500Y-100900000D01*
X80337500Y-101200000D02*
X80037500Y-101500000D01*
X82537500Y-104550000D02*
X80537500Y-104550000D01*
X80537500Y-104550000D02*
X80537500Y-100450000D01*
%TO.C,JP101*%
X70500000Y-90050000D02*
X70500000Y-85950000D01*
X72500000Y-90050000D02*
X70500000Y-90050000D01*
X73000000Y-89600000D02*
X73000000Y-89000000D01*
X72700000Y-89300000D02*
X73000000Y-89600000D01*
X72700000Y-89300000D02*
X73000000Y-89000000D01*
X70500000Y-85950000D02*
X72500000Y-85950000D01*
X72500000Y-85950000D02*
X72500000Y-90050000D01*
%TO.C,R104*%
X61727064Y-98235000D02*
X61272936Y-98235000D01*
X61727064Y-96765000D02*
X61272936Y-96765000D01*
%TO.C,U103*%
X62040000Y-95530000D02*
X59860000Y-95530000D01*
X59860000Y-95860000D02*
X59860000Y-95530000D01*
X59860000Y-95860000D02*
X57140000Y-95860000D01*
X59860000Y-91140000D02*
X59860000Y-91470000D01*
X57140000Y-95860000D02*
X57140000Y-95530000D01*
X57140000Y-91470000D02*
X57140000Y-91140000D01*
X57140000Y-91140000D02*
X59860000Y-91140000D01*
%TO.C,R108*%
X66727064Y-105735000D02*
X66272936Y-105735000D01*
X66727064Y-104265000D02*
X66272936Y-104265000D01*
%TO.C,U101*%
X86040000Y-96000000D02*
X86040000Y-97500000D01*
X89260000Y-94500000D02*
X89260000Y-97500000D01*
%TO.C,R103*%
X102772936Y-100765000D02*
X103227064Y-100765000D01*
X102772936Y-102235000D02*
X103227064Y-102235000D01*
%TO.C,J101*%
X126680000Y-100250000D02*
X126680000Y-105830000D01*
X111320000Y-100250000D02*
X111320000Y-105830000D01*
X126680000Y-105830000D02*
X111320000Y-105830000D01*
%TO.C,R107*%
X110235000Y-87772936D02*
X110235000Y-88227064D01*
X108765000Y-87772936D02*
X108765000Y-88227064D01*
%TO.C,C101*%
X97585000Y-95738748D02*
X97585000Y-96261252D01*
X96115000Y-95738748D02*
X96115000Y-96261252D01*
%TO.C,R105*%
X123772936Y-93765000D02*
X124227064Y-93765000D01*
X123772936Y-95235000D02*
X124227064Y-95235000D01*
%TO.C,R101*%
X102772936Y-88765000D02*
X103227064Y-88765000D01*
X102772936Y-90235000D02*
X103227064Y-90235000D01*
%TO.C,R106*%
X108765000Y-92227064D02*
X108765000Y-91772936D01*
X110235000Y-92227064D02*
X110235000Y-91772936D01*
%TO.C,R102*%
X102772936Y-97765000D02*
X103227064Y-97765000D01*
X102772936Y-99235000D02*
X103227064Y-99235000D01*
%TO.C,C103*%
X108261252Y-99235000D02*
X107738748Y-99235000D01*
X108261252Y-97765000D02*
X107738748Y-97765000D01*
%TO.C,U104*%
X116000000Y-87940000D02*
X112550000Y-87940000D01*
X116000000Y-87940000D02*
X117950000Y-87940000D01*
X116000000Y-93060000D02*
X114050000Y-93060000D01*
X116000000Y-93060000D02*
X117950000Y-93060000D01*
%TO.C,C102*%
X103261252Y-86735000D02*
X102738748Y-86735000D01*
X103261252Y-85265000D02*
X102738748Y-85265000D01*
%TO.C,JP102*%
X98462500Y-91550000D02*
X98462500Y-87450000D01*
X100462500Y-91550000D02*
X98462500Y-91550000D01*
X100962500Y-91100000D02*
X100962500Y-90500000D01*
X100662500Y-90800000D02*
X100962500Y-91100000D01*
X100662500Y-90800000D02*
X100962500Y-90500000D01*
X98462500Y-87450000D02*
X100462500Y-87450000D01*
X100462500Y-87450000D02*
X100462500Y-91550000D01*
%TO.C,JP101*%
X110500000Y-101950000D02*
X110500000Y-106050000D01*
X108500000Y-101950000D02*
X110500000Y-101950000D01*
X108000000Y-102400000D02*
X108000000Y-103000000D01*
X108300000Y-102700000D02*
X108000000Y-102400000D01*
X108300000Y-102700000D02*
X108000000Y-103000000D01*
X110500000Y-106050000D02*
X108500000Y-106050000D01*
X108500000Y-106050000D02*
X108500000Y-101950000D01*
%TO.C,R104*%
X119272936Y-93765000D02*
X119727064Y-93765000D01*
X119272936Y-95235000D02*
X119727064Y-95235000D01*
%TO.C,U103*%
X118960000Y-96470000D02*
X121140000Y-96470000D01*
X121140000Y-96140000D02*
X121140000Y-96470000D01*
X121140000Y-96140000D02*
X123860000Y-96140000D01*
X121140000Y-100860000D02*
X121140000Y-100530000D01*
X123860000Y-96140000D02*
X123860000Y-96470000D01*
X123860000Y-100530000D02*
X123860000Y-100860000D01*
X123860000Y-100860000D02*
X121140000Y-100860000D01*
%TO.C,R108*%
X114272936Y-86265000D02*
X114727064Y-86265000D01*
X114272936Y-87735000D02*
X114727064Y-87735000D01*
%TO.C,U101*%
X94960000Y-96000000D02*
X94960000Y-94500000D01*
X91740000Y-97500000D02*
X91740000Y-94500000D01*
%TO.C,R103*%
X102772936Y-46765000D02*
X103227064Y-46765000D01*
X102772936Y-48235000D02*
X103227064Y-48235000D01*
%TO.C,J101*%
X126680000Y-46250000D02*
X126680000Y-51830000D01*
X111320000Y-46250000D02*
X111320000Y-51830000D01*
X126680000Y-51830000D02*
X111320000Y-51830000D01*
%TO.C,R107*%
X110235000Y-33772936D02*
X110235000Y-34227064D01*
X108765000Y-33772936D02*
X108765000Y-34227064D01*
%TO.C,C101*%
X97585000Y-41738748D02*
X97585000Y-42261252D01*
X96115000Y-41738748D02*
X96115000Y-42261252D01*
%TO.C,R105*%
X123772936Y-39765000D02*
X124227064Y-39765000D01*
X123772936Y-41235000D02*
X124227064Y-41235000D01*
%TO.C,R101*%
X102772936Y-34765000D02*
X103227064Y-34765000D01*
X102772936Y-36235000D02*
X103227064Y-36235000D01*
%TO.C,R106*%
X108765000Y-38227064D02*
X108765000Y-37772936D01*
X110235000Y-38227064D02*
X110235000Y-37772936D01*
%TO.C,R102*%
X102772936Y-43765000D02*
X103227064Y-43765000D01*
X102772936Y-45235000D02*
X103227064Y-45235000D01*
%TO.C,C103*%
X108261252Y-45235000D02*
X107738748Y-45235000D01*
X108261252Y-43765000D02*
X107738748Y-43765000D01*
%TO.C,U104*%
X116000000Y-33940000D02*
X112550000Y-33940000D01*
X116000000Y-33940000D02*
X117950000Y-33940000D01*
X116000000Y-39060000D02*
X114050000Y-39060000D01*
X116000000Y-39060000D02*
X117950000Y-39060000D01*
%TO.C,C102*%
X103261252Y-32735000D02*
X102738748Y-32735000D01*
X103261252Y-31265000D02*
X102738748Y-31265000D01*
%TO.C,JP102*%
X98462500Y-37550000D02*
X98462500Y-33450000D01*
X100462500Y-37550000D02*
X98462500Y-37550000D01*
X100962500Y-37100000D02*
X100962500Y-36500000D01*
X100662500Y-36800000D02*
X100962500Y-37100000D01*
X100662500Y-36800000D02*
X100962500Y-36500000D01*
X98462500Y-33450000D02*
X100462500Y-33450000D01*
X100462500Y-33450000D02*
X100462500Y-37550000D01*
%TO.C,JP101*%
X110500000Y-47950000D02*
X110500000Y-52050000D01*
X108500000Y-47950000D02*
X110500000Y-47950000D01*
X108000000Y-48400000D02*
X108000000Y-49000000D01*
X108300000Y-48700000D02*
X108000000Y-48400000D01*
X108300000Y-48700000D02*
X108000000Y-49000000D01*
X110500000Y-52050000D02*
X108500000Y-52050000D01*
X108500000Y-52050000D02*
X108500000Y-47950000D01*
%TO.C,R104*%
X119272936Y-39765000D02*
X119727064Y-39765000D01*
X119272936Y-41235000D02*
X119727064Y-41235000D01*
%TO.C,U103*%
X118960000Y-42470000D02*
X121140000Y-42470000D01*
X121140000Y-42140000D02*
X121140000Y-42470000D01*
X121140000Y-42140000D02*
X123860000Y-42140000D01*
X121140000Y-46860000D02*
X121140000Y-46530000D01*
X123860000Y-42140000D02*
X123860000Y-42470000D01*
X123860000Y-46530000D02*
X123860000Y-46860000D01*
X123860000Y-46860000D02*
X121140000Y-46860000D01*
%TO.C,R108*%
X114272936Y-32265000D02*
X114727064Y-32265000D01*
X114272936Y-33735000D02*
X114727064Y-33735000D01*
%TO.C,U101*%
X94960000Y-42000000D02*
X94960000Y-40500000D01*
X91740000Y-43500000D02*
X91740000Y-40500000D01*
%TO.C,JP101*%
X110500000Y-74950000D02*
X110500000Y-79050000D01*
X108500000Y-74950000D02*
X110500000Y-74950000D01*
X108000000Y-75400000D02*
X108000000Y-76000000D01*
X108300000Y-75700000D02*
X108000000Y-75400000D01*
X108300000Y-75700000D02*
X108000000Y-76000000D01*
X110500000Y-79050000D02*
X108500000Y-79050000D01*
X108500000Y-79050000D02*
X108500000Y-74950000D01*
%TO.C,JP102*%
X98462500Y-64550000D02*
X98462500Y-60450000D01*
X100462500Y-64550000D02*
X98462500Y-64550000D01*
X100962500Y-64100000D02*
X100962500Y-63500000D01*
X100662500Y-63800000D02*
X100962500Y-64100000D01*
X100662500Y-63800000D02*
X100962500Y-63500000D01*
X98462500Y-60450000D02*
X100462500Y-60450000D01*
X100462500Y-60450000D02*
X100462500Y-64550000D01*
%TO.C,R104*%
X119272936Y-66765000D02*
X119727064Y-66765000D01*
X119272936Y-68235000D02*
X119727064Y-68235000D01*
%TO.C,C102*%
X103261252Y-59735000D02*
X102738748Y-59735000D01*
X103261252Y-58265000D02*
X102738748Y-58265000D01*
%TO.C,U104*%
X116000000Y-60940000D02*
X112550000Y-60940000D01*
X116000000Y-60940000D02*
X117950000Y-60940000D01*
X116000000Y-66060000D02*
X114050000Y-66060000D01*
X116000000Y-66060000D02*
X117950000Y-66060000D01*
%TO.C,C103*%
X108261252Y-72235000D02*
X107738748Y-72235000D01*
X108261252Y-70765000D02*
X107738748Y-70765000D01*
%TO.C,R102*%
X102772936Y-70765000D02*
X103227064Y-70765000D01*
X102772936Y-72235000D02*
X103227064Y-72235000D01*
%TO.C,R106*%
X108765000Y-65227064D02*
X108765000Y-64772936D01*
X110235000Y-65227064D02*
X110235000Y-64772936D01*
%TO.C,R101*%
X102772936Y-61765000D02*
X103227064Y-61765000D01*
X102772936Y-63235000D02*
X103227064Y-63235000D01*
%TO.C,R105*%
X123772936Y-66765000D02*
X124227064Y-66765000D01*
X123772936Y-68235000D02*
X124227064Y-68235000D01*
%TO.C,C101*%
X97585000Y-68738748D02*
X97585000Y-69261252D01*
X96115000Y-68738748D02*
X96115000Y-69261252D01*
%TO.C,R107*%
X110235000Y-60772936D02*
X110235000Y-61227064D01*
X108765000Y-60772936D02*
X108765000Y-61227064D01*
%TO.C,J101*%
X126680000Y-73250000D02*
X126680000Y-78830000D01*
X111320000Y-73250000D02*
X111320000Y-78830000D01*
X126680000Y-78830000D02*
X111320000Y-78830000D01*
%TO.C,R103*%
X102772936Y-73765000D02*
X103227064Y-73765000D01*
X102772936Y-75235000D02*
X103227064Y-75235000D01*
%TO.C,R108*%
X114272936Y-59265000D02*
X114727064Y-59265000D01*
X114272936Y-60735000D02*
X114727064Y-60735000D01*
%TO.C,U103*%
X118960000Y-69470000D02*
X121140000Y-69470000D01*
X121140000Y-69140000D02*
X121140000Y-69470000D01*
X121140000Y-69140000D02*
X123860000Y-69140000D01*
X121140000Y-73860000D02*
X121140000Y-73530000D01*
X123860000Y-69140000D02*
X123860000Y-69470000D01*
X123860000Y-73530000D02*
X123860000Y-73860000D01*
X123860000Y-73860000D02*
X121140000Y-73860000D01*
%TO.C,U101*%
X94960000Y-69000000D02*
X94960000Y-67500000D01*
X91740000Y-70500000D02*
X91740000Y-67500000D01*
%TD*%
M02*
