%TF.GenerationSoftware,KiCad,Pcbnew,7.0.1*%
%TF.CreationDate,2023-04-17T17:37:10+02:00*%
%TF.ProjectId,BME680_shield_panel,424d4536-3830-45f7-9368-69656c645f70,rev?*%
%TF.SameCoordinates,Original*%
%TF.FileFunction,Paste,Top*%
%TF.FilePolarity,Positive*%
%FSLAX46Y46*%
G04 Gerber Fmt 4.6, Leading zero omitted, Abs format (unit mm)*
G04 Created by KiCad (PCBNEW 7.0.1) date 2023-04-17 17:37:10*
%MOMM*%
%LPD*%
G01*
G04 APERTURE LIST*
G04 Aperture macros list*
%AMRoundRect*
0 Rectangle with rounded corners*
0 $1 Rounding radius*
0 $2 $3 $4 $5 $6 $7 $8 $9 X,Y pos of 4 corners*
0 Add a 4 corners polygon primitive as box body*
4,1,4,$2,$3,$4,$5,$6,$7,$8,$9,$2,$3,0*
0 Add four circle primitives for the rounded corners*
1,1,$1+$1,$2,$3*
1,1,$1+$1,$4,$5*
1,1,$1+$1,$6,$7*
1,1,$1+$1,$8,$9*
0 Add four rect primitives between the rounded corners*
20,1,$1+$1,$2,$3,$4,$5,0*
20,1,$1+$1,$4,$5,$6,$7,0*
20,1,$1+$1,$6,$7,$8,$9,0*
20,1,$1+$1,$8,$9,$2,$3,0*%
%AMFreePoly0*
4,1,13,0.900000,0.500000,3.600000,0.500000,3.600000,-0.500000,0.900000,-0.500000,0.400000,-1.000000,-0.400000,-1.000000,-0.900000,-0.500000,-3.600000,-0.500000,-3.600000,0.500000,-0.900000,0.500000,-0.400000,1.000000,0.400000,1.000000,0.900000,0.500000,0.900000,0.500000,$1*%
G04 Aperture macros list end*
%ADD10R,2.500000X0.700000*%
%ADD11FreePoly0,180.000000*%
%ADD12RoundRect,0.250000X0.350000X0.450000X-0.350000X0.450000X-0.350000X-0.450000X0.350000X-0.450000X0*%
%ADD13RoundRect,0.250000X-0.475000X0.337500X-0.475000X-0.337500X0.475000X-0.337500X0.475000X0.337500X0*%
%ADD14RoundRect,0.150000X0.825000X0.150000X-0.825000X0.150000X-0.825000X-0.150000X0.825000X-0.150000X0*%
%ADD15RoundRect,0.125000X0.125000X0.137500X-0.125000X0.137500X-0.125000X-0.137500X0.125000X-0.137500X0*%
%ADD16RoundRect,0.250000X-0.350000X-0.450000X0.350000X-0.450000X0.350000X0.450000X-0.350000X0.450000X0*%
%ADD17RoundRect,0.250000X0.337500X0.475000X-0.337500X0.475000X-0.337500X-0.475000X0.337500X-0.475000X0*%
%ADD18RoundRect,0.250000X-0.337500X-0.475000X0.337500X-0.475000X0.337500X0.475000X-0.337500X0.475000X0*%
%ADD19RoundRect,0.125000X-0.125000X-0.137500X0.125000X-0.137500X0.125000X0.137500X-0.125000X0.137500X0*%
%ADD20RoundRect,0.150000X-0.825000X-0.150000X0.825000X-0.150000X0.825000X0.150000X-0.825000X0.150000X0*%
%ADD21RoundRect,0.250000X0.450000X-0.350000X0.450000X0.350000X-0.450000X0.350000X-0.450000X-0.350000X0*%
%ADD22RoundRect,0.250000X-0.450000X0.350000X-0.450000X-0.350000X0.450000X-0.350000X0.450000X0.350000X0*%
%ADD23FreePoly0,0.000000*%
%ADD24RoundRect,0.250000X0.475000X-0.337500X0.475000X0.337500X-0.475000X0.337500X-0.475000X-0.337500X0*%
G04 APERTURE END LIST*
D10*
%TO.C,U103*%
X60850000Y-94000000D03*
D11*
X58500000Y-92500000D03*
D10*
X60850000Y-91000000D03*
X56150000Y-91000000D03*
X56150000Y-94000000D03*
%TD*%
D12*
%TO.C,R103*%
X79000000Y-89500000D03*
X77000000Y-89500000D03*
%TD*%
D13*
%TO.C,C101*%
X96850000Y-40462500D03*
X96850000Y-42537500D03*
%TD*%
D14*
%TO.C,U104*%
X67475000Y-48405000D03*
X67475000Y-47135000D03*
X67475000Y-45865000D03*
X67475000Y-44595000D03*
X62525000Y-44595000D03*
X62525000Y-45865000D03*
X62525000Y-47135000D03*
X62525000Y-48405000D03*
%TD*%
D15*
%TO.C,U101*%
X94550000Y-96687500D03*
X93750000Y-96687500D03*
X92950000Y-96687500D03*
X92150000Y-96687500D03*
X92150000Y-94312500D03*
X92950000Y-94312500D03*
X93750000Y-94312500D03*
X94550000Y-94312500D03*
%TD*%
D16*
%TO.C,R105*%
X123000000Y-40500000D03*
X125000000Y-40500000D03*
%TD*%
D17*
%TO.C,C103*%
X109037500Y-98500000D03*
X106962500Y-98500000D03*
%TD*%
%TO.C,C102*%
X104037500Y-32000000D03*
X101962500Y-32000000D03*
%TD*%
D18*
%TO.C,C102*%
X76962500Y-51000000D03*
X79037500Y-51000000D03*
%TD*%
%TO.C,C103*%
X71962500Y-92500000D03*
X74037500Y-92500000D03*
%TD*%
%TO.C,C102*%
X76962500Y-105000000D03*
X79037500Y-105000000D03*
%TD*%
D14*
%TO.C,U104*%
X67475000Y-102405000D03*
X67475000Y-101135000D03*
X67475000Y-99865000D03*
X67475000Y-98595000D03*
X62525000Y-98595000D03*
X62525000Y-99865000D03*
X62525000Y-101135000D03*
X62525000Y-102405000D03*
%TD*%
D12*
%TO.C,R101*%
X79000000Y-101500000D03*
X77000000Y-101500000D03*
%TD*%
D16*
%TO.C,R104*%
X118500000Y-67500000D03*
X120500000Y-67500000D03*
%TD*%
D18*
%TO.C,C102*%
X76962500Y-78000000D03*
X79037500Y-78000000D03*
%TD*%
D19*
%TO.C,U101*%
X86450000Y-67312500D03*
X87250000Y-67312500D03*
X88050000Y-67312500D03*
X88850000Y-67312500D03*
X88850000Y-69687500D03*
X88050000Y-69687500D03*
X87250000Y-69687500D03*
X86450000Y-69687500D03*
%TD*%
D10*
%TO.C,U103*%
X60850000Y-67000000D03*
D11*
X58500000Y-65500000D03*
D10*
X60850000Y-64000000D03*
X56150000Y-64000000D03*
X56150000Y-67000000D03*
%TD*%
D17*
%TO.C,C102*%
X104037500Y-59000000D03*
X101962500Y-59000000D03*
%TD*%
D13*
%TO.C,C101*%
X96850000Y-94462500D03*
X96850000Y-96537500D03*
%TD*%
D16*
%TO.C,R102*%
X102000000Y-98500000D03*
X104000000Y-98500000D03*
%TD*%
D12*
%TO.C,R108*%
X67500000Y-77000000D03*
X65500000Y-77000000D03*
%TD*%
D20*
%TO.C,U104*%
X113525000Y-61595000D03*
X113525000Y-62865000D03*
X113525000Y-64135000D03*
X113525000Y-65405000D03*
X118475000Y-65405000D03*
X118475000Y-64135000D03*
X118475000Y-62865000D03*
X118475000Y-61595000D03*
%TD*%
D21*
%TO.C,R107*%
X71500000Y-77000000D03*
X71500000Y-75000000D03*
%TD*%
D19*
%TO.C,U101*%
X86450000Y-40312500D03*
X87250000Y-40312500D03*
X88050000Y-40312500D03*
X88850000Y-40312500D03*
X88850000Y-42687500D03*
X88050000Y-42687500D03*
X87250000Y-42687500D03*
X86450000Y-42687500D03*
%TD*%
D17*
%TO.C,C103*%
X109037500Y-71500000D03*
X106962500Y-71500000D03*
%TD*%
D16*
%TO.C,R101*%
X102000000Y-89500000D03*
X104000000Y-89500000D03*
%TD*%
D18*
%TO.C,C103*%
X71962500Y-38500000D03*
X74037500Y-38500000D03*
%TD*%
D16*
%TO.C,R102*%
X102000000Y-71500000D03*
X104000000Y-71500000D03*
%TD*%
D22*
%TO.C,R106*%
X71500000Y-44000000D03*
X71500000Y-46000000D03*
%TD*%
D17*
%TO.C,C102*%
X104037500Y-86000000D03*
X101962500Y-86000000D03*
%TD*%
%TO.C,C103*%
X109037500Y-44500000D03*
X106962500Y-44500000D03*
%TD*%
D21*
%TO.C,R106*%
X109500000Y-66000000D03*
X109500000Y-64000000D03*
%TD*%
D16*
%TO.C,R104*%
X118500000Y-40500000D03*
X120500000Y-40500000D03*
%TD*%
D20*
%TO.C,U104*%
X113525000Y-88595000D03*
X113525000Y-89865000D03*
X113525000Y-91135000D03*
X113525000Y-92405000D03*
X118475000Y-92405000D03*
X118475000Y-91135000D03*
X118475000Y-89865000D03*
X118475000Y-88595000D03*
%TD*%
D10*
%TO.C,U103*%
X60850000Y-40000000D03*
D11*
X58500000Y-38500000D03*
D10*
X60850000Y-37000000D03*
X56150000Y-37000000D03*
X56150000Y-40000000D03*
%TD*%
D21*
%TO.C,R107*%
X71500000Y-50000000D03*
X71500000Y-48000000D03*
%TD*%
D16*
%TO.C,R102*%
X102000000Y-44500000D03*
X104000000Y-44500000D03*
%TD*%
D22*
%TO.C,R106*%
X71500000Y-71000000D03*
X71500000Y-73000000D03*
%TD*%
D12*
%TO.C,R103*%
X79000000Y-35500000D03*
X77000000Y-35500000D03*
%TD*%
D16*
%TO.C,R101*%
X102000000Y-62500000D03*
X104000000Y-62500000D03*
%TD*%
%TO.C,R105*%
X123000000Y-67500000D03*
X125000000Y-67500000D03*
%TD*%
D12*
%TO.C,R105*%
X58000000Y-69500000D03*
X56000000Y-69500000D03*
%TD*%
D21*
%TO.C,R106*%
X109500000Y-39000000D03*
X109500000Y-37000000D03*
%TD*%
D16*
%TO.C,R103*%
X102000000Y-101500000D03*
X104000000Y-101500000D03*
%TD*%
D12*
%TO.C,R104*%
X62500000Y-42500000D03*
X60500000Y-42500000D03*
%TD*%
D13*
%TO.C,C101*%
X96850000Y-67462500D03*
X96850000Y-69537500D03*
%TD*%
D22*
%TO.C,R107*%
X109500000Y-60000000D03*
X109500000Y-62000000D03*
%TD*%
D10*
%TO.C,U103*%
X120150000Y-43000000D03*
D23*
X122500000Y-44500000D03*
D10*
X120150000Y-46000000D03*
X124850000Y-46000000D03*
X124850000Y-43000000D03*
%TD*%
D24*
%TO.C,C101*%
X84150000Y-69537500D03*
X84150000Y-67462500D03*
%TD*%
D12*
%TO.C,R101*%
X79000000Y-74500000D03*
X77000000Y-74500000D03*
%TD*%
D20*
%TO.C,U104*%
X113525000Y-34595000D03*
X113525000Y-35865000D03*
X113525000Y-37135000D03*
X113525000Y-38405000D03*
X118475000Y-38405000D03*
X118475000Y-37135000D03*
X118475000Y-35865000D03*
X118475000Y-34595000D03*
%TD*%
D22*
%TO.C,R107*%
X109500000Y-33000000D03*
X109500000Y-35000000D03*
%TD*%
D12*
%TO.C,R104*%
X62500000Y-96500000D03*
X60500000Y-96500000D03*
%TD*%
D19*
%TO.C,U101*%
X86450000Y-94312500D03*
X87250000Y-94312500D03*
X88050000Y-94312500D03*
X88850000Y-94312500D03*
X88850000Y-96687500D03*
X88050000Y-96687500D03*
X87250000Y-96687500D03*
X86450000Y-96687500D03*
%TD*%
D16*
%TO.C,R101*%
X102000000Y-35500000D03*
X104000000Y-35500000D03*
%TD*%
%TO.C,R103*%
X102000000Y-47500000D03*
X104000000Y-47500000D03*
%TD*%
%TO.C,R105*%
X123000000Y-94500000D03*
X125000000Y-94500000D03*
%TD*%
%TO.C,R103*%
X102000000Y-74500000D03*
X104000000Y-74500000D03*
%TD*%
D12*
%TO.C,R102*%
X79000000Y-92500000D03*
X77000000Y-92500000D03*
%TD*%
D16*
%TO.C,R108*%
X113500000Y-87000000D03*
X115500000Y-87000000D03*
%TD*%
D18*
%TO.C,C103*%
X71962500Y-65500000D03*
X74037500Y-65500000D03*
%TD*%
D16*
%TO.C,R104*%
X118500000Y-94500000D03*
X120500000Y-94500000D03*
%TD*%
D15*
%TO.C,U101*%
X94550000Y-42687500D03*
X93750000Y-42687500D03*
X92950000Y-42687500D03*
X92150000Y-42687500D03*
X92150000Y-40312500D03*
X92950000Y-40312500D03*
X93750000Y-40312500D03*
X94550000Y-40312500D03*
%TD*%
D12*
%TO.C,R101*%
X79000000Y-47500000D03*
X77000000Y-47500000D03*
%TD*%
D24*
%TO.C,C101*%
X84150000Y-42537500D03*
X84150000Y-40462500D03*
%TD*%
D12*
%TO.C,R102*%
X79000000Y-65500000D03*
X77000000Y-65500000D03*
%TD*%
D22*
%TO.C,R106*%
X71500000Y-98000000D03*
X71500000Y-100000000D03*
%TD*%
D24*
%TO.C,C101*%
X84150000Y-96537500D03*
X84150000Y-94462500D03*
%TD*%
D12*
%TO.C,R103*%
X79000000Y-62500000D03*
X77000000Y-62500000D03*
%TD*%
D21*
%TO.C,R107*%
X71500000Y-104000000D03*
X71500000Y-102000000D03*
%TD*%
D12*
%TO.C,R102*%
X79000000Y-38500000D03*
X77000000Y-38500000D03*
%TD*%
D16*
%TO.C,R108*%
X113500000Y-33000000D03*
X115500000Y-33000000D03*
%TD*%
D12*
%TO.C,R108*%
X67500000Y-104000000D03*
X65500000Y-104000000D03*
%TD*%
D10*
%TO.C,U103*%
X120150000Y-97000000D03*
D23*
X122500000Y-98500000D03*
D10*
X120150000Y-100000000D03*
X124850000Y-100000000D03*
X124850000Y-97000000D03*
%TD*%
D12*
%TO.C,R105*%
X58000000Y-96500000D03*
X56000000Y-96500000D03*
%TD*%
D16*
%TO.C,R108*%
X113500000Y-60000000D03*
X115500000Y-60000000D03*
%TD*%
D10*
%TO.C,U103*%
X120150000Y-70000000D03*
D23*
X122500000Y-71500000D03*
D10*
X120150000Y-73000000D03*
X124850000Y-73000000D03*
X124850000Y-70000000D03*
%TD*%
D14*
%TO.C,U104*%
X67475000Y-75405000D03*
X67475000Y-74135000D03*
X67475000Y-72865000D03*
X67475000Y-71595000D03*
X62525000Y-71595000D03*
X62525000Y-72865000D03*
X62525000Y-74135000D03*
X62525000Y-75405000D03*
%TD*%
D12*
%TO.C,R105*%
X58000000Y-42500000D03*
X56000000Y-42500000D03*
%TD*%
D22*
%TO.C,R107*%
X109500000Y-87000000D03*
X109500000Y-89000000D03*
%TD*%
D21*
%TO.C,R106*%
X109500000Y-93000000D03*
X109500000Y-91000000D03*
%TD*%
D12*
%TO.C,R104*%
X62500000Y-69500000D03*
X60500000Y-69500000D03*
%TD*%
D15*
%TO.C,U101*%
X94550000Y-69687500D03*
X93750000Y-69687500D03*
X92950000Y-69687500D03*
X92150000Y-69687500D03*
X92150000Y-67312500D03*
X92950000Y-67312500D03*
X93750000Y-67312500D03*
X94550000Y-67312500D03*
%TD*%
D12*
%TO.C,R108*%
X67500000Y-50000000D03*
X65500000Y-50000000D03*
%TD*%
M02*
