%TF.GenerationSoftware,KiCad,Pcbnew,7.0.1*%
%TF.CreationDate,2023-04-18T17:25:39+02:00*%
%TF.ProjectId,BME680_shield_panel,424d4536-3830-45f7-9368-69656c645f70,rev?*%
%TF.SameCoordinates,Original*%
%TF.FileFunction,Soldermask,Bot*%
%TF.FilePolarity,Negative*%
%FSLAX46Y46*%
G04 Gerber Fmt 4.6, Leading zero omitted, Abs format (unit mm)*
G04 Created by KiCad (PCBNEW 7.0.1) date 2023-04-18 17:25:39*
%MOMM*%
%LPD*%
G01*
G04 APERTURE LIST*
%ADD10R,1.700000X1.700000*%
%ADD11O,1.700000X1.700000*%
%ADD12C,1.800000*%
G04 APERTURE END LIST*
D10*
%TO.C,J101*%
X55650000Y-33500000D03*
D11*
X58190000Y-33500000D03*
X60730000Y-33500000D03*
X63270000Y-33500000D03*
X65810000Y-33500000D03*
X68350000Y-33500000D03*
%TD*%
D10*
%TO.C,JP103*%
X67775000Y-42500000D03*
D11*
X65235000Y-42500000D03*
%TD*%
D12*
%TO.C,U102*%
X55400000Y-53427976D03*
X57940000Y-53427976D03*
X60480000Y-53427976D03*
X63020000Y-53427976D03*
X65560000Y-53427976D03*
X68100000Y-53427976D03*
X70640000Y-53427976D03*
X73180000Y-53427976D03*
X73180000Y-30567976D03*
X70640000Y-30567976D03*
X68100000Y-30567976D03*
X65560000Y-30567976D03*
X63020000Y-30567976D03*
X60480000Y-30567976D03*
X57940000Y-30567976D03*
X55400000Y-30567976D03*
%TD*%
D10*
%TO.C,J102*%
X57500000Y-47500000D03*
D11*
X57500000Y-50040000D03*
%TD*%
%TO.C,J101*%
X68350000Y-60500000D03*
X65810000Y-60500000D03*
X63270000Y-60500000D03*
X60730000Y-60500000D03*
X58190000Y-60500000D03*
D10*
X55650000Y-60500000D03*
%TD*%
D11*
%TO.C,JP103*%
X65235000Y-69500000D03*
D10*
X67775000Y-69500000D03*
%TD*%
D12*
%TO.C,U102*%
X55400000Y-57567976D03*
X57940000Y-57567976D03*
X60480000Y-57567976D03*
X63020000Y-57567976D03*
X65560000Y-57567976D03*
X68100000Y-57567976D03*
X70640000Y-57567976D03*
X73180000Y-57567976D03*
X73180000Y-80427976D03*
X70640000Y-80427976D03*
X68100000Y-80427976D03*
X65560000Y-80427976D03*
X63020000Y-80427976D03*
X60480000Y-80427976D03*
X57940000Y-80427976D03*
X55400000Y-80427976D03*
%TD*%
D11*
%TO.C,J102*%
X57500000Y-77040000D03*
D10*
X57500000Y-74500000D03*
%TD*%
%TO.C,J101*%
X55650000Y-87500000D03*
D11*
X58190000Y-87500000D03*
X60730000Y-87500000D03*
X63270000Y-87500000D03*
X65810000Y-87500000D03*
X68350000Y-87500000D03*
%TD*%
D10*
%TO.C,JP103*%
X67775000Y-96500000D03*
D11*
X65235000Y-96500000D03*
%TD*%
D12*
%TO.C,U102*%
X55400000Y-107427976D03*
X57940000Y-107427976D03*
X60480000Y-107427976D03*
X63020000Y-107427976D03*
X65560000Y-107427976D03*
X68100000Y-107427976D03*
X70640000Y-107427976D03*
X73180000Y-107427976D03*
X73180000Y-84567976D03*
X70640000Y-84567976D03*
X68100000Y-84567976D03*
X65560000Y-84567976D03*
X63020000Y-84567976D03*
X60480000Y-84567976D03*
X57940000Y-84567976D03*
X55400000Y-84567976D03*
%TD*%
D10*
%TO.C,J102*%
X57500000Y-101500000D03*
D11*
X57500000Y-104040000D03*
%TD*%
D10*
%TO.C,J101*%
X125350000Y-104500000D03*
D11*
X122810000Y-104500000D03*
X120270000Y-104500000D03*
X117730000Y-104500000D03*
X115190000Y-104500000D03*
X112650000Y-104500000D03*
%TD*%
D10*
%TO.C,JP103*%
X113225000Y-95500000D03*
D11*
X115765000Y-95500000D03*
%TD*%
D12*
%TO.C,U102*%
X125600000Y-84572024D03*
X123060000Y-84572024D03*
X120520000Y-84572024D03*
X117980000Y-84572024D03*
X115440000Y-84572024D03*
X112900000Y-84572024D03*
X110360000Y-84572024D03*
X107820000Y-84572024D03*
X107820000Y-107432024D03*
X110360000Y-107432024D03*
X112900000Y-107432024D03*
X115440000Y-107432024D03*
X117980000Y-107432024D03*
X120520000Y-107432024D03*
X123060000Y-107432024D03*
X125600000Y-107432024D03*
%TD*%
D10*
%TO.C,J102*%
X123500000Y-90500000D03*
D11*
X123500000Y-87960000D03*
%TD*%
D10*
%TO.C,J101*%
X125350000Y-50500000D03*
D11*
X122810000Y-50500000D03*
X120270000Y-50500000D03*
X117730000Y-50500000D03*
X115190000Y-50500000D03*
X112650000Y-50500000D03*
%TD*%
D10*
%TO.C,JP103*%
X113225000Y-41500000D03*
D11*
X115765000Y-41500000D03*
%TD*%
D12*
%TO.C,U102*%
X125600000Y-30572024D03*
X123060000Y-30572024D03*
X120520000Y-30572024D03*
X117980000Y-30572024D03*
X115440000Y-30572024D03*
X112900000Y-30572024D03*
X110360000Y-30572024D03*
X107820000Y-30572024D03*
X107820000Y-53432024D03*
X110360000Y-53432024D03*
X112900000Y-53432024D03*
X115440000Y-53432024D03*
X117980000Y-53432024D03*
X120520000Y-53432024D03*
X123060000Y-53432024D03*
X125600000Y-53432024D03*
%TD*%
D10*
%TO.C,J102*%
X123500000Y-36500000D03*
D11*
X123500000Y-33960000D03*
%TD*%
D12*
%TO.C,U102*%
X125600000Y-57572024D03*
X123060000Y-57572024D03*
X120520000Y-57572024D03*
X117980000Y-57572024D03*
X115440000Y-57572024D03*
X112900000Y-57572024D03*
X110360000Y-57572024D03*
X107820000Y-57572024D03*
X107820000Y-80432024D03*
X110360000Y-80432024D03*
X112900000Y-80432024D03*
X115440000Y-80432024D03*
X117980000Y-80432024D03*
X120520000Y-80432024D03*
X123060000Y-80432024D03*
X125600000Y-80432024D03*
%TD*%
D10*
%TO.C,JP103*%
X113225000Y-68500000D03*
D11*
X115765000Y-68500000D03*
%TD*%
D10*
%TO.C,J101*%
X125350000Y-77500000D03*
D11*
X122810000Y-77500000D03*
X120270000Y-77500000D03*
X117730000Y-77500000D03*
X115190000Y-77500000D03*
X112650000Y-77500000D03*
%TD*%
D10*
%TO.C,J102*%
X123500000Y-63500000D03*
D11*
X123500000Y-60960000D03*
%TD*%
M02*
