M48
; DRILL file {KiCad 7.0.1} date Mon Apr 17 17:37:13 2023
; FORMAT={-:-/ absolute / inch / decimal}
; #@! TF.CreationDate,2023-04-17T17:37:13+02:00
; #@! TF.GenerationSoftware,Kicad,Pcbnew,7.0.1
; #@! TF.FileFunction,Plated,1,2,PTH
FMAT,2
INCH
; #@! TA.AperFunction,Plated,PTH,ViaDrill
T1C0.0157
; #@! TA.AperFunction,Plated,PTH,ComponentDrill
T2C0.0394
; #@! TA.AperFunction,Plated,PTH,ComponentDrill
T3C0.0400
%
G90
G05
T1
X2.1654Y-1.5157
X2.1654Y-2.5787
X2.1654Y-3.6417
X2.185Y-1.752
X2.185Y-2.815
X2.185Y-3.878
X2.2441Y-1.5157
X2.2441Y-2.5787
X2.2441Y-3.6417
X2.3031Y-1.4567
X2.3031Y-1.5157
X2.3031Y-1.5748
X2.3031Y-2.5197
X2.3031Y-2.5787
X2.3031Y-2.6378
X2.3031Y-3.5827
X2.3031Y-3.6417
X2.3031Y-3.7008
X2.3622Y-1.5157
X2.3622Y-2.5787
X2.3622Y-3.6417
X2.4409Y-1.5157
X2.4409Y-2.5787
X2.4409Y-3.6417
X2.5394Y-1.7913
X2.5394Y-1.8307
X2.5394Y-2.8543
X2.5394Y-2.8937
X2.5394Y-3.9173
X2.5394Y-3.9567
X2.5787Y-1.7913
X2.5787Y-1.8307
X2.5787Y-2.8543
X2.5787Y-2.8937
X2.5787Y-3.9173
X2.5787Y-3.9567
X2.7362Y-1.752
X2.7362Y-2.815
X2.7362Y-3.878
X2.9134Y-1.5748
X2.9134Y-2.6378
X2.9134Y-3.7008
X2.9724Y-1.5157
X2.9724Y-1.5748
X2.9724Y-2.5787
X2.9724Y-2.6378
X2.9724Y-3.6417
X2.9724Y-3.7008
X3.0315Y-1.4567
X3.0315Y-1.5748
X3.0315Y-1.9291
X3.0315Y-2.5197
X3.0315Y-2.6378
X3.0315Y-2.9921
X3.0315Y-3.5827
X3.0315Y-3.7008
X3.0315Y-4.0551
X3.2087Y-1.9882
X3.2087Y-2.0472
X3.2087Y-2.1063
X3.2087Y-3.0512
X3.2087Y-3.1102
X3.2087Y-3.1693
X3.2087Y-4.1142
X3.2087Y-4.1732
X3.2087Y-4.2323
X3.2283Y-1.6142
X3.2283Y-2.6772
X3.2283Y-3.7402
X3.4449Y-1.5354
X3.4449Y-2.5984
X3.4449Y-3.6614
X3.5039Y-1.5354
X3.5039Y-1.7323
X3.5039Y-2.5984
X3.5039Y-2.7953
X3.5039Y-3.6614
X3.5039Y-3.8583
X3.622Y-1.5354
X3.622Y-1.7323
X3.622Y-2.5984
X3.622Y-2.7953
X3.622Y-3.6614
X3.622Y-3.8583
X3.6811Y-1.7323
X3.6811Y-2.7953
X3.6811Y-3.8583
X3.8976Y-1.6535
X3.8976Y-2.7165
X3.8976Y-3.7795
X3.9173Y-1.1614
X3.9173Y-1.2205
X3.9173Y-1.2795
X3.9173Y-2.2244
X3.9173Y-2.2835
X3.9173Y-2.3425
X3.9173Y-3.2874
X3.9173Y-3.3465
X3.9173Y-3.4055
X4.0945Y-1.3386
X4.0945Y-1.6929
X4.0945Y-1.811
X4.0945Y-2.4016
X4.0945Y-2.7559
X4.0945Y-2.874
X4.0945Y-3.4646
X4.0945Y-3.8189
X4.0945Y-3.937
X4.1535Y-1.6929
X4.1535Y-1.752
X4.1535Y-2.7559
X4.1535Y-2.815
X4.1535Y-3.8189
X4.1535Y-3.878
X4.2126Y-1.6929
X4.2126Y-2.7559
X4.2126Y-3.8189
X4.3898Y-1.5157
X4.3898Y-2.5787
X4.3898Y-3.6417
X4.5472Y-1.437
X4.5472Y-1.4764
X4.5472Y-2.5
X4.5472Y-2.5394
X4.5472Y-3.563
X4.5472Y-3.6024
X4.5866Y-1.437
X4.5866Y-1.4764
X4.5866Y-2.5
X4.5866Y-2.5394
X4.5866Y-3.563
X4.5866Y-3.6024
X4.685Y-1.752
X4.685Y-2.815
X4.685Y-3.878
X4.7638Y-1.752
X4.7638Y-2.815
X4.7638Y-3.878
X4.8228Y-1.6929
X4.8228Y-1.752
X4.8228Y-1.811
X4.8228Y-2.7559
X4.8228Y-2.815
X4.8228Y-2.874
X4.8228Y-3.8189
X4.8228Y-3.878
X4.8228Y-3.937
X4.8819Y-1.752
X4.8819Y-2.815
X4.8819Y-3.878
X4.9409Y-1.5157
X4.9409Y-2.5787
X4.9409Y-3.6417
X4.9606Y-1.752
X4.9606Y-2.815
X4.9606Y-3.878
T2
X2.1909Y-1.2795
X2.1909Y-2.3425
X2.1909Y-3.4055
X2.2638Y-1.8307
X2.2638Y-1.9307
X2.2638Y-2.8937
X2.2638Y-2.9937
X2.2638Y-3.9567
X2.2638Y-4.0567
X2.2909Y-1.2795
X2.2909Y-2.3425
X2.2909Y-3.4055
X2.3909Y-1.2795
X2.3909Y-2.3425
X2.3909Y-3.4055
X2.4909Y-1.2795
X2.4909Y-2.3425
X2.4909Y-3.4055
X2.5683Y-1.6339
X2.5683Y-2.6969
X2.5683Y-3.7598
X2.5909Y-1.2795
X2.5909Y-2.3425
X2.5909Y-3.4055
X2.6683Y-1.6339
X2.6683Y-2.6969
X2.6683Y-3.7598
X2.6909Y-1.2795
X2.6909Y-2.3425
X2.6909Y-3.4055
X4.435Y-1.9882
X4.435Y-3.0512
X4.435Y-4.1142
X4.4577Y-1.6339
X4.4577Y-2.6969
X4.4577Y-3.7598
X4.535Y-1.9882
X4.535Y-3.0512
X4.535Y-4.1142
X4.5577Y-1.6339
X4.5577Y-2.6969
X4.5577Y-3.7598
X4.635Y-1.9882
X4.635Y-3.0512
X4.635Y-4.1142
X4.735Y-1.9882
X4.735Y-3.0512
X4.735Y-4.1142
X4.835Y-1.9882
X4.835Y-3.0512
X4.835Y-4.1142
X4.8622Y-1.337
X4.8622Y-1.437
X4.8622Y-2.4
X4.8622Y-2.5
X4.8622Y-3.463
X4.8622Y-3.563
X4.935Y-1.9882
X4.935Y-3.0512
X4.935Y-4.1142
T3
X2.1811Y-1.1641
X2.1811Y-2.0641
X2.1811Y-2.2271
X2.1811Y-3.1271
X2.1811Y-3.2901
X2.1811Y-4.1901
X2.2811Y-1.1641
X2.2811Y-2.0641
X2.2811Y-2.2271
X2.2811Y-3.1271
X2.2811Y-3.2901
X2.2811Y-4.1901
X2.3811Y-1.1641
X2.3811Y-2.0641
X2.3811Y-2.2271
X2.3811Y-3.1271
X2.3811Y-3.2901
X2.3811Y-4.1901
X2.4811Y-1.1641
X2.4811Y-2.0641
X2.4811Y-2.2271
X2.4811Y-3.1271
X2.4811Y-3.2901
X2.4811Y-4.1901
X2.5811Y-1.1641
X2.5811Y-2.0641
X2.5811Y-2.2271
X2.5811Y-3.1271
X2.5811Y-3.2901
X2.5811Y-4.1901
X2.6811Y-1.1641
X2.6811Y-2.0641
X2.6811Y-2.2271
X2.6811Y-3.1271
X2.6811Y-3.2901
X2.6811Y-4.1901
X2.7811Y-1.1641
X2.7811Y-2.0641
X2.7811Y-2.2271
X2.7811Y-3.1271
X2.7811Y-3.2901
X2.7811Y-4.1901
X2.8811Y-1.1641
X2.8811Y-2.0641
X2.8811Y-2.2271
X2.8811Y-3.1271
X2.8811Y-3.2901
X2.8811Y-4.1901
X4.2449Y-1.2036
X4.2449Y-2.1036
X4.2449Y-2.2666
X4.2449Y-3.1666
X4.2449Y-3.3296
X4.2449Y-4.2296
X4.3449Y-1.2036
X4.3449Y-2.1036
X4.3449Y-2.2666
X4.3449Y-3.1666
X4.3449Y-3.3296
X4.3449Y-4.2296
X4.4449Y-1.2036
X4.4449Y-2.1036
X4.4449Y-2.2666
X4.4449Y-3.1666
X4.4449Y-3.3296
X4.4449Y-4.2296
X4.5449Y-1.2036
X4.5449Y-2.1036
X4.5449Y-2.2666
X4.5449Y-3.1666
X4.5449Y-3.3296
X4.5449Y-4.2296
X4.6449Y-1.2036
X4.6449Y-2.1036
X4.6449Y-2.2666
X4.6449Y-3.1666
X4.6449Y-3.3296
X4.6449Y-4.2296
X4.7449Y-1.2036
X4.7449Y-2.1036
X4.7449Y-2.2666
X4.7449Y-3.1666
X4.7449Y-3.3296
X4.7449Y-4.2296
X4.8449Y-1.2036
X4.8449Y-2.1036
X4.8449Y-2.2666
X4.8449Y-3.1666
X4.8449Y-3.3296
X4.8449Y-4.2296
X4.9449Y-1.2036
X4.9449Y-2.1036
X4.9449Y-2.2666
X4.9449Y-3.1666
X4.9449Y-3.3296
X4.9449Y-4.2296
T0
M30
