%TF.GenerationSoftware,KiCad,Pcbnew,7.0.1*%
%TF.CreationDate,2023-04-17T17:37:10+02:00*%
%TF.ProjectId,BME680_shield_panel,424d4536-3830-45f7-9368-69656c645f70,rev?*%
%TF.SameCoordinates,Original*%
%TF.FileFunction,Legend,Top*%
%TF.FilePolarity,Positive*%
%FSLAX46Y46*%
G04 Gerber Fmt 4.6, Leading zero omitted, Abs format (unit mm)*
G04 Created by KiCad (PCBNEW 7.0.1) date 2023-04-17 17:37:10*
%MOMM*%
%LPD*%
G01*
G04 APERTURE LIST*
%ADD10C,0.150000*%
%ADD11C,0.200000*%
%ADD12C,0.325000*%
%ADD13C,0.100000*%
%ADD14C,0.120000*%
G04 APERTURE END LIST*
D10*
X74500000Y-41000000D02*
X74500000Y-50000000D01*
X54500000Y-45000000D02*
X59000000Y-45000000D01*
X59000000Y-50500000D01*
X54500000Y-50500000D01*
X54500000Y-45000000D01*
X69500000Y-49500000D02*
G75*
G03*
X69500000Y-49500000I-500000J0D01*
G01*
X83000000Y-45000000D02*
X83000000Y-41000000D01*
D11*
X60170000Y-33940476D02*
X60122380Y-34083333D01*
X60122380Y-34083333D02*
X60122380Y-34321428D01*
X60122380Y-34321428D02*
X60170000Y-34416666D01*
X60170000Y-34416666D02*
X60217619Y-34464285D01*
X60217619Y-34464285D02*
X60312857Y-34511904D01*
X60312857Y-34511904D02*
X60408095Y-34511904D01*
X60408095Y-34511904D02*
X60503333Y-34464285D01*
X60503333Y-34464285D02*
X60550952Y-34416666D01*
X60550952Y-34416666D02*
X60598571Y-34321428D01*
X60598571Y-34321428D02*
X60646190Y-34130952D01*
X60646190Y-34130952D02*
X60693809Y-34035714D01*
X60693809Y-34035714D02*
X60741428Y-33988095D01*
X60741428Y-33988095D02*
X60836666Y-33940476D01*
X60836666Y-33940476D02*
X60931904Y-33940476D01*
X60931904Y-33940476D02*
X61027142Y-33988095D01*
X61027142Y-33988095D02*
X61074761Y-34035714D01*
X61074761Y-34035714D02*
X61122380Y-34130952D01*
X61122380Y-34130952D02*
X61122380Y-34369047D01*
X61122380Y-34369047D02*
X61074761Y-34511904D01*
X60217619Y-35511904D02*
X60170000Y-35464285D01*
X60170000Y-35464285D02*
X60122380Y-35321428D01*
X60122380Y-35321428D02*
X60122380Y-35226190D01*
X60122380Y-35226190D02*
X60170000Y-35083333D01*
X60170000Y-35083333D02*
X60265238Y-34988095D01*
X60265238Y-34988095D02*
X60360476Y-34940476D01*
X60360476Y-34940476D02*
X60550952Y-34892857D01*
X60550952Y-34892857D02*
X60693809Y-34892857D01*
X60693809Y-34892857D02*
X60884285Y-34940476D01*
X60884285Y-34940476D02*
X60979523Y-34988095D01*
X60979523Y-34988095D02*
X61074761Y-35083333D01*
X61074761Y-35083333D02*
X61122380Y-35226190D01*
X61122380Y-35226190D02*
X61122380Y-35321428D01*
X61122380Y-35321428D02*
X61074761Y-35464285D01*
X61074761Y-35464285D02*
X61027142Y-35511904D01*
X60122380Y-36416666D02*
X60122380Y-35940476D01*
X60122380Y-35940476D02*
X61122380Y-35940476D01*
D10*
X70000000Y-35500000D02*
X70000000Y-31000000D01*
X74500000Y-50000000D02*
X82500000Y-50000000D01*
X76000000Y-35500000D02*
X70000000Y-35500000D01*
X63500000Y-37000000D02*
X69500000Y-37000000D01*
X69500000Y-43000000D01*
X63500000Y-43000000D01*
X63500000Y-37000000D01*
X83000000Y-41000000D02*
X74500000Y-41000000D01*
X81000000Y-35500000D02*
X81000000Y-30500000D01*
D11*
X82271428Y-43648000D02*
X82100000Y-43590857D01*
X82100000Y-43590857D02*
X81814285Y-43590857D01*
X81814285Y-43590857D02*
X81700000Y-43648000D01*
X81700000Y-43648000D02*
X81642857Y-43705142D01*
X81642857Y-43705142D02*
X81585714Y-43819428D01*
X81585714Y-43819428D02*
X81585714Y-43933714D01*
X81585714Y-43933714D02*
X81642857Y-44048000D01*
X81642857Y-44048000D02*
X81700000Y-44105142D01*
X81700000Y-44105142D02*
X81814285Y-44162285D01*
X81814285Y-44162285D02*
X82042857Y-44219428D01*
X82042857Y-44219428D02*
X82157142Y-44276571D01*
X82157142Y-44276571D02*
X82214285Y-44333714D01*
X82214285Y-44333714D02*
X82271428Y-44448000D01*
X82271428Y-44448000D02*
X82271428Y-44562285D01*
X82271428Y-44562285D02*
X82214285Y-44676571D01*
X82214285Y-44676571D02*
X82157142Y-44733714D01*
X82157142Y-44733714D02*
X82042857Y-44790857D01*
X82042857Y-44790857D02*
X81757142Y-44790857D01*
X81757142Y-44790857D02*
X81585714Y-44733714D01*
X80614285Y-43648000D02*
X80728571Y-43590857D01*
X80728571Y-43590857D02*
X80957143Y-43590857D01*
X80957143Y-43590857D02*
X81071428Y-43648000D01*
X81071428Y-43648000D02*
X81128571Y-43762285D01*
X81128571Y-43762285D02*
X81128571Y-44219428D01*
X81128571Y-44219428D02*
X81071428Y-44333714D01*
X81071428Y-44333714D02*
X80957143Y-44390857D01*
X80957143Y-44390857D02*
X80728571Y-44390857D01*
X80728571Y-44390857D02*
X80614285Y-44333714D01*
X80614285Y-44333714D02*
X80557143Y-44219428D01*
X80557143Y-44219428D02*
X80557143Y-44105142D01*
X80557143Y-44105142D02*
X81128571Y-43990857D01*
X80042857Y-44390857D02*
X80042857Y-43590857D01*
X80042857Y-44276571D02*
X79985714Y-44333714D01*
X79985714Y-44333714D02*
X79871429Y-44390857D01*
X79871429Y-44390857D02*
X79700000Y-44390857D01*
X79700000Y-44390857D02*
X79585714Y-44333714D01*
X79585714Y-44333714D02*
X79528572Y-44219428D01*
X79528572Y-44219428D02*
X79528572Y-43590857D01*
X79014286Y-43648000D02*
X78900000Y-43590857D01*
X78900000Y-43590857D02*
X78671429Y-43590857D01*
X78671429Y-43590857D02*
X78557143Y-43648000D01*
X78557143Y-43648000D02*
X78500000Y-43762285D01*
X78500000Y-43762285D02*
X78500000Y-43819428D01*
X78500000Y-43819428D02*
X78557143Y-43933714D01*
X78557143Y-43933714D02*
X78671429Y-43990857D01*
X78671429Y-43990857D02*
X78842858Y-43990857D01*
X78842858Y-43990857D02*
X78957143Y-44048000D01*
X78957143Y-44048000D02*
X79014286Y-44162285D01*
X79014286Y-44162285D02*
X79014286Y-44219428D01*
X79014286Y-44219428D02*
X78957143Y-44333714D01*
X78957143Y-44333714D02*
X78842858Y-44390857D01*
X78842858Y-44390857D02*
X78671429Y-44390857D01*
X78671429Y-44390857D02*
X78557143Y-44333714D01*
X77814286Y-43590857D02*
X77928571Y-43648000D01*
X77928571Y-43648000D02*
X77985714Y-43705142D01*
X77985714Y-43705142D02*
X78042857Y-43819428D01*
X78042857Y-43819428D02*
X78042857Y-44162285D01*
X78042857Y-44162285D02*
X77985714Y-44276571D01*
X77985714Y-44276571D02*
X77928571Y-44333714D01*
X77928571Y-44333714D02*
X77814286Y-44390857D01*
X77814286Y-44390857D02*
X77642857Y-44390857D01*
X77642857Y-44390857D02*
X77528571Y-44333714D01*
X77528571Y-44333714D02*
X77471429Y-44276571D01*
X77471429Y-44276571D02*
X77414286Y-44162285D01*
X77414286Y-44162285D02*
X77414286Y-43819428D01*
X77414286Y-43819428D02*
X77471429Y-43705142D01*
X77471429Y-43705142D02*
X77528571Y-43648000D01*
X77528571Y-43648000D02*
X77642857Y-43590857D01*
X77642857Y-43590857D02*
X77814286Y-43590857D01*
X76900000Y-43590857D02*
X76900000Y-44390857D01*
X76900000Y-44162285D02*
X76842857Y-44276571D01*
X76842857Y-44276571D02*
X76785715Y-44333714D01*
X76785715Y-44333714D02*
X76671429Y-44390857D01*
X76671429Y-44390857D02*
X76557143Y-44390857D01*
X75928572Y-44790857D02*
X75814286Y-44790857D01*
X75814286Y-44790857D02*
X75700000Y-44733714D01*
X75700000Y-44733714D02*
X75642858Y-44676571D01*
X75642858Y-44676571D02*
X75585715Y-44562285D01*
X75585715Y-44562285D02*
X75528572Y-44333714D01*
X75528572Y-44333714D02*
X75528572Y-44048000D01*
X75528572Y-44048000D02*
X75585715Y-43819428D01*
X75585715Y-43819428D02*
X75642858Y-43705142D01*
X75642858Y-43705142D02*
X75700000Y-43648000D01*
X75700000Y-43648000D02*
X75814286Y-43590857D01*
X75814286Y-43590857D02*
X75928572Y-43590857D01*
X75928572Y-43590857D02*
X76042858Y-43648000D01*
X76042858Y-43648000D02*
X76100000Y-43705142D01*
X76100000Y-43705142D02*
X76157143Y-43819428D01*
X76157143Y-43819428D02*
X76214286Y-44048000D01*
X76214286Y-44048000D02*
X76214286Y-44333714D01*
X76214286Y-44333714D02*
X76157143Y-44562285D01*
X76157143Y-44562285D02*
X76100000Y-44676571D01*
X76100000Y-44676571D02*
X76042858Y-44733714D01*
X76042858Y-44733714D02*
X75928572Y-44790857D01*
X82271428Y-41989714D02*
X81700000Y-41989714D01*
X82385714Y-41646857D02*
X81985714Y-42846857D01*
X81985714Y-42846857D02*
X81585714Y-41646857D01*
X80671429Y-41646857D02*
X80671429Y-42846857D01*
X80671429Y-41704000D02*
X80785714Y-41646857D01*
X80785714Y-41646857D02*
X81014286Y-41646857D01*
X81014286Y-41646857D02*
X81128571Y-41704000D01*
X81128571Y-41704000D02*
X81185714Y-41761142D01*
X81185714Y-41761142D02*
X81242857Y-41875428D01*
X81242857Y-41875428D02*
X81242857Y-42218285D01*
X81242857Y-42218285D02*
X81185714Y-42332571D01*
X81185714Y-42332571D02*
X81128571Y-42389714D01*
X81128571Y-42389714D02*
X81014286Y-42446857D01*
X81014286Y-42446857D02*
X80785714Y-42446857D01*
X80785714Y-42446857D02*
X80671429Y-42389714D01*
X79585715Y-41646857D02*
X79585715Y-42846857D01*
X79585715Y-41704000D02*
X79700000Y-41646857D01*
X79700000Y-41646857D02*
X79928572Y-41646857D01*
X79928572Y-41646857D02*
X80042857Y-41704000D01*
X80042857Y-41704000D02*
X80100000Y-41761142D01*
X80100000Y-41761142D02*
X80157143Y-41875428D01*
X80157143Y-41875428D02*
X80157143Y-42218285D01*
X80157143Y-42218285D02*
X80100000Y-42332571D01*
X80100000Y-42332571D02*
X80042857Y-42389714D01*
X80042857Y-42389714D02*
X79928572Y-42446857D01*
X79928572Y-42446857D02*
X79700000Y-42446857D01*
X79700000Y-42446857D02*
X79585715Y-42389714D01*
X79014286Y-41646857D02*
X79014286Y-42446857D01*
X79014286Y-42218285D02*
X78957143Y-42332571D01*
X78957143Y-42332571D02*
X78900001Y-42389714D01*
X78900001Y-42389714D02*
X78785715Y-42446857D01*
X78785715Y-42446857D02*
X78671429Y-42446857D01*
X77814286Y-41704000D02*
X77928572Y-41646857D01*
X77928572Y-41646857D02*
X78157144Y-41646857D01*
X78157144Y-41646857D02*
X78271429Y-41704000D01*
X78271429Y-41704000D02*
X78328572Y-41818285D01*
X78328572Y-41818285D02*
X78328572Y-42275428D01*
X78328572Y-42275428D02*
X78271429Y-42389714D01*
X78271429Y-42389714D02*
X78157144Y-42446857D01*
X78157144Y-42446857D02*
X77928572Y-42446857D01*
X77928572Y-42446857D02*
X77814286Y-42389714D01*
X77814286Y-42389714D02*
X77757144Y-42275428D01*
X77757144Y-42275428D02*
X77757144Y-42161142D01*
X77757144Y-42161142D02*
X78328572Y-42046857D01*
X77300001Y-41704000D02*
X77185715Y-41646857D01*
X77185715Y-41646857D02*
X76957144Y-41646857D01*
X76957144Y-41646857D02*
X76842858Y-41704000D01*
X76842858Y-41704000D02*
X76785715Y-41818285D01*
X76785715Y-41818285D02*
X76785715Y-41875428D01*
X76785715Y-41875428D02*
X76842858Y-41989714D01*
X76842858Y-41989714D02*
X76957144Y-42046857D01*
X76957144Y-42046857D02*
X77128573Y-42046857D01*
X77128573Y-42046857D02*
X77242858Y-42104000D01*
X77242858Y-42104000D02*
X77300001Y-42218285D01*
X77300001Y-42218285D02*
X77300001Y-42275428D01*
X77300001Y-42275428D02*
X77242858Y-42389714D01*
X77242858Y-42389714D02*
X77128573Y-42446857D01*
X77128573Y-42446857D02*
X76957144Y-42446857D01*
X76957144Y-42446857D02*
X76842858Y-42389714D01*
X76328572Y-41704000D02*
X76214286Y-41646857D01*
X76214286Y-41646857D02*
X75985715Y-41646857D01*
X75985715Y-41646857D02*
X75871429Y-41704000D01*
X75871429Y-41704000D02*
X75814286Y-41818285D01*
X75814286Y-41818285D02*
X75814286Y-41875428D01*
X75814286Y-41875428D02*
X75871429Y-41989714D01*
X75871429Y-41989714D02*
X75985715Y-42046857D01*
X75985715Y-42046857D02*
X76157144Y-42046857D01*
X76157144Y-42046857D02*
X76271429Y-42104000D01*
X76271429Y-42104000D02*
X76328572Y-42218285D01*
X76328572Y-42218285D02*
X76328572Y-42275428D01*
X76328572Y-42275428D02*
X76271429Y-42389714D01*
X76271429Y-42389714D02*
X76157144Y-42446857D01*
X76157144Y-42446857D02*
X75985715Y-42446857D01*
X75985715Y-42446857D02*
X75871429Y-42389714D01*
D10*
X80000000Y-35500000D02*
X81000000Y-35500000D01*
X68428571Y-39766190D02*
X68285714Y-39718571D01*
X68285714Y-39718571D02*
X68238095Y-39670952D01*
X68238095Y-39670952D02*
X68190476Y-39575714D01*
X68190476Y-39575714D02*
X68190476Y-39432857D01*
X68190476Y-39432857D02*
X68238095Y-39337619D01*
X68238095Y-39337619D02*
X68285714Y-39290000D01*
X68285714Y-39290000D02*
X68380952Y-39242380D01*
X68380952Y-39242380D02*
X68761904Y-39242380D01*
X68761904Y-39242380D02*
X68761904Y-40242380D01*
X68761904Y-40242380D02*
X68428571Y-40242380D01*
X68428571Y-40242380D02*
X68333333Y-40194761D01*
X68333333Y-40194761D02*
X68285714Y-40147142D01*
X68285714Y-40147142D02*
X68238095Y-40051904D01*
X68238095Y-40051904D02*
X68238095Y-39956666D01*
X68238095Y-39956666D02*
X68285714Y-39861428D01*
X68285714Y-39861428D02*
X68333333Y-39813809D01*
X68333333Y-39813809D02*
X68428571Y-39766190D01*
X68428571Y-39766190D02*
X68761904Y-39766190D01*
X67333333Y-39242380D02*
X67333333Y-39766190D01*
X67333333Y-39766190D02*
X67380952Y-39861428D01*
X67380952Y-39861428D02*
X67476190Y-39909047D01*
X67476190Y-39909047D02*
X67666666Y-39909047D01*
X67666666Y-39909047D02*
X67761904Y-39861428D01*
X67333333Y-39290000D02*
X67428571Y-39242380D01*
X67428571Y-39242380D02*
X67666666Y-39242380D01*
X67666666Y-39242380D02*
X67761904Y-39290000D01*
X67761904Y-39290000D02*
X67809523Y-39385238D01*
X67809523Y-39385238D02*
X67809523Y-39480476D01*
X67809523Y-39480476D02*
X67761904Y-39575714D01*
X67761904Y-39575714D02*
X67666666Y-39623333D01*
X67666666Y-39623333D02*
X67428571Y-39623333D01*
X67428571Y-39623333D02*
X67333333Y-39670952D01*
X66999999Y-39909047D02*
X66619047Y-39909047D01*
X66857142Y-40242380D02*
X66857142Y-39385238D01*
X66857142Y-39385238D02*
X66809523Y-39290000D01*
X66809523Y-39290000D02*
X66714285Y-39242380D01*
X66714285Y-39242380D02*
X66619047Y-39242380D01*
X66428570Y-39909047D02*
X66047618Y-39909047D01*
X66285713Y-40242380D02*
X66285713Y-39385238D01*
X66285713Y-39385238D02*
X66238094Y-39290000D01*
X66238094Y-39290000D02*
X66142856Y-39242380D01*
X66142856Y-39242380D02*
X66047618Y-39242380D01*
X65333332Y-39290000D02*
X65428570Y-39242380D01*
X65428570Y-39242380D02*
X65619046Y-39242380D01*
X65619046Y-39242380D02*
X65714284Y-39290000D01*
X65714284Y-39290000D02*
X65761903Y-39385238D01*
X65761903Y-39385238D02*
X65761903Y-39766190D01*
X65761903Y-39766190D02*
X65714284Y-39861428D01*
X65714284Y-39861428D02*
X65619046Y-39909047D01*
X65619046Y-39909047D02*
X65428570Y-39909047D01*
X65428570Y-39909047D02*
X65333332Y-39861428D01*
X65333332Y-39861428D02*
X65285713Y-39766190D01*
X65285713Y-39766190D02*
X65285713Y-39670952D01*
X65285713Y-39670952D02*
X65761903Y-39575714D01*
X64857141Y-39242380D02*
X64857141Y-39909047D01*
X64857141Y-39718571D02*
X64809522Y-39813809D01*
X64809522Y-39813809D02*
X64761903Y-39861428D01*
X64761903Y-39861428D02*
X64666665Y-39909047D01*
X64666665Y-39909047D02*
X64571427Y-39909047D01*
X64333331Y-39909047D02*
X64095236Y-39242380D01*
X63857141Y-39909047D02*
X64095236Y-39242380D01*
X64095236Y-39242380D02*
X64190474Y-39004285D01*
X64190474Y-39004285D02*
X64238093Y-38956666D01*
X64238093Y-38956666D02*
X64333331Y-38909047D01*
X68761904Y-37622380D02*
X68761904Y-38622380D01*
X68761904Y-38622380D02*
X68428571Y-37908095D01*
X68428571Y-37908095D02*
X68095238Y-38622380D01*
X68095238Y-38622380D02*
X68095238Y-37622380D01*
X67476190Y-37622380D02*
X67571428Y-37670000D01*
X67571428Y-37670000D02*
X67619047Y-37717619D01*
X67619047Y-37717619D02*
X67666666Y-37812857D01*
X67666666Y-37812857D02*
X67666666Y-38098571D01*
X67666666Y-38098571D02*
X67619047Y-38193809D01*
X67619047Y-38193809D02*
X67571428Y-38241428D01*
X67571428Y-38241428D02*
X67476190Y-38289047D01*
X67476190Y-38289047D02*
X67333333Y-38289047D01*
X67333333Y-38289047D02*
X67238095Y-38241428D01*
X67238095Y-38241428D02*
X67190476Y-38193809D01*
X67190476Y-38193809D02*
X67142857Y-38098571D01*
X67142857Y-38098571D02*
X67142857Y-37812857D01*
X67142857Y-37812857D02*
X67190476Y-37717619D01*
X67190476Y-37717619D02*
X67238095Y-37670000D01*
X67238095Y-37670000D02*
X67333333Y-37622380D01*
X67333333Y-37622380D02*
X67476190Y-37622380D01*
X66285714Y-37622380D02*
X66285714Y-38622380D01*
X66285714Y-37670000D02*
X66380952Y-37622380D01*
X66380952Y-37622380D02*
X66571428Y-37622380D01*
X66571428Y-37622380D02*
X66666666Y-37670000D01*
X66666666Y-37670000D02*
X66714285Y-37717619D01*
X66714285Y-37717619D02*
X66761904Y-37812857D01*
X66761904Y-37812857D02*
X66761904Y-38098571D01*
X66761904Y-38098571D02*
X66714285Y-38193809D01*
X66714285Y-38193809D02*
X66666666Y-38241428D01*
X66666666Y-38241428D02*
X66571428Y-38289047D01*
X66571428Y-38289047D02*
X66380952Y-38289047D01*
X66380952Y-38289047D02*
X66285714Y-38241428D01*
X65428571Y-37670000D02*
X65523809Y-37622380D01*
X65523809Y-37622380D02*
X65714285Y-37622380D01*
X65714285Y-37622380D02*
X65809523Y-37670000D01*
X65809523Y-37670000D02*
X65857142Y-37765238D01*
X65857142Y-37765238D02*
X65857142Y-38146190D01*
X65857142Y-38146190D02*
X65809523Y-38241428D01*
X65809523Y-38241428D02*
X65714285Y-38289047D01*
X65714285Y-38289047D02*
X65523809Y-38289047D01*
X65523809Y-38289047D02*
X65428571Y-38241428D01*
X65428571Y-38241428D02*
X65380952Y-38146190D01*
X65380952Y-38146190D02*
X65380952Y-38050952D01*
X65380952Y-38050952D02*
X65857142Y-37955714D01*
D11*
X56214285Y-49104000D02*
X55300000Y-49104000D01*
X80271428Y-33148000D02*
X80100000Y-33090857D01*
X80100000Y-33090857D02*
X79814285Y-33090857D01*
X79814285Y-33090857D02*
X79700000Y-33148000D01*
X79700000Y-33148000D02*
X79642857Y-33205142D01*
X79642857Y-33205142D02*
X79585714Y-33319428D01*
X79585714Y-33319428D02*
X79585714Y-33433714D01*
X79585714Y-33433714D02*
X79642857Y-33548000D01*
X79642857Y-33548000D02*
X79700000Y-33605142D01*
X79700000Y-33605142D02*
X79814285Y-33662285D01*
X79814285Y-33662285D02*
X80042857Y-33719428D01*
X80042857Y-33719428D02*
X80157142Y-33776571D01*
X80157142Y-33776571D02*
X80214285Y-33833714D01*
X80214285Y-33833714D02*
X80271428Y-33948000D01*
X80271428Y-33948000D02*
X80271428Y-34062285D01*
X80271428Y-34062285D02*
X80214285Y-34176571D01*
X80214285Y-34176571D02*
X80157142Y-34233714D01*
X80157142Y-34233714D02*
X80042857Y-34290857D01*
X80042857Y-34290857D02*
X79757142Y-34290857D01*
X79757142Y-34290857D02*
X79585714Y-34233714D01*
X78614285Y-33148000D02*
X78728571Y-33090857D01*
X78728571Y-33090857D02*
X78957143Y-33090857D01*
X78957143Y-33090857D02*
X79071428Y-33148000D01*
X79071428Y-33148000D02*
X79128571Y-33262285D01*
X79128571Y-33262285D02*
X79128571Y-33719428D01*
X79128571Y-33719428D02*
X79071428Y-33833714D01*
X79071428Y-33833714D02*
X78957143Y-33890857D01*
X78957143Y-33890857D02*
X78728571Y-33890857D01*
X78728571Y-33890857D02*
X78614285Y-33833714D01*
X78614285Y-33833714D02*
X78557143Y-33719428D01*
X78557143Y-33719428D02*
X78557143Y-33605142D01*
X78557143Y-33605142D02*
X79128571Y-33490857D01*
X78042857Y-33890857D02*
X78042857Y-33090857D01*
X78042857Y-33776571D02*
X77985714Y-33833714D01*
X77985714Y-33833714D02*
X77871429Y-33890857D01*
X77871429Y-33890857D02*
X77700000Y-33890857D01*
X77700000Y-33890857D02*
X77585714Y-33833714D01*
X77585714Y-33833714D02*
X77528572Y-33719428D01*
X77528572Y-33719428D02*
X77528572Y-33090857D01*
X77014286Y-33148000D02*
X76900000Y-33090857D01*
X76900000Y-33090857D02*
X76671429Y-33090857D01*
X76671429Y-33090857D02*
X76557143Y-33148000D01*
X76557143Y-33148000D02*
X76500000Y-33262285D01*
X76500000Y-33262285D02*
X76500000Y-33319428D01*
X76500000Y-33319428D02*
X76557143Y-33433714D01*
X76557143Y-33433714D02*
X76671429Y-33490857D01*
X76671429Y-33490857D02*
X76842858Y-33490857D01*
X76842858Y-33490857D02*
X76957143Y-33548000D01*
X76957143Y-33548000D02*
X77014286Y-33662285D01*
X77014286Y-33662285D02*
X77014286Y-33719428D01*
X77014286Y-33719428D02*
X76957143Y-33833714D01*
X76957143Y-33833714D02*
X76842858Y-33890857D01*
X76842858Y-33890857D02*
X76671429Y-33890857D01*
X76671429Y-33890857D02*
X76557143Y-33833714D01*
X75814286Y-33090857D02*
X75928571Y-33148000D01*
X75928571Y-33148000D02*
X75985714Y-33205142D01*
X75985714Y-33205142D02*
X76042857Y-33319428D01*
X76042857Y-33319428D02*
X76042857Y-33662285D01*
X76042857Y-33662285D02*
X75985714Y-33776571D01*
X75985714Y-33776571D02*
X75928571Y-33833714D01*
X75928571Y-33833714D02*
X75814286Y-33890857D01*
X75814286Y-33890857D02*
X75642857Y-33890857D01*
X75642857Y-33890857D02*
X75528571Y-33833714D01*
X75528571Y-33833714D02*
X75471429Y-33776571D01*
X75471429Y-33776571D02*
X75414286Y-33662285D01*
X75414286Y-33662285D02*
X75414286Y-33319428D01*
X75414286Y-33319428D02*
X75471429Y-33205142D01*
X75471429Y-33205142D02*
X75528571Y-33148000D01*
X75528571Y-33148000D02*
X75642857Y-33090857D01*
X75642857Y-33090857D02*
X75814286Y-33090857D01*
X74900000Y-33090857D02*
X74900000Y-33890857D01*
X74900000Y-33662285D02*
X74842857Y-33776571D01*
X74842857Y-33776571D02*
X74785715Y-33833714D01*
X74785715Y-33833714D02*
X74671429Y-33890857D01*
X74671429Y-33890857D02*
X74557143Y-33890857D01*
X73528572Y-33090857D02*
X74214286Y-33090857D01*
X73871429Y-33090857D02*
X73871429Y-34290857D01*
X73871429Y-34290857D02*
X73985715Y-34119428D01*
X73985715Y-34119428D02*
X74100000Y-34005142D01*
X74100000Y-34005142D02*
X74214286Y-33948000D01*
X80271428Y-31489714D02*
X79700000Y-31489714D01*
X80385714Y-31146857D02*
X79985714Y-32346857D01*
X79985714Y-32346857D02*
X79585714Y-31146857D01*
X78671429Y-31146857D02*
X78671429Y-32346857D01*
X78671429Y-31204000D02*
X78785714Y-31146857D01*
X78785714Y-31146857D02*
X79014286Y-31146857D01*
X79014286Y-31146857D02*
X79128571Y-31204000D01*
X79128571Y-31204000D02*
X79185714Y-31261142D01*
X79185714Y-31261142D02*
X79242857Y-31375428D01*
X79242857Y-31375428D02*
X79242857Y-31718285D01*
X79242857Y-31718285D02*
X79185714Y-31832571D01*
X79185714Y-31832571D02*
X79128571Y-31889714D01*
X79128571Y-31889714D02*
X79014286Y-31946857D01*
X79014286Y-31946857D02*
X78785714Y-31946857D01*
X78785714Y-31946857D02*
X78671429Y-31889714D01*
X77585715Y-31146857D02*
X77585715Y-32346857D01*
X77585715Y-31204000D02*
X77700000Y-31146857D01*
X77700000Y-31146857D02*
X77928572Y-31146857D01*
X77928572Y-31146857D02*
X78042857Y-31204000D01*
X78042857Y-31204000D02*
X78100000Y-31261142D01*
X78100000Y-31261142D02*
X78157143Y-31375428D01*
X78157143Y-31375428D02*
X78157143Y-31718285D01*
X78157143Y-31718285D02*
X78100000Y-31832571D01*
X78100000Y-31832571D02*
X78042857Y-31889714D01*
X78042857Y-31889714D02*
X77928572Y-31946857D01*
X77928572Y-31946857D02*
X77700000Y-31946857D01*
X77700000Y-31946857D02*
X77585715Y-31889714D01*
X77014286Y-31146857D02*
X77014286Y-31946857D01*
X77014286Y-31718285D02*
X76957143Y-31832571D01*
X76957143Y-31832571D02*
X76900001Y-31889714D01*
X76900001Y-31889714D02*
X76785715Y-31946857D01*
X76785715Y-31946857D02*
X76671429Y-31946857D01*
X75814286Y-31204000D02*
X75928572Y-31146857D01*
X75928572Y-31146857D02*
X76157144Y-31146857D01*
X76157144Y-31146857D02*
X76271429Y-31204000D01*
X76271429Y-31204000D02*
X76328572Y-31318285D01*
X76328572Y-31318285D02*
X76328572Y-31775428D01*
X76328572Y-31775428D02*
X76271429Y-31889714D01*
X76271429Y-31889714D02*
X76157144Y-31946857D01*
X76157144Y-31946857D02*
X75928572Y-31946857D01*
X75928572Y-31946857D02*
X75814286Y-31889714D01*
X75814286Y-31889714D02*
X75757144Y-31775428D01*
X75757144Y-31775428D02*
X75757144Y-31661142D01*
X75757144Y-31661142D02*
X76328572Y-31546857D01*
X75300001Y-31204000D02*
X75185715Y-31146857D01*
X75185715Y-31146857D02*
X74957144Y-31146857D01*
X74957144Y-31146857D02*
X74842858Y-31204000D01*
X74842858Y-31204000D02*
X74785715Y-31318285D01*
X74785715Y-31318285D02*
X74785715Y-31375428D01*
X74785715Y-31375428D02*
X74842858Y-31489714D01*
X74842858Y-31489714D02*
X74957144Y-31546857D01*
X74957144Y-31546857D02*
X75128573Y-31546857D01*
X75128573Y-31546857D02*
X75242858Y-31604000D01*
X75242858Y-31604000D02*
X75300001Y-31718285D01*
X75300001Y-31718285D02*
X75300001Y-31775428D01*
X75300001Y-31775428D02*
X75242858Y-31889714D01*
X75242858Y-31889714D02*
X75128573Y-31946857D01*
X75128573Y-31946857D02*
X74957144Y-31946857D01*
X74957144Y-31946857D02*
X74842858Y-31889714D01*
X74328572Y-31204000D02*
X74214286Y-31146857D01*
X74214286Y-31146857D02*
X73985715Y-31146857D01*
X73985715Y-31146857D02*
X73871429Y-31204000D01*
X73871429Y-31204000D02*
X73814286Y-31318285D01*
X73814286Y-31318285D02*
X73814286Y-31375428D01*
X73814286Y-31375428D02*
X73871429Y-31489714D01*
X73871429Y-31489714D02*
X73985715Y-31546857D01*
X73985715Y-31546857D02*
X74157144Y-31546857D01*
X74157144Y-31546857D02*
X74271429Y-31604000D01*
X74271429Y-31604000D02*
X74328572Y-31718285D01*
X74328572Y-31718285D02*
X74328572Y-31775428D01*
X74328572Y-31775428D02*
X74271429Y-31889714D01*
X74271429Y-31889714D02*
X74157144Y-31946857D01*
X74157144Y-31946857D02*
X73985715Y-31946857D01*
X73985715Y-31946857D02*
X73871429Y-31889714D01*
X56214285Y-46604000D02*
X55300000Y-46604000D01*
X55757142Y-46146857D02*
X55757142Y-47061142D01*
X62670000Y-33940476D02*
X62622380Y-34083333D01*
X62622380Y-34083333D02*
X62622380Y-34321428D01*
X62622380Y-34321428D02*
X62670000Y-34416666D01*
X62670000Y-34416666D02*
X62717619Y-34464285D01*
X62717619Y-34464285D02*
X62812857Y-34511904D01*
X62812857Y-34511904D02*
X62908095Y-34511904D01*
X62908095Y-34511904D02*
X63003333Y-34464285D01*
X63003333Y-34464285D02*
X63050952Y-34416666D01*
X63050952Y-34416666D02*
X63098571Y-34321428D01*
X63098571Y-34321428D02*
X63146190Y-34130952D01*
X63146190Y-34130952D02*
X63193809Y-34035714D01*
X63193809Y-34035714D02*
X63241428Y-33988095D01*
X63241428Y-33988095D02*
X63336666Y-33940476D01*
X63336666Y-33940476D02*
X63431904Y-33940476D01*
X63431904Y-33940476D02*
X63527142Y-33988095D01*
X63527142Y-33988095D02*
X63574761Y-34035714D01*
X63574761Y-34035714D02*
X63622380Y-34130952D01*
X63622380Y-34130952D02*
X63622380Y-34369047D01*
X63622380Y-34369047D02*
X63574761Y-34511904D01*
X62622380Y-34940476D02*
X63622380Y-34940476D01*
X63622380Y-34940476D02*
X63622380Y-35178571D01*
X63622380Y-35178571D02*
X63574761Y-35321428D01*
X63574761Y-35321428D02*
X63479523Y-35416666D01*
X63479523Y-35416666D02*
X63384285Y-35464285D01*
X63384285Y-35464285D02*
X63193809Y-35511904D01*
X63193809Y-35511904D02*
X63050952Y-35511904D01*
X63050952Y-35511904D02*
X62860476Y-35464285D01*
X62860476Y-35464285D02*
X62765238Y-35416666D01*
X62765238Y-35416666D02*
X62670000Y-35321428D01*
X62670000Y-35321428D02*
X62622380Y-35178571D01*
X62622380Y-35178571D02*
X62622380Y-34940476D01*
X62908095Y-35892857D02*
X62908095Y-36369047D01*
X62622380Y-35797619D02*
X63622380Y-36130952D01*
X63622380Y-36130952D02*
X62622380Y-36464285D01*
D10*
X81000000Y-30500000D02*
X74500000Y-30500000D01*
X60146190Y-46571428D02*
X60098571Y-46714285D01*
X60098571Y-46714285D02*
X60050952Y-46761904D01*
X60050952Y-46761904D02*
X59955714Y-46809523D01*
X59955714Y-46809523D02*
X59812857Y-46809523D01*
X59812857Y-46809523D02*
X59717619Y-46761904D01*
X59717619Y-46761904D02*
X59670000Y-46714285D01*
X59670000Y-46714285D02*
X59622380Y-46619047D01*
X59622380Y-46619047D02*
X59622380Y-46238095D01*
X59622380Y-46238095D02*
X60622380Y-46238095D01*
X60622380Y-46238095D02*
X60622380Y-46571428D01*
X60622380Y-46571428D02*
X60574761Y-46666666D01*
X60574761Y-46666666D02*
X60527142Y-46714285D01*
X60527142Y-46714285D02*
X60431904Y-46761904D01*
X60431904Y-46761904D02*
X60336666Y-46761904D01*
X60336666Y-46761904D02*
X60241428Y-46714285D01*
X60241428Y-46714285D02*
X60193809Y-46666666D01*
X60193809Y-46666666D02*
X60146190Y-46571428D01*
X60146190Y-46571428D02*
X60146190Y-46238095D01*
X59622380Y-47666666D02*
X60146190Y-47666666D01*
X60146190Y-47666666D02*
X60241428Y-47619047D01*
X60241428Y-47619047D02*
X60289047Y-47523809D01*
X60289047Y-47523809D02*
X60289047Y-47333333D01*
X60289047Y-47333333D02*
X60241428Y-47238095D01*
X59670000Y-47666666D02*
X59622380Y-47571428D01*
X59622380Y-47571428D02*
X59622380Y-47333333D01*
X59622380Y-47333333D02*
X59670000Y-47238095D01*
X59670000Y-47238095D02*
X59765238Y-47190476D01*
X59765238Y-47190476D02*
X59860476Y-47190476D01*
X59860476Y-47190476D02*
X59955714Y-47238095D01*
X59955714Y-47238095D02*
X60003333Y-47333333D01*
X60003333Y-47333333D02*
X60003333Y-47571428D01*
X60003333Y-47571428D02*
X60050952Y-47666666D01*
X60289047Y-48000000D02*
X60289047Y-48380952D01*
X60622380Y-48142857D02*
X59765238Y-48142857D01*
X59765238Y-48142857D02*
X59670000Y-48190476D01*
X59670000Y-48190476D02*
X59622380Y-48285714D01*
X59622380Y-48285714D02*
X59622380Y-48380952D01*
X60289047Y-48571429D02*
X60289047Y-48952381D01*
X60622380Y-48714286D02*
X59765238Y-48714286D01*
X59765238Y-48714286D02*
X59670000Y-48761905D01*
X59670000Y-48761905D02*
X59622380Y-48857143D01*
X59622380Y-48857143D02*
X59622380Y-48952381D01*
X74500000Y-68000000D02*
X74500000Y-77000000D01*
X54500000Y-72000000D02*
X59000000Y-72000000D01*
X59000000Y-77500000D01*
X54500000Y-77500000D01*
X54500000Y-72000000D01*
X69500000Y-76500000D02*
G75*
G03*
X69500000Y-76500000I-500000J0D01*
G01*
X83000000Y-72000000D02*
X83000000Y-68000000D01*
D11*
X60170000Y-60940476D02*
X60122380Y-61083333D01*
X60122380Y-61083333D02*
X60122380Y-61321428D01*
X60122380Y-61321428D02*
X60170000Y-61416666D01*
X60170000Y-61416666D02*
X60217619Y-61464285D01*
X60217619Y-61464285D02*
X60312857Y-61511904D01*
X60312857Y-61511904D02*
X60408095Y-61511904D01*
X60408095Y-61511904D02*
X60503333Y-61464285D01*
X60503333Y-61464285D02*
X60550952Y-61416666D01*
X60550952Y-61416666D02*
X60598571Y-61321428D01*
X60598571Y-61321428D02*
X60646190Y-61130952D01*
X60646190Y-61130952D02*
X60693809Y-61035714D01*
X60693809Y-61035714D02*
X60741428Y-60988095D01*
X60741428Y-60988095D02*
X60836666Y-60940476D01*
X60836666Y-60940476D02*
X60931904Y-60940476D01*
X60931904Y-60940476D02*
X61027142Y-60988095D01*
X61027142Y-60988095D02*
X61074761Y-61035714D01*
X61074761Y-61035714D02*
X61122380Y-61130952D01*
X61122380Y-61130952D02*
X61122380Y-61369047D01*
X61122380Y-61369047D02*
X61074761Y-61511904D01*
X60217619Y-62511904D02*
X60170000Y-62464285D01*
X60170000Y-62464285D02*
X60122380Y-62321428D01*
X60122380Y-62321428D02*
X60122380Y-62226190D01*
X60122380Y-62226190D02*
X60170000Y-62083333D01*
X60170000Y-62083333D02*
X60265238Y-61988095D01*
X60265238Y-61988095D02*
X60360476Y-61940476D01*
X60360476Y-61940476D02*
X60550952Y-61892857D01*
X60550952Y-61892857D02*
X60693809Y-61892857D01*
X60693809Y-61892857D02*
X60884285Y-61940476D01*
X60884285Y-61940476D02*
X60979523Y-61988095D01*
X60979523Y-61988095D02*
X61074761Y-62083333D01*
X61074761Y-62083333D02*
X61122380Y-62226190D01*
X61122380Y-62226190D02*
X61122380Y-62321428D01*
X61122380Y-62321428D02*
X61074761Y-62464285D01*
X61074761Y-62464285D02*
X61027142Y-62511904D01*
X60122380Y-63416666D02*
X60122380Y-62940476D01*
X60122380Y-62940476D02*
X61122380Y-62940476D01*
D10*
X70000000Y-62500000D02*
X70000000Y-58000000D01*
X74500000Y-77000000D02*
X82500000Y-77000000D01*
X76000000Y-62500000D02*
X70000000Y-62500000D01*
X63500000Y-64000000D02*
X69500000Y-64000000D01*
X69500000Y-70000000D01*
X63500000Y-70000000D01*
X63500000Y-64000000D01*
X83000000Y-68000000D02*
X74500000Y-68000000D01*
X81000000Y-62500000D02*
X81000000Y-57500000D01*
D11*
X82271428Y-70648000D02*
X82100000Y-70590857D01*
X82100000Y-70590857D02*
X81814285Y-70590857D01*
X81814285Y-70590857D02*
X81700000Y-70648000D01*
X81700000Y-70648000D02*
X81642857Y-70705142D01*
X81642857Y-70705142D02*
X81585714Y-70819428D01*
X81585714Y-70819428D02*
X81585714Y-70933714D01*
X81585714Y-70933714D02*
X81642857Y-71048000D01*
X81642857Y-71048000D02*
X81700000Y-71105142D01*
X81700000Y-71105142D02*
X81814285Y-71162285D01*
X81814285Y-71162285D02*
X82042857Y-71219428D01*
X82042857Y-71219428D02*
X82157142Y-71276571D01*
X82157142Y-71276571D02*
X82214285Y-71333714D01*
X82214285Y-71333714D02*
X82271428Y-71448000D01*
X82271428Y-71448000D02*
X82271428Y-71562285D01*
X82271428Y-71562285D02*
X82214285Y-71676571D01*
X82214285Y-71676571D02*
X82157142Y-71733714D01*
X82157142Y-71733714D02*
X82042857Y-71790857D01*
X82042857Y-71790857D02*
X81757142Y-71790857D01*
X81757142Y-71790857D02*
X81585714Y-71733714D01*
X80614285Y-70648000D02*
X80728571Y-70590857D01*
X80728571Y-70590857D02*
X80957143Y-70590857D01*
X80957143Y-70590857D02*
X81071428Y-70648000D01*
X81071428Y-70648000D02*
X81128571Y-70762285D01*
X81128571Y-70762285D02*
X81128571Y-71219428D01*
X81128571Y-71219428D02*
X81071428Y-71333714D01*
X81071428Y-71333714D02*
X80957143Y-71390857D01*
X80957143Y-71390857D02*
X80728571Y-71390857D01*
X80728571Y-71390857D02*
X80614285Y-71333714D01*
X80614285Y-71333714D02*
X80557143Y-71219428D01*
X80557143Y-71219428D02*
X80557143Y-71105142D01*
X80557143Y-71105142D02*
X81128571Y-70990857D01*
X80042857Y-71390857D02*
X80042857Y-70590857D01*
X80042857Y-71276571D02*
X79985714Y-71333714D01*
X79985714Y-71333714D02*
X79871429Y-71390857D01*
X79871429Y-71390857D02*
X79700000Y-71390857D01*
X79700000Y-71390857D02*
X79585714Y-71333714D01*
X79585714Y-71333714D02*
X79528572Y-71219428D01*
X79528572Y-71219428D02*
X79528572Y-70590857D01*
X79014286Y-70648000D02*
X78900000Y-70590857D01*
X78900000Y-70590857D02*
X78671429Y-70590857D01*
X78671429Y-70590857D02*
X78557143Y-70648000D01*
X78557143Y-70648000D02*
X78500000Y-70762285D01*
X78500000Y-70762285D02*
X78500000Y-70819428D01*
X78500000Y-70819428D02*
X78557143Y-70933714D01*
X78557143Y-70933714D02*
X78671429Y-70990857D01*
X78671429Y-70990857D02*
X78842858Y-70990857D01*
X78842858Y-70990857D02*
X78957143Y-71048000D01*
X78957143Y-71048000D02*
X79014286Y-71162285D01*
X79014286Y-71162285D02*
X79014286Y-71219428D01*
X79014286Y-71219428D02*
X78957143Y-71333714D01*
X78957143Y-71333714D02*
X78842858Y-71390857D01*
X78842858Y-71390857D02*
X78671429Y-71390857D01*
X78671429Y-71390857D02*
X78557143Y-71333714D01*
X77814286Y-70590857D02*
X77928571Y-70648000D01*
X77928571Y-70648000D02*
X77985714Y-70705142D01*
X77985714Y-70705142D02*
X78042857Y-70819428D01*
X78042857Y-70819428D02*
X78042857Y-71162285D01*
X78042857Y-71162285D02*
X77985714Y-71276571D01*
X77985714Y-71276571D02*
X77928571Y-71333714D01*
X77928571Y-71333714D02*
X77814286Y-71390857D01*
X77814286Y-71390857D02*
X77642857Y-71390857D01*
X77642857Y-71390857D02*
X77528571Y-71333714D01*
X77528571Y-71333714D02*
X77471429Y-71276571D01*
X77471429Y-71276571D02*
X77414286Y-71162285D01*
X77414286Y-71162285D02*
X77414286Y-70819428D01*
X77414286Y-70819428D02*
X77471429Y-70705142D01*
X77471429Y-70705142D02*
X77528571Y-70648000D01*
X77528571Y-70648000D02*
X77642857Y-70590857D01*
X77642857Y-70590857D02*
X77814286Y-70590857D01*
X76900000Y-70590857D02*
X76900000Y-71390857D01*
X76900000Y-71162285D02*
X76842857Y-71276571D01*
X76842857Y-71276571D02*
X76785715Y-71333714D01*
X76785715Y-71333714D02*
X76671429Y-71390857D01*
X76671429Y-71390857D02*
X76557143Y-71390857D01*
X75928572Y-71790857D02*
X75814286Y-71790857D01*
X75814286Y-71790857D02*
X75700000Y-71733714D01*
X75700000Y-71733714D02*
X75642858Y-71676571D01*
X75642858Y-71676571D02*
X75585715Y-71562285D01*
X75585715Y-71562285D02*
X75528572Y-71333714D01*
X75528572Y-71333714D02*
X75528572Y-71048000D01*
X75528572Y-71048000D02*
X75585715Y-70819428D01*
X75585715Y-70819428D02*
X75642858Y-70705142D01*
X75642858Y-70705142D02*
X75700000Y-70648000D01*
X75700000Y-70648000D02*
X75814286Y-70590857D01*
X75814286Y-70590857D02*
X75928572Y-70590857D01*
X75928572Y-70590857D02*
X76042858Y-70648000D01*
X76042858Y-70648000D02*
X76100000Y-70705142D01*
X76100000Y-70705142D02*
X76157143Y-70819428D01*
X76157143Y-70819428D02*
X76214286Y-71048000D01*
X76214286Y-71048000D02*
X76214286Y-71333714D01*
X76214286Y-71333714D02*
X76157143Y-71562285D01*
X76157143Y-71562285D02*
X76100000Y-71676571D01*
X76100000Y-71676571D02*
X76042858Y-71733714D01*
X76042858Y-71733714D02*
X75928572Y-71790857D01*
X82271428Y-68989714D02*
X81700000Y-68989714D01*
X82385714Y-68646857D02*
X81985714Y-69846857D01*
X81985714Y-69846857D02*
X81585714Y-68646857D01*
X80671429Y-68646857D02*
X80671429Y-69846857D01*
X80671429Y-68704000D02*
X80785714Y-68646857D01*
X80785714Y-68646857D02*
X81014286Y-68646857D01*
X81014286Y-68646857D02*
X81128571Y-68704000D01*
X81128571Y-68704000D02*
X81185714Y-68761142D01*
X81185714Y-68761142D02*
X81242857Y-68875428D01*
X81242857Y-68875428D02*
X81242857Y-69218285D01*
X81242857Y-69218285D02*
X81185714Y-69332571D01*
X81185714Y-69332571D02*
X81128571Y-69389714D01*
X81128571Y-69389714D02*
X81014286Y-69446857D01*
X81014286Y-69446857D02*
X80785714Y-69446857D01*
X80785714Y-69446857D02*
X80671429Y-69389714D01*
X79585715Y-68646857D02*
X79585715Y-69846857D01*
X79585715Y-68704000D02*
X79700000Y-68646857D01*
X79700000Y-68646857D02*
X79928572Y-68646857D01*
X79928572Y-68646857D02*
X80042857Y-68704000D01*
X80042857Y-68704000D02*
X80100000Y-68761142D01*
X80100000Y-68761142D02*
X80157143Y-68875428D01*
X80157143Y-68875428D02*
X80157143Y-69218285D01*
X80157143Y-69218285D02*
X80100000Y-69332571D01*
X80100000Y-69332571D02*
X80042857Y-69389714D01*
X80042857Y-69389714D02*
X79928572Y-69446857D01*
X79928572Y-69446857D02*
X79700000Y-69446857D01*
X79700000Y-69446857D02*
X79585715Y-69389714D01*
X79014286Y-68646857D02*
X79014286Y-69446857D01*
X79014286Y-69218285D02*
X78957143Y-69332571D01*
X78957143Y-69332571D02*
X78900001Y-69389714D01*
X78900001Y-69389714D02*
X78785715Y-69446857D01*
X78785715Y-69446857D02*
X78671429Y-69446857D01*
X77814286Y-68704000D02*
X77928572Y-68646857D01*
X77928572Y-68646857D02*
X78157144Y-68646857D01*
X78157144Y-68646857D02*
X78271429Y-68704000D01*
X78271429Y-68704000D02*
X78328572Y-68818285D01*
X78328572Y-68818285D02*
X78328572Y-69275428D01*
X78328572Y-69275428D02*
X78271429Y-69389714D01*
X78271429Y-69389714D02*
X78157144Y-69446857D01*
X78157144Y-69446857D02*
X77928572Y-69446857D01*
X77928572Y-69446857D02*
X77814286Y-69389714D01*
X77814286Y-69389714D02*
X77757144Y-69275428D01*
X77757144Y-69275428D02*
X77757144Y-69161142D01*
X77757144Y-69161142D02*
X78328572Y-69046857D01*
X77300001Y-68704000D02*
X77185715Y-68646857D01*
X77185715Y-68646857D02*
X76957144Y-68646857D01*
X76957144Y-68646857D02*
X76842858Y-68704000D01*
X76842858Y-68704000D02*
X76785715Y-68818285D01*
X76785715Y-68818285D02*
X76785715Y-68875428D01*
X76785715Y-68875428D02*
X76842858Y-68989714D01*
X76842858Y-68989714D02*
X76957144Y-69046857D01*
X76957144Y-69046857D02*
X77128573Y-69046857D01*
X77128573Y-69046857D02*
X77242858Y-69104000D01*
X77242858Y-69104000D02*
X77300001Y-69218285D01*
X77300001Y-69218285D02*
X77300001Y-69275428D01*
X77300001Y-69275428D02*
X77242858Y-69389714D01*
X77242858Y-69389714D02*
X77128573Y-69446857D01*
X77128573Y-69446857D02*
X76957144Y-69446857D01*
X76957144Y-69446857D02*
X76842858Y-69389714D01*
X76328572Y-68704000D02*
X76214286Y-68646857D01*
X76214286Y-68646857D02*
X75985715Y-68646857D01*
X75985715Y-68646857D02*
X75871429Y-68704000D01*
X75871429Y-68704000D02*
X75814286Y-68818285D01*
X75814286Y-68818285D02*
X75814286Y-68875428D01*
X75814286Y-68875428D02*
X75871429Y-68989714D01*
X75871429Y-68989714D02*
X75985715Y-69046857D01*
X75985715Y-69046857D02*
X76157144Y-69046857D01*
X76157144Y-69046857D02*
X76271429Y-69104000D01*
X76271429Y-69104000D02*
X76328572Y-69218285D01*
X76328572Y-69218285D02*
X76328572Y-69275428D01*
X76328572Y-69275428D02*
X76271429Y-69389714D01*
X76271429Y-69389714D02*
X76157144Y-69446857D01*
X76157144Y-69446857D02*
X75985715Y-69446857D01*
X75985715Y-69446857D02*
X75871429Y-69389714D01*
D10*
X80000000Y-62500000D02*
X81000000Y-62500000D01*
X68428571Y-66766190D02*
X68285714Y-66718571D01*
X68285714Y-66718571D02*
X68238095Y-66670952D01*
X68238095Y-66670952D02*
X68190476Y-66575714D01*
X68190476Y-66575714D02*
X68190476Y-66432857D01*
X68190476Y-66432857D02*
X68238095Y-66337619D01*
X68238095Y-66337619D02*
X68285714Y-66290000D01*
X68285714Y-66290000D02*
X68380952Y-66242380D01*
X68380952Y-66242380D02*
X68761904Y-66242380D01*
X68761904Y-66242380D02*
X68761904Y-67242380D01*
X68761904Y-67242380D02*
X68428571Y-67242380D01*
X68428571Y-67242380D02*
X68333333Y-67194761D01*
X68333333Y-67194761D02*
X68285714Y-67147142D01*
X68285714Y-67147142D02*
X68238095Y-67051904D01*
X68238095Y-67051904D02*
X68238095Y-66956666D01*
X68238095Y-66956666D02*
X68285714Y-66861428D01*
X68285714Y-66861428D02*
X68333333Y-66813809D01*
X68333333Y-66813809D02*
X68428571Y-66766190D01*
X68428571Y-66766190D02*
X68761904Y-66766190D01*
X67333333Y-66242380D02*
X67333333Y-66766190D01*
X67333333Y-66766190D02*
X67380952Y-66861428D01*
X67380952Y-66861428D02*
X67476190Y-66909047D01*
X67476190Y-66909047D02*
X67666666Y-66909047D01*
X67666666Y-66909047D02*
X67761904Y-66861428D01*
X67333333Y-66290000D02*
X67428571Y-66242380D01*
X67428571Y-66242380D02*
X67666666Y-66242380D01*
X67666666Y-66242380D02*
X67761904Y-66290000D01*
X67761904Y-66290000D02*
X67809523Y-66385238D01*
X67809523Y-66385238D02*
X67809523Y-66480476D01*
X67809523Y-66480476D02*
X67761904Y-66575714D01*
X67761904Y-66575714D02*
X67666666Y-66623333D01*
X67666666Y-66623333D02*
X67428571Y-66623333D01*
X67428571Y-66623333D02*
X67333333Y-66670952D01*
X66999999Y-66909047D02*
X66619047Y-66909047D01*
X66857142Y-67242380D02*
X66857142Y-66385238D01*
X66857142Y-66385238D02*
X66809523Y-66290000D01*
X66809523Y-66290000D02*
X66714285Y-66242380D01*
X66714285Y-66242380D02*
X66619047Y-66242380D01*
X66428570Y-66909047D02*
X66047618Y-66909047D01*
X66285713Y-67242380D02*
X66285713Y-66385238D01*
X66285713Y-66385238D02*
X66238094Y-66290000D01*
X66238094Y-66290000D02*
X66142856Y-66242380D01*
X66142856Y-66242380D02*
X66047618Y-66242380D01*
X65333332Y-66290000D02*
X65428570Y-66242380D01*
X65428570Y-66242380D02*
X65619046Y-66242380D01*
X65619046Y-66242380D02*
X65714284Y-66290000D01*
X65714284Y-66290000D02*
X65761903Y-66385238D01*
X65761903Y-66385238D02*
X65761903Y-66766190D01*
X65761903Y-66766190D02*
X65714284Y-66861428D01*
X65714284Y-66861428D02*
X65619046Y-66909047D01*
X65619046Y-66909047D02*
X65428570Y-66909047D01*
X65428570Y-66909047D02*
X65333332Y-66861428D01*
X65333332Y-66861428D02*
X65285713Y-66766190D01*
X65285713Y-66766190D02*
X65285713Y-66670952D01*
X65285713Y-66670952D02*
X65761903Y-66575714D01*
X64857141Y-66242380D02*
X64857141Y-66909047D01*
X64857141Y-66718571D02*
X64809522Y-66813809D01*
X64809522Y-66813809D02*
X64761903Y-66861428D01*
X64761903Y-66861428D02*
X64666665Y-66909047D01*
X64666665Y-66909047D02*
X64571427Y-66909047D01*
X64333331Y-66909047D02*
X64095236Y-66242380D01*
X63857141Y-66909047D02*
X64095236Y-66242380D01*
X64095236Y-66242380D02*
X64190474Y-66004285D01*
X64190474Y-66004285D02*
X64238093Y-65956666D01*
X64238093Y-65956666D02*
X64333331Y-65909047D01*
X68761904Y-64622380D02*
X68761904Y-65622380D01*
X68761904Y-65622380D02*
X68428571Y-64908095D01*
X68428571Y-64908095D02*
X68095238Y-65622380D01*
X68095238Y-65622380D02*
X68095238Y-64622380D01*
X67476190Y-64622380D02*
X67571428Y-64670000D01*
X67571428Y-64670000D02*
X67619047Y-64717619D01*
X67619047Y-64717619D02*
X67666666Y-64812857D01*
X67666666Y-64812857D02*
X67666666Y-65098571D01*
X67666666Y-65098571D02*
X67619047Y-65193809D01*
X67619047Y-65193809D02*
X67571428Y-65241428D01*
X67571428Y-65241428D02*
X67476190Y-65289047D01*
X67476190Y-65289047D02*
X67333333Y-65289047D01*
X67333333Y-65289047D02*
X67238095Y-65241428D01*
X67238095Y-65241428D02*
X67190476Y-65193809D01*
X67190476Y-65193809D02*
X67142857Y-65098571D01*
X67142857Y-65098571D02*
X67142857Y-64812857D01*
X67142857Y-64812857D02*
X67190476Y-64717619D01*
X67190476Y-64717619D02*
X67238095Y-64670000D01*
X67238095Y-64670000D02*
X67333333Y-64622380D01*
X67333333Y-64622380D02*
X67476190Y-64622380D01*
X66285714Y-64622380D02*
X66285714Y-65622380D01*
X66285714Y-64670000D02*
X66380952Y-64622380D01*
X66380952Y-64622380D02*
X66571428Y-64622380D01*
X66571428Y-64622380D02*
X66666666Y-64670000D01*
X66666666Y-64670000D02*
X66714285Y-64717619D01*
X66714285Y-64717619D02*
X66761904Y-64812857D01*
X66761904Y-64812857D02*
X66761904Y-65098571D01*
X66761904Y-65098571D02*
X66714285Y-65193809D01*
X66714285Y-65193809D02*
X66666666Y-65241428D01*
X66666666Y-65241428D02*
X66571428Y-65289047D01*
X66571428Y-65289047D02*
X66380952Y-65289047D01*
X66380952Y-65289047D02*
X66285714Y-65241428D01*
X65428571Y-64670000D02*
X65523809Y-64622380D01*
X65523809Y-64622380D02*
X65714285Y-64622380D01*
X65714285Y-64622380D02*
X65809523Y-64670000D01*
X65809523Y-64670000D02*
X65857142Y-64765238D01*
X65857142Y-64765238D02*
X65857142Y-65146190D01*
X65857142Y-65146190D02*
X65809523Y-65241428D01*
X65809523Y-65241428D02*
X65714285Y-65289047D01*
X65714285Y-65289047D02*
X65523809Y-65289047D01*
X65523809Y-65289047D02*
X65428571Y-65241428D01*
X65428571Y-65241428D02*
X65380952Y-65146190D01*
X65380952Y-65146190D02*
X65380952Y-65050952D01*
X65380952Y-65050952D02*
X65857142Y-64955714D01*
D11*
X56214285Y-76104000D02*
X55300000Y-76104000D01*
X80271428Y-60148000D02*
X80100000Y-60090857D01*
X80100000Y-60090857D02*
X79814285Y-60090857D01*
X79814285Y-60090857D02*
X79700000Y-60148000D01*
X79700000Y-60148000D02*
X79642857Y-60205142D01*
X79642857Y-60205142D02*
X79585714Y-60319428D01*
X79585714Y-60319428D02*
X79585714Y-60433714D01*
X79585714Y-60433714D02*
X79642857Y-60548000D01*
X79642857Y-60548000D02*
X79700000Y-60605142D01*
X79700000Y-60605142D02*
X79814285Y-60662285D01*
X79814285Y-60662285D02*
X80042857Y-60719428D01*
X80042857Y-60719428D02*
X80157142Y-60776571D01*
X80157142Y-60776571D02*
X80214285Y-60833714D01*
X80214285Y-60833714D02*
X80271428Y-60948000D01*
X80271428Y-60948000D02*
X80271428Y-61062285D01*
X80271428Y-61062285D02*
X80214285Y-61176571D01*
X80214285Y-61176571D02*
X80157142Y-61233714D01*
X80157142Y-61233714D02*
X80042857Y-61290857D01*
X80042857Y-61290857D02*
X79757142Y-61290857D01*
X79757142Y-61290857D02*
X79585714Y-61233714D01*
X78614285Y-60148000D02*
X78728571Y-60090857D01*
X78728571Y-60090857D02*
X78957143Y-60090857D01*
X78957143Y-60090857D02*
X79071428Y-60148000D01*
X79071428Y-60148000D02*
X79128571Y-60262285D01*
X79128571Y-60262285D02*
X79128571Y-60719428D01*
X79128571Y-60719428D02*
X79071428Y-60833714D01*
X79071428Y-60833714D02*
X78957143Y-60890857D01*
X78957143Y-60890857D02*
X78728571Y-60890857D01*
X78728571Y-60890857D02*
X78614285Y-60833714D01*
X78614285Y-60833714D02*
X78557143Y-60719428D01*
X78557143Y-60719428D02*
X78557143Y-60605142D01*
X78557143Y-60605142D02*
X79128571Y-60490857D01*
X78042857Y-60890857D02*
X78042857Y-60090857D01*
X78042857Y-60776571D02*
X77985714Y-60833714D01*
X77985714Y-60833714D02*
X77871429Y-60890857D01*
X77871429Y-60890857D02*
X77700000Y-60890857D01*
X77700000Y-60890857D02*
X77585714Y-60833714D01*
X77585714Y-60833714D02*
X77528572Y-60719428D01*
X77528572Y-60719428D02*
X77528572Y-60090857D01*
X77014286Y-60148000D02*
X76900000Y-60090857D01*
X76900000Y-60090857D02*
X76671429Y-60090857D01*
X76671429Y-60090857D02*
X76557143Y-60148000D01*
X76557143Y-60148000D02*
X76500000Y-60262285D01*
X76500000Y-60262285D02*
X76500000Y-60319428D01*
X76500000Y-60319428D02*
X76557143Y-60433714D01*
X76557143Y-60433714D02*
X76671429Y-60490857D01*
X76671429Y-60490857D02*
X76842858Y-60490857D01*
X76842858Y-60490857D02*
X76957143Y-60548000D01*
X76957143Y-60548000D02*
X77014286Y-60662285D01*
X77014286Y-60662285D02*
X77014286Y-60719428D01*
X77014286Y-60719428D02*
X76957143Y-60833714D01*
X76957143Y-60833714D02*
X76842858Y-60890857D01*
X76842858Y-60890857D02*
X76671429Y-60890857D01*
X76671429Y-60890857D02*
X76557143Y-60833714D01*
X75814286Y-60090857D02*
X75928571Y-60148000D01*
X75928571Y-60148000D02*
X75985714Y-60205142D01*
X75985714Y-60205142D02*
X76042857Y-60319428D01*
X76042857Y-60319428D02*
X76042857Y-60662285D01*
X76042857Y-60662285D02*
X75985714Y-60776571D01*
X75985714Y-60776571D02*
X75928571Y-60833714D01*
X75928571Y-60833714D02*
X75814286Y-60890857D01*
X75814286Y-60890857D02*
X75642857Y-60890857D01*
X75642857Y-60890857D02*
X75528571Y-60833714D01*
X75528571Y-60833714D02*
X75471429Y-60776571D01*
X75471429Y-60776571D02*
X75414286Y-60662285D01*
X75414286Y-60662285D02*
X75414286Y-60319428D01*
X75414286Y-60319428D02*
X75471429Y-60205142D01*
X75471429Y-60205142D02*
X75528571Y-60148000D01*
X75528571Y-60148000D02*
X75642857Y-60090857D01*
X75642857Y-60090857D02*
X75814286Y-60090857D01*
X74900000Y-60090857D02*
X74900000Y-60890857D01*
X74900000Y-60662285D02*
X74842857Y-60776571D01*
X74842857Y-60776571D02*
X74785715Y-60833714D01*
X74785715Y-60833714D02*
X74671429Y-60890857D01*
X74671429Y-60890857D02*
X74557143Y-60890857D01*
X73528572Y-60090857D02*
X74214286Y-60090857D01*
X73871429Y-60090857D02*
X73871429Y-61290857D01*
X73871429Y-61290857D02*
X73985715Y-61119428D01*
X73985715Y-61119428D02*
X74100000Y-61005142D01*
X74100000Y-61005142D02*
X74214286Y-60948000D01*
X80271428Y-58489714D02*
X79700000Y-58489714D01*
X80385714Y-58146857D02*
X79985714Y-59346857D01*
X79985714Y-59346857D02*
X79585714Y-58146857D01*
X78671429Y-58146857D02*
X78671429Y-59346857D01*
X78671429Y-58204000D02*
X78785714Y-58146857D01*
X78785714Y-58146857D02*
X79014286Y-58146857D01*
X79014286Y-58146857D02*
X79128571Y-58204000D01*
X79128571Y-58204000D02*
X79185714Y-58261142D01*
X79185714Y-58261142D02*
X79242857Y-58375428D01*
X79242857Y-58375428D02*
X79242857Y-58718285D01*
X79242857Y-58718285D02*
X79185714Y-58832571D01*
X79185714Y-58832571D02*
X79128571Y-58889714D01*
X79128571Y-58889714D02*
X79014286Y-58946857D01*
X79014286Y-58946857D02*
X78785714Y-58946857D01*
X78785714Y-58946857D02*
X78671429Y-58889714D01*
X77585715Y-58146857D02*
X77585715Y-59346857D01*
X77585715Y-58204000D02*
X77700000Y-58146857D01*
X77700000Y-58146857D02*
X77928572Y-58146857D01*
X77928572Y-58146857D02*
X78042857Y-58204000D01*
X78042857Y-58204000D02*
X78100000Y-58261142D01*
X78100000Y-58261142D02*
X78157143Y-58375428D01*
X78157143Y-58375428D02*
X78157143Y-58718285D01*
X78157143Y-58718285D02*
X78100000Y-58832571D01*
X78100000Y-58832571D02*
X78042857Y-58889714D01*
X78042857Y-58889714D02*
X77928572Y-58946857D01*
X77928572Y-58946857D02*
X77700000Y-58946857D01*
X77700000Y-58946857D02*
X77585715Y-58889714D01*
X77014286Y-58146857D02*
X77014286Y-58946857D01*
X77014286Y-58718285D02*
X76957143Y-58832571D01*
X76957143Y-58832571D02*
X76900001Y-58889714D01*
X76900001Y-58889714D02*
X76785715Y-58946857D01*
X76785715Y-58946857D02*
X76671429Y-58946857D01*
X75814286Y-58204000D02*
X75928572Y-58146857D01*
X75928572Y-58146857D02*
X76157144Y-58146857D01*
X76157144Y-58146857D02*
X76271429Y-58204000D01*
X76271429Y-58204000D02*
X76328572Y-58318285D01*
X76328572Y-58318285D02*
X76328572Y-58775428D01*
X76328572Y-58775428D02*
X76271429Y-58889714D01*
X76271429Y-58889714D02*
X76157144Y-58946857D01*
X76157144Y-58946857D02*
X75928572Y-58946857D01*
X75928572Y-58946857D02*
X75814286Y-58889714D01*
X75814286Y-58889714D02*
X75757144Y-58775428D01*
X75757144Y-58775428D02*
X75757144Y-58661142D01*
X75757144Y-58661142D02*
X76328572Y-58546857D01*
X75300001Y-58204000D02*
X75185715Y-58146857D01*
X75185715Y-58146857D02*
X74957144Y-58146857D01*
X74957144Y-58146857D02*
X74842858Y-58204000D01*
X74842858Y-58204000D02*
X74785715Y-58318285D01*
X74785715Y-58318285D02*
X74785715Y-58375428D01*
X74785715Y-58375428D02*
X74842858Y-58489714D01*
X74842858Y-58489714D02*
X74957144Y-58546857D01*
X74957144Y-58546857D02*
X75128573Y-58546857D01*
X75128573Y-58546857D02*
X75242858Y-58604000D01*
X75242858Y-58604000D02*
X75300001Y-58718285D01*
X75300001Y-58718285D02*
X75300001Y-58775428D01*
X75300001Y-58775428D02*
X75242858Y-58889714D01*
X75242858Y-58889714D02*
X75128573Y-58946857D01*
X75128573Y-58946857D02*
X74957144Y-58946857D01*
X74957144Y-58946857D02*
X74842858Y-58889714D01*
X74328572Y-58204000D02*
X74214286Y-58146857D01*
X74214286Y-58146857D02*
X73985715Y-58146857D01*
X73985715Y-58146857D02*
X73871429Y-58204000D01*
X73871429Y-58204000D02*
X73814286Y-58318285D01*
X73814286Y-58318285D02*
X73814286Y-58375428D01*
X73814286Y-58375428D02*
X73871429Y-58489714D01*
X73871429Y-58489714D02*
X73985715Y-58546857D01*
X73985715Y-58546857D02*
X74157144Y-58546857D01*
X74157144Y-58546857D02*
X74271429Y-58604000D01*
X74271429Y-58604000D02*
X74328572Y-58718285D01*
X74328572Y-58718285D02*
X74328572Y-58775428D01*
X74328572Y-58775428D02*
X74271429Y-58889714D01*
X74271429Y-58889714D02*
X74157144Y-58946857D01*
X74157144Y-58946857D02*
X73985715Y-58946857D01*
X73985715Y-58946857D02*
X73871429Y-58889714D01*
X56214285Y-73604000D02*
X55300000Y-73604000D01*
X55757142Y-73146857D02*
X55757142Y-74061142D01*
X62670000Y-60940476D02*
X62622380Y-61083333D01*
X62622380Y-61083333D02*
X62622380Y-61321428D01*
X62622380Y-61321428D02*
X62670000Y-61416666D01*
X62670000Y-61416666D02*
X62717619Y-61464285D01*
X62717619Y-61464285D02*
X62812857Y-61511904D01*
X62812857Y-61511904D02*
X62908095Y-61511904D01*
X62908095Y-61511904D02*
X63003333Y-61464285D01*
X63003333Y-61464285D02*
X63050952Y-61416666D01*
X63050952Y-61416666D02*
X63098571Y-61321428D01*
X63098571Y-61321428D02*
X63146190Y-61130952D01*
X63146190Y-61130952D02*
X63193809Y-61035714D01*
X63193809Y-61035714D02*
X63241428Y-60988095D01*
X63241428Y-60988095D02*
X63336666Y-60940476D01*
X63336666Y-60940476D02*
X63431904Y-60940476D01*
X63431904Y-60940476D02*
X63527142Y-60988095D01*
X63527142Y-60988095D02*
X63574761Y-61035714D01*
X63574761Y-61035714D02*
X63622380Y-61130952D01*
X63622380Y-61130952D02*
X63622380Y-61369047D01*
X63622380Y-61369047D02*
X63574761Y-61511904D01*
X62622380Y-61940476D02*
X63622380Y-61940476D01*
X63622380Y-61940476D02*
X63622380Y-62178571D01*
X63622380Y-62178571D02*
X63574761Y-62321428D01*
X63574761Y-62321428D02*
X63479523Y-62416666D01*
X63479523Y-62416666D02*
X63384285Y-62464285D01*
X63384285Y-62464285D02*
X63193809Y-62511904D01*
X63193809Y-62511904D02*
X63050952Y-62511904D01*
X63050952Y-62511904D02*
X62860476Y-62464285D01*
X62860476Y-62464285D02*
X62765238Y-62416666D01*
X62765238Y-62416666D02*
X62670000Y-62321428D01*
X62670000Y-62321428D02*
X62622380Y-62178571D01*
X62622380Y-62178571D02*
X62622380Y-61940476D01*
X62908095Y-62892857D02*
X62908095Y-63369047D01*
X62622380Y-62797619D02*
X63622380Y-63130952D01*
X63622380Y-63130952D02*
X62622380Y-63464285D01*
D10*
X81000000Y-57500000D02*
X74500000Y-57500000D01*
X60146190Y-73571428D02*
X60098571Y-73714285D01*
X60098571Y-73714285D02*
X60050952Y-73761904D01*
X60050952Y-73761904D02*
X59955714Y-73809523D01*
X59955714Y-73809523D02*
X59812857Y-73809523D01*
X59812857Y-73809523D02*
X59717619Y-73761904D01*
X59717619Y-73761904D02*
X59670000Y-73714285D01*
X59670000Y-73714285D02*
X59622380Y-73619047D01*
X59622380Y-73619047D02*
X59622380Y-73238095D01*
X59622380Y-73238095D02*
X60622380Y-73238095D01*
X60622380Y-73238095D02*
X60622380Y-73571428D01*
X60622380Y-73571428D02*
X60574761Y-73666666D01*
X60574761Y-73666666D02*
X60527142Y-73714285D01*
X60527142Y-73714285D02*
X60431904Y-73761904D01*
X60431904Y-73761904D02*
X60336666Y-73761904D01*
X60336666Y-73761904D02*
X60241428Y-73714285D01*
X60241428Y-73714285D02*
X60193809Y-73666666D01*
X60193809Y-73666666D02*
X60146190Y-73571428D01*
X60146190Y-73571428D02*
X60146190Y-73238095D01*
X59622380Y-74666666D02*
X60146190Y-74666666D01*
X60146190Y-74666666D02*
X60241428Y-74619047D01*
X60241428Y-74619047D02*
X60289047Y-74523809D01*
X60289047Y-74523809D02*
X60289047Y-74333333D01*
X60289047Y-74333333D02*
X60241428Y-74238095D01*
X59670000Y-74666666D02*
X59622380Y-74571428D01*
X59622380Y-74571428D02*
X59622380Y-74333333D01*
X59622380Y-74333333D02*
X59670000Y-74238095D01*
X59670000Y-74238095D02*
X59765238Y-74190476D01*
X59765238Y-74190476D02*
X59860476Y-74190476D01*
X59860476Y-74190476D02*
X59955714Y-74238095D01*
X59955714Y-74238095D02*
X60003333Y-74333333D01*
X60003333Y-74333333D02*
X60003333Y-74571428D01*
X60003333Y-74571428D02*
X60050952Y-74666666D01*
X60289047Y-75000000D02*
X60289047Y-75380952D01*
X60622380Y-75142857D02*
X59765238Y-75142857D01*
X59765238Y-75142857D02*
X59670000Y-75190476D01*
X59670000Y-75190476D02*
X59622380Y-75285714D01*
X59622380Y-75285714D02*
X59622380Y-75380952D01*
X60289047Y-75571429D02*
X60289047Y-75952381D01*
X60622380Y-75714286D02*
X59765238Y-75714286D01*
X59765238Y-75714286D02*
X59670000Y-75761905D01*
X59670000Y-75761905D02*
X59622380Y-75857143D01*
X59622380Y-75857143D02*
X59622380Y-75952381D01*
D11*
X82271428Y-97898000D02*
X82100000Y-97840857D01*
X82100000Y-97840857D02*
X81814285Y-97840857D01*
X81814285Y-97840857D02*
X81700000Y-97898000D01*
X81700000Y-97898000D02*
X81642857Y-97955142D01*
X81642857Y-97955142D02*
X81585714Y-98069428D01*
X81585714Y-98069428D02*
X81585714Y-98183714D01*
X81585714Y-98183714D02*
X81642857Y-98298000D01*
X81642857Y-98298000D02*
X81700000Y-98355142D01*
X81700000Y-98355142D02*
X81814285Y-98412285D01*
X81814285Y-98412285D02*
X82042857Y-98469428D01*
X82042857Y-98469428D02*
X82157142Y-98526571D01*
X82157142Y-98526571D02*
X82214285Y-98583714D01*
X82214285Y-98583714D02*
X82271428Y-98698000D01*
X82271428Y-98698000D02*
X82271428Y-98812285D01*
X82271428Y-98812285D02*
X82214285Y-98926571D01*
X82214285Y-98926571D02*
X82157142Y-98983714D01*
X82157142Y-98983714D02*
X82042857Y-99040857D01*
X82042857Y-99040857D02*
X81757142Y-99040857D01*
X81757142Y-99040857D02*
X81585714Y-98983714D01*
X80614285Y-97898000D02*
X80728571Y-97840857D01*
X80728571Y-97840857D02*
X80957143Y-97840857D01*
X80957143Y-97840857D02*
X81071428Y-97898000D01*
X81071428Y-97898000D02*
X81128571Y-98012285D01*
X81128571Y-98012285D02*
X81128571Y-98469428D01*
X81128571Y-98469428D02*
X81071428Y-98583714D01*
X81071428Y-98583714D02*
X80957143Y-98640857D01*
X80957143Y-98640857D02*
X80728571Y-98640857D01*
X80728571Y-98640857D02*
X80614285Y-98583714D01*
X80614285Y-98583714D02*
X80557143Y-98469428D01*
X80557143Y-98469428D02*
X80557143Y-98355142D01*
X80557143Y-98355142D02*
X81128571Y-98240857D01*
X80042857Y-98640857D02*
X80042857Y-97840857D01*
X80042857Y-98526571D02*
X79985714Y-98583714D01*
X79985714Y-98583714D02*
X79871429Y-98640857D01*
X79871429Y-98640857D02*
X79700000Y-98640857D01*
X79700000Y-98640857D02*
X79585714Y-98583714D01*
X79585714Y-98583714D02*
X79528572Y-98469428D01*
X79528572Y-98469428D02*
X79528572Y-97840857D01*
X79014286Y-97898000D02*
X78900000Y-97840857D01*
X78900000Y-97840857D02*
X78671429Y-97840857D01*
X78671429Y-97840857D02*
X78557143Y-97898000D01*
X78557143Y-97898000D02*
X78500000Y-98012285D01*
X78500000Y-98012285D02*
X78500000Y-98069428D01*
X78500000Y-98069428D02*
X78557143Y-98183714D01*
X78557143Y-98183714D02*
X78671429Y-98240857D01*
X78671429Y-98240857D02*
X78842858Y-98240857D01*
X78842858Y-98240857D02*
X78957143Y-98298000D01*
X78957143Y-98298000D02*
X79014286Y-98412285D01*
X79014286Y-98412285D02*
X79014286Y-98469428D01*
X79014286Y-98469428D02*
X78957143Y-98583714D01*
X78957143Y-98583714D02*
X78842858Y-98640857D01*
X78842858Y-98640857D02*
X78671429Y-98640857D01*
X78671429Y-98640857D02*
X78557143Y-98583714D01*
X77814286Y-97840857D02*
X77928571Y-97898000D01*
X77928571Y-97898000D02*
X77985714Y-97955142D01*
X77985714Y-97955142D02*
X78042857Y-98069428D01*
X78042857Y-98069428D02*
X78042857Y-98412285D01*
X78042857Y-98412285D02*
X77985714Y-98526571D01*
X77985714Y-98526571D02*
X77928571Y-98583714D01*
X77928571Y-98583714D02*
X77814286Y-98640857D01*
X77814286Y-98640857D02*
X77642857Y-98640857D01*
X77642857Y-98640857D02*
X77528571Y-98583714D01*
X77528571Y-98583714D02*
X77471429Y-98526571D01*
X77471429Y-98526571D02*
X77414286Y-98412285D01*
X77414286Y-98412285D02*
X77414286Y-98069428D01*
X77414286Y-98069428D02*
X77471429Y-97955142D01*
X77471429Y-97955142D02*
X77528571Y-97898000D01*
X77528571Y-97898000D02*
X77642857Y-97840857D01*
X77642857Y-97840857D02*
X77814286Y-97840857D01*
X76900000Y-97840857D02*
X76900000Y-98640857D01*
X76900000Y-98412285D02*
X76842857Y-98526571D01*
X76842857Y-98526571D02*
X76785715Y-98583714D01*
X76785715Y-98583714D02*
X76671429Y-98640857D01*
X76671429Y-98640857D02*
X76557143Y-98640857D01*
X75928572Y-99040857D02*
X75814286Y-99040857D01*
X75814286Y-99040857D02*
X75700000Y-98983714D01*
X75700000Y-98983714D02*
X75642858Y-98926571D01*
X75642858Y-98926571D02*
X75585715Y-98812285D01*
X75585715Y-98812285D02*
X75528572Y-98583714D01*
X75528572Y-98583714D02*
X75528572Y-98298000D01*
X75528572Y-98298000D02*
X75585715Y-98069428D01*
X75585715Y-98069428D02*
X75642858Y-97955142D01*
X75642858Y-97955142D02*
X75700000Y-97898000D01*
X75700000Y-97898000D02*
X75814286Y-97840857D01*
X75814286Y-97840857D02*
X75928572Y-97840857D01*
X75928572Y-97840857D02*
X76042858Y-97898000D01*
X76042858Y-97898000D02*
X76100000Y-97955142D01*
X76100000Y-97955142D02*
X76157143Y-98069428D01*
X76157143Y-98069428D02*
X76214286Y-98298000D01*
X76214286Y-98298000D02*
X76214286Y-98583714D01*
X76214286Y-98583714D02*
X76157143Y-98812285D01*
X76157143Y-98812285D02*
X76100000Y-98926571D01*
X76100000Y-98926571D02*
X76042858Y-98983714D01*
X76042858Y-98983714D02*
X75928572Y-99040857D01*
X82271428Y-96239714D02*
X81700000Y-96239714D01*
X82385714Y-95896857D02*
X81985714Y-97096857D01*
X81985714Y-97096857D02*
X81585714Y-95896857D01*
X80671429Y-95896857D02*
X80671429Y-97096857D01*
X80671429Y-95954000D02*
X80785714Y-95896857D01*
X80785714Y-95896857D02*
X81014286Y-95896857D01*
X81014286Y-95896857D02*
X81128571Y-95954000D01*
X81128571Y-95954000D02*
X81185714Y-96011142D01*
X81185714Y-96011142D02*
X81242857Y-96125428D01*
X81242857Y-96125428D02*
X81242857Y-96468285D01*
X81242857Y-96468285D02*
X81185714Y-96582571D01*
X81185714Y-96582571D02*
X81128571Y-96639714D01*
X81128571Y-96639714D02*
X81014286Y-96696857D01*
X81014286Y-96696857D02*
X80785714Y-96696857D01*
X80785714Y-96696857D02*
X80671429Y-96639714D01*
X79585715Y-95896857D02*
X79585715Y-97096857D01*
X79585715Y-95954000D02*
X79700000Y-95896857D01*
X79700000Y-95896857D02*
X79928572Y-95896857D01*
X79928572Y-95896857D02*
X80042857Y-95954000D01*
X80042857Y-95954000D02*
X80100000Y-96011142D01*
X80100000Y-96011142D02*
X80157143Y-96125428D01*
X80157143Y-96125428D02*
X80157143Y-96468285D01*
X80157143Y-96468285D02*
X80100000Y-96582571D01*
X80100000Y-96582571D02*
X80042857Y-96639714D01*
X80042857Y-96639714D02*
X79928572Y-96696857D01*
X79928572Y-96696857D02*
X79700000Y-96696857D01*
X79700000Y-96696857D02*
X79585715Y-96639714D01*
X79014286Y-95896857D02*
X79014286Y-96696857D01*
X79014286Y-96468285D02*
X78957143Y-96582571D01*
X78957143Y-96582571D02*
X78900001Y-96639714D01*
X78900001Y-96639714D02*
X78785715Y-96696857D01*
X78785715Y-96696857D02*
X78671429Y-96696857D01*
X77814286Y-95954000D02*
X77928572Y-95896857D01*
X77928572Y-95896857D02*
X78157144Y-95896857D01*
X78157144Y-95896857D02*
X78271429Y-95954000D01*
X78271429Y-95954000D02*
X78328572Y-96068285D01*
X78328572Y-96068285D02*
X78328572Y-96525428D01*
X78328572Y-96525428D02*
X78271429Y-96639714D01*
X78271429Y-96639714D02*
X78157144Y-96696857D01*
X78157144Y-96696857D02*
X77928572Y-96696857D01*
X77928572Y-96696857D02*
X77814286Y-96639714D01*
X77814286Y-96639714D02*
X77757144Y-96525428D01*
X77757144Y-96525428D02*
X77757144Y-96411142D01*
X77757144Y-96411142D02*
X78328572Y-96296857D01*
X77300001Y-95954000D02*
X77185715Y-95896857D01*
X77185715Y-95896857D02*
X76957144Y-95896857D01*
X76957144Y-95896857D02*
X76842858Y-95954000D01*
X76842858Y-95954000D02*
X76785715Y-96068285D01*
X76785715Y-96068285D02*
X76785715Y-96125428D01*
X76785715Y-96125428D02*
X76842858Y-96239714D01*
X76842858Y-96239714D02*
X76957144Y-96296857D01*
X76957144Y-96296857D02*
X77128573Y-96296857D01*
X77128573Y-96296857D02*
X77242858Y-96354000D01*
X77242858Y-96354000D02*
X77300001Y-96468285D01*
X77300001Y-96468285D02*
X77300001Y-96525428D01*
X77300001Y-96525428D02*
X77242858Y-96639714D01*
X77242858Y-96639714D02*
X77128573Y-96696857D01*
X77128573Y-96696857D02*
X76957144Y-96696857D01*
X76957144Y-96696857D02*
X76842858Y-96639714D01*
X76328572Y-95954000D02*
X76214286Y-95896857D01*
X76214286Y-95896857D02*
X75985715Y-95896857D01*
X75985715Y-95896857D02*
X75871429Y-95954000D01*
X75871429Y-95954000D02*
X75814286Y-96068285D01*
X75814286Y-96068285D02*
X75814286Y-96125428D01*
X75814286Y-96125428D02*
X75871429Y-96239714D01*
X75871429Y-96239714D02*
X75985715Y-96296857D01*
X75985715Y-96296857D02*
X76157144Y-96296857D01*
X76157144Y-96296857D02*
X76271429Y-96354000D01*
X76271429Y-96354000D02*
X76328572Y-96468285D01*
X76328572Y-96468285D02*
X76328572Y-96525428D01*
X76328572Y-96525428D02*
X76271429Y-96639714D01*
X76271429Y-96639714D02*
X76157144Y-96696857D01*
X76157144Y-96696857D02*
X75985715Y-96696857D01*
X75985715Y-96696857D02*
X75871429Y-96639714D01*
D10*
X68428571Y-94016190D02*
X68285714Y-93968571D01*
X68285714Y-93968571D02*
X68238095Y-93920952D01*
X68238095Y-93920952D02*
X68190476Y-93825714D01*
X68190476Y-93825714D02*
X68190476Y-93682857D01*
X68190476Y-93682857D02*
X68238095Y-93587619D01*
X68238095Y-93587619D02*
X68285714Y-93540000D01*
X68285714Y-93540000D02*
X68380952Y-93492380D01*
X68380952Y-93492380D02*
X68761904Y-93492380D01*
X68761904Y-93492380D02*
X68761904Y-94492380D01*
X68761904Y-94492380D02*
X68428571Y-94492380D01*
X68428571Y-94492380D02*
X68333333Y-94444761D01*
X68333333Y-94444761D02*
X68285714Y-94397142D01*
X68285714Y-94397142D02*
X68238095Y-94301904D01*
X68238095Y-94301904D02*
X68238095Y-94206666D01*
X68238095Y-94206666D02*
X68285714Y-94111428D01*
X68285714Y-94111428D02*
X68333333Y-94063809D01*
X68333333Y-94063809D02*
X68428571Y-94016190D01*
X68428571Y-94016190D02*
X68761904Y-94016190D01*
X67333333Y-93492380D02*
X67333333Y-94016190D01*
X67333333Y-94016190D02*
X67380952Y-94111428D01*
X67380952Y-94111428D02*
X67476190Y-94159047D01*
X67476190Y-94159047D02*
X67666666Y-94159047D01*
X67666666Y-94159047D02*
X67761904Y-94111428D01*
X67333333Y-93540000D02*
X67428571Y-93492380D01*
X67428571Y-93492380D02*
X67666666Y-93492380D01*
X67666666Y-93492380D02*
X67761904Y-93540000D01*
X67761904Y-93540000D02*
X67809523Y-93635238D01*
X67809523Y-93635238D02*
X67809523Y-93730476D01*
X67809523Y-93730476D02*
X67761904Y-93825714D01*
X67761904Y-93825714D02*
X67666666Y-93873333D01*
X67666666Y-93873333D02*
X67428571Y-93873333D01*
X67428571Y-93873333D02*
X67333333Y-93920952D01*
X66999999Y-94159047D02*
X66619047Y-94159047D01*
X66857142Y-94492380D02*
X66857142Y-93635238D01*
X66857142Y-93635238D02*
X66809523Y-93540000D01*
X66809523Y-93540000D02*
X66714285Y-93492380D01*
X66714285Y-93492380D02*
X66619047Y-93492380D01*
X66428570Y-94159047D02*
X66047618Y-94159047D01*
X66285713Y-94492380D02*
X66285713Y-93635238D01*
X66285713Y-93635238D02*
X66238094Y-93540000D01*
X66238094Y-93540000D02*
X66142856Y-93492380D01*
X66142856Y-93492380D02*
X66047618Y-93492380D01*
X65333332Y-93540000D02*
X65428570Y-93492380D01*
X65428570Y-93492380D02*
X65619046Y-93492380D01*
X65619046Y-93492380D02*
X65714284Y-93540000D01*
X65714284Y-93540000D02*
X65761903Y-93635238D01*
X65761903Y-93635238D02*
X65761903Y-94016190D01*
X65761903Y-94016190D02*
X65714284Y-94111428D01*
X65714284Y-94111428D02*
X65619046Y-94159047D01*
X65619046Y-94159047D02*
X65428570Y-94159047D01*
X65428570Y-94159047D02*
X65333332Y-94111428D01*
X65333332Y-94111428D02*
X65285713Y-94016190D01*
X65285713Y-94016190D02*
X65285713Y-93920952D01*
X65285713Y-93920952D02*
X65761903Y-93825714D01*
X64857141Y-93492380D02*
X64857141Y-94159047D01*
X64857141Y-93968571D02*
X64809522Y-94063809D01*
X64809522Y-94063809D02*
X64761903Y-94111428D01*
X64761903Y-94111428D02*
X64666665Y-94159047D01*
X64666665Y-94159047D02*
X64571427Y-94159047D01*
X64333331Y-94159047D02*
X64095236Y-93492380D01*
X63857141Y-94159047D02*
X64095236Y-93492380D01*
X64095236Y-93492380D02*
X64190474Y-93254285D01*
X64190474Y-93254285D02*
X64238093Y-93206666D01*
X64238093Y-93206666D02*
X64333331Y-93159047D01*
X68761904Y-91872380D02*
X68761904Y-92872380D01*
X68761904Y-92872380D02*
X68428571Y-92158095D01*
X68428571Y-92158095D02*
X68095238Y-92872380D01*
X68095238Y-92872380D02*
X68095238Y-91872380D01*
X67476190Y-91872380D02*
X67571428Y-91920000D01*
X67571428Y-91920000D02*
X67619047Y-91967619D01*
X67619047Y-91967619D02*
X67666666Y-92062857D01*
X67666666Y-92062857D02*
X67666666Y-92348571D01*
X67666666Y-92348571D02*
X67619047Y-92443809D01*
X67619047Y-92443809D02*
X67571428Y-92491428D01*
X67571428Y-92491428D02*
X67476190Y-92539047D01*
X67476190Y-92539047D02*
X67333333Y-92539047D01*
X67333333Y-92539047D02*
X67238095Y-92491428D01*
X67238095Y-92491428D02*
X67190476Y-92443809D01*
X67190476Y-92443809D02*
X67142857Y-92348571D01*
X67142857Y-92348571D02*
X67142857Y-92062857D01*
X67142857Y-92062857D02*
X67190476Y-91967619D01*
X67190476Y-91967619D02*
X67238095Y-91920000D01*
X67238095Y-91920000D02*
X67333333Y-91872380D01*
X67333333Y-91872380D02*
X67476190Y-91872380D01*
X66285714Y-91872380D02*
X66285714Y-92872380D01*
X66285714Y-91920000D02*
X66380952Y-91872380D01*
X66380952Y-91872380D02*
X66571428Y-91872380D01*
X66571428Y-91872380D02*
X66666666Y-91920000D01*
X66666666Y-91920000D02*
X66714285Y-91967619D01*
X66714285Y-91967619D02*
X66761904Y-92062857D01*
X66761904Y-92062857D02*
X66761904Y-92348571D01*
X66761904Y-92348571D02*
X66714285Y-92443809D01*
X66714285Y-92443809D02*
X66666666Y-92491428D01*
X66666666Y-92491428D02*
X66571428Y-92539047D01*
X66571428Y-92539047D02*
X66380952Y-92539047D01*
X66380952Y-92539047D02*
X66285714Y-92491428D01*
X65428571Y-91920000D02*
X65523809Y-91872380D01*
X65523809Y-91872380D02*
X65714285Y-91872380D01*
X65714285Y-91872380D02*
X65809523Y-91920000D01*
X65809523Y-91920000D02*
X65857142Y-92015238D01*
X65857142Y-92015238D02*
X65857142Y-92396190D01*
X65857142Y-92396190D02*
X65809523Y-92491428D01*
X65809523Y-92491428D02*
X65714285Y-92539047D01*
X65714285Y-92539047D02*
X65523809Y-92539047D01*
X65523809Y-92539047D02*
X65428571Y-92491428D01*
X65428571Y-92491428D02*
X65380952Y-92396190D01*
X65380952Y-92396190D02*
X65380952Y-92300952D01*
X65380952Y-92300952D02*
X65857142Y-92205714D01*
D11*
X56214285Y-103354000D02*
X55300000Y-103354000D01*
X80271428Y-87398000D02*
X80100000Y-87340857D01*
X80100000Y-87340857D02*
X79814285Y-87340857D01*
X79814285Y-87340857D02*
X79700000Y-87398000D01*
X79700000Y-87398000D02*
X79642857Y-87455142D01*
X79642857Y-87455142D02*
X79585714Y-87569428D01*
X79585714Y-87569428D02*
X79585714Y-87683714D01*
X79585714Y-87683714D02*
X79642857Y-87798000D01*
X79642857Y-87798000D02*
X79700000Y-87855142D01*
X79700000Y-87855142D02*
X79814285Y-87912285D01*
X79814285Y-87912285D02*
X80042857Y-87969428D01*
X80042857Y-87969428D02*
X80157142Y-88026571D01*
X80157142Y-88026571D02*
X80214285Y-88083714D01*
X80214285Y-88083714D02*
X80271428Y-88198000D01*
X80271428Y-88198000D02*
X80271428Y-88312285D01*
X80271428Y-88312285D02*
X80214285Y-88426571D01*
X80214285Y-88426571D02*
X80157142Y-88483714D01*
X80157142Y-88483714D02*
X80042857Y-88540857D01*
X80042857Y-88540857D02*
X79757142Y-88540857D01*
X79757142Y-88540857D02*
X79585714Y-88483714D01*
X78614285Y-87398000D02*
X78728571Y-87340857D01*
X78728571Y-87340857D02*
X78957143Y-87340857D01*
X78957143Y-87340857D02*
X79071428Y-87398000D01*
X79071428Y-87398000D02*
X79128571Y-87512285D01*
X79128571Y-87512285D02*
X79128571Y-87969428D01*
X79128571Y-87969428D02*
X79071428Y-88083714D01*
X79071428Y-88083714D02*
X78957143Y-88140857D01*
X78957143Y-88140857D02*
X78728571Y-88140857D01*
X78728571Y-88140857D02*
X78614285Y-88083714D01*
X78614285Y-88083714D02*
X78557143Y-87969428D01*
X78557143Y-87969428D02*
X78557143Y-87855142D01*
X78557143Y-87855142D02*
X79128571Y-87740857D01*
X78042857Y-88140857D02*
X78042857Y-87340857D01*
X78042857Y-88026571D02*
X77985714Y-88083714D01*
X77985714Y-88083714D02*
X77871429Y-88140857D01*
X77871429Y-88140857D02*
X77700000Y-88140857D01*
X77700000Y-88140857D02*
X77585714Y-88083714D01*
X77585714Y-88083714D02*
X77528572Y-87969428D01*
X77528572Y-87969428D02*
X77528572Y-87340857D01*
X77014286Y-87398000D02*
X76900000Y-87340857D01*
X76900000Y-87340857D02*
X76671429Y-87340857D01*
X76671429Y-87340857D02*
X76557143Y-87398000D01*
X76557143Y-87398000D02*
X76500000Y-87512285D01*
X76500000Y-87512285D02*
X76500000Y-87569428D01*
X76500000Y-87569428D02*
X76557143Y-87683714D01*
X76557143Y-87683714D02*
X76671429Y-87740857D01*
X76671429Y-87740857D02*
X76842858Y-87740857D01*
X76842858Y-87740857D02*
X76957143Y-87798000D01*
X76957143Y-87798000D02*
X77014286Y-87912285D01*
X77014286Y-87912285D02*
X77014286Y-87969428D01*
X77014286Y-87969428D02*
X76957143Y-88083714D01*
X76957143Y-88083714D02*
X76842858Y-88140857D01*
X76842858Y-88140857D02*
X76671429Y-88140857D01*
X76671429Y-88140857D02*
X76557143Y-88083714D01*
X75814286Y-87340857D02*
X75928571Y-87398000D01*
X75928571Y-87398000D02*
X75985714Y-87455142D01*
X75985714Y-87455142D02*
X76042857Y-87569428D01*
X76042857Y-87569428D02*
X76042857Y-87912285D01*
X76042857Y-87912285D02*
X75985714Y-88026571D01*
X75985714Y-88026571D02*
X75928571Y-88083714D01*
X75928571Y-88083714D02*
X75814286Y-88140857D01*
X75814286Y-88140857D02*
X75642857Y-88140857D01*
X75642857Y-88140857D02*
X75528571Y-88083714D01*
X75528571Y-88083714D02*
X75471429Y-88026571D01*
X75471429Y-88026571D02*
X75414286Y-87912285D01*
X75414286Y-87912285D02*
X75414286Y-87569428D01*
X75414286Y-87569428D02*
X75471429Y-87455142D01*
X75471429Y-87455142D02*
X75528571Y-87398000D01*
X75528571Y-87398000D02*
X75642857Y-87340857D01*
X75642857Y-87340857D02*
X75814286Y-87340857D01*
X74900000Y-87340857D02*
X74900000Y-88140857D01*
X74900000Y-87912285D02*
X74842857Y-88026571D01*
X74842857Y-88026571D02*
X74785715Y-88083714D01*
X74785715Y-88083714D02*
X74671429Y-88140857D01*
X74671429Y-88140857D02*
X74557143Y-88140857D01*
X73528572Y-87340857D02*
X74214286Y-87340857D01*
X73871429Y-87340857D02*
X73871429Y-88540857D01*
X73871429Y-88540857D02*
X73985715Y-88369428D01*
X73985715Y-88369428D02*
X74100000Y-88255142D01*
X74100000Y-88255142D02*
X74214286Y-88198000D01*
X80271428Y-85739714D02*
X79700000Y-85739714D01*
X80385714Y-85396857D02*
X79985714Y-86596857D01*
X79985714Y-86596857D02*
X79585714Y-85396857D01*
X78671429Y-85396857D02*
X78671429Y-86596857D01*
X78671429Y-85454000D02*
X78785714Y-85396857D01*
X78785714Y-85396857D02*
X79014286Y-85396857D01*
X79014286Y-85396857D02*
X79128571Y-85454000D01*
X79128571Y-85454000D02*
X79185714Y-85511142D01*
X79185714Y-85511142D02*
X79242857Y-85625428D01*
X79242857Y-85625428D02*
X79242857Y-85968285D01*
X79242857Y-85968285D02*
X79185714Y-86082571D01*
X79185714Y-86082571D02*
X79128571Y-86139714D01*
X79128571Y-86139714D02*
X79014286Y-86196857D01*
X79014286Y-86196857D02*
X78785714Y-86196857D01*
X78785714Y-86196857D02*
X78671429Y-86139714D01*
X77585715Y-85396857D02*
X77585715Y-86596857D01*
X77585715Y-85454000D02*
X77700000Y-85396857D01*
X77700000Y-85396857D02*
X77928572Y-85396857D01*
X77928572Y-85396857D02*
X78042857Y-85454000D01*
X78042857Y-85454000D02*
X78100000Y-85511142D01*
X78100000Y-85511142D02*
X78157143Y-85625428D01*
X78157143Y-85625428D02*
X78157143Y-85968285D01*
X78157143Y-85968285D02*
X78100000Y-86082571D01*
X78100000Y-86082571D02*
X78042857Y-86139714D01*
X78042857Y-86139714D02*
X77928572Y-86196857D01*
X77928572Y-86196857D02*
X77700000Y-86196857D01*
X77700000Y-86196857D02*
X77585715Y-86139714D01*
X77014286Y-85396857D02*
X77014286Y-86196857D01*
X77014286Y-85968285D02*
X76957143Y-86082571D01*
X76957143Y-86082571D02*
X76900001Y-86139714D01*
X76900001Y-86139714D02*
X76785715Y-86196857D01*
X76785715Y-86196857D02*
X76671429Y-86196857D01*
X75814286Y-85454000D02*
X75928572Y-85396857D01*
X75928572Y-85396857D02*
X76157144Y-85396857D01*
X76157144Y-85396857D02*
X76271429Y-85454000D01*
X76271429Y-85454000D02*
X76328572Y-85568285D01*
X76328572Y-85568285D02*
X76328572Y-86025428D01*
X76328572Y-86025428D02*
X76271429Y-86139714D01*
X76271429Y-86139714D02*
X76157144Y-86196857D01*
X76157144Y-86196857D02*
X75928572Y-86196857D01*
X75928572Y-86196857D02*
X75814286Y-86139714D01*
X75814286Y-86139714D02*
X75757144Y-86025428D01*
X75757144Y-86025428D02*
X75757144Y-85911142D01*
X75757144Y-85911142D02*
X76328572Y-85796857D01*
X75300001Y-85454000D02*
X75185715Y-85396857D01*
X75185715Y-85396857D02*
X74957144Y-85396857D01*
X74957144Y-85396857D02*
X74842858Y-85454000D01*
X74842858Y-85454000D02*
X74785715Y-85568285D01*
X74785715Y-85568285D02*
X74785715Y-85625428D01*
X74785715Y-85625428D02*
X74842858Y-85739714D01*
X74842858Y-85739714D02*
X74957144Y-85796857D01*
X74957144Y-85796857D02*
X75128573Y-85796857D01*
X75128573Y-85796857D02*
X75242858Y-85854000D01*
X75242858Y-85854000D02*
X75300001Y-85968285D01*
X75300001Y-85968285D02*
X75300001Y-86025428D01*
X75300001Y-86025428D02*
X75242858Y-86139714D01*
X75242858Y-86139714D02*
X75128573Y-86196857D01*
X75128573Y-86196857D02*
X74957144Y-86196857D01*
X74957144Y-86196857D02*
X74842858Y-86139714D01*
X74328572Y-85454000D02*
X74214286Y-85396857D01*
X74214286Y-85396857D02*
X73985715Y-85396857D01*
X73985715Y-85396857D02*
X73871429Y-85454000D01*
X73871429Y-85454000D02*
X73814286Y-85568285D01*
X73814286Y-85568285D02*
X73814286Y-85625428D01*
X73814286Y-85625428D02*
X73871429Y-85739714D01*
X73871429Y-85739714D02*
X73985715Y-85796857D01*
X73985715Y-85796857D02*
X74157144Y-85796857D01*
X74157144Y-85796857D02*
X74271429Y-85854000D01*
X74271429Y-85854000D02*
X74328572Y-85968285D01*
X74328572Y-85968285D02*
X74328572Y-86025428D01*
X74328572Y-86025428D02*
X74271429Y-86139714D01*
X74271429Y-86139714D02*
X74157144Y-86196857D01*
X74157144Y-86196857D02*
X73985715Y-86196857D01*
X73985715Y-86196857D02*
X73871429Y-86139714D01*
X56214285Y-100854000D02*
X55300000Y-100854000D01*
X55757142Y-100396857D02*
X55757142Y-101311142D01*
X62670000Y-88190476D02*
X62622380Y-88333333D01*
X62622380Y-88333333D02*
X62622380Y-88571428D01*
X62622380Y-88571428D02*
X62670000Y-88666666D01*
X62670000Y-88666666D02*
X62717619Y-88714285D01*
X62717619Y-88714285D02*
X62812857Y-88761904D01*
X62812857Y-88761904D02*
X62908095Y-88761904D01*
X62908095Y-88761904D02*
X63003333Y-88714285D01*
X63003333Y-88714285D02*
X63050952Y-88666666D01*
X63050952Y-88666666D02*
X63098571Y-88571428D01*
X63098571Y-88571428D02*
X63146190Y-88380952D01*
X63146190Y-88380952D02*
X63193809Y-88285714D01*
X63193809Y-88285714D02*
X63241428Y-88238095D01*
X63241428Y-88238095D02*
X63336666Y-88190476D01*
X63336666Y-88190476D02*
X63431904Y-88190476D01*
X63431904Y-88190476D02*
X63527142Y-88238095D01*
X63527142Y-88238095D02*
X63574761Y-88285714D01*
X63574761Y-88285714D02*
X63622380Y-88380952D01*
X63622380Y-88380952D02*
X63622380Y-88619047D01*
X63622380Y-88619047D02*
X63574761Y-88761904D01*
X62622380Y-89190476D02*
X63622380Y-89190476D01*
X63622380Y-89190476D02*
X63622380Y-89428571D01*
X63622380Y-89428571D02*
X63574761Y-89571428D01*
X63574761Y-89571428D02*
X63479523Y-89666666D01*
X63479523Y-89666666D02*
X63384285Y-89714285D01*
X63384285Y-89714285D02*
X63193809Y-89761904D01*
X63193809Y-89761904D02*
X63050952Y-89761904D01*
X63050952Y-89761904D02*
X62860476Y-89714285D01*
X62860476Y-89714285D02*
X62765238Y-89666666D01*
X62765238Y-89666666D02*
X62670000Y-89571428D01*
X62670000Y-89571428D02*
X62622380Y-89428571D01*
X62622380Y-89428571D02*
X62622380Y-89190476D01*
X62908095Y-90142857D02*
X62908095Y-90619047D01*
X62622380Y-90047619D02*
X63622380Y-90380952D01*
X63622380Y-90380952D02*
X62622380Y-90714285D01*
X60170000Y-88190476D02*
X60122380Y-88333333D01*
X60122380Y-88333333D02*
X60122380Y-88571428D01*
X60122380Y-88571428D02*
X60170000Y-88666666D01*
X60170000Y-88666666D02*
X60217619Y-88714285D01*
X60217619Y-88714285D02*
X60312857Y-88761904D01*
X60312857Y-88761904D02*
X60408095Y-88761904D01*
X60408095Y-88761904D02*
X60503333Y-88714285D01*
X60503333Y-88714285D02*
X60550952Y-88666666D01*
X60550952Y-88666666D02*
X60598571Y-88571428D01*
X60598571Y-88571428D02*
X60646190Y-88380952D01*
X60646190Y-88380952D02*
X60693809Y-88285714D01*
X60693809Y-88285714D02*
X60741428Y-88238095D01*
X60741428Y-88238095D02*
X60836666Y-88190476D01*
X60836666Y-88190476D02*
X60931904Y-88190476D01*
X60931904Y-88190476D02*
X61027142Y-88238095D01*
X61027142Y-88238095D02*
X61074761Y-88285714D01*
X61074761Y-88285714D02*
X61122380Y-88380952D01*
X61122380Y-88380952D02*
X61122380Y-88619047D01*
X61122380Y-88619047D02*
X61074761Y-88761904D01*
X60217619Y-89761904D02*
X60170000Y-89714285D01*
X60170000Y-89714285D02*
X60122380Y-89571428D01*
X60122380Y-89571428D02*
X60122380Y-89476190D01*
X60122380Y-89476190D02*
X60170000Y-89333333D01*
X60170000Y-89333333D02*
X60265238Y-89238095D01*
X60265238Y-89238095D02*
X60360476Y-89190476D01*
X60360476Y-89190476D02*
X60550952Y-89142857D01*
X60550952Y-89142857D02*
X60693809Y-89142857D01*
X60693809Y-89142857D02*
X60884285Y-89190476D01*
X60884285Y-89190476D02*
X60979523Y-89238095D01*
X60979523Y-89238095D02*
X61074761Y-89333333D01*
X61074761Y-89333333D02*
X61122380Y-89476190D01*
X61122380Y-89476190D02*
X61122380Y-89571428D01*
X61122380Y-89571428D02*
X61074761Y-89714285D01*
X61074761Y-89714285D02*
X61027142Y-89761904D01*
X60122380Y-90666666D02*
X60122380Y-90190476D01*
X60122380Y-90190476D02*
X61122380Y-90190476D01*
D10*
X60146190Y-100821428D02*
X60098571Y-100964285D01*
X60098571Y-100964285D02*
X60050952Y-101011904D01*
X60050952Y-101011904D02*
X59955714Y-101059523D01*
X59955714Y-101059523D02*
X59812857Y-101059523D01*
X59812857Y-101059523D02*
X59717619Y-101011904D01*
X59717619Y-101011904D02*
X59670000Y-100964285D01*
X59670000Y-100964285D02*
X59622380Y-100869047D01*
X59622380Y-100869047D02*
X59622380Y-100488095D01*
X59622380Y-100488095D02*
X60622380Y-100488095D01*
X60622380Y-100488095D02*
X60622380Y-100821428D01*
X60622380Y-100821428D02*
X60574761Y-100916666D01*
X60574761Y-100916666D02*
X60527142Y-100964285D01*
X60527142Y-100964285D02*
X60431904Y-101011904D01*
X60431904Y-101011904D02*
X60336666Y-101011904D01*
X60336666Y-101011904D02*
X60241428Y-100964285D01*
X60241428Y-100964285D02*
X60193809Y-100916666D01*
X60193809Y-100916666D02*
X60146190Y-100821428D01*
X60146190Y-100821428D02*
X60146190Y-100488095D01*
X59622380Y-101916666D02*
X60146190Y-101916666D01*
X60146190Y-101916666D02*
X60241428Y-101869047D01*
X60241428Y-101869047D02*
X60289047Y-101773809D01*
X60289047Y-101773809D02*
X60289047Y-101583333D01*
X60289047Y-101583333D02*
X60241428Y-101488095D01*
X59670000Y-101916666D02*
X59622380Y-101821428D01*
X59622380Y-101821428D02*
X59622380Y-101583333D01*
X59622380Y-101583333D02*
X59670000Y-101488095D01*
X59670000Y-101488095D02*
X59765238Y-101440476D01*
X59765238Y-101440476D02*
X59860476Y-101440476D01*
X59860476Y-101440476D02*
X59955714Y-101488095D01*
X59955714Y-101488095D02*
X60003333Y-101583333D01*
X60003333Y-101583333D02*
X60003333Y-101821428D01*
X60003333Y-101821428D02*
X60050952Y-101916666D01*
X60289047Y-102250000D02*
X60289047Y-102630952D01*
X60622380Y-102392857D02*
X59765238Y-102392857D01*
X59765238Y-102392857D02*
X59670000Y-102440476D01*
X59670000Y-102440476D02*
X59622380Y-102535714D01*
X59622380Y-102535714D02*
X59622380Y-102630952D01*
X60289047Y-102821429D02*
X60289047Y-103202381D01*
X60622380Y-102964286D02*
X59765238Y-102964286D01*
X59765238Y-102964286D02*
X59670000Y-103011905D01*
X59670000Y-103011905D02*
X59622380Y-103107143D01*
X59622380Y-103107143D02*
X59622380Y-103202381D01*
X70000000Y-89750000D02*
X70000000Y-85250000D01*
X83000000Y-95250000D02*
X74500000Y-95250000D01*
X74500000Y-104250000D02*
X82500000Y-104250000D01*
X74500000Y-95250000D02*
X74500000Y-104250000D01*
X81000000Y-89750000D02*
X81000000Y-84750000D01*
X59000000Y-104750000D02*
X54500000Y-104750000D01*
X54500000Y-99250000D01*
X59000000Y-99250000D01*
X59000000Y-104750000D01*
X69500000Y-103750000D02*
G75*
G03*
X69500000Y-103750000I-500000J0D01*
G01*
X76000000Y-89750000D02*
X70000000Y-89750000D01*
X81000000Y-84750000D02*
X74500000Y-84750000D01*
X69500000Y-97250000D02*
X63500000Y-97250000D01*
X63500000Y-91250000D01*
X69500000Y-91250000D01*
X69500000Y-97250000D01*
X83000000Y-99250000D02*
X83000000Y-95250000D01*
X80000000Y-89750000D02*
X81000000Y-89750000D01*
D11*
X98728571Y-93102000D02*
X98900000Y-93159142D01*
X98900000Y-93159142D02*
X99185714Y-93159142D01*
X99185714Y-93159142D02*
X99300000Y-93102000D01*
X99300000Y-93102000D02*
X99357142Y-93044857D01*
X99357142Y-93044857D02*
X99414285Y-92930571D01*
X99414285Y-92930571D02*
X99414285Y-92816285D01*
X99414285Y-92816285D02*
X99357142Y-92702000D01*
X99357142Y-92702000D02*
X99300000Y-92644857D01*
X99300000Y-92644857D02*
X99185714Y-92587714D01*
X99185714Y-92587714D02*
X98957142Y-92530571D01*
X98957142Y-92530571D02*
X98842857Y-92473428D01*
X98842857Y-92473428D02*
X98785714Y-92416285D01*
X98785714Y-92416285D02*
X98728571Y-92302000D01*
X98728571Y-92302000D02*
X98728571Y-92187714D01*
X98728571Y-92187714D02*
X98785714Y-92073428D01*
X98785714Y-92073428D02*
X98842857Y-92016285D01*
X98842857Y-92016285D02*
X98957142Y-91959142D01*
X98957142Y-91959142D02*
X99242857Y-91959142D01*
X99242857Y-91959142D02*
X99414285Y-92016285D01*
X100385714Y-93102000D02*
X100271428Y-93159142D01*
X100271428Y-93159142D02*
X100042857Y-93159142D01*
X100042857Y-93159142D02*
X99928571Y-93102000D01*
X99928571Y-93102000D02*
X99871428Y-92987714D01*
X99871428Y-92987714D02*
X99871428Y-92530571D01*
X99871428Y-92530571D02*
X99928571Y-92416285D01*
X99928571Y-92416285D02*
X100042857Y-92359142D01*
X100042857Y-92359142D02*
X100271428Y-92359142D01*
X100271428Y-92359142D02*
X100385714Y-92416285D01*
X100385714Y-92416285D02*
X100442857Y-92530571D01*
X100442857Y-92530571D02*
X100442857Y-92644857D01*
X100442857Y-92644857D02*
X99871428Y-92759142D01*
X100957142Y-92359142D02*
X100957142Y-93159142D01*
X100957142Y-92473428D02*
X101014285Y-92416285D01*
X101014285Y-92416285D02*
X101128570Y-92359142D01*
X101128570Y-92359142D02*
X101299999Y-92359142D01*
X101299999Y-92359142D02*
X101414285Y-92416285D01*
X101414285Y-92416285D02*
X101471428Y-92530571D01*
X101471428Y-92530571D02*
X101471428Y-93159142D01*
X101985713Y-93102000D02*
X102099999Y-93159142D01*
X102099999Y-93159142D02*
X102328570Y-93159142D01*
X102328570Y-93159142D02*
X102442856Y-93102000D01*
X102442856Y-93102000D02*
X102499999Y-92987714D01*
X102499999Y-92987714D02*
X102499999Y-92930571D01*
X102499999Y-92930571D02*
X102442856Y-92816285D01*
X102442856Y-92816285D02*
X102328570Y-92759142D01*
X102328570Y-92759142D02*
X102157142Y-92759142D01*
X102157142Y-92759142D02*
X102042856Y-92702000D01*
X102042856Y-92702000D02*
X101985713Y-92587714D01*
X101985713Y-92587714D02*
X101985713Y-92530571D01*
X101985713Y-92530571D02*
X102042856Y-92416285D01*
X102042856Y-92416285D02*
X102157142Y-92359142D01*
X102157142Y-92359142D02*
X102328570Y-92359142D01*
X102328570Y-92359142D02*
X102442856Y-92416285D01*
X103185713Y-93159142D02*
X103071428Y-93102000D01*
X103071428Y-93102000D02*
X103014285Y-93044857D01*
X103014285Y-93044857D02*
X102957142Y-92930571D01*
X102957142Y-92930571D02*
X102957142Y-92587714D01*
X102957142Y-92587714D02*
X103014285Y-92473428D01*
X103014285Y-92473428D02*
X103071428Y-92416285D01*
X103071428Y-92416285D02*
X103185713Y-92359142D01*
X103185713Y-92359142D02*
X103357142Y-92359142D01*
X103357142Y-92359142D02*
X103471428Y-92416285D01*
X103471428Y-92416285D02*
X103528571Y-92473428D01*
X103528571Y-92473428D02*
X103585713Y-92587714D01*
X103585713Y-92587714D02*
X103585713Y-92930571D01*
X103585713Y-92930571D02*
X103528571Y-93044857D01*
X103528571Y-93044857D02*
X103471428Y-93102000D01*
X103471428Y-93102000D02*
X103357142Y-93159142D01*
X103357142Y-93159142D02*
X103185713Y-93159142D01*
X104099999Y-93159142D02*
X104099999Y-92359142D01*
X104099999Y-92587714D02*
X104157142Y-92473428D01*
X104157142Y-92473428D02*
X104214285Y-92416285D01*
X104214285Y-92416285D02*
X104328570Y-92359142D01*
X104328570Y-92359142D02*
X104442856Y-92359142D01*
X105071427Y-91959142D02*
X105185713Y-91959142D01*
X105185713Y-91959142D02*
X105299999Y-92016285D01*
X105299999Y-92016285D02*
X105357142Y-92073428D01*
X105357142Y-92073428D02*
X105414284Y-92187714D01*
X105414284Y-92187714D02*
X105471427Y-92416285D01*
X105471427Y-92416285D02*
X105471427Y-92702000D01*
X105471427Y-92702000D02*
X105414284Y-92930571D01*
X105414284Y-92930571D02*
X105357142Y-93044857D01*
X105357142Y-93044857D02*
X105299999Y-93102000D01*
X105299999Y-93102000D02*
X105185713Y-93159142D01*
X105185713Y-93159142D02*
X105071427Y-93159142D01*
X105071427Y-93159142D02*
X104957142Y-93102000D01*
X104957142Y-93102000D02*
X104899999Y-93044857D01*
X104899999Y-93044857D02*
X104842856Y-92930571D01*
X104842856Y-92930571D02*
X104785713Y-92702000D01*
X104785713Y-92702000D02*
X104785713Y-92416285D01*
X104785713Y-92416285D02*
X104842856Y-92187714D01*
X104842856Y-92187714D02*
X104899999Y-92073428D01*
X104899999Y-92073428D02*
X104957142Y-92016285D01*
X104957142Y-92016285D02*
X105071427Y-91959142D01*
X98728571Y-94760285D02*
X99300000Y-94760285D01*
X98614285Y-95103142D02*
X99014285Y-93903142D01*
X99014285Y-93903142D02*
X99414285Y-95103142D01*
X100328571Y-95103142D02*
X100328571Y-93903142D01*
X100328571Y-95046000D02*
X100214285Y-95103142D01*
X100214285Y-95103142D02*
X99985713Y-95103142D01*
X99985713Y-95103142D02*
X99871428Y-95046000D01*
X99871428Y-95046000D02*
X99814285Y-94988857D01*
X99814285Y-94988857D02*
X99757142Y-94874571D01*
X99757142Y-94874571D02*
X99757142Y-94531714D01*
X99757142Y-94531714D02*
X99814285Y-94417428D01*
X99814285Y-94417428D02*
X99871428Y-94360285D01*
X99871428Y-94360285D02*
X99985713Y-94303142D01*
X99985713Y-94303142D02*
X100214285Y-94303142D01*
X100214285Y-94303142D02*
X100328571Y-94360285D01*
X101414285Y-95103142D02*
X101414285Y-93903142D01*
X101414285Y-95046000D02*
X101299999Y-95103142D01*
X101299999Y-95103142D02*
X101071427Y-95103142D01*
X101071427Y-95103142D02*
X100957142Y-95046000D01*
X100957142Y-95046000D02*
X100899999Y-94988857D01*
X100899999Y-94988857D02*
X100842856Y-94874571D01*
X100842856Y-94874571D02*
X100842856Y-94531714D01*
X100842856Y-94531714D02*
X100899999Y-94417428D01*
X100899999Y-94417428D02*
X100957142Y-94360285D01*
X100957142Y-94360285D02*
X101071427Y-94303142D01*
X101071427Y-94303142D02*
X101299999Y-94303142D01*
X101299999Y-94303142D02*
X101414285Y-94360285D01*
X101985713Y-95103142D02*
X101985713Y-94303142D01*
X101985713Y-94531714D02*
X102042856Y-94417428D01*
X102042856Y-94417428D02*
X102099999Y-94360285D01*
X102099999Y-94360285D02*
X102214284Y-94303142D01*
X102214284Y-94303142D02*
X102328570Y-94303142D01*
X103185713Y-95046000D02*
X103071427Y-95103142D01*
X103071427Y-95103142D02*
X102842856Y-95103142D01*
X102842856Y-95103142D02*
X102728570Y-95046000D01*
X102728570Y-95046000D02*
X102671427Y-94931714D01*
X102671427Y-94931714D02*
X102671427Y-94474571D01*
X102671427Y-94474571D02*
X102728570Y-94360285D01*
X102728570Y-94360285D02*
X102842856Y-94303142D01*
X102842856Y-94303142D02*
X103071427Y-94303142D01*
X103071427Y-94303142D02*
X103185713Y-94360285D01*
X103185713Y-94360285D02*
X103242856Y-94474571D01*
X103242856Y-94474571D02*
X103242856Y-94588857D01*
X103242856Y-94588857D02*
X102671427Y-94703142D01*
X103699998Y-95046000D02*
X103814284Y-95103142D01*
X103814284Y-95103142D02*
X104042855Y-95103142D01*
X104042855Y-95103142D02*
X104157141Y-95046000D01*
X104157141Y-95046000D02*
X104214284Y-94931714D01*
X104214284Y-94931714D02*
X104214284Y-94874571D01*
X104214284Y-94874571D02*
X104157141Y-94760285D01*
X104157141Y-94760285D02*
X104042855Y-94703142D01*
X104042855Y-94703142D02*
X103871427Y-94703142D01*
X103871427Y-94703142D02*
X103757141Y-94646000D01*
X103757141Y-94646000D02*
X103699998Y-94531714D01*
X103699998Y-94531714D02*
X103699998Y-94474571D01*
X103699998Y-94474571D02*
X103757141Y-94360285D01*
X103757141Y-94360285D02*
X103871427Y-94303142D01*
X103871427Y-94303142D02*
X104042855Y-94303142D01*
X104042855Y-94303142D02*
X104157141Y-94360285D01*
X104671427Y-95046000D02*
X104785713Y-95103142D01*
X104785713Y-95103142D02*
X105014284Y-95103142D01*
X105014284Y-95103142D02*
X105128570Y-95046000D01*
X105128570Y-95046000D02*
X105185713Y-94931714D01*
X105185713Y-94931714D02*
X105185713Y-94874571D01*
X105185713Y-94874571D02*
X105128570Y-94760285D01*
X105128570Y-94760285D02*
X105014284Y-94703142D01*
X105014284Y-94703142D02*
X104842856Y-94703142D01*
X104842856Y-94703142D02*
X104728570Y-94646000D01*
X104728570Y-94646000D02*
X104671427Y-94531714D01*
X104671427Y-94531714D02*
X104671427Y-94474571D01*
X104671427Y-94474571D02*
X104728570Y-94360285D01*
X104728570Y-94360285D02*
X104842856Y-94303142D01*
X104842856Y-94303142D02*
X105014284Y-94303142D01*
X105014284Y-94303142D02*
X105128570Y-94360285D01*
D10*
X112571428Y-96983809D02*
X112714285Y-97031428D01*
X112714285Y-97031428D02*
X112761904Y-97079047D01*
X112761904Y-97079047D02*
X112809523Y-97174285D01*
X112809523Y-97174285D02*
X112809523Y-97317142D01*
X112809523Y-97317142D02*
X112761904Y-97412380D01*
X112761904Y-97412380D02*
X112714285Y-97460000D01*
X112714285Y-97460000D02*
X112619047Y-97507619D01*
X112619047Y-97507619D02*
X112238095Y-97507619D01*
X112238095Y-97507619D02*
X112238095Y-96507619D01*
X112238095Y-96507619D02*
X112571428Y-96507619D01*
X112571428Y-96507619D02*
X112666666Y-96555238D01*
X112666666Y-96555238D02*
X112714285Y-96602857D01*
X112714285Y-96602857D02*
X112761904Y-96698095D01*
X112761904Y-96698095D02*
X112761904Y-96793333D01*
X112761904Y-96793333D02*
X112714285Y-96888571D01*
X112714285Y-96888571D02*
X112666666Y-96936190D01*
X112666666Y-96936190D02*
X112571428Y-96983809D01*
X112571428Y-96983809D02*
X112238095Y-96983809D01*
X113666666Y-97507619D02*
X113666666Y-96983809D01*
X113666666Y-96983809D02*
X113619047Y-96888571D01*
X113619047Y-96888571D02*
X113523809Y-96840952D01*
X113523809Y-96840952D02*
X113333333Y-96840952D01*
X113333333Y-96840952D02*
X113238095Y-96888571D01*
X113666666Y-97460000D02*
X113571428Y-97507619D01*
X113571428Y-97507619D02*
X113333333Y-97507619D01*
X113333333Y-97507619D02*
X113238095Y-97460000D01*
X113238095Y-97460000D02*
X113190476Y-97364761D01*
X113190476Y-97364761D02*
X113190476Y-97269523D01*
X113190476Y-97269523D02*
X113238095Y-97174285D01*
X113238095Y-97174285D02*
X113333333Y-97126666D01*
X113333333Y-97126666D02*
X113571428Y-97126666D01*
X113571428Y-97126666D02*
X113666666Y-97079047D01*
X114000000Y-96840952D02*
X114380952Y-96840952D01*
X114142857Y-96507619D02*
X114142857Y-97364761D01*
X114142857Y-97364761D02*
X114190476Y-97460000D01*
X114190476Y-97460000D02*
X114285714Y-97507619D01*
X114285714Y-97507619D02*
X114380952Y-97507619D01*
X114571429Y-96840952D02*
X114952381Y-96840952D01*
X114714286Y-96507619D02*
X114714286Y-97364761D01*
X114714286Y-97364761D02*
X114761905Y-97460000D01*
X114761905Y-97460000D02*
X114857143Y-97507619D01*
X114857143Y-97507619D02*
X114952381Y-97507619D01*
X115666667Y-97460000D02*
X115571429Y-97507619D01*
X115571429Y-97507619D02*
X115380953Y-97507619D01*
X115380953Y-97507619D02*
X115285715Y-97460000D01*
X115285715Y-97460000D02*
X115238096Y-97364761D01*
X115238096Y-97364761D02*
X115238096Y-96983809D01*
X115238096Y-96983809D02*
X115285715Y-96888571D01*
X115285715Y-96888571D02*
X115380953Y-96840952D01*
X115380953Y-96840952D02*
X115571429Y-96840952D01*
X115571429Y-96840952D02*
X115666667Y-96888571D01*
X115666667Y-96888571D02*
X115714286Y-96983809D01*
X115714286Y-96983809D02*
X115714286Y-97079047D01*
X115714286Y-97079047D02*
X115238096Y-97174285D01*
X116142858Y-97507619D02*
X116142858Y-96840952D01*
X116142858Y-97031428D02*
X116190477Y-96936190D01*
X116190477Y-96936190D02*
X116238096Y-96888571D01*
X116238096Y-96888571D02*
X116333334Y-96840952D01*
X116333334Y-96840952D02*
X116428572Y-96840952D01*
X116666668Y-96840952D02*
X116904763Y-97507619D01*
X117142858Y-96840952D02*
X116904763Y-97507619D01*
X116904763Y-97507619D02*
X116809525Y-97745714D01*
X116809525Y-97745714D02*
X116761906Y-97793333D01*
X116761906Y-97793333D02*
X116666668Y-97840952D01*
X112238095Y-99127619D02*
X112238095Y-98127619D01*
X112238095Y-98127619D02*
X112571428Y-98841904D01*
X112571428Y-98841904D02*
X112904761Y-98127619D01*
X112904761Y-98127619D02*
X112904761Y-99127619D01*
X113523809Y-99127619D02*
X113428571Y-99080000D01*
X113428571Y-99080000D02*
X113380952Y-99032380D01*
X113380952Y-99032380D02*
X113333333Y-98937142D01*
X113333333Y-98937142D02*
X113333333Y-98651428D01*
X113333333Y-98651428D02*
X113380952Y-98556190D01*
X113380952Y-98556190D02*
X113428571Y-98508571D01*
X113428571Y-98508571D02*
X113523809Y-98460952D01*
X113523809Y-98460952D02*
X113666666Y-98460952D01*
X113666666Y-98460952D02*
X113761904Y-98508571D01*
X113761904Y-98508571D02*
X113809523Y-98556190D01*
X113809523Y-98556190D02*
X113857142Y-98651428D01*
X113857142Y-98651428D02*
X113857142Y-98937142D01*
X113857142Y-98937142D02*
X113809523Y-99032380D01*
X113809523Y-99032380D02*
X113761904Y-99080000D01*
X113761904Y-99080000D02*
X113666666Y-99127619D01*
X113666666Y-99127619D02*
X113523809Y-99127619D01*
X114714285Y-99127619D02*
X114714285Y-98127619D01*
X114714285Y-99080000D02*
X114619047Y-99127619D01*
X114619047Y-99127619D02*
X114428571Y-99127619D01*
X114428571Y-99127619D02*
X114333333Y-99080000D01*
X114333333Y-99080000D02*
X114285714Y-99032380D01*
X114285714Y-99032380D02*
X114238095Y-98937142D01*
X114238095Y-98937142D02*
X114238095Y-98651428D01*
X114238095Y-98651428D02*
X114285714Y-98556190D01*
X114285714Y-98556190D02*
X114333333Y-98508571D01*
X114333333Y-98508571D02*
X114428571Y-98460952D01*
X114428571Y-98460952D02*
X114619047Y-98460952D01*
X114619047Y-98460952D02*
X114714285Y-98508571D01*
X115571428Y-99080000D02*
X115476190Y-99127619D01*
X115476190Y-99127619D02*
X115285714Y-99127619D01*
X115285714Y-99127619D02*
X115190476Y-99080000D01*
X115190476Y-99080000D02*
X115142857Y-98984761D01*
X115142857Y-98984761D02*
X115142857Y-98603809D01*
X115142857Y-98603809D02*
X115190476Y-98508571D01*
X115190476Y-98508571D02*
X115285714Y-98460952D01*
X115285714Y-98460952D02*
X115476190Y-98460952D01*
X115476190Y-98460952D02*
X115571428Y-98508571D01*
X115571428Y-98508571D02*
X115619047Y-98603809D01*
X115619047Y-98603809D02*
X115619047Y-98699047D01*
X115619047Y-98699047D02*
X115142857Y-98794285D01*
D11*
X124785714Y-87646000D02*
X125700000Y-87646000D01*
X100728571Y-103602000D02*
X100900000Y-103659142D01*
X100900000Y-103659142D02*
X101185714Y-103659142D01*
X101185714Y-103659142D02*
X101300000Y-103602000D01*
X101300000Y-103602000D02*
X101357142Y-103544857D01*
X101357142Y-103544857D02*
X101414285Y-103430571D01*
X101414285Y-103430571D02*
X101414285Y-103316285D01*
X101414285Y-103316285D02*
X101357142Y-103202000D01*
X101357142Y-103202000D02*
X101300000Y-103144857D01*
X101300000Y-103144857D02*
X101185714Y-103087714D01*
X101185714Y-103087714D02*
X100957142Y-103030571D01*
X100957142Y-103030571D02*
X100842857Y-102973428D01*
X100842857Y-102973428D02*
X100785714Y-102916285D01*
X100785714Y-102916285D02*
X100728571Y-102802000D01*
X100728571Y-102802000D02*
X100728571Y-102687714D01*
X100728571Y-102687714D02*
X100785714Y-102573428D01*
X100785714Y-102573428D02*
X100842857Y-102516285D01*
X100842857Y-102516285D02*
X100957142Y-102459142D01*
X100957142Y-102459142D02*
X101242857Y-102459142D01*
X101242857Y-102459142D02*
X101414285Y-102516285D01*
X102385714Y-103602000D02*
X102271428Y-103659142D01*
X102271428Y-103659142D02*
X102042857Y-103659142D01*
X102042857Y-103659142D02*
X101928571Y-103602000D01*
X101928571Y-103602000D02*
X101871428Y-103487714D01*
X101871428Y-103487714D02*
X101871428Y-103030571D01*
X101871428Y-103030571D02*
X101928571Y-102916285D01*
X101928571Y-102916285D02*
X102042857Y-102859142D01*
X102042857Y-102859142D02*
X102271428Y-102859142D01*
X102271428Y-102859142D02*
X102385714Y-102916285D01*
X102385714Y-102916285D02*
X102442857Y-103030571D01*
X102442857Y-103030571D02*
X102442857Y-103144857D01*
X102442857Y-103144857D02*
X101871428Y-103259142D01*
X102957142Y-102859142D02*
X102957142Y-103659142D01*
X102957142Y-102973428D02*
X103014285Y-102916285D01*
X103014285Y-102916285D02*
X103128570Y-102859142D01*
X103128570Y-102859142D02*
X103299999Y-102859142D01*
X103299999Y-102859142D02*
X103414285Y-102916285D01*
X103414285Y-102916285D02*
X103471428Y-103030571D01*
X103471428Y-103030571D02*
X103471428Y-103659142D01*
X103985713Y-103602000D02*
X104099999Y-103659142D01*
X104099999Y-103659142D02*
X104328570Y-103659142D01*
X104328570Y-103659142D02*
X104442856Y-103602000D01*
X104442856Y-103602000D02*
X104499999Y-103487714D01*
X104499999Y-103487714D02*
X104499999Y-103430571D01*
X104499999Y-103430571D02*
X104442856Y-103316285D01*
X104442856Y-103316285D02*
X104328570Y-103259142D01*
X104328570Y-103259142D02*
X104157142Y-103259142D01*
X104157142Y-103259142D02*
X104042856Y-103202000D01*
X104042856Y-103202000D02*
X103985713Y-103087714D01*
X103985713Y-103087714D02*
X103985713Y-103030571D01*
X103985713Y-103030571D02*
X104042856Y-102916285D01*
X104042856Y-102916285D02*
X104157142Y-102859142D01*
X104157142Y-102859142D02*
X104328570Y-102859142D01*
X104328570Y-102859142D02*
X104442856Y-102916285D01*
X105185713Y-103659142D02*
X105071428Y-103602000D01*
X105071428Y-103602000D02*
X105014285Y-103544857D01*
X105014285Y-103544857D02*
X104957142Y-103430571D01*
X104957142Y-103430571D02*
X104957142Y-103087714D01*
X104957142Y-103087714D02*
X105014285Y-102973428D01*
X105014285Y-102973428D02*
X105071428Y-102916285D01*
X105071428Y-102916285D02*
X105185713Y-102859142D01*
X105185713Y-102859142D02*
X105357142Y-102859142D01*
X105357142Y-102859142D02*
X105471428Y-102916285D01*
X105471428Y-102916285D02*
X105528571Y-102973428D01*
X105528571Y-102973428D02*
X105585713Y-103087714D01*
X105585713Y-103087714D02*
X105585713Y-103430571D01*
X105585713Y-103430571D02*
X105528571Y-103544857D01*
X105528571Y-103544857D02*
X105471428Y-103602000D01*
X105471428Y-103602000D02*
X105357142Y-103659142D01*
X105357142Y-103659142D02*
X105185713Y-103659142D01*
X106099999Y-103659142D02*
X106099999Y-102859142D01*
X106099999Y-103087714D02*
X106157142Y-102973428D01*
X106157142Y-102973428D02*
X106214285Y-102916285D01*
X106214285Y-102916285D02*
X106328570Y-102859142D01*
X106328570Y-102859142D02*
X106442856Y-102859142D01*
X107471427Y-103659142D02*
X106785713Y-103659142D01*
X107128570Y-103659142D02*
X107128570Y-102459142D01*
X107128570Y-102459142D02*
X107014284Y-102630571D01*
X107014284Y-102630571D02*
X106899999Y-102744857D01*
X106899999Y-102744857D02*
X106785713Y-102802000D01*
X100728571Y-105260285D02*
X101300000Y-105260285D01*
X100614285Y-105603142D02*
X101014285Y-104403142D01*
X101014285Y-104403142D02*
X101414285Y-105603142D01*
X102328571Y-105603142D02*
X102328571Y-104403142D01*
X102328571Y-105546000D02*
X102214285Y-105603142D01*
X102214285Y-105603142D02*
X101985713Y-105603142D01*
X101985713Y-105603142D02*
X101871428Y-105546000D01*
X101871428Y-105546000D02*
X101814285Y-105488857D01*
X101814285Y-105488857D02*
X101757142Y-105374571D01*
X101757142Y-105374571D02*
X101757142Y-105031714D01*
X101757142Y-105031714D02*
X101814285Y-104917428D01*
X101814285Y-104917428D02*
X101871428Y-104860285D01*
X101871428Y-104860285D02*
X101985713Y-104803142D01*
X101985713Y-104803142D02*
X102214285Y-104803142D01*
X102214285Y-104803142D02*
X102328571Y-104860285D01*
X103414285Y-105603142D02*
X103414285Y-104403142D01*
X103414285Y-105546000D02*
X103299999Y-105603142D01*
X103299999Y-105603142D02*
X103071427Y-105603142D01*
X103071427Y-105603142D02*
X102957142Y-105546000D01*
X102957142Y-105546000D02*
X102899999Y-105488857D01*
X102899999Y-105488857D02*
X102842856Y-105374571D01*
X102842856Y-105374571D02*
X102842856Y-105031714D01*
X102842856Y-105031714D02*
X102899999Y-104917428D01*
X102899999Y-104917428D02*
X102957142Y-104860285D01*
X102957142Y-104860285D02*
X103071427Y-104803142D01*
X103071427Y-104803142D02*
X103299999Y-104803142D01*
X103299999Y-104803142D02*
X103414285Y-104860285D01*
X103985713Y-105603142D02*
X103985713Y-104803142D01*
X103985713Y-105031714D02*
X104042856Y-104917428D01*
X104042856Y-104917428D02*
X104099999Y-104860285D01*
X104099999Y-104860285D02*
X104214284Y-104803142D01*
X104214284Y-104803142D02*
X104328570Y-104803142D01*
X105185713Y-105546000D02*
X105071427Y-105603142D01*
X105071427Y-105603142D02*
X104842856Y-105603142D01*
X104842856Y-105603142D02*
X104728570Y-105546000D01*
X104728570Y-105546000D02*
X104671427Y-105431714D01*
X104671427Y-105431714D02*
X104671427Y-104974571D01*
X104671427Y-104974571D02*
X104728570Y-104860285D01*
X104728570Y-104860285D02*
X104842856Y-104803142D01*
X104842856Y-104803142D02*
X105071427Y-104803142D01*
X105071427Y-104803142D02*
X105185713Y-104860285D01*
X105185713Y-104860285D02*
X105242856Y-104974571D01*
X105242856Y-104974571D02*
X105242856Y-105088857D01*
X105242856Y-105088857D02*
X104671427Y-105203142D01*
X105699998Y-105546000D02*
X105814284Y-105603142D01*
X105814284Y-105603142D02*
X106042855Y-105603142D01*
X106042855Y-105603142D02*
X106157141Y-105546000D01*
X106157141Y-105546000D02*
X106214284Y-105431714D01*
X106214284Y-105431714D02*
X106214284Y-105374571D01*
X106214284Y-105374571D02*
X106157141Y-105260285D01*
X106157141Y-105260285D02*
X106042855Y-105203142D01*
X106042855Y-105203142D02*
X105871427Y-105203142D01*
X105871427Y-105203142D02*
X105757141Y-105146000D01*
X105757141Y-105146000D02*
X105699998Y-105031714D01*
X105699998Y-105031714D02*
X105699998Y-104974571D01*
X105699998Y-104974571D02*
X105757141Y-104860285D01*
X105757141Y-104860285D02*
X105871427Y-104803142D01*
X105871427Y-104803142D02*
X106042855Y-104803142D01*
X106042855Y-104803142D02*
X106157141Y-104860285D01*
X106671427Y-105546000D02*
X106785713Y-105603142D01*
X106785713Y-105603142D02*
X107014284Y-105603142D01*
X107014284Y-105603142D02*
X107128570Y-105546000D01*
X107128570Y-105546000D02*
X107185713Y-105431714D01*
X107185713Y-105431714D02*
X107185713Y-105374571D01*
X107185713Y-105374571D02*
X107128570Y-105260285D01*
X107128570Y-105260285D02*
X107014284Y-105203142D01*
X107014284Y-105203142D02*
X106842856Y-105203142D01*
X106842856Y-105203142D02*
X106728570Y-105146000D01*
X106728570Y-105146000D02*
X106671427Y-105031714D01*
X106671427Y-105031714D02*
X106671427Y-104974571D01*
X106671427Y-104974571D02*
X106728570Y-104860285D01*
X106728570Y-104860285D02*
X106842856Y-104803142D01*
X106842856Y-104803142D02*
X107014284Y-104803142D01*
X107014284Y-104803142D02*
X107128570Y-104860285D01*
X124785714Y-90146000D02*
X125700000Y-90146000D01*
X125242857Y-90603142D02*
X125242857Y-89688857D01*
X118330000Y-102809523D02*
X118377619Y-102666666D01*
X118377619Y-102666666D02*
X118377619Y-102428571D01*
X118377619Y-102428571D02*
X118330000Y-102333333D01*
X118330000Y-102333333D02*
X118282380Y-102285714D01*
X118282380Y-102285714D02*
X118187142Y-102238095D01*
X118187142Y-102238095D02*
X118091904Y-102238095D01*
X118091904Y-102238095D02*
X117996666Y-102285714D01*
X117996666Y-102285714D02*
X117949047Y-102333333D01*
X117949047Y-102333333D02*
X117901428Y-102428571D01*
X117901428Y-102428571D02*
X117853809Y-102619047D01*
X117853809Y-102619047D02*
X117806190Y-102714285D01*
X117806190Y-102714285D02*
X117758571Y-102761904D01*
X117758571Y-102761904D02*
X117663333Y-102809523D01*
X117663333Y-102809523D02*
X117568095Y-102809523D01*
X117568095Y-102809523D02*
X117472857Y-102761904D01*
X117472857Y-102761904D02*
X117425238Y-102714285D01*
X117425238Y-102714285D02*
X117377619Y-102619047D01*
X117377619Y-102619047D02*
X117377619Y-102380952D01*
X117377619Y-102380952D02*
X117425238Y-102238095D01*
X118377619Y-101809523D02*
X117377619Y-101809523D01*
X117377619Y-101809523D02*
X117377619Y-101571428D01*
X117377619Y-101571428D02*
X117425238Y-101428571D01*
X117425238Y-101428571D02*
X117520476Y-101333333D01*
X117520476Y-101333333D02*
X117615714Y-101285714D01*
X117615714Y-101285714D02*
X117806190Y-101238095D01*
X117806190Y-101238095D02*
X117949047Y-101238095D01*
X117949047Y-101238095D02*
X118139523Y-101285714D01*
X118139523Y-101285714D02*
X118234761Y-101333333D01*
X118234761Y-101333333D02*
X118330000Y-101428571D01*
X118330000Y-101428571D02*
X118377619Y-101571428D01*
X118377619Y-101571428D02*
X118377619Y-101809523D01*
X118091904Y-100857142D02*
X118091904Y-100380952D01*
X118377619Y-100952380D02*
X117377619Y-100619047D01*
X117377619Y-100619047D02*
X118377619Y-100285714D01*
X120830000Y-102809523D02*
X120877619Y-102666666D01*
X120877619Y-102666666D02*
X120877619Y-102428571D01*
X120877619Y-102428571D02*
X120830000Y-102333333D01*
X120830000Y-102333333D02*
X120782380Y-102285714D01*
X120782380Y-102285714D02*
X120687142Y-102238095D01*
X120687142Y-102238095D02*
X120591904Y-102238095D01*
X120591904Y-102238095D02*
X120496666Y-102285714D01*
X120496666Y-102285714D02*
X120449047Y-102333333D01*
X120449047Y-102333333D02*
X120401428Y-102428571D01*
X120401428Y-102428571D02*
X120353809Y-102619047D01*
X120353809Y-102619047D02*
X120306190Y-102714285D01*
X120306190Y-102714285D02*
X120258571Y-102761904D01*
X120258571Y-102761904D02*
X120163333Y-102809523D01*
X120163333Y-102809523D02*
X120068095Y-102809523D01*
X120068095Y-102809523D02*
X119972857Y-102761904D01*
X119972857Y-102761904D02*
X119925238Y-102714285D01*
X119925238Y-102714285D02*
X119877619Y-102619047D01*
X119877619Y-102619047D02*
X119877619Y-102380952D01*
X119877619Y-102380952D02*
X119925238Y-102238095D01*
X120782380Y-101238095D02*
X120830000Y-101285714D01*
X120830000Y-101285714D02*
X120877619Y-101428571D01*
X120877619Y-101428571D02*
X120877619Y-101523809D01*
X120877619Y-101523809D02*
X120830000Y-101666666D01*
X120830000Y-101666666D02*
X120734761Y-101761904D01*
X120734761Y-101761904D02*
X120639523Y-101809523D01*
X120639523Y-101809523D02*
X120449047Y-101857142D01*
X120449047Y-101857142D02*
X120306190Y-101857142D01*
X120306190Y-101857142D02*
X120115714Y-101809523D01*
X120115714Y-101809523D02*
X120020476Y-101761904D01*
X120020476Y-101761904D02*
X119925238Y-101666666D01*
X119925238Y-101666666D02*
X119877619Y-101523809D01*
X119877619Y-101523809D02*
X119877619Y-101428571D01*
X119877619Y-101428571D02*
X119925238Y-101285714D01*
X119925238Y-101285714D02*
X119972857Y-101238095D01*
X120877619Y-100333333D02*
X120877619Y-100809523D01*
X120877619Y-100809523D02*
X119877619Y-100809523D01*
D10*
X120853809Y-90178571D02*
X120901428Y-90035714D01*
X120901428Y-90035714D02*
X120949047Y-89988095D01*
X120949047Y-89988095D02*
X121044285Y-89940476D01*
X121044285Y-89940476D02*
X121187142Y-89940476D01*
X121187142Y-89940476D02*
X121282380Y-89988095D01*
X121282380Y-89988095D02*
X121330000Y-90035714D01*
X121330000Y-90035714D02*
X121377619Y-90130952D01*
X121377619Y-90130952D02*
X121377619Y-90511904D01*
X121377619Y-90511904D02*
X120377619Y-90511904D01*
X120377619Y-90511904D02*
X120377619Y-90178571D01*
X120377619Y-90178571D02*
X120425238Y-90083333D01*
X120425238Y-90083333D02*
X120472857Y-90035714D01*
X120472857Y-90035714D02*
X120568095Y-89988095D01*
X120568095Y-89988095D02*
X120663333Y-89988095D01*
X120663333Y-89988095D02*
X120758571Y-90035714D01*
X120758571Y-90035714D02*
X120806190Y-90083333D01*
X120806190Y-90083333D02*
X120853809Y-90178571D01*
X120853809Y-90178571D02*
X120853809Y-90511904D01*
X121377619Y-89083333D02*
X120853809Y-89083333D01*
X120853809Y-89083333D02*
X120758571Y-89130952D01*
X120758571Y-89130952D02*
X120710952Y-89226190D01*
X120710952Y-89226190D02*
X120710952Y-89416666D01*
X120710952Y-89416666D02*
X120758571Y-89511904D01*
X121330000Y-89083333D02*
X121377619Y-89178571D01*
X121377619Y-89178571D02*
X121377619Y-89416666D01*
X121377619Y-89416666D02*
X121330000Y-89511904D01*
X121330000Y-89511904D02*
X121234761Y-89559523D01*
X121234761Y-89559523D02*
X121139523Y-89559523D01*
X121139523Y-89559523D02*
X121044285Y-89511904D01*
X121044285Y-89511904D02*
X120996666Y-89416666D01*
X120996666Y-89416666D02*
X120996666Y-89178571D01*
X120996666Y-89178571D02*
X120949047Y-89083333D01*
X120710952Y-88749999D02*
X120710952Y-88369047D01*
X120377619Y-88607142D02*
X121234761Y-88607142D01*
X121234761Y-88607142D02*
X121330000Y-88559523D01*
X121330000Y-88559523D02*
X121377619Y-88464285D01*
X121377619Y-88464285D02*
X121377619Y-88369047D01*
X120710952Y-88178570D02*
X120710952Y-87797618D01*
X120377619Y-88035713D02*
X121234761Y-88035713D01*
X121234761Y-88035713D02*
X121330000Y-87988094D01*
X121330000Y-87988094D02*
X121377619Y-87892856D01*
X121377619Y-87892856D02*
X121377619Y-87797618D01*
X111000000Y-101250000D02*
X111000000Y-105750000D01*
X98000000Y-95750000D02*
X106500000Y-95750000D01*
X106500000Y-86750000D02*
X98500000Y-86750000D01*
X106500000Y-95750000D02*
X106500000Y-86750000D01*
X100000000Y-101250000D02*
X100000000Y-106250000D01*
X122000000Y-86250000D02*
X126500000Y-86250000D01*
X126500000Y-91750000D01*
X122000000Y-91750000D01*
X122000000Y-86250000D01*
X112500000Y-87250000D02*
G75*
G03*
X112500000Y-87250000I-500000J0D01*
G01*
X105000000Y-101250000D02*
X111000000Y-101250000D01*
X100000000Y-106250000D02*
X106500000Y-106250000D01*
X111500000Y-93750000D02*
X117500000Y-93750000D01*
X117500000Y-99750000D01*
X111500000Y-99750000D01*
X111500000Y-93750000D01*
X98000000Y-91750000D02*
X98000000Y-95750000D01*
X101000000Y-101250000D02*
X100000000Y-101250000D01*
D11*
X98728571Y-39102000D02*
X98900000Y-39159142D01*
X98900000Y-39159142D02*
X99185714Y-39159142D01*
X99185714Y-39159142D02*
X99300000Y-39102000D01*
X99300000Y-39102000D02*
X99357142Y-39044857D01*
X99357142Y-39044857D02*
X99414285Y-38930571D01*
X99414285Y-38930571D02*
X99414285Y-38816285D01*
X99414285Y-38816285D02*
X99357142Y-38702000D01*
X99357142Y-38702000D02*
X99300000Y-38644857D01*
X99300000Y-38644857D02*
X99185714Y-38587714D01*
X99185714Y-38587714D02*
X98957142Y-38530571D01*
X98957142Y-38530571D02*
X98842857Y-38473428D01*
X98842857Y-38473428D02*
X98785714Y-38416285D01*
X98785714Y-38416285D02*
X98728571Y-38302000D01*
X98728571Y-38302000D02*
X98728571Y-38187714D01*
X98728571Y-38187714D02*
X98785714Y-38073428D01*
X98785714Y-38073428D02*
X98842857Y-38016285D01*
X98842857Y-38016285D02*
X98957142Y-37959142D01*
X98957142Y-37959142D02*
X99242857Y-37959142D01*
X99242857Y-37959142D02*
X99414285Y-38016285D01*
X100385714Y-39102000D02*
X100271428Y-39159142D01*
X100271428Y-39159142D02*
X100042857Y-39159142D01*
X100042857Y-39159142D02*
X99928571Y-39102000D01*
X99928571Y-39102000D02*
X99871428Y-38987714D01*
X99871428Y-38987714D02*
X99871428Y-38530571D01*
X99871428Y-38530571D02*
X99928571Y-38416285D01*
X99928571Y-38416285D02*
X100042857Y-38359142D01*
X100042857Y-38359142D02*
X100271428Y-38359142D01*
X100271428Y-38359142D02*
X100385714Y-38416285D01*
X100385714Y-38416285D02*
X100442857Y-38530571D01*
X100442857Y-38530571D02*
X100442857Y-38644857D01*
X100442857Y-38644857D02*
X99871428Y-38759142D01*
X100957142Y-38359142D02*
X100957142Y-39159142D01*
X100957142Y-38473428D02*
X101014285Y-38416285D01*
X101014285Y-38416285D02*
X101128570Y-38359142D01*
X101128570Y-38359142D02*
X101299999Y-38359142D01*
X101299999Y-38359142D02*
X101414285Y-38416285D01*
X101414285Y-38416285D02*
X101471428Y-38530571D01*
X101471428Y-38530571D02*
X101471428Y-39159142D01*
X101985713Y-39102000D02*
X102099999Y-39159142D01*
X102099999Y-39159142D02*
X102328570Y-39159142D01*
X102328570Y-39159142D02*
X102442856Y-39102000D01*
X102442856Y-39102000D02*
X102499999Y-38987714D01*
X102499999Y-38987714D02*
X102499999Y-38930571D01*
X102499999Y-38930571D02*
X102442856Y-38816285D01*
X102442856Y-38816285D02*
X102328570Y-38759142D01*
X102328570Y-38759142D02*
X102157142Y-38759142D01*
X102157142Y-38759142D02*
X102042856Y-38702000D01*
X102042856Y-38702000D02*
X101985713Y-38587714D01*
X101985713Y-38587714D02*
X101985713Y-38530571D01*
X101985713Y-38530571D02*
X102042856Y-38416285D01*
X102042856Y-38416285D02*
X102157142Y-38359142D01*
X102157142Y-38359142D02*
X102328570Y-38359142D01*
X102328570Y-38359142D02*
X102442856Y-38416285D01*
X103185713Y-39159142D02*
X103071428Y-39102000D01*
X103071428Y-39102000D02*
X103014285Y-39044857D01*
X103014285Y-39044857D02*
X102957142Y-38930571D01*
X102957142Y-38930571D02*
X102957142Y-38587714D01*
X102957142Y-38587714D02*
X103014285Y-38473428D01*
X103014285Y-38473428D02*
X103071428Y-38416285D01*
X103071428Y-38416285D02*
X103185713Y-38359142D01*
X103185713Y-38359142D02*
X103357142Y-38359142D01*
X103357142Y-38359142D02*
X103471428Y-38416285D01*
X103471428Y-38416285D02*
X103528571Y-38473428D01*
X103528571Y-38473428D02*
X103585713Y-38587714D01*
X103585713Y-38587714D02*
X103585713Y-38930571D01*
X103585713Y-38930571D02*
X103528571Y-39044857D01*
X103528571Y-39044857D02*
X103471428Y-39102000D01*
X103471428Y-39102000D02*
X103357142Y-39159142D01*
X103357142Y-39159142D02*
X103185713Y-39159142D01*
X104099999Y-39159142D02*
X104099999Y-38359142D01*
X104099999Y-38587714D02*
X104157142Y-38473428D01*
X104157142Y-38473428D02*
X104214285Y-38416285D01*
X104214285Y-38416285D02*
X104328570Y-38359142D01*
X104328570Y-38359142D02*
X104442856Y-38359142D01*
X105071427Y-37959142D02*
X105185713Y-37959142D01*
X105185713Y-37959142D02*
X105299999Y-38016285D01*
X105299999Y-38016285D02*
X105357142Y-38073428D01*
X105357142Y-38073428D02*
X105414284Y-38187714D01*
X105414284Y-38187714D02*
X105471427Y-38416285D01*
X105471427Y-38416285D02*
X105471427Y-38702000D01*
X105471427Y-38702000D02*
X105414284Y-38930571D01*
X105414284Y-38930571D02*
X105357142Y-39044857D01*
X105357142Y-39044857D02*
X105299999Y-39102000D01*
X105299999Y-39102000D02*
X105185713Y-39159142D01*
X105185713Y-39159142D02*
X105071427Y-39159142D01*
X105071427Y-39159142D02*
X104957142Y-39102000D01*
X104957142Y-39102000D02*
X104899999Y-39044857D01*
X104899999Y-39044857D02*
X104842856Y-38930571D01*
X104842856Y-38930571D02*
X104785713Y-38702000D01*
X104785713Y-38702000D02*
X104785713Y-38416285D01*
X104785713Y-38416285D02*
X104842856Y-38187714D01*
X104842856Y-38187714D02*
X104899999Y-38073428D01*
X104899999Y-38073428D02*
X104957142Y-38016285D01*
X104957142Y-38016285D02*
X105071427Y-37959142D01*
X98728571Y-40760285D02*
X99300000Y-40760285D01*
X98614285Y-41103142D02*
X99014285Y-39903142D01*
X99014285Y-39903142D02*
X99414285Y-41103142D01*
X100328571Y-41103142D02*
X100328571Y-39903142D01*
X100328571Y-41046000D02*
X100214285Y-41103142D01*
X100214285Y-41103142D02*
X99985713Y-41103142D01*
X99985713Y-41103142D02*
X99871428Y-41046000D01*
X99871428Y-41046000D02*
X99814285Y-40988857D01*
X99814285Y-40988857D02*
X99757142Y-40874571D01*
X99757142Y-40874571D02*
X99757142Y-40531714D01*
X99757142Y-40531714D02*
X99814285Y-40417428D01*
X99814285Y-40417428D02*
X99871428Y-40360285D01*
X99871428Y-40360285D02*
X99985713Y-40303142D01*
X99985713Y-40303142D02*
X100214285Y-40303142D01*
X100214285Y-40303142D02*
X100328571Y-40360285D01*
X101414285Y-41103142D02*
X101414285Y-39903142D01*
X101414285Y-41046000D02*
X101299999Y-41103142D01*
X101299999Y-41103142D02*
X101071427Y-41103142D01*
X101071427Y-41103142D02*
X100957142Y-41046000D01*
X100957142Y-41046000D02*
X100899999Y-40988857D01*
X100899999Y-40988857D02*
X100842856Y-40874571D01*
X100842856Y-40874571D02*
X100842856Y-40531714D01*
X100842856Y-40531714D02*
X100899999Y-40417428D01*
X100899999Y-40417428D02*
X100957142Y-40360285D01*
X100957142Y-40360285D02*
X101071427Y-40303142D01*
X101071427Y-40303142D02*
X101299999Y-40303142D01*
X101299999Y-40303142D02*
X101414285Y-40360285D01*
X101985713Y-41103142D02*
X101985713Y-40303142D01*
X101985713Y-40531714D02*
X102042856Y-40417428D01*
X102042856Y-40417428D02*
X102099999Y-40360285D01*
X102099999Y-40360285D02*
X102214284Y-40303142D01*
X102214284Y-40303142D02*
X102328570Y-40303142D01*
X103185713Y-41046000D02*
X103071427Y-41103142D01*
X103071427Y-41103142D02*
X102842856Y-41103142D01*
X102842856Y-41103142D02*
X102728570Y-41046000D01*
X102728570Y-41046000D02*
X102671427Y-40931714D01*
X102671427Y-40931714D02*
X102671427Y-40474571D01*
X102671427Y-40474571D02*
X102728570Y-40360285D01*
X102728570Y-40360285D02*
X102842856Y-40303142D01*
X102842856Y-40303142D02*
X103071427Y-40303142D01*
X103071427Y-40303142D02*
X103185713Y-40360285D01*
X103185713Y-40360285D02*
X103242856Y-40474571D01*
X103242856Y-40474571D02*
X103242856Y-40588857D01*
X103242856Y-40588857D02*
X102671427Y-40703142D01*
X103699998Y-41046000D02*
X103814284Y-41103142D01*
X103814284Y-41103142D02*
X104042855Y-41103142D01*
X104042855Y-41103142D02*
X104157141Y-41046000D01*
X104157141Y-41046000D02*
X104214284Y-40931714D01*
X104214284Y-40931714D02*
X104214284Y-40874571D01*
X104214284Y-40874571D02*
X104157141Y-40760285D01*
X104157141Y-40760285D02*
X104042855Y-40703142D01*
X104042855Y-40703142D02*
X103871427Y-40703142D01*
X103871427Y-40703142D02*
X103757141Y-40646000D01*
X103757141Y-40646000D02*
X103699998Y-40531714D01*
X103699998Y-40531714D02*
X103699998Y-40474571D01*
X103699998Y-40474571D02*
X103757141Y-40360285D01*
X103757141Y-40360285D02*
X103871427Y-40303142D01*
X103871427Y-40303142D02*
X104042855Y-40303142D01*
X104042855Y-40303142D02*
X104157141Y-40360285D01*
X104671427Y-41046000D02*
X104785713Y-41103142D01*
X104785713Y-41103142D02*
X105014284Y-41103142D01*
X105014284Y-41103142D02*
X105128570Y-41046000D01*
X105128570Y-41046000D02*
X105185713Y-40931714D01*
X105185713Y-40931714D02*
X105185713Y-40874571D01*
X105185713Y-40874571D02*
X105128570Y-40760285D01*
X105128570Y-40760285D02*
X105014284Y-40703142D01*
X105014284Y-40703142D02*
X104842856Y-40703142D01*
X104842856Y-40703142D02*
X104728570Y-40646000D01*
X104728570Y-40646000D02*
X104671427Y-40531714D01*
X104671427Y-40531714D02*
X104671427Y-40474571D01*
X104671427Y-40474571D02*
X104728570Y-40360285D01*
X104728570Y-40360285D02*
X104842856Y-40303142D01*
X104842856Y-40303142D02*
X105014284Y-40303142D01*
X105014284Y-40303142D02*
X105128570Y-40360285D01*
D10*
X112571428Y-42983809D02*
X112714285Y-43031428D01*
X112714285Y-43031428D02*
X112761904Y-43079047D01*
X112761904Y-43079047D02*
X112809523Y-43174285D01*
X112809523Y-43174285D02*
X112809523Y-43317142D01*
X112809523Y-43317142D02*
X112761904Y-43412380D01*
X112761904Y-43412380D02*
X112714285Y-43460000D01*
X112714285Y-43460000D02*
X112619047Y-43507619D01*
X112619047Y-43507619D02*
X112238095Y-43507619D01*
X112238095Y-43507619D02*
X112238095Y-42507619D01*
X112238095Y-42507619D02*
X112571428Y-42507619D01*
X112571428Y-42507619D02*
X112666666Y-42555238D01*
X112666666Y-42555238D02*
X112714285Y-42602857D01*
X112714285Y-42602857D02*
X112761904Y-42698095D01*
X112761904Y-42698095D02*
X112761904Y-42793333D01*
X112761904Y-42793333D02*
X112714285Y-42888571D01*
X112714285Y-42888571D02*
X112666666Y-42936190D01*
X112666666Y-42936190D02*
X112571428Y-42983809D01*
X112571428Y-42983809D02*
X112238095Y-42983809D01*
X113666666Y-43507619D02*
X113666666Y-42983809D01*
X113666666Y-42983809D02*
X113619047Y-42888571D01*
X113619047Y-42888571D02*
X113523809Y-42840952D01*
X113523809Y-42840952D02*
X113333333Y-42840952D01*
X113333333Y-42840952D02*
X113238095Y-42888571D01*
X113666666Y-43460000D02*
X113571428Y-43507619D01*
X113571428Y-43507619D02*
X113333333Y-43507619D01*
X113333333Y-43507619D02*
X113238095Y-43460000D01*
X113238095Y-43460000D02*
X113190476Y-43364761D01*
X113190476Y-43364761D02*
X113190476Y-43269523D01*
X113190476Y-43269523D02*
X113238095Y-43174285D01*
X113238095Y-43174285D02*
X113333333Y-43126666D01*
X113333333Y-43126666D02*
X113571428Y-43126666D01*
X113571428Y-43126666D02*
X113666666Y-43079047D01*
X114000000Y-42840952D02*
X114380952Y-42840952D01*
X114142857Y-42507619D02*
X114142857Y-43364761D01*
X114142857Y-43364761D02*
X114190476Y-43460000D01*
X114190476Y-43460000D02*
X114285714Y-43507619D01*
X114285714Y-43507619D02*
X114380952Y-43507619D01*
X114571429Y-42840952D02*
X114952381Y-42840952D01*
X114714286Y-42507619D02*
X114714286Y-43364761D01*
X114714286Y-43364761D02*
X114761905Y-43460000D01*
X114761905Y-43460000D02*
X114857143Y-43507619D01*
X114857143Y-43507619D02*
X114952381Y-43507619D01*
X115666667Y-43460000D02*
X115571429Y-43507619D01*
X115571429Y-43507619D02*
X115380953Y-43507619D01*
X115380953Y-43507619D02*
X115285715Y-43460000D01*
X115285715Y-43460000D02*
X115238096Y-43364761D01*
X115238096Y-43364761D02*
X115238096Y-42983809D01*
X115238096Y-42983809D02*
X115285715Y-42888571D01*
X115285715Y-42888571D02*
X115380953Y-42840952D01*
X115380953Y-42840952D02*
X115571429Y-42840952D01*
X115571429Y-42840952D02*
X115666667Y-42888571D01*
X115666667Y-42888571D02*
X115714286Y-42983809D01*
X115714286Y-42983809D02*
X115714286Y-43079047D01*
X115714286Y-43079047D02*
X115238096Y-43174285D01*
X116142858Y-43507619D02*
X116142858Y-42840952D01*
X116142858Y-43031428D02*
X116190477Y-42936190D01*
X116190477Y-42936190D02*
X116238096Y-42888571D01*
X116238096Y-42888571D02*
X116333334Y-42840952D01*
X116333334Y-42840952D02*
X116428572Y-42840952D01*
X116666668Y-42840952D02*
X116904763Y-43507619D01*
X117142858Y-42840952D02*
X116904763Y-43507619D01*
X116904763Y-43507619D02*
X116809525Y-43745714D01*
X116809525Y-43745714D02*
X116761906Y-43793333D01*
X116761906Y-43793333D02*
X116666668Y-43840952D01*
X112238095Y-45127619D02*
X112238095Y-44127619D01*
X112238095Y-44127619D02*
X112571428Y-44841904D01*
X112571428Y-44841904D02*
X112904761Y-44127619D01*
X112904761Y-44127619D02*
X112904761Y-45127619D01*
X113523809Y-45127619D02*
X113428571Y-45080000D01*
X113428571Y-45080000D02*
X113380952Y-45032380D01*
X113380952Y-45032380D02*
X113333333Y-44937142D01*
X113333333Y-44937142D02*
X113333333Y-44651428D01*
X113333333Y-44651428D02*
X113380952Y-44556190D01*
X113380952Y-44556190D02*
X113428571Y-44508571D01*
X113428571Y-44508571D02*
X113523809Y-44460952D01*
X113523809Y-44460952D02*
X113666666Y-44460952D01*
X113666666Y-44460952D02*
X113761904Y-44508571D01*
X113761904Y-44508571D02*
X113809523Y-44556190D01*
X113809523Y-44556190D02*
X113857142Y-44651428D01*
X113857142Y-44651428D02*
X113857142Y-44937142D01*
X113857142Y-44937142D02*
X113809523Y-45032380D01*
X113809523Y-45032380D02*
X113761904Y-45080000D01*
X113761904Y-45080000D02*
X113666666Y-45127619D01*
X113666666Y-45127619D02*
X113523809Y-45127619D01*
X114714285Y-45127619D02*
X114714285Y-44127619D01*
X114714285Y-45080000D02*
X114619047Y-45127619D01*
X114619047Y-45127619D02*
X114428571Y-45127619D01*
X114428571Y-45127619D02*
X114333333Y-45080000D01*
X114333333Y-45080000D02*
X114285714Y-45032380D01*
X114285714Y-45032380D02*
X114238095Y-44937142D01*
X114238095Y-44937142D02*
X114238095Y-44651428D01*
X114238095Y-44651428D02*
X114285714Y-44556190D01*
X114285714Y-44556190D02*
X114333333Y-44508571D01*
X114333333Y-44508571D02*
X114428571Y-44460952D01*
X114428571Y-44460952D02*
X114619047Y-44460952D01*
X114619047Y-44460952D02*
X114714285Y-44508571D01*
X115571428Y-45080000D02*
X115476190Y-45127619D01*
X115476190Y-45127619D02*
X115285714Y-45127619D01*
X115285714Y-45127619D02*
X115190476Y-45080000D01*
X115190476Y-45080000D02*
X115142857Y-44984761D01*
X115142857Y-44984761D02*
X115142857Y-44603809D01*
X115142857Y-44603809D02*
X115190476Y-44508571D01*
X115190476Y-44508571D02*
X115285714Y-44460952D01*
X115285714Y-44460952D02*
X115476190Y-44460952D01*
X115476190Y-44460952D02*
X115571428Y-44508571D01*
X115571428Y-44508571D02*
X115619047Y-44603809D01*
X115619047Y-44603809D02*
X115619047Y-44699047D01*
X115619047Y-44699047D02*
X115142857Y-44794285D01*
D11*
X124785714Y-33646000D02*
X125700000Y-33646000D01*
X100728571Y-49602000D02*
X100900000Y-49659142D01*
X100900000Y-49659142D02*
X101185714Y-49659142D01*
X101185714Y-49659142D02*
X101300000Y-49602000D01*
X101300000Y-49602000D02*
X101357142Y-49544857D01*
X101357142Y-49544857D02*
X101414285Y-49430571D01*
X101414285Y-49430571D02*
X101414285Y-49316285D01*
X101414285Y-49316285D02*
X101357142Y-49202000D01*
X101357142Y-49202000D02*
X101300000Y-49144857D01*
X101300000Y-49144857D02*
X101185714Y-49087714D01*
X101185714Y-49087714D02*
X100957142Y-49030571D01*
X100957142Y-49030571D02*
X100842857Y-48973428D01*
X100842857Y-48973428D02*
X100785714Y-48916285D01*
X100785714Y-48916285D02*
X100728571Y-48802000D01*
X100728571Y-48802000D02*
X100728571Y-48687714D01*
X100728571Y-48687714D02*
X100785714Y-48573428D01*
X100785714Y-48573428D02*
X100842857Y-48516285D01*
X100842857Y-48516285D02*
X100957142Y-48459142D01*
X100957142Y-48459142D02*
X101242857Y-48459142D01*
X101242857Y-48459142D02*
X101414285Y-48516285D01*
X102385714Y-49602000D02*
X102271428Y-49659142D01*
X102271428Y-49659142D02*
X102042857Y-49659142D01*
X102042857Y-49659142D02*
X101928571Y-49602000D01*
X101928571Y-49602000D02*
X101871428Y-49487714D01*
X101871428Y-49487714D02*
X101871428Y-49030571D01*
X101871428Y-49030571D02*
X101928571Y-48916285D01*
X101928571Y-48916285D02*
X102042857Y-48859142D01*
X102042857Y-48859142D02*
X102271428Y-48859142D01*
X102271428Y-48859142D02*
X102385714Y-48916285D01*
X102385714Y-48916285D02*
X102442857Y-49030571D01*
X102442857Y-49030571D02*
X102442857Y-49144857D01*
X102442857Y-49144857D02*
X101871428Y-49259142D01*
X102957142Y-48859142D02*
X102957142Y-49659142D01*
X102957142Y-48973428D02*
X103014285Y-48916285D01*
X103014285Y-48916285D02*
X103128570Y-48859142D01*
X103128570Y-48859142D02*
X103299999Y-48859142D01*
X103299999Y-48859142D02*
X103414285Y-48916285D01*
X103414285Y-48916285D02*
X103471428Y-49030571D01*
X103471428Y-49030571D02*
X103471428Y-49659142D01*
X103985713Y-49602000D02*
X104099999Y-49659142D01*
X104099999Y-49659142D02*
X104328570Y-49659142D01*
X104328570Y-49659142D02*
X104442856Y-49602000D01*
X104442856Y-49602000D02*
X104499999Y-49487714D01*
X104499999Y-49487714D02*
X104499999Y-49430571D01*
X104499999Y-49430571D02*
X104442856Y-49316285D01*
X104442856Y-49316285D02*
X104328570Y-49259142D01*
X104328570Y-49259142D02*
X104157142Y-49259142D01*
X104157142Y-49259142D02*
X104042856Y-49202000D01*
X104042856Y-49202000D02*
X103985713Y-49087714D01*
X103985713Y-49087714D02*
X103985713Y-49030571D01*
X103985713Y-49030571D02*
X104042856Y-48916285D01*
X104042856Y-48916285D02*
X104157142Y-48859142D01*
X104157142Y-48859142D02*
X104328570Y-48859142D01*
X104328570Y-48859142D02*
X104442856Y-48916285D01*
X105185713Y-49659142D02*
X105071428Y-49602000D01*
X105071428Y-49602000D02*
X105014285Y-49544857D01*
X105014285Y-49544857D02*
X104957142Y-49430571D01*
X104957142Y-49430571D02*
X104957142Y-49087714D01*
X104957142Y-49087714D02*
X105014285Y-48973428D01*
X105014285Y-48973428D02*
X105071428Y-48916285D01*
X105071428Y-48916285D02*
X105185713Y-48859142D01*
X105185713Y-48859142D02*
X105357142Y-48859142D01*
X105357142Y-48859142D02*
X105471428Y-48916285D01*
X105471428Y-48916285D02*
X105528571Y-48973428D01*
X105528571Y-48973428D02*
X105585713Y-49087714D01*
X105585713Y-49087714D02*
X105585713Y-49430571D01*
X105585713Y-49430571D02*
X105528571Y-49544857D01*
X105528571Y-49544857D02*
X105471428Y-49602000D01*
X105471428Y-49602000D02*
X105357142Y-49659142D01*
X105357142Y-49659142D02*
X105185713Y-49659142D01*
X106099999Y-49659142D02*
X106099999Y-48859142D01*
X106099999Y-49087714D02*
X106157142Y-48973428D01*
X106157142Y-48973428D02*
X106214285Y-48916285D01*
X106214285Y-48916285D02*
X106328570Y-48859142D01*
X106328570Y-48859142D02*
X106442856Y-48859142D01*
X107471427Y-49659142D02*
X106785713Y-49659142D01*
X107128570Y-49659142D02*
X107128570Y-48459142D01*
X107128570Y-48459142D02*
X107014284Y-48630571D01*
X107014284Y-48630571D02*
X106899999Y-48744857D01*
X106899999Y-48744857D02*
X106785713Y-48802000D01*
X100728571Y-51260285D02*
X101300000Y-51260285D01*
X100614285Y-51603142D02*
X101014285Y-50403142D01*
X101014285Y-50403142D02*
X101414285Y-51603142D01*
X102328571Y-51603142D02*
X102328571Y-50403142D01*
X102328571Y-51546000D02*
X102214285Y-51603142D01*
X102214285Y-51603142D02*
X101985713Y-51603142D01*
X101985713Y-51603142D02*
X101871428Y-51546000D01*
X101871428Y-51546000D02*
X101814285Y-51488857D01*
X101814285Y-51488857D02*
X101757142Y-51374571D01*
X101757142Y-51374571D02*
X101757142Y-51031714D01*
X101757142Y-51031714D02*
X101814285Y-50917428D01*
X101814285Y-50917428D02*
X101871428Y-50860285D01*
X101871428Y-50860285D02*
X101985713Y-50803142D01*
X101985713Y-50803142D02*
X102214285Y-50803142D01*
X102214285Y-50803142D02*
X102328571Y-50860285D01*
X103414285Y-51603142D02*
X103414285Y-50403142D01*
X103414285Y-51546000D02*
X103299999Y-51603142D01*
X103299999Y-51603142D02*
X103071427Y-51603142D01*
X103071427Y-51603142D02*
X102957142Y-51546000D01*
X102957142Y-51546000D02*
X102899999Y-51488857D01*
X102899999Y-51488857D02*
X102842856Y-51374571D01*
X102842856Y-51374571D02*
X102842856Y-51031714D01*
X102842856Y-51031714D02*
X102899999Y-50917428D01*
X102899999Y-50917428D02*
X102957142Y-50860285D01*
X102957142Y-50860285D02*
X103071427Y-50803142D01*
X103071427Y-50803142D02*
X103299999Y-50803142D01*
X103299999Y-50803142D02*
X103414285Y-50860285D01*
X103985713Y-51603142D02*
X103985713Y-50803142D01*
X103985713Y-51031714D02*
X104042856Y-50917428D01*
X104042856Y-50917428D02*
X104099999Y-50860285D01*
X104099999Y-50860285D02*
X104214284Y-50803142D01*
X104214284Y-50803142D02*
X104328570Y-50803142D01*
X105185713Y-51546000D02*
X105071427Y-51603142D01*
X105071427Y-51603142D02*
X104842856Y-51603142D01*
X104842856Y-51603142D02*
X104728570Y-51546000D01*
X104728570Y-51546000D02*
X104671427Y-51431714D01*
X104671427Y-51431714D02*
X104671427Y-50974571D01*
X104671427Y-50974571D02*
X104728570Y-50860285D01*
X104728570Y-50860285D02*
X104842856Y-50803142D01*
X104842856Y-50803142D02*
X105071427Y-50803142D01*
X105071427Y-50803142D02*
X105185713Y-50860285D01*
X105185713Y-50860285D02*
X105242856Y-50974571D01*
X105242856Y-50974571D02*
X105242856Y-51088857D01*
X105242856Y-51088857D02*
X104671427Y-51203142D01*
X105699998Y-51546000D02*
X105814284Y-51603142D01*
X105814284Y-51603142D02*
X106042855Y-51603142D01*
X106042855Y-51603142D02*
X106157141Y-51546000D01*
X106157141Y-51546000D02*
X106214284Y-51431714D01*
X106214284Y-51431714D02*
X106214284Y-51374571D01*
X106214284Y-51374571D02*
X106157141Y-51260285D01*
X106157141Y-51260285D02*
X106042855Y-51203142D01*
X106042855Y-51203142D02*
X105871427Y-51203142D01*
X105871427Y-51203142D02*
X105757141Y-51146000D01*
X105757141Y-51146000D02*
X105699998Y-51031714D01*
X105699998Y-51031714D02*
X105699998Y-50974571D01*
X105699998Y-50974571D02*
X105757141Y-50860285D01*
X105757141Y-50860285D02*
X105871427Y-50803142D01*
X105871427Y-50803142D02*
X106042855Y-50803142D01*
X106042855Y-50803142D02*
X106157141Y-50860285D01*
X106671427Y-51546000D02*
X106785713Y-51603142D01*
X106785713Y-51603142D02*
X107014284Y-51603142D01*
X107014284Y-51603142D02*
X107128570Y-51546000D01*
X107128570Y-51546000D02*
X107185713Y-51431714D01*
X107185713Y-51431714D02*
X107185713Y-51374571D01*
X107185713Y-51374571D02*
X107128570Y-51260285D01*
X107128570Y-51260285D02*
X107014284Y-51203142D01*
X107014284Y-51203142D02*
X106842856Y-51203142D01*
X106842856Y-51203142D02*
X106728570Y-51146000D01*
X106728570Y-51146000D02*
X106671427Y-51031714D01*
X106671427Y-51031714D02*
X106671427Y-50974571D01*
X106671427Y-50974571D02*
X106728570Y-50860285D01*
X106728570Y-50860285D02*
X106842856Y-50803142D01*
X106842856Y-50803142D02*
X107014284Y-50803142D01*
X107014284Y-50803142D02*
X107128570Y-50860285D01*
X124785714Y-36146000D02*
X125700000Y-36146000D01*
X125242857Y-36603142D02*
X125242857Y-35688857D01*
X118330000Y-48809523D02*
X118377619Y-48666666D01*
X118377619Y-48666666D02*
X118377619Y-48428571D01*
X118377619Y-48428571D02*
X118330000Y-48333333D01*
X118330000Y-48333333D02*
X118282380Y-48285714D01*
X118282380Y-48285714D02*
X118187142Y-48238095D01*
X118187142Y-48238095D02*
X118091904Y-48238095D01*
X118091904Y-48238095D02*
X117996666Y-48285714D01*
X117996666Y-48285714D02*
X117949047Y-48333333D01*
X117949047Y-48333333D02*
X117901428Y-48428571D01*
X117901428Y-48428571D02*
X117853809Y-48619047D01*
X117853809Y-48619047D02*
X117806190Y-48714285D01*
X117806190Y-48714285D02*
X117758571Y-48761904D01*
X117758571Y-48761904D02*
X117663333Y-48809523D01*
X117663333Y-48809523D02*
X117568095Y-48809523D01*
X117568095Y-48809523D02*
X117472857Y-48761904D01*
X117472857Y-48761904D02*
X117425238Y-48714285D01*
X117425238Y-48714285D02*
X117377619Y-48619047D01*
X117377619Y-48619047D02*
X117377619Y-48380952D01*
X117377619Y-48380952D02*
X117425238Y-48238095D01*
X118377619Y-47809523D02*
X117377619Y-47809523D01*
X117377619Y-47809523D02*
X117377619Y-47571428D01*
X117377619Y-47571428D02*
X117425238Y-47428571D01*
X117425238Y-47428571D02*
X117520476Y-47333333D01*
X117520476Y-47333333D02*
X117615714Y-47285714D01*
X117615714Y-47285714D02*
X117806190Y-47238095D01*
X117806190Y-47238095D02*
X117949047Y-47238095D01*
X117949047Y-47238095D02*
X118139523Y-47285714D01*
X118139523Y-47285714D02*
X118234761Y-47333333D01*
X118234761Y-47333333D02*
X118330000Y-47428571D01*
X118330000Y-47428571D02*
X118377619Y-47571428D01*
X118377619Y-47571428D02*
X118377619Y-47809523D01*
X118091904Y-46857142D02*
X118091904Y-46380952D01*
X118377619Y-46952380D02*
X117377619Y-46619047D01*
X117377619Y-46619047D02*
X118377619Y-46285714D01*
X120830000Y-48809523D02*
X120877619Y-48666666D01*
X120877619Y-48666666D02*
X120877619Y-48428571D01*
X120877619Y-48428571D02*
X120830000Y-48333333D01*
X120830000Y-48333333D02*
X120782380Y-48285714D01*
X120782380Y-48285714D02*
X120687142Y-48238095D01*
X120687142Y-48238095D02*
X120591904Y-48238095D01*
X120591904Y-48238095D02*
X120496666Y-48285714D01*
X120496666Y-48285714D02*
X120449047Y-48333333D01*
X120449047Y-48333333D02*
X120401428Y-48428571D01*
X120401428Y-48428571D02*
X120353809Y-48619047D01*
X120353809Y-48619047D02*
X120306190Y-48714285D01*
X120306190Y-48714285D02*
X120258571Y-48761904D01*
X120258571Y-48761904D02*
X120163333Y-48809523D01*
X120163333Y-48809523D02*
X120068095Y-48809523D01*
X120068095Y-48809523D02*
X119972857Y-48761904D01*
X119972857Y-48761904D02*
X119925238Y-48714285D01*
X119925238Y-48714285D02*
X119877619Y-48619047D01*
X119877619Y-48619047D02*
X119877619Y-48380952D01*
X119877619Y-48380952D02*
X119925238Y-48238095D01*
X120782380Y-47238095D02*
X120830000Y-47285714D01*
X120830000Y-47285714D02*
X120877619Y-47428571D01*
X120877619Y-47428571D02*
X120877619Y-47523809D01*
X120877619Y-47523809D02*
X120830000Y-47666666D01*
X120830000Y-47666666D02*
X120734761Y-47761904D01*
X120734761Y-47761904D02*
X120639523Y-47809523D01*
X120639523Y-47809523D02*
X120449047Y-47857142D01*
X120449047Y-47857142D02*
X120306190Y-47857142D01*
X120306190Y-47857142D02*
X120115714Y-47809523D01*
X120115714Y-47809523D02*
X120020476Y-47761904D01*
X120020476Y-47761904D02*
X119925238Y-47666666D01*
X119925238Y-47666666D02*
X119877619Y-47523809D01*
X119877619Y-47523809D02*
X119877619Y-47428571D01*
X119877619Y-47428571D02*
X119925238Y-47285714D01*
X119925238Y-47285714D02*
X119972857Y-47238095D01*
X120877619Y-46333333D02*
X120877619Y-46809523D01*
X120877619Y-46809523D02*
X119877619Y-46809523D01*
D10*
X120853809Y-36178571D02*
X120901428Y-36035714D01*
X120901428Y-36035714D02*
X120949047Y-35988095D01*
X120949047Y-35988095D02*
X121044285Y-35940476D01*
X121044285Y-35940476D02*
X121187142Y-35940476D01*
X121187142Y-35940476D02*
X121282380Y-35988095D01*
X121282380Y-35988095D02*
X121330000Y-36035714D01*
X121330000Y-36035714D02*
X121377619Y-36130952D01*
X121377619Y-36130952D02*
X121377619Y-36511904D01*
X121377619Y-36511904D02*
X120377619Y-36511904D01*
X120377619Y-36511904D02*
X120377619Y-36178571D01*
X120377619Y-36178571D02*
X120425238Y-36083333D01*
X120425238Y-36083333D02*
X120472857Y-36035714D01*
X120472857Y-36035714D02*
X120568095Y-35988095D01*
X120568095Y-35988095D02*
X120663333Y-35988095D01*
X120663333Y-35988095D02*
X120758571Y-36035714D01*
X120758571Y-36035714D02*
X120806190Y-36083333D01*
X120806190Y-36083333D02*
X120853809Y-36178571D01*
X120853809Y-36178571D02*
X120853809Y-36511904D01*
X121377619Y-35083333D02*
X120853809Y-35083333D01*
X120853809Y-35083333D02*
X120758571Y-35130952D01*
X120758571Y-35130952D02*
X120710952Y-35226190D01*
X120710952Y-35226190D02*
X120710952Y-35416666D01*
X120710952Y-35416666D02*
X120758571Y-35511904D01*
X121330000Y-35083333D02*
X121377619Y-35178571D01*
X121377619Y-35178571D02*
X121377619Y-35416666D01*
X121377619Y-35416666D02*
X121330000Y-35511904D01*
X121330000Y-35511904D02*
X121234761Y-35559523D01*
X121234761Y-35559523D02*
X121139523Y-35559523D01*
X121139523Y-35559523D02*
X121044285Y-35511904D01*
X121044285Y-35511904D02*
X120996666Y-35416666D01*
X120996666Y-35416666D02*
X120996666Y-35178571D01*
X120996666Y-35178571D02*
X120949047Y-35083333D01*
X120710952Y-34749999D02*
X120710952Y-34369047D01*
X120377619Y-34607142D02*
X121234761Y-34607142D01*
X121234761Y-34607142D02*
X121330000Y-34559523D01*
X121330000Y-34559523D02*
X121377619Y-34464285D01*
X121377619Y-34464285D02*
X121377619Y-34369047D01*
X120710952Y-34178570D02*
X120710952Y-33797618D01*
X120377619Y-34035713D02*
X121234761Y-34035713D01*
X121234761Y-34035713D02*
X121330000Y-33988094D01*
X121330000Y-33988094D02*
X121377619Y-33892856D01*
X121377619Y-33892856D02*
X121377619Y-33797618D01*
X111000000Y-47250000D02*
X111000000Y-51750000D01*
X98000000Y-41750000D02*
X106500000Y-41750000D01*
X106500000Y-32750000D02*
X98500000Y-32750000D01*
X106500000Y-41750000D02*
X106500000Y-32750000D01*
X100000000Y-47250000D02*
X100000000Y-52250000D01*
X122000000Y-32250000D02*
X126500000Y-32250000D01*
X126500000Y-37750000D01*
X122000000Y-37750000D01*
X122000000Y-32250000D01*
X112500000Y-33250000D02*
G75*
G03*
X112500000Y-33250000I-500000J0D01*
G01*
X105000000Y-47250000D02*
X111000000Y-47250000D01*
X100000000Y-52250000D02*
X106500000Y-52250000D01*
X111500000Y-39750000D02*
X117500000Y-39750000D01*
X117500000Y-45750000D01*
X111500000Y-45750000D01*
X111500000Y-39750000D01*
X98000000Y-37750000D02*
X98000000Y-41750000D01*
X101000000Y-47250000D02*
X100000000Y-47250000D01*
X111000000Y-74500000D02*
X111000000Y-79000000D01*
X100000000Y-74500000D02*
X100000000Y-79500000D01*
X101000000Y-74500000D02*
X100000000Y-74500000D01*
X106500000Y-60000000D02*
X98500000Y-60000000D01*
X98000000Y-69000000D02*
X106500000Y-69000000D01*
X122000000Y-59500000D02*
X126500000Y-59500000D01*
X126500000Y-65000000D01*
X122000000Y-65000000D01*
X122000000Y-59500000D01*
X112500000Y-60500000D02*
G75*
G03*
X112500000Y-60500000I-500000J0D01*
G01*
X98000000Y-65000000D02*
X98000000Y-69000000D01*
X111500000Y-67000000D02*
X117500000Y-67000000D01*
X117500000Y-73000000D01*
X111500000Y-73000000D01*
X111500000Y-67000000D01*
X100000000Y-79500000D02*
X106500000Y-79500000D01*
X106500000Y-69000000D02*
X106500000Y-60000000D01*
D12*
X94912500Y-70500000D02*
G75*
G03*
X94912500Y-70500000I-162500J0D01*
G01*
D10*
X105000000Y-74500000D02*
X111000000Y-74500000D01*
D13*
X92750000Y-68000000D02*
G75*
G03*
X92750000Y-68000000I-250000J0D01*
G01*
D10*
X120853809Y-63428571D02*
X120901428Y-63285714D01*
X120901428Y-63285714D02*
X120949047Y-63238095D01*
X120949047Y-63238095D02*
X121044285Y-63190476D01*
X121044285Y-63190476D02*
X121187142Y-63190476D01*
X121187142Y-63190476D02*
X121282380Y-63238095D01*
X121282380Y-63238095D02*
X121330000Y-63285714D01*
X121330000Y-63285714D02*
X121377619Y-63380952D01*
X121377619Y-63380952D02*
X121377619Y-63761904D01*
X121377619Y-63761904D02*
X120377619Y-63761904D01*
X120377619Y-63761904D02*
X120377619Y-63428571D01*
X120377619Y-63428571D02*
X120425238Y-63333333D01*
X120425238Y-63333333D02*
X120472857Y-63285714D01*
X120472857Y-63285714D02*
X120568095Y-63238095D01*
X120568095Y-63238095D02*
X120663333Y-63238095D01*
X120663333Y-63238095D02*
X120758571Y-63285714D01*
X120758571Y-63285714D02*
X120806190Y-63333333D01*
X120806190Y-63333333D02*
X120853809Y-63428571D01*
X120853809Y-63428571D02*
X120853809Y-63761904D01*
X121377619Y-62333333D02*
X120853809Y-62333333D01*
X120853809Y-62333333D02*
X120758571Y-62380952D01*
X120758571Y-62380952D02*
X120710952Y-62476190D01*
X120710952Y-62476190D02*
X120710952Y-62666666D01*
X120710952Y-62666666D02*
X120758571Y-62761904D01*
X121330000Y-62333333D02*
X121377619Y-62428571D01*
X121377619Y-62428571D02*
X121377619Y-62666666D01*
X121377619Y-62666666D02*
X121330000Y-62761904D01*
X121330000Y-62761904D02*
X121234761Y-62809523D01*
X121234761Y-62809523D02*
X121139523Y-62809523D01*
X121139523Y-62809523D02*
X121044285Y-62761904D01*
X121044285Y-62761904D02*
X120996666Y-62666666D01*
X120996666Y-62666666D02*
X120996666Y-62428571D01*
X120996666Y-62428571D02*
X120949047Y-62333333D01*
X120710952Y-61999999D02*
X120710952Y-61619047D01*
X120377619Y-61857142D02*
X121234761Y-61857142D01*
X121234761Y-61857142D02*
X121330000Y-61809523D01*
X121330000Y-61809523D02*
X121377619Y-61714285D01*
X121377619Y-61714285D02*
X121377619Y-61619047D01*
X120710952Y-61428570D02*
X120710952Y-61047618D01*
X120377619Y-61285713D02*
X121234761Y-61285713D01*
X121234761Y-61285713D02*
X121330000Y-61238094D01*
X121330000Y-61238094D02*
X121377619Y-61142856D01*
X121377619Y-61142856D02*
X121377619Y-61047618D01*
D11*
X120830000Y-76059523D02*
X120877619Y-75916666D01*
X120877619Y-75916666D02*
X120877619Y-75678571D01*
X120877619Y-75678571D02*
X120830000Y-75583333D01*
X120830000Y-75583333D02*
X120782380Y-75535714D01*
X120782380Y-75535714D02*
X120687142Y-75488095D01*
X120687142Y-75488095D02*
X120591904Y-75488095D01*
X120591904Y-75488095D02*
X120496666Y-75535714D01*
X120496666Y-75535714D02*
X120449047Y-75583333D01*
X120449047Y-75583333D02*
X120401428Y-75678571D01*
X120401428Y-75678571D02*
X120353809Y-75869047D01*
X120353809Y-75869047D02*
X120306190Y-75964285D01*
X120306190Y-75964285D02*
X120258571Y-76011904D01*
X120258571Y-76011904D02*
X120163333Y-76059523D01*
X120163333Y-76059523D02*
X120068095Y-76059523D01*
X120068095Y-76059523D02*
X119972857Y-76011904D01*
X119972857Y-76011904D02*
X119925238Y-75964285D01*
X119925238Y-75964285D02*
X119877619Y-75869047D01*
X119877619Y-75869047D02*
X119877619Y-75630952D01*
X119877619Y-75630952D02*
X119925238Y-75488095D01*
X120782380Y-74488095D02*
X120830000Y-74535714D01*
X120830000Y-74535714D02*
X120877619Y-74678571D01*
X120877619Y-74678571D02*
X120877619Y-74773809D01*
X120877619Y-74773809D02*
X120830000Y-74916666D01*
X120830000Y-74916666D02*
X120734761Y-75011904D01*
X120734761Y-75011904D02*
X120639523Y-75059523D01*
X120639523Y-75059523D02*
X120449047Y-75107142D01*
X120449047Y-75107142D02*
X120306190Y-75107142D01*
X120306190Y-75107142D02*
X120115714Y-75059523D01*
X120115714Y-75059523D02*
X120020476Y-75011904D01*
X120020476Y-75011904D02*
X119925238Y-74916666D01*
X119925238Y-74916666D02*
X119877619Y-74773809D01*
X119877619Y-74773809D02*
X119877619Y-74678571D01*
X119877619Y-74678571D02*
X119925238Y-74535714D01*
X119925238Y-74535714D02*
X119972857Y-74488095D01*
X120877619Y-73583333D02*
X120877619Y-74059523D01*
X120877619Y-74059523D02*
X119877619Y-74059523D01*
X118330000Y-76059523D02*
X118377619Y-75916666D01*
X118377619Y-75916666D02*
X118377619Y-75678571D01*
X118377619Y-75678571D02*
X118330000Y-75583333D01*
X118330000Y-75583333D02*
X118282380Y-75535714D01*
X118282380Y-75535714D02*
X118187142Y-75488095D01*
X118187142Y-75488095D02*
X118091904Y-75488095D01*
X118091904Y-75488095D02*
X117996666Y-75535714D01*
X117996666Y-75535714D02*
X117949047Y-75583333D01*
X117949047Y-75583333D02*
X117901428Y-75678571D01*
X117901428Y-75678571D02*
X117853809Y-75869047D01*
X117853809Y-75869047D02*
X117806190Y-75964285D01*
X117806190Y-75964285D02*
X117758571Y-76011904D01*
X117758571Y-76011904D02*
X117663333Y-76059523D01*
X117663333Y-76059523D02*
X117568095Y-76059523D01*
X117568095Y-76059523D02*
X117472857Y-76011904D01*
X117472857Y-76011904D02*
X117425238Y-75964285D01*
X117425238Y-75964285D02*
X117377619Y-75869047D01*
X117377619Y-75869047D02*
X117377619Y-75630952D01*
X117377619Y-75630952D02*
X117425238Y-75488095D01*
X118377619Y-75059523D02*
X117377619Y-75059523D01*
X117377619Y-75059523D02*
X117377619Y-74821428D01*
X117377619Y-74821428D02*
X117425238Y-74678571D01*
X117425238Y-74678571D02*
X117520476Y-74583333D01*
X117520476Y-74583333D02*
X117615714Y-74535714D01*
X117615714Y-74535714D02*
X117806190Y-74488095D01*
X117806190Y-74488095D02*
X117949047Y-74488095D01*
X117949047Y-74488095D02*
X118139523Y-74535714D01*
X118139523Y-74535714D02*
X118234761Y-74583333D01*
X118234761Y-74583333D02*
X118330000Y-74678571D01*
X118330000Y-74678571D02*
X118377619Y-74821428D01*
X118377619Y-74821428D02*
X118377619Y-75059523D01*
X118091904Y-74107142D02*
X118091904Y-73630952D01*
X118377619Y-74202380D02*
X117377619Y-73869047D01*
X117377619Y-73869047D02*
X118377619Y-73535714D01*
X124785714Y-63396000D02*
X125700000Y-63396000D01*
X125242857Y-63853142D02*
X125242857Y-62938857D01*
X100728571Y-76852000D02*
X100900000Y-76909142D01*
X100900000Y-76909142D02*
X101185714Y-76909142D01*
X101185714Y-76909142D02*
X101300000Y-76852000D01*
X101300000Y-76852000D02*
X101357142Y-76794857D01*
X101357142Y-76794857D02*
X101414285Y-76680571D01*
X101414285Y-76680571D02*
X101414285Y-76566285D01*
X101414285Y-76566285D02*
X101357142Y-76452000D01*
X101357142Y-76452000D02*
X101300000Y-76394857D01*
X101300000Y-76394857D02*
X101185714Y-76337714D01*
X101185714Y-76337714D02*
X100957142Y-76280571D01*
X100957142Y-76280571D02*
X100842857Y-76223428D01*
X100842857Y-76223428D02*
X100785714Y-76166285D01*
X100785714Y-76166285D02*
X100728571Y-76052000D01*
X100728571Y-76052000D02*
X100728571Y-75937714D01*
X100728571Y-75937714D02*
X100785714Y-75823428D01*
X100785714Y-75823428D02*
X100842857Y-75766285D01*
X100842857Y-75766285D02*
X100957142Y-75709142D01*
X100957142Y-75709142D02*
X101242857Y-75709142D01*
X101242857Y-75709142D02*
X101414285Y-75766285D01*
X102385714Y-76852000D02*
X102271428Y-76909142D01*
X102271428Y-76909142D02*
X102042857Y-76909142D01*
X102042857Y-76909142D02*
X101928571Y-76852000D01*
X101928571Y-76852000D02*
X101871428Y-76737714D01*
X101871428Y-76737714D02*
X101871428Y-76280571D01*
X101871428Y-76280571D02*
X101928571Y-76166285D01*
X101928571Y-76166285D02*
X102042857Y-76109142D01*
X102042857Y-76109142D02*
X102271428Y-76109142D01*
X102271428Y-76109142D02*
X102385714Y-76166285D01*
X102385714Y-76166285D02*
X102442857Y-76280571D01*
X102442857Y-76280571D02*
X102442857Y-76394857D01*
X102442857Y-76394857D02*
X101871428Y-76509142D01*
X102957142Y-76109142D02*
X102957142Y-76909142D01*
X102957142Y-76223428D02*
X103014285Y-76166285D01*
X103014285Y-76166285D02*
X103128570Y-76109142D01*
X103128570Y-76109142D02*
X103299999Y-76109142D01*
X103299999Y-76109142D02*
X103414285Y-76166285D01*
X103414285Y-76166285D02*
X103471428Y-76280571D01*
X103471428Y-76280571D02*
X103471428Y-76909142D01*
X103985713Y-76852000D02*
X104099999Y-76909142D01*
X104099999Y-76909142D02*
X104328570Y-76909142D01*
X104328570Y-76909142D02*
X104442856Y-76852000D01*
X104442856Y-76852000D02*
X104499999Y-76737714D01*
X104499999Y-76737714D02*
X104499999Y-76680571D01*
X104499999Y-76680571D02*
X104442856Y-76566285D01*
X104442856Y-76566285D02*
X104328570Y-76509142D01*
X104328570Y-76509142D02*
X104157142Y-76509142D01*
X104157142Y-76509142D02*
X104042856Y-76452000D01*
X104042856Y-76452000D02*
X103985713Y-76337714D01*
X103985713Y-76337714D02*
X103985713Y-76280571D01*
X103985713Y-76280571D02*
X104042856Y-76166285D01*
X104042856Y-76166285D02*
X104157142Y-76109142D01*
X104157142Y-76109142D02*
X104328570Y-76109142D01*
X104328570Y-76109142D02*
X104442856Y-76166285D01*
X105185713Y-76909142D02*
X105071428Y-76852000D01*
X105071428Y-76852000D02*
X105014285Y-76794857D01*
X105014285Y-76794857D02*
X104957142Y-76680571D01*
X104957142Y-76680571D02*
X104957142Y-76337714D01*
X104957142Y-76337714D02*
X105014285Y-76223428D01*
X105014285Y-76223428D02*
X105071428Y-76166285D01*
X105071428Y-76166285D02*
X105185713Y-76109142D01*
X105185713Y-76109142D02*
X105357142Y-76109142D01*
X105357142Y-76109142D02*
X105471428Y-76166285D01*
X105471428Y-76166285D02*
X105528571Y-76223428D01*
X105528571Y-76223428D02*
X105585713Y-76337714D01*
X105585713Y-76337714D02*
X105585713Y-76680571D01*
X105585713Y-76680571D02*
X105528571Y-76794857D01*
X105528571Y-76794857D02*
X105471428Y-76852000D01*
X105471428Y-76852000D02*
X105357142Y-76909142D01*
X105357142Y-76909142D02*
X105185713Y-76909142D01*
X106099999Y-76909142D02*
X106099999Y-76109142D01*
X106099999Y-76337714D02*
X106157142Y-76223428D01*
X106157142Y-76223428D02*
X106214285Y-76166285D01*
X106214285Y-76166285D02*
X106328570Y-76109142D01*
X106328570Y-76109142D02*
X106442856Y-76109142D01*
X107471427Y-76909142D02*
X106785713Y-76909142D01*
X107128570Y-76909142D02*
X107128570Y-75709142D01*
X107128570Y-75709142D02*
X107014284Y-75880571D01*
X107014284Y-75880571D02*
X106899999Y-75994857D01*
X106899999Y-75994857D02*
X106785713Y-76052000D01*
X100728571Y-78510285D02*
X101300000Y-78510285D01*
X100614285Y-78853142D02*
X101014285Y-77653142D01*
X101014285Y-77653142D02*
X101414285Y-78853142D01*
X102328571Y-78853142D02*
X102328571Y-77653142D01*
X102328571Y-78796000D02*
X102214285Y-78853142D01*
X102214285Y-78853142D02*
X101985713Y-78853142D01*
X101985713Y-78853142D02*
X101871428Y-78796000D01*
X101871428Y-78796000D02*
X101814285Y-78738857D01*
X101814285Y-78738857D02*
X101757142Y-78624571D01*
X101757142Y-78624571D02*
X101757142Y-78281714D01*
X101757142Y-78281714D02*
X101814285Y-78167428D01*
X101814285Y-78167428D02*
X101871428Y-78110285D01*
X101871428Y-78110285D02*
X101985713Y-78053142D01*
X101985713Y-78053142D02*
X102214285Y-78053142D01*
X102214285Y-78053142D02*
X102328571Y-78110285D01*
X103414285Y-78853142D02*
X103414285Y-77653142D01*
X103414285Y-78796000D02*
X103299999Y-78853142D01*
X103299999Y-78853142D02*
X103071427Y-78853142D01*
X103071427Y-78853142D02*
X102957142Y-78796000D01*
X102957142Y-78796000D02*
X102899999Y-78738857D01*
X102899999Y-78738857D02*
X102842856Y-78624571D01*
X102842856Y-78624571D02*
X102842856Y-78281714D01*
X102842856Y-78281714D02*
X102899999Y-78167428D01*
X102899999Y-78167428D02*
X102957142Y-78110285D01*
X102957142Y-78110285D02*
X103071427Y-78053142D01*
X103071427Y-78053142D02*
X103299999Y-78053142D01*
X103299999Y-78053142D02*
X103414285Y-78110285D01*
X103985713Y-78853142D02*
X103985713Y-78053142D01*
X103985713Y-78281714D02*
X104042856Y-78167428D01*
X104042856Y-78167428D02*
X104099999Y-78110285D01*
X104099999Y-78110285D02*
X104214284Y-78053142D01*
X104214284Y-78053142D02*
X104328570Y-78053142D01*
X105185713Y-78796000D02*
X105071427Y-78853142D01*
X105071427Y-78853142D02*
X104842856Y-78853142D01*
X104842856Y-78853142D02*
X104728570Y-78796000D01*
X104728570Y-78796000D02*
X104671427Y-78681714D01*
X104671427Y-78681714D02*
X104671427Y-78224571D01*
X104671427Y-78224571D02*
X104728570Y-78110285D01*
X104728570Y-78110285D02*
X104842856Y-78053142D01*
X104842856Y-78053142D02*
X105071427Y-78053142D01*
X105071427Y-78053142D02*
X105185713Y-78110285D01*
X105185713Y-78110285D02*
X105242856Y-78224571D01*
X105242856Y-78224571D02*
X105242856Y-78338857D01*
X105242856Y-78338857D02*
X104671427Y-78453142D01*
X105699998Y-78796000D02*
X105814284Y-78853142D01*
X105814284Y-78853142D02*
X106042855Y-78853142D01*
X106042855Y-78853142D02*
X106157141Y-78796000D01*
X106157141Y-78796000D02*
X106214284Y-78681714D01*
X106214284Y-78681714D02*
X106214284Y-78624571D01*
X106214284Y-78624571D02*
X106157141Y-78510285D01*
X106157141Y-78510285D02*
X106042855Y-78453142D01*
X106042855Y-78453142D02*
X105871427Y-78453142D01*
X105871427Y-78453142D02*
X105757141Y-78396000D01*
X105757141Y-78396000D02*
X105699998Y-78281714D01*
X105699998Y-78281714D02*
X105699998Y-78224571D01*
X105699998Y-78224571D02*
X105757141Y-78110285D01*
X105757141Y-78110285D02*
X105871427Y-78053142D01*
X105871427Y-78053142D02*
X106042855Y-78053142D01*
X106042855Y-78053142D02*
X106157141Y-78110285D01*
X106671427Y-78796000D02*
X106785713Y-78853142D01*
X106785713Y-78853142D02*
X107014284Y-78853142D01*
X107014284Y-78853142D02*
X107128570Y-78796000D01*
X107128570Y-78796000D02*
X107185713Y-78681714D01*
X107185713Y-78681714D02*
X107185713Y-78624571D01*
X107185713Y-78624571D02*
X107128570Y-78510285D01*
X107128570Y-78510285D02*
X107014284Y-78453142D01*
X107014284Y-78453142D02*
X106842856Y-78453142D01*
X106842856Y-78453142D02*
X106728570Y-78396000D01*
X106728570Y-78396000D02*
X106671427Y-78281714D01*
X106671427Y-78281714D02*
X106671427Y-78224571D01*
X106671427Y-78224571D02*
X106728570Y-78110285D01*
X106728570Y-78110285D02*
X106842856Y-78053142D01*
X106842856Y-78053142D02*
X107014284Y-78053142D01*
X107014284Y-78053142D02*
X107128570Y-78110285D01*
X124785714Y-60896000D02*
X125700000Y-60896000D01*
D10*
X112571428Y-70233809D02*
X112714285Y-70281428D01*
X112714285Y-70281428D02*
X112761904Y-70329047D01*
X112761904Y-70329047D02*
X112809523Y-70424285D01*
X112809523Y-70424285D02*
X112809523Y-70567142D01*
X112809523Y-70567142D02*
X112761904Y-70662380D01*
X112761904Y-70662380D02*
X112714285Y-70710000D01*
X112714285Y-70710000D02*
X112619047Y-70757619D01*
X112619047Y-70757619D02*
X112238095Y-70757619D01*
X112238095Y-70757619D02*
X112238095Y-69757619D01*
X112238095Y-69757619D02*
X112571428Y-69757619D01*
X112571428Y-69757619D02*
X112666666Y-69805238D01*
X112666666Y-69805238D02*
X112714285Y-69852857D01*
X112714285Y-69852857D02*
X112761904Y-69948095D01*
X112761904Y-69948095D02*
X112761904Y-70043333D01*
X112761904Y-70043333D02*
X112714285Y-70138571D01*
X112714285Y-70138571D02*
X112666666Y-70186190D01*
X112666666Y-70186190D02*
X112571428Y-70233809D01*
X112571428Y-70233809D02*
X112238095Y-70233809D01*
X113666666Y-70757619D02*
X113666666Y-70233809D01*
X113666666Y-70233809D02*
X113619047Y-70138571D01*
X113619047Y-70138571D02*
X113523809Y-70090952D01*
X113523809Y-70090952D02*
X113333333Y-70090952D01*
X113333333Y-70090952D02*
X113238095Y-70138571D01*
X113666666Y-70710000D02*
X113571428Y-70757619D01*
X113571428Y-70757619D02*
X113333333Y-70757619D01*
X113333333Y-70757619D02*
X113238095Y-70710000D01*
X113238095Y-70710000D02*
X113190476Y-70614761D01*
X113190476Y-70614761D02*
X113190476Y-70519523D01*
X113190476Y-70519523D02*
X113238095Y-70424285D01*
X113238095Y-70424285D02*
X113333333Y-70376666D01*
X113333333Y-70376666D02*
X113571428Y-70376666D01*
X113571428Y-70376666D02*
X113666666Y-70329047D01*
X114000000Y-70090952D02*
X114380952Y-70090952D01*
X114142857Y-69757619D02*
X114142857Y-70614761D01*
X114142857Y-70614761D02*
X114190476Y-70710000D01*
X114190476Y-70710000D02*
X114285714Y-70757619D01*
X114285714Y-70757619D02*
X114380952Y-70757619D01*
X114571429Y-70090952D02*
X114952381Y-70090952D01*
X114714286Y-69757619D02*
X114714286Y-70614761D01*
X114714286Y-70614761D02*
X114761905Y-70710000D01*
X114761905Y-70710000D02*
X114857143Y-70757619D01*
X114857143Y-70757619D02*
X114952381Y-70757619D01*
X115666667Y-70710000D02*
X115571429Y-70757619D01*
X115571429Y-70757619D02*
X115380953Y-70757619D01*
X115380953Y-70757619D02*
X115285715Y-70710000D01*
X115285715Y-70710000D02*
X115238096Y-70614761D01*
X115238096Y-70614761D02*
X115238096Y-70233809D01*
X115238096Y-70233809D02*
X115285715Y-70138571D01*
X115285715Y-70138571D02*
X115380953Y-70090952D01*
X115380953Y-70090952D02*
X115571429Y-70090952D01*
X115571429Y-70090952D02*
X115666667Y-70138571D01*
X115666667Y-70138571D02*
X115714286Y-70233809D01*
X115714286Y-70233809D02*
X115714286Y-70329047D01*
X115714286Y-70329047D02*
X115238096Y-70424285D01*
X116142858Y-70757619D02*
X116142858Y-70090952D01*
X116142858Y-70281428D02*
X116190477Y-70186190D01*
X116190477Y-70186190D02*
X116238096Y-70138571D01*
X116238096Y-70138571D02*
X116333334Y-70090952D01*
X116333334Y-70090952D02*
X116428572Y-70090952D01*
X116666668Y-70090952D02*
X116904763Y-70757619D01*
X117142858Y-70090952D02*
X116904763Y-70757619D01*
X116904763Y-70757619D02*
X116809525Y-70995714D01*
X116809525Y-70995714D02*
X116761906Y-71043333D01*
X116761906Y-71043333D02*
X116666668Y-71090952D01*
X112238095Y-72377619D02*
X112238095Y-71377619D01*
X112238095Y-71377619D02*
X112571428Y-72091904D01*
X112571428Y-72091904D02*
X112904761Y-71377619D01*
X112904761Y-71377619D02*
X112904761Y-72377619D01*
X113523809Y-72377619D02*
X113428571Y-72330000D01*
X113428571Y-72330000D02*
X113380952Y-72282380D01*
X113380952Y-72282380D02*
X113333333Y-72187142D01*
X113333333Y-72187142D02*
X113333333Y-71901428D01*
X113333333Y-71901428D02*
X113380952Y-71806190D01*
X113380952Y-71806190D02*
X113428571Y-71758571D01*
X113428571Y-71758571D02*
X113523809Y-71710952D01*
X113523809Y-71710952D02*
X113666666Y-71710952D01*
X113666666Y-71710952D02*
X113761904Y-71758571D01*
X113761904Y-71758571D02*
X113809523Y-71806190D01*
X113809523Y-71806190D02*
X113857142Y-71901428D01*
X113857142Y-71901428D02*
X113857142Y-72187142D01*
X113857142Y-72187142D02*
X113809523Y-72282380D01*
X113809523Y-72282380D02*
X113761904Y-72330000D01*
X113761904Y-72330000D02*
X113666666Y-72377619D01*
X113666666Y-72377619D02*
X113523809Y-72377619D01*
X114714285Y-72377619D02*
X114714285Y-71377619D01*
X114714285Y-72330000D02*
X114619047Y-72377619D01*
X114619047Y-72377619D02*
X114428571Y-72377619D01*
X114428571Y-72377619D02*
X114333333Y-72330000D01*
X114333333Y-72330000D02*
X114285714Y-72282380D01*
X114285714Y-72282380D02*
X114238095Y-72187142D01*
X114238095Y-72187142D02*
X114238095Y-71901428D01*
X114238095Y-71901428D02*
X114285714Y-71806190D01*
X114285714Y-71806190D02*
X114333333Y-71758571D01*
X114333333Y-71758571D02*
X114428571Y-71710952D01*
X114428571Y-71710952D02*
X114619047Y-71710952D01*
X114619047Y-71710952D02*
X114714285Y-71758571D01*
X115571428Y-72330000D02*
X115476190Y-72377619D01*
X115476190Y-72377619D02*
X115285714Y-72377619D01*
X115285714Y-72377619D02*
X115190476Y-72330000D01*
X115190476Y-72330000D02*
X115142857Y-72234761D01*
X115142857Y-72234761D02*
X115142857Y-71853809D01*
X115142857Y-71853809D02*
X115190476Y-71758571D01*
X115190476Y-71758571D02*
X115285714Y-71710952D01*
X115285714Y-71710952D02*
X115476190Y-71710952D01*
X115476190Y-71710952D02*
X115571428Y-71758571D01*
X115571428Y-71758571D02*
X115619047Y-71853809D01*
X115619047Y-71853809D02*
X115619047Y-71949047D01*
X115619047Y-71949047D02*
X115142857Y-72044285D01*
D11*
X98728571Y-66352000D02*
X98900000Y-66409142D01*
X98900000Y-66409142D02*
X99185714Y-66409142D01*
X99185714Y-66409142D02*
X99300000Y-66352000D01*
X99300000Y-66352000D02*
X99357142Y-66294857D01*
X99357142Y-66294857D02*
X99414285Y-66180571D01*
X99414285Y-66180571D02*
X99414285Y-66066285D01*
X99414285Y-66066285D02*
X99357142Y-65952000D01*
X99357142Y-65952000D02*
X99300000Y-65894857D01*
X99300000Y-65894857D02*
X99185714Y-65837714D01*
X99185714Y-65837714D02*
X98957142Y-65780571D01*
X98957142Y-65780571D02*
X98842857Y-65723428D01*
X98842857Y-65723428D02*
X98785714Y-65666285D01*
X98785714Y-65666285D02*
X98728571Y-65552000D01*
X98728571Y-65552000D02*
X98728571Y-65437714D01*
X98728571Y-65437714D02*
X98785714Y-65323428D01*
X98785714Y-65323428D02*
X98842857Y-65266285D01*
X98842857Y-65266285D02*
X98957142Y-65209142D01*
X98957142Y-65209142D02*
X99242857Y-65209142D01*
X99242857Y-65209142D02*
X99414285Y-65266285D01*
X100385714Y-66352000D02*
X100271428Y-66409142D01*
X100271428Y-66409142D02*
X100042857Y-66409142D01*
X100042857Y-66409142D02*
X99928571Y-66352000D01*
X99928571Y-66352000D02*
X99871428Y-66237714D01*
X99871428Y-66237714D02*
X99871428Y-65780571D01*
X99871428Y-65780571D02*
X99928571Y-65666285D01*
X99928571Y-65666285D02*
X100042857Y-65609142D01*
X100042857Y-65609142D02*
X100271428Y-65609142D01*
X100271428Y-65609142D02*
X100385714Y-65666285D01*
X100385714Y-65666285D02*
X100442857Y-65780571D01*
X100442857Y-65780571D02*
X100442857Y-65894857D01*
X100442857Y-65894857D02*
X99871428Y-66009142D01*
X100957142Y-65609142D02*
X100957142Y-66409142D01*
X100957142Y-65723428D02*
X101014285Y-65666285D01*
X101014285Y-65666285D02*
X101128570Y-65609142D01*
X101128570Y-65609142D02*
X101299999Y-65609142D01*
X101299999Y-65609142D02*
X101414285Y-65666285D01*
X101414285Y-65666285D02*
X101471428Y-65780571D01*
X101471428Y-65780571D02*
X101471428Y-66409142D01*
X101985713Y-66352000D02*
X102099999Y-66409142D01*
X102099999Y-66409142D02*
X102328570Y-66409142D01*
X102328570Y-66409142D02*
X102442856Y-66352000D01*
X102442856Y-66352000D02*
X102499999Y-66237714D01*
X102499999Y-66237714D02*
X102499999Y-66180571D01*
X102499999Y-66180571D02*
X102442856Y-66066285D01*
X102442856Y-66066285D02*
X102328570Y-66009142D01*
X102328570Y-66009142D02*
X102157142Y-66009142D01*
X102157142Y-66009142D02*
X102042856Y-65952000D01*
X102042856Y-65952000D02*
X101985713Y-65837714D01*
X101985713Y-65837714D02*
X101985713Y-65780571D01*
X101985713Y-65780571D02*
X102042856Y-65666285D01*
X102042856Y-65666285D02*
X102157142Y-65609142D01*
X102157142Y-65609142D02*
X102328570Y-65609142D01*
X102328570Y-65609142D02*
X102442856Y-65666285D01*
X103185713Y-66409142D02*
X103071428Y-66352000D01*
X103071428Y-66352000D02*
X103014285Y-66294857D01*
X103014285Y-66294857D02*
X102957142Y-66180571D01*
X102957142Y-66180571D02*
X102957142Y-65837714D01*
X102957142Y-65837714D02*
X103014285Y-65723428D01*
X103014285Y-65723428D02*
X103071428Y-65666285D01*
X103071428Y-65666285D02*
X103185713Y-65609142D01*
X103185713Y-65609142D02*
X103357142Y-65609142D01*
X103357142Y-65609142D02*
X103471428Y-65666285D01*
X103471428Y-65666285D02*
X103528571Y-65723428D01*
X103528571Y-65723428D02*
X103585713Y-65837714D01*
X103585713Y-65837714D02*
X103585713Y-66180571D01*
X103585713Y-66180571D02*
X103528571Y-66294857D01*
X103528571Y-66294857D02*
X103471428Y-66352000D01*
X103471428Y-66352000D02*
X103357142Y-66409142D01*
X103357142Y-66409142D02*
X103185713Y-66409142D01*
X104099999Y-66409142D02*
X104099999Y-65609142D01*
X104099999Y-65837714D02*
X104157142Y-65723428D01*
X104157142Y-65723428D02*
X104214285Y-65666285D01*
X104214285Y-65666285D02*
X104328570Y-65609142D01*
X104328570Y-65609142D02*
X104442856Y-65609142D01*
X105071427Y-65209142D02*
X105185713Y-65209142D01*
X105185713Y-65209142D02*
X105299999Y-65266285D01*
X105299999Y-65266285D02*
X105357142Y-65323428D01*
X105357142Y-65323428D02*
X105414284Y-65437714D01*
X105414284Y-65437714D02*
X105471427Y-65666285D01*
X105471427Y-65666285D02*
X105471427Y-65952000D01*
X105471427Y-65952000D02*
X105414284Y-66180571D01*
X105414284Y-66180571D02*
X105357142Y-66294857D01*
X105357142Y-66294857D02*
X105299999Y-66352000D01*
X105299999Y-66352000D02*
X105185713Y-66409142D01*
X105185713Y-66409142D02*
X105071427Y-66409142D01*
X105071427Y-66409142D02*
X104957142Y-66352000D01*
X104957142Y-66352000D02*
X104899999Y-66294857D01*
X104899999Y-66294857D02*
X104842856Y-66180571D01*
X104842856Y-66180571D02*
X104785713Y-65952000D01*
X104785713Y-65952000D02*
X104785713Y-65666285D01*
X104785713Y-65666285D02*
X104842856Y-65437714D01*
X104842856Y-65437714D02*
X104899999Y-65323428D01*
X104899999Y-65323428D02*
X104957142Y-65266285D01*
X104957142Y-65266285D02*
X105071427Y-65209142D01*
X98728571Y-68010285D02*
X99300000Y-68010285D01*
X98614285Y-68353142D02*
X99014285Y-67153142D01*
X99014285Y-67153142D02*
X99414285Y-68353142D01*
X100328571Y-68353142D02*
X100328571Y-67153142D01*
X100328571Y-68296000D02*
X100214285Y-68353142D01*
X100214285Y-68353142D02*
X99985713Y-68353142D01*
X99985713Y-68353142D02*
X99871428Y-68296000D01*
X99871428Y-68296000D02*
X99814285Y-68238857D01*
X99814285Y-68238857D02*
X99757142Y-68124571D01*
X99757142Y-68124571D02*
X99757142Y-67781714D01*
X99757142Y-67781714D02*
X99814285Y-67667428D01*
X99814285Y-67667428D02*
X99871428Y-67610285D01*
X99871428Y-67610285D02*
X99985713Y-67553142D01*
X99985713Y-67553142D02*
X100214285Y-67553142D01*
X100214285Y-67553142D02*
X100328571Y-67610285D01*
X101414285Y-68353142D02*
X101414285Y-67153142D01*
X101414285Y-68296000D02*
X101299999Y-68353142D01*
X101299999Y-68353142D02*
X101071427Y-68353142D01*
X101071427Y-68353142D02*
X100957142Y-68296000D01*
X100957142Y-68296000D02*
X100899999Y-68238857D01*
X100899999Y-68238857D02*
X100842856Y-68124571D01*
X100842856Y-68124571D02*
X100842856Y-67781714D01*
X100842856Y-67781714D02*
X100899999Y-67667428D01*
X100899999Y-67667428D02*
X100957142Y-67610285D01*
X100957142Y-67610285D02*
X101071427Y-67553142D01*
X101071427Y-67553142D02*
X101299999Y-67553142D01*
X101299999Y-67553142D02*
X101414285Y-67610285D01*
X101985713Y-68353142D02*
X101985713Y-67553142D01*
X101985713Y-67781714D02*
X102042856Y-67667428D01*
X102042856Y-67667428D02*
X102099999Y-67610285D01*
X102099999Y-67610285D02*
X102214284Y-67553142D01*
X102214284Y-67553142D02*
X102328570Y-67553142D01*
X103185713Y-68296000D02*
X103071427Y-68353142D01*
X103071427Y-68353142D02*
X102842856Y-68353142D01*
X102842856Y-68353142D02*
X102728570Y-68296000D01*
X102728570Y-68296000D02*
X102671427Y-68181714D01*
X102671427Y-68181714D02*
X102671427Y-67724571D01*
X102671427Y-67724571D02*
X102728570Y-67610285D01*
X102728570Y-67610285D02*
X102842856Y-67553142D01*
X102842856Y-67553142D02*
X103071427Y-67553142D01*
X103071427Y-67553142D02*
X103185713Y-67610285D01*
X103185713Y-67610285D02*
X103242856Y-67724571D01*
X103242856Y-67724571D02*
X103242856Y-67838857D01*
X103242856Y-67838857D02*
X102671427Y-67953142D01*
X103699998Y-68296000D02*
X103814284Y-68353142D01*
X103814284Y-68353142D02*
X104042855Y-68353142D01*
X104042855Y-68353142D02*
X104157141Y-68296000D01*
X104157141Y-68296000D02*
X104214284Y-68181714D01*
X104214284Y-68181714D02*
X104214284Y-68124571D01*
X104214284Y-68124571D02*
X104157141Y-68010285D01*
X104157141Y-68010285D02*
X104042855Y-67953142D01*
X104042855Y-67953142D02*
X103871427Y-67953142D01*
X103871427Y-67953142D02*
X103757141Y-67896000D01*
X103757141Y-67896000D02*
X103699998Y-67781714D01*
X103699998Y-67781714D02*
X103699998Y-67724571D01*
X103699998Y-67724571D02*
X103757141Y-67610285D01*
X103757141Y-67610285D02*
X103871427Y-67553142D01*
X103871427Y-67553142D02*
X104042855Y-67553142D01*
X104042855Y-67553142D02*
X104157141Y-67610285D01*
X104671427Y-68296000D02*
X104785713Y-68353142D01*
X104785713Y-68353142D02*
X105014284Y-68353142D01*
X105014284Y-68353142D02*
X105128570Y-68296000D01*
X105128570Y-68296000D02*
X105185713Y-68181714D01*
X105185713Y-68181714D02*
X105185713Y-68124571D01*
X105185713Y-68124571D02*
X105128570Y-68010285D01*
X105128570Y-68010285D02*
X105014284Y-67953142D01*
X105014284Y-67953142D02*
X104842856Y-67953142D01*
X104842856Y-67953142D02*
X104728570Y-67896000D01*
X104728570Y-67896000D02*
X104671427Y-67781714D01*
X104671427Y-67781714D02*
X104671427Y-67724571D01*
X104671427Y-67724571D02*
X104728570Y-67610285D01*
X104728570Y-67610285D02*
X104842856Y-67553142D01*
X104842856Y-67553142D02*
X105014284Y-67553142D01*
X105014284Y-67553142D02*
X105128570Y-67610285D01*
D14*
%TO.C,JP101*%
X110500000Y-74950000D02*
X110500000Y-79050000D01*
X108500000Y-74950000D02*
X110500000Y-74950000D01*
X108000000Y-75400000D02*
X108000000Y-76000000D01*
X108300000Y-75700000D02*
X108000000Y-75400000D01*
X108300000Y-75700000D02*
X108000000Y-76000000D01*
X110500000Y-79050000D02*
X108500000Y-79050000D01*
X108500000Y-79050000D02*
X108500000Y-74950000D01*
%TO.C,U103*%
X62040000Y-94530000D02*
X59860000Y-94530000D01*
X59860000Y-94860000D02*
X59860000Y-94530000D01*
X59860000Y-94860000D02*
X57140000Y-94860000D01*
X59860000Y-90140000D02*
X59860000Y-90470000D01*
X57140000Y-94860000D02*
X57140000Y-94530000D01*
X57140000Y-90470000D02*
X57140000Y-90140000D01*
X57140000Y-90140000D02*
X59860000Y-90140000D01*
%TO.C,R103*%
X78227064Y-90235000D02*
X77772936Y-90235000D01*
X78227064Y-88765000D02*
X77772936Y-88765000D01*
%TO.C,C101*%
X97585000Y-41238748D02*
X97585000Y-41761252D01*
X96115000Y-41238748D02*
X96115000Y-41761252D01*
%TO.C,JP101*%
X70500000Y-89050000D02*
X70500000Y-84950000D01*
X72500000Y-89050000D02*
X70500000Y-89050000D01*
X73000000Y-88600000D02*
X73000000Y-88000000D01*
X72700000Y-88300000D02*
X73000000Y-88600000D01*
X72700000Y-88300000D02*
X73000000Y-88000000D01*
X70500000Y-84950000D02*
X72500000Y-84950000D01*
X72500000Y-84950000D02*
X72500000Y-89050000D01*
%TO.C,JP102*%
X98462500Y-64550000D02*
X98462500Y-60450000D01*
X100462500Y-64550000D02*
X98462500Y-64550000D01*
X100962500Y-64100000D02*
X100962500Y-63500000D01*
X100662500Y-63800000D02*
X100962500Y-64100000D01*
X100662500Y-63800000D02*
X100962500Y-63500000D01*
X98462500Y-60450000D02*
X100462500Y-60450000D01*
X100462500Y-60450000D02*
X100462500Y-64550000D01*
%TO.C,U104*%
X65000000Y-49060000D02*
X68450000Y-49060000D01*
X65000000Y-49060000D02*
X63050000Y-49060000D01*
X65000000Y-43940000D02*
X66950000Y-43940000D01*
X65000000Y-43940000D02*
X63050000Y-43940000D01*
%TO.C,U101*%
X94960000Y-95500000D02*
X94960000Y-94000000D01*
X91740000Y-97000000D02*
X91740000Y-94000000D01*
%TO.C,R105*%
X123772936Y-39765000D02*
X124227064Y-39765000D01*
X123772936Y-41235000D02*
X124227064Y-41235000D01*
%TO.C,C103*%
X108261252Y-99235000D02*
X107738748Y-99235000D01*
X108261252Y-97765000D02*
X107738748Y-97765000D01*
%TO.C,C102*%
X103261252Y-32735000D02*
X102738748Y-32735000D01*
X103261252Y-31265000D02*
X102738748Y-31265000D01*
X77738748Y-50265000D02*
X78261252Y-50265000D01*
X77738748Y-51735000D02*
X78261252Y-51735000D01*
%TO.C,C103*%
X72738748Y-91765000D02*
X73261252Y-91765000D01*
X72738748Y-93235000D02*
X73261252Y-93235000D01*
%TO.C,C102*%
X77738748Y-104265000D02*
X78261252Y-104265000D01*
X77738748Y-105735000D02*
X78261252Y-105735000D01*
%TO.C,U104*%
X65000000Y-103060000D02*
X68450000Y-103060000D01*
X65000000Y-103060000D02*
X63050000Y-103060000D01*
X65000000Y-97940000D02*
X66950000Y-97940000D01*
X65000000Y-97940000D02*
X63050000Y-97940000D01*
%TO.C,R101*%
X78227064Y-102235000D02*
X77772936Y-102235000D01*
X78227064Y-100765000D02*
X77772936Y-100765000D01*
%TO.C,R104*%
X119272936Y-66765000D02*
X119727064Y-66765000D01*
X119272936Y-68235000D02*
X119727064Y-68235000D01*
%TO.C,C102*%
X77738748Y-77265000D02*
X78261252Y-77265000D01*
X77738748Y-78735000D02*
X78261252Y-78735000D01*
%TO.C,JP102*%
X82537500Y-99450000D02*
X82537500Y-103550000D01*
X80537500Y-99450000D02*
X82537500Y-99450000D01*
X80037500Y-99900000D02*
X80037500Y-100500000D01*
X80337500Y-100200000D02*
X80037500Y-99900000D01*
X80337500Y-100200000D02*
X80037500Y-100500000D01*
X82537500Y-103550000D02*
X80537500Y-103550000D01*
X80537500Y-103550000D02*
X80537500Y-99450000D01*
%TO.C,U101*%
X86040000Y-68500000D02*
X86040000Y-70000000D01*
X89260000Y-67000000D02*
X89260000Y-70000000D01*
%TO.C,U103*%
X62040000Y-67530000D02*
X59860000Y-67530000D01*
X59860000Y-67860000D02*
X59860000Y-67530000D01*
X59860000Y-67860000D02*
X57140000Y-67860000D01*
X59860000Y-63140000D02*
X59860000Y-63470000D01*
X57140000Y-67860000D02*
X57140000Y-67530000D01*
X57140000Y-63470000D02*
X57140000Y-63140000D01*
X57140000Y-63140000D02*
X59860000Y-63140000D01*
%TO.C,C102*%
X103261252Y-59735000D02*
X102738748Y-59735000D01*
X103261252Y-58265000D02*
X102738748Y-58265000D01*
%TO.C,C101*%
X97585000Y-95238748D02*
X97585000Y-95761252D01*
X96115000Y-95238748D02*
X96115000Y-95761252D01*
%TO.C,R102*%
X102772936Y-97765000D02*
X103227064Y-97765000D01*
X102772936Y-99235000D02*
X103227064Y-99235000D01*
%TO.C,R108*%
X66727064Y-77735000D02*
X66272936Y-77735000D01*
X66727064Y-76265000D02*
X66272936Y-76265000D01*
%TO.C,U104*%
X116000000Y-60940000D02*
X112550000Y-60940000D01*
X116000000Y-60940000D02*
X117950000Y-60940000D01*
X116000000Y-66060000D02*
X114050000Y-66060000D01*
X116000000Y-66060000D02*
X117950000Y-66060000D01*
%TO.C,R107*%
X70765000Y-76227064D02*
X70765000Y-75772936D01*
X72235000Y-76227064D02*
X72235000Y-75772936D01*
%TO.C,U101*%
X86040000Y-41500000D02*
X86040000Y-43000000D01*
X89260000Y-40000000D02*
X89260000Y-43000000D01*
%TO.C,J101*%
X54320000Y-63750000D02*
X54320000Y-58170000D01*
X69680000Y-63750000D02*
X69680000Y-58170000D01*
X54320000Y-58170000D02*
X69680000Y-58170000D01*
%TO.C,C103*%
X108261252Y-72235000D02*
X107738748Y-72235000D01*
X108261252Y-70765000D02*
X107738748Y-70765000D01*
%TO.C,R101*%
X102772936Y-88765000D02*
X103227064Y-88765000D01*
X102772936Y-90235000D02*
X103227064Y-90235000D01*
%TO.C,C103*%
X72738748Y-37765000D02*
X73261252Y-37765000D01*
X72738748Y-39235000D02*
X73261252Y-39235000D01*
%TO.C,R102*%
X102772936Y-70765000D02*
X103227064Y-70765000D01*
X102772936Y-72235000D02*
X103227064Y-72235000D01*
%TO.C,R106*%
X72235000Y-44772936D02*
X72235000Y-45227064D01*
X70765000Y-44772936D02*
X70765000Y-45227064D01*
%TO.C,C102*%
X103261252Y-86735000D02*
X102738748Y-86735000D01*
X103261252Y-85265000D02*
X102738748Y-85265000D01*
%TO.C,C103*%
X108261252Y-45235000D02*
X107738748Y-45235000D01*
X108261252Y-43765000D02*
X107738748Y-43765000D01*
%TO.C,R106*%
X108765000Y-65227064D02*
X108765000Y-64772936D01*
X110235000Y-65227064D02*
X110235000Y-64772936D01*
%TO.C,R104*%
X119272936Y-39765000D02*
X119727064Y-39765000D01*
X119272936Y-41235000D02*
X119727064Y-41235000D01*
%TO.C,U104*%
X116000000Y-87940000D02*
X112550000Y-87940000D01*
X116000000Y-87940000D02*
X117950000Y-87940000D01*
X116000000Y-93060000D02*
X114050000Y-93060000D01*
X116000000Y-93060000D02*
X117950000Y-93060000D01*
%TO.C,J101*%
X126680000Y-46250000D02*
X126680000Y-51830000D01*
X111320000Y-46250000D02*
X111320000Y-51830000D01*
X126680000Y-51830000D02*
X111320000Y-51830000D01*
%TO.C,U103*%
X62040000Y-40530000D02*
X59860000Y-40530000D01*
X59860000Y-40860000D02*
X59860000Y-40530000D01*
X59860000Y-40860000D02*
X57140000Y-40860000D01*
X59860000Y-36140000D02*
X59860000Y-36470000D01*
X57140000Y-40860000D02*
X57140000Y-40530000D01*
X57140000Y-36470000D02*
X57140000Y-36140000D01*
X57140000Y-36140000D02*
X59860000Y-36140000D01*
%TO.C,R107*%
X70765000Y-49227064D02*
X70765000Y-48772936D01*
X72235000Y-49227064D02*
X72235000Y-48772936D01*
%TO.C,R102*%
X102772936Y-43765000D02*
X103227064Y-43765000D01*
X102772936Y-45235000D02*
X103227064Y-45235000D01*
%TO.C,R106*%
X72235000Y-71772936D02*
X72235000Y-72227064D01*
X70765000Y-71772936D02*
X70765000Y-72227064D01*
%TO.C,R103*%
X78227064Y-36235000D02*
X77772936Y-36235000D01*
X78227064Y-34765000D02*
X77772936Y-34765000D01*
%TO.C,R101*%
X102772936Y-61765000D02*
X103227064Y-61765000D01*
X102772936Y-63235000D02*
X103227064Y-63235000D01*
%TO.C,R105*%
X123772936Y-66765000D02*
X124227064Y-66765000D01*
X123772936Y-68235000D02*
X124227064Y-68235000D01*
%TO.C,JP101*%
X70500000Y-35050000D02*
X70500000Y-30950000D01*
X72500000Y-35050000D02*
X70500000Y-35050000D01*
X73000000Y-34600000D02*
X73000000Y-34000000D01*
X72700000Y-34300000D02*
X73000000Y-34600000D01*
X72700000Y-34300000D02*
X73000000Y-34000000D01*
X70500000Y-30950000D02*
X72500000Y-30950000D01*
X72500000Y-30950000D02*
X72500000Y-35050000D01*
%TO.C,J101*%
X126680000Y-100250000D02*
X126680000Y-105830000D01*
X111320000Y-100250000D02*
X111320000Y-105830000D01*
X126680000Y-105830000D02*
X111320000Y-105830000D01*
%TO.C,R105*%
X57227064Y-70235000D02*
X56772936Y-70235000D01*
X57227064Y-68765000D02*
X56772936Y-68765000D01*
%TO.C,JP101*%
X70500000Y-62050000D02*
X70500000Y-57950000D01*
X72500000Y-62050000D02*
X70500000Y-62050000D01*
X73000000Y-61600000D02*
X73000000Y-61000000D01*
X72700000Y-61300000D02*
X73000000Y-61600000D01*
X72700000Y-61300000D02*
X73000000Y-61000000D01*
X70500000Y-57950000D02*
X72500000Y-57950000D01*
X72500000Y-57950000D02*
X72500000Y-62050000D01*
%TO.C,R106*%
X108765000Y-38227064D02*
X108765000Y-37772936D01*
X110235000Y-38227064D02*
X110235000Y-37772936D01*
%TO.C,R103*%
X102772936Y-100765000D02*
X103227064Y-100765000D01*
X102772936Y-102235000D02*
X103227064Y-102235000D01*
%TO.C,R104*%
X61727064Y-43235000D02*
X61272936Y-43235000D01*
X61727064Y-41765000D02*
X61272936Y-41765000D01*
%TO.C,C101*%
X97585000Y-68238748D02*
X97585000Y-68761252D01*
X96115000Y-68238748D02*
X96115000Y-68761252D01*
%TO.C,R107*%
X110235000Y-60772936D02*
X110235000Y-61227064D01*
X108765000Y-60772936D02*
X108765000Y-61227064D01*
%TO.C,U103*%
X118960000Y-42470000D02*
X121140000Y-42470000D01*
X121140000Y-42140000D02*
X121140000Y-42470000D01*
X121140000Y-42140000D02*
X123860000Y-42140000D01*
X121140000Y-46860000D02*
X121140000Y-46530000D01*
X123860000Y-42140000D02*
X123860000Y-42470000D01*
X123860000Y-46530000D02*
X123860000Y-46860000D01*
X123860000Y-46860000D02*
X121140000Y-46860000D01*
%TO.C,C101*%
X83415000Y-68761252D02*
X83415000Y-68238748D01*
X84885000Y-68761252D02*
X84885000Y-68238748D01*
%TO.C,R101*%
X78227064Y-75235000D02*
X77772936Y-75235000D01*
X78227064Y-73765000D02*
X77772936Y-73765000D01*
%TO.C,J101*%
X54320000Y-36750000D02*
X54320000Y-31170000D01*
X69680000Y-36750000D02*
X69680000Y-31170000D01*
X54320000Y-31170000D02*
X69680000Y-31170000D01*
%TO.C,JP102*%
X82537500Y-45450000D02*
X82537500Y-49550000D01*
X80537500Y-45450000D02*
X82537500Y-45450000D01*
X80037500Y-45900000D02*
X80037500Y-46500000D01*
X80337500Y-46200000D02*
X80037500Y-45900000D01*
X80337500Y-46200000D02*
X80037500Y-46500000D01*
X82537500Y-49550000D02*
X80537500Y-49550000D01*
X80537500Y-49550000D02*
X80537500Y-45450000D01*
%TO.C,J101*%
X54320000Y-90750000D02*
X54320000Y-85170000D01*
X69680000Y-90750000D02*
X69680000Y-85170000D01*
X54320000Y-85170000D02*
X69680000Y-85170000D01*
%TO.C,U104*%
X116000000Y-33940000D02*
X112550000Y-33940000D01*
X116000000Y-33940000D02*
X117950000Y-33940000D01*
X116000000Y-39060000D02*
X114050000Y-39060000D01*
X116000000Y-39060000D02*
X117950000Y-39060000D01*
%TO.C,R107*%
X110235000Y-33772936D02*
X110235000Y-34227064D01*
X108765000Y-33772936D02*
X108765000Y-34227064D01*
%TO.C,JP102*%
X98462500Y-37550000D02*
X98462500Y-33450000D01*
X100462500Y-37550000D02*
X98462500Y-37550000D01*
X100962500Y-37100000D02*
X100962500Y-36500000D01*
X100662500Y-36800000D02*
X100962500Y-37100000D01*
X100662500Y-36800000D02*
X100962500Y-36500000D01*
X98462500Y-33450000D02*
X100462500Y-33450000D01*
X100462500Y-33450000D02*
X100462500Y-37550000D01*
%TO.C,R104*%
X61727064Y-97235000D02*
X61272936Y-97235000D01*
X61727064Y-95765000D02*
X61272936Y-95765000D01*
%TO.C,U101*%
X86040000Y-95500000D02*
X86040000Y-97000000D01*
X89260000Y-94000000D02*
X89260000Y-97000000D01*
%TO.C,R101*%
X102772936Y-34765000D02*
X103227064Y-34765000D01*
X102772936Y-36235000D02*
X103227064Y-36235000D01*
%TO.C,R103*%
X102772936Y-46765000D02*
X103227064Y-46765000D01*
X102772936Y-48235000D02*
X103227064Y-48235000D01*
%TO.C,J101*%
X126680000Y-73250000D02*
X126680000Y-78830000D01*
X111320000Y-73250000D02*
X111320000Y-78830000D01*
X126680000Y-78830000D02*
X111320000Y-78830000D01*
%TO.C,R105*%
X123772936Y-93765000D02*
X124227064Y-93765000D01*
X123772936Y-95235000D02*
X124227064Y-95235000D01*
%TO.C,R103*%
X102772936Y-73765000D02*
X103227064Y-73765000D01*
X102772936Y-75235000D02*
X103227064Y-75235000D01*
%TO.C,R102*%
X78227064Y-93235000D02*
X77772936Y-93235000D01*
X78227064Y-91765000D02*
X77772936Y-91765000D01*
%TO.C,JP102*%
X98462500Y-91550000D02*
X98462500Y-87450000D01*
X100462500Y-91550000D02*
X98462500Y-91550000D01*
X100962500Y-91100000D02*
X100962500Y-90500000D01*
X100662500Y-90800000D02*
X100962500Y-91100000D01*
X100662500Y-90800000D02*
X100962500Y-90500000D01*
X98462500Y-87450000D02*
X100462500Y-87450000D01*
X100462500Y-87450000D02*
X100462500Y-91550000D01*
%TO.C,R108*%
X114272936Y-86265000D02*
X114727064Y-86265000D01*
X114272936Y-87735000D02*
X114727064Y-87735000D01*
%TO.C,C103*%
X72738748Y-64765000D02*
X73261252Y-64765000D01*
X72738748Y-66235000D02*
X73261252Y-66235000D01*
%TO.C,R104*%
X119272936Y-93765000D02*
X119727064Y-93765000D01*
X119272936Y-95235000D02*
X119727064Y-95235000D01*
%TO.C,U101*%
X94960000Y-41500000D02*
X94960000Y-40000000D01*
X91740000Y-43000000D02*
X91740000Y-40000000D01*
%TO.C,R101*%
X78227064Y-48235000D02*
X77772936Y-48235000D01*
X78227064Y-46765000D02*
X77772936Y-46765000D01*
%TO.C,C101*%
X83415000Y-41761252D02*
X83415000Y-41238748D01*
X84885000Y-41761252D02*
X84885000Y-41238748D01*
%TO.C,R102*%
X78227064Y-66235000D02*
X77772936Y-66235000D01*
X78227064Y-64765000D02*
X77772936Y-64765000D01*
%TO.C,R106*%
X72235000Y-98772936D02*
X72235000Y-99227064D01*
X70765000Y-98772936D02*
X70765000Y-99227064D01*
%TO.C,C101*%
X83415000Y-95761252D02*
X83415000Y-95238748D01*
X84885000Y-95761252D02*
X84885000Y-95238748D01*
%TO.C,R103*%
X78227064Y-63235000D02*
X77772936Y-63235000D01*
X78227064Y-61765000D02*
X77772936Y-61765000D01*
%TO.C,R107*%
X70765000Y-103227064D02*
X70765000Y-102772936D01*
X72235000Y-103227064D02*
X72235000Y-102772936D01*
%TO.C,R102*%
X78227064Y-39235000D02*
X77772936Y-39235000D01*
X78227064Y-37765000D02*
X77772936Y-37765000D01*
%TO.C,R108*%
X114272936Y-32265000D02*
X114727064Y-32265000D01*
X114272936Y-33735000D02*
X114727064Y-33735000D01*
X66727064Y-104735000D02*
X66272936Y-104735000D01*
X66727064Y-103265000D02*
X66272936Y-103265000D01*
%TO.C,U103*%
X118960000Y-96470000D02*
X121140000Y-96470000D01*
X121140000Y-96140000D02*
X121140000Y-96470000D01*
X121140000Y-96140000D02*
X123860000Y-96140000D01*
X121140000Y-100860000D02*
X121140000Y-100530000D01*
X123860000Y-96140000D02*
X123860000Y-96470000D01*
X123860000Y-100530000D02*
X123860000Y-100860000D01*
X123860000Y-100860000D02*
X121140000Y-100860000D01*
%TO.C,R105*%
X57227064Y-97235000D02*
X56772936Y-97235000D01*
X57227064Y-95765000D02*
X56772936Y-95765000D01*
%TO.C,R108*%
X114272936Y-59265000D02*
X114727064Y-59265000D01*
X114272936Y-60735000D02*
X114727064Y-60735000D01*
%TO.C,JP101*%
X110500000Y-47950000D02*
X110500000Y-52050000D01*
X108500000Y-47950000D02*
X110500000Y-47950000D01*
X108000000Y-48400000D02*
X108000000Y-49000000D01*
X108300000Y-48700000D02*
X108000000Y-48400000D01*
X108300000Y-48700000D02*
X108000000Y-49000000D01*
X110500000Y-52050000D02*
X108500000Y-52050000D01*
X108500000Y-52050000D02*
X108500000Y-47950000D01*
%TO.C,U103*%
X118960000Y-69470000D02*
X121140000Y-69470000D01*
X121140000Y-69140000D02*
X121140000Y-69470000D01*
X121140000Y-69140000D02*
X123860000Y-69140000D01*
X121140000Y-73860000D02*
X121140000Y-73530000D01*
X123860000Y-69140000D02*
X123860000Y-69470000D01*
X123860000Y-73530000D02*
X123860000Y-73860000D01*
X123860000Y-73860000D02*
X121140000Y-73860000D01*
%TO.C,U104*%
X65000000Y-76060000D02*
X68450000Y-76060000D01*
X65000000Y-76060000D02*
X63050000Y-76060000D01*
X65000000Y-70940000D02*
X66950000Y-70940000D01*
X65000000Y-70940000D02*
X63050000Y-70940000D01*
%TO.C,R105*%
X57227064Y-43235000D02*
X56772936Y-43235000D01*
X57227064Y-41765000D02*
X56772936Y-41765000D01*
%TO.C,R107*%
X110235000Y-87772936D02*
X110235000Y-88227064D01*
X108765000Y-87772936D02*
X108765000Y-88227064D01*
%TO.C,R106*%
X108765000Y-92227064D02*
X108765000Y-91772936D01*
X110235000Y-92227064D02*
X110235000Y-91772936D01*
%TO.C,JP101*%
X110500000Y-101950000D02*
X110500000Y-106050000D01*
X108500000Y-101950000D02*
X110500000Y-101950000D01*
X108000000Y-102400000D02*
X108000000Y-103000000D01*
X108300000Y-102700000D02*
X108000000Y-102400000D01*
X108300000Y-102700000D02*
X108000000Y-103000000D01*
X110500000Y-106050000D02*
X108500000Y-106050000D01*
X108500000Y-106050000D02*
X108500000Y-101950000D01*
%TO.C,R104*%
X61727064Y-70235000D02*
X61272936Y-70235000D01*
X61727064Y-68765000D02*
X61272936Y-68765000D01*
%TO.C,JP102*%
X82537500Y-72450000D02*
X82537500Y-76550000D01*
X80537500Y-72450000D02*
X82537500Y-72450000D01*
X80037500Y-72900000D02*
X80037500Y-73500000D01*
X80337500Y-73200000D02*
X80037500Y-72900000D01*
X80337500Y-73200000D02*
X80037500Y-73500000D01*
X82537500Y-76550000D02*
X80537500Y-76550000D01*
X80537500Y-76550000D02*
X80537500Y-72450000D01*
%TO.C,U101*%
X94960000Y-68500000D02*
X94960000Y-67000000D01*
X91740000Y-70000000D02*
X91740000Y-67000000D01*
%TO.C,R108*%
X66727064Y-50735000D02*
X66272936Y-50735000D01*
X66727064Y-49265000D02*
X66272936Y-49265000D01*
%TD*%
M02*
